<svg width="93" height="93" viewBox="0 0 93 93" fill="none" xmlns="http://www.w3.org/2000/svg">
<g clip-path="url(#clip0_124_384)">
<path d="M44.0999 69.6766L45.3067 69.9678L55.3415 27.3735L54.1347 27.0823L44.0999 69.6766Z" fill="#37474F"/>
<path d="M53.3486 29.6813L54.8826 30.0515L55.504 27.4135L53.9701 27.0434L53.3486 29.6813Z" fill="#263238"/>
<path d="M60.9247 28.7215L61.2124 27.5002L48.8352 24.5139L48.5475 25.7352L60.9247 28.7215Z" fill="#37474F"/>
<path d="M48.925 20L48.8368 24.5142L61.2135 27.4995L63.147 23.4317L60.6382 22.8253L60.0556 23.9172L60.3294 22.7509L59.8626 22.6393L59.2763 24.397L59.5354 22.5594L53.7183 21.1569L53.507 22.0553L53.4629 21.0955L51.3658 20.5896L51.0864 21.7782L50.9044 20.478L48.925 20Z" fill="#FF6F00"/>
<path d="M47.3051 70.3177L48.5253 70.0909L40.707 27.0235L39.4868 27.2503L47.3051 70.3177Z" fill="#37474F"/>
<path d="M39.8058 29.9516L41.3568 29.6632L40.8726 26.996L39.3216 27.2843L39.8058 29.9516Z" fill="#263238"/>
<path d="M33.2106 32.6759C33.9237 34.3369 34.8849 36.7307 36.0006 37.7667C36.3277 38.068 37.5775 37.6942 38.366 36.7009L38.2153 32.4025C38.2355 32.7168 38.2833 33.1353 38.3697 33.6542C38.494 34.5673 38.5609 35.4873 38.57 36.4089C38.6307 36.3175 38.6847 36.2218 38.7318 36.1225C39.0791 35.3989 38.4009 32.1662 38.6509 30.1221C38.8898 28.1561 40.0624 27.3619 40.0624 27.3619C40.0624 27.3619 41.3876 27.7766 42.1025 26.9899C42.1025 26.9899 42.9112 26.1026 42.6539 25.0201C42.2716 23.3945 40.5642 22.7714 39.3769 22.3994C38.0021 21.9697 34.1001 23.3573 33.2106 25.9092C32.321 28.4611 32.4993 31.013 33.2106 32.6759Z" fill="#DBDBDB"/>
<path d="M34.8739 37.603L35.1183 37.5733C35.1183 37.5565 35.0614 37.1027 34.1847 35.4659C33.3319 33.8681 32.7474 30.4253 32.8779 29.2535L32.6334 29.2256C32.4993 30.4271 33.0966 33.9518 33.9696 35.5849C34.8077 37.151 34.8721 37.5844 34.8739 37.603Z" fill="#DBDBDB"/>
<path d="M39.4081 35.0548L39.636 34.9674C39.2206 33.8644 38.6711 30.4402 38.82 28.7438C38.9744 27.014 38.888 26.5751 38.8843 26.5583L38.6435 26.6086C38.6435 26.6086 38.7244 27.0513 38.5755 28.7215C38.423 30.4476 38.9835 33.9314 39.4081 35.0548Z" fill="#DBDBDB"/>
<path d="M40.0532 27.3619C39.2409 27.4493 38.1712 27.5479 37.7191 28.344C37.3386 29.1475 37.2449 30.018 37.1107 30.8847C37.0243 31.7459 36.8607 32.6257 36.9876 33.4887C37.1048 34.3462 37.2667 35.1968 37.4728 36.0369C37.3864 35.2725 37.2338 34.2216 37.175 33.4683C37.0978 32.6127 37.2614 31.7664 37.3588 30.9182C37.4801 30.0849 37.5757 29.2033 37.8918 28.4295C38.0554 28.0333 38.4616 27.8548 38.8329 27.7004C39.2292 27.546 39.6399 27.4326 40.0588 27.3619H40.0532Z" fill="#C7C7C7"/>
<path d="M37.8054 22.4329C36.5961 23.0281 35.2194 23.7349 34.567 25.0071C34.2249 25.7796 33.978 26.5917 33.8318 27.4251C33.659 28.5318 33.4403 29.6794 33.6866 30.7917C33.9278 31.8866 34.2725 32.9554 34.7158 33.9835C34.3619 32.9286 34.0801 31.8504 33.8722 30.7564C33.777 30.2154 33.7634 29.6629 33.8318 29.1177C33.9352 28.0136 34.147 26.9226 34.464 25.8609C34.8868 24.1869 36.4123 23.2438 37.8054 22.4273V22.4329Z" fill="#C7C7C7"/>
<path d="M34.453 29.2405C34.3869 32.2574 35.6991 35.1125 37.357 37.5528C37.186 37.2255 37.0133 36.8981 36.8534 36.5633C35.69 34.2588 34.6901 31.8408 34.453 29.2405Z" fill="#C7C7C7"/>
<path d="M42.6539 25.0146C41.5512 24.0176 39.8694 23.415 38.4506 24.0622C37.4489 24.5384 36.3976 25.2582 36.0098 26.3482C35.8876 26.705 35.7978 27.0723 35.7414 27.4456C35.844 27.0856 35.9712 26.7332 36.1219 26.391C36.5538 25.394 37.6088 24.7393 38.5461 24.2892C39.9154 23.6679 41.4666 24.2073 42.6539 25.0146Z" fill="#C7C7C7"/>
<path d="M39.5257 35.4882H60.0151V32.6257H39.5257V35.4882Z" fill="#FF6F00"/>
<path d="M40.6487 35.4882H58.8922L57.9107 69.7327H41.6302L40.6487 35.4882Z" fill="#FF6F00"/>
<path opacity="0.2" d="M41.8581 35.4882L42.8414 69.7327H45.4145L44.5838 35.4882H41.8581Z" fill="white"/>
<path opacity="0.1" d="M58.8922 35.4882L58.8517 36.9148L40.6689 36.2025L40.6487 35.4882H58.8922Z" fill="black"/>
<path opacity="0.1" d="M41.6302 69.7327L41.5916 68.3823L57.9309 69.0147L57.9107 69.7327H41.6302Z" fill="black"/>
<path d="M39.8345 40.4433H59.5428V39.0111H39.8345V40.4433Z" fill="#FF6F00"/>
<path opacity="0.3" d="M39.8345 40.4433H59.5428V39.0111H39.8345V40.4433Z" fill="black"/>
<path d="M28.4907 42.4093H39.8327V40.9771H28.4907V42.4093Z" fill="#FF6F00"/>
<path opacity="0.3" d="M28.4907 42.4093H39.8327V40.9771H28.4907V42.4093Z" fill="black"/>
<path d="M28.4907 55.0889H39.8327V53.6567H28.4907V55.0889Z" fill="#FF6F00"/>
<path opacity="0.3" d="M28.4907 55.0889H39.8327V53.6567H28.4907V55.0889Z" fill="black"/>
<path d="M41.2479 69.7327V39.0129H39.8327V69.7327H41.2479Z" fill="#FF6F00"/>
<path opacity="0.3" d="M41.2479 69.7327V39.0129H39.8327V69.7327H41.2479Z" fill="black"/>
<path d="M28 71.6596H60.3258V69.7327H28V71.6596Z" fill="#FF6F00"/>
<path opacity="0.3" d="M28 71.6596H60.3258V69.7327H28V71.6596Z" fill="black"/>
<path d="M53.7974 74.9072C55.5697 74.9072 57.0064 73.4532 57.0064 71.6596C57.0064 69.8661 55.5697 68.4121 53.7974 68.4121C52.0251 68.4121 50.5883 69.8661 50.5883 71.6596C50.5883 73.4532 52.0251 74.9072 53.7974 74.9072Z" fill="#FF6F00"/>
<path opacity="0.4" d="M53.7974 74.9072C55.5697 74.9072 57.0064 73.4532 57.0064 71.6596C57.0064 69.8661 55.5697 68.4121 53.7974 68.4121C52.0251 68.4121 50.5883 69.8661 50.5883 71.6596C50.5883 73.4532 52.0251 74.9072 53.7974 74.9072Z" fill="black"/>
<path opacity="0.4" d="M54.2035 73.3466C55.1209 73.1169 55.6805 72.1781 55.4535 71.2497C55.2265 70.3213 54.2988 69.755 53.3814 69.9847C52.4641 70.2145 51.9044 71.1533 52.1315 72.0817C52.3585 73.01 53.2862 73.5764 54.2035 73.3466Z" fill="black"/>
<path d="M32.3522 74.9072C34.1245 74.9072 35.5613 73.4532 35.5613 71.6596C35.5613 69.8661 34.1245 68.4121 32.3522 68.4121C30.5799 68.4121 29.1432 69.8661 29.1432 71.6596C29.1432 73.4532 30.5799 74.9072 32.3522 74.9072Z" fill="#FF6F00"/>
<path opacity="0.4" d="M32.3522 74.9072C34.1245 74.9072 35.5613 73.4532 35.5613 71.6596C35.5613 69.8661 34.1245 68.4121 32.3522 68.4121C30.5799 68.4121 29.1432 69.8661 29.1432 71.6596C29.1432 73.4532 30.5799 74.9072 32.3522 74.9072Z" fill="black"/>
<path opacity="0.4" d="M33.5623 72.8856C34.2305 72.2094 34.2305 71.113 33.5623 70.4367C32.8941 69.7604 31.8106 69.7604 31.1424 70.4367C30.4742 71.113 30.4742 72.2094 31.1424 72.8856C31.8106 73.5619 32.8941 73.5619 33.5623 72.8856Z" fill="black"/>
<path d="M30.6044 38.0773C30.5522 38.0773 30.5022 38.0983 30.4653 38.1356C30.4284 38.173 30.4077 38.2236 30.4077 38.2764V40.2312H30.801V38.2764C30.801 38.2236 30.7803 38.173 30.7434 38.1356C30.7066 38.0983 30.6565 38.0773 30.6044 38.0773Z" fill="#EBEBEB"/>
<path d="M31.0749 38.0773C31.0227 38.0773 30.9727 38.0983 30.9358 38.1356C30.8989 38.173 30.8782 38.2236 30.8782 38.2764V40.2312H31.2715V38.2764C31.2715 38.2236 31.2508 38.173 31.2139 38.1356C31.177 38.0983 31.127 38.0773 31.0749 38.0773Z" fill="#EBEBEB"/>
<path d="M31.5454 38.0773C31.4932 38.0773 31.4432 38.0983 31.4063 38.1356C31.3694 38.173 31.3487 38.2236 31.3487 38.2764V40.2312H31.742V38.2764C31.742 38.2236 31.7213 38.173 31.6844 38.1356C31.6476 38.0983 31.5975 38.0773 31.5454 38.0773Z" fill="#EBEBEB"/>
<path d="M32.0141 38.0773C31.9619 38.0773 31.9119 38.0983 31.875 38.1356C31.8381 38.173 31.8174 38.2236 31.8174 38.2764V40.2312H32.2107V38.2764C32.2107 38.2236 32.19 38.173 32.1531 38.1356C32.1163 38.0983 32.0662 38.0773 32.0141 38.0773Z" fill="#EBEBEB"/>
<path d="M32.4846 38.0773C32.4324 38.0773 32.3824 38.0983 32.3455 38.1356C32.3087 38.173 32.2879 38.2236 32.2879 38.2764V40.2312H32.6813V38.2764C32.6813 38.2236 32.6605 38.173 32.6237 38.1356C32.5868 38.0983 32.5368 38.0773 32.4846 38.0773Z" fill="#EBEBEB"/>
<path d="M32.9551 38.0773C32.9029 38.0773 32.8529 38.0983 32.816 38.1356C32.7791 38.173 32.7584 38.2236 32.7584 38.2764V40.2312H33.1517V38.2764C33.1517 38.2236 33.131 38.173 33.0941 38.1356C33.0573 38.0983 33.0072 38.0773 32.9551 38.0773Z" fill="#EBEBEB"/>
<path d="M33.4256 38.0773C33.3734 38.0773 33.3234 38.0983 33.2865 38.1356C33.2497 38.173 33.2289 38.2236 33.2289 38.2764V40.2312H33.6204V38.2764C33.6204 38.2239 33.6 38.1736 33.5635 38.1363C33.527 38.099 33.4774 38.0778 33.4256 38.0773Z" fill="#EBEBEB"/>
<path d="M33.8943 38.0773C33.8421 38.0773 33.7921 38.0983 33.7552 38.1356C33.7183 38.173 33.6976 38.2236 33.6976 38.2764V40.2312H34.0909V38.2764C34.0909 38.2236 34.0702 38.173 34.0334 38.1356C33.9965 38.0983 33.9464 38.0773 33.8943 38.0773Z" fill="#EBEBEB"/>
<path d="M34.3648 38.0773C34.3133 38.0783 34.2642 38.0997 34.2281 38.1369C34.192 38.1741 34.1718 38.2242 34.1718 38.2764V40.2312H34.5651V38.2764C34.5651 38.2499 34.5599 38.2237 34.5498 38.1993C34.5397 38.1749 34.5249 38.1528 34.5062 38.1343C34.4876 38.1158 34.4655 38.1012 34.4412 38.0914C34.4169 38.0816 34.3909 38.0768 34.3648 38.0773Z" fill="#EBEBEB"/>
<path d="M34.8353 38.0773C34.7831 38.0773 34.7331 38.0983 34.6962 38.1356C34.6594 38.173 34.6386 38.2236 34.6386 38.2764V40.2312H35.032V38.2764C35.032 38.2236 35.0112 38.173 34.9744 38.1356C34.9375 38.0983 34.8875 38.0773 34.8353 38.0773Z" fill="#EBEBEB"/>
<path d="M35.3058 38.0773C35.2799 38.0771 35.2542 38.0821 35.2303 38.092C35.2063 38.1019 35.1845 38.1165 35.1662 38.1351C35.1479 38.1536 35.1334 38.1756 35.1236 38.1999C35.1138 38.2242 35.1089 38.2502 35.1092 38.2764V40.2312H35.5007V38.2764C35.5009 38.2503 35.496 38.2245 35.4864 38.2003C35.4767 38.1762 35.4624 38.1542 35.4442 38.1357C35.4261 38.1172 35.4046 38.1025 35.3808 38.0925C35.3571 38.0825 35.3316 38.0773 35.3058 38.0773Z" fill="#EBEBEB"/>
<path d="M35.7745 38.0773C35.7224 38.0773 35.6723 38.0983 35.6355 38.1356C35.5986 38.173 35.5779 38.2236 35.5779 38.2764V40.2312H35.9712V38.2764C35.9712 38.2236 35.9505 38.173 35.9136 38.1356C35.8767 38.0983 35.8267 38.0773 35.7745 38.0773Z" fill="#EBEBEB"/>
<path d="M36.245 38.0773C36.1928 38.0773 36.1428 38.0983 36.1059 38.1356C36.0691 38.173 36.0483 38.2236 36.0483 38.2764V40.2312H36.4417V38.2764C36.4417 38.2236 36.4209 38.173 36.3841 38.1356C36.3472 38.0983 36.2972 38.0773 36.245 38.0773Z" fill="#EBEBEB"/>
<path d="M36.7302 39.4854H30.1651V40.9771H36.7302V39.4854Z" fill="#FF6F00"/>
<path d="M35.8205 45.2514H37.6382V43.038H35.8205V45.2514Z" fill="#FF6F00"/>
<path d="M33.5065 53.6567H37.3368C37.5472 53.6557 37.7487 53.5704 37.8971 53.4195C38.0456 53.2686 38.1289 53.0643 38.1289 52.8513V45.2253C38.1289 45.0664 38.0824 44.911 37.9955 44.7786C37.9085 44.6463 37.7848 44.5429 37.64 44.4813C37.5446 44.4383 37.4412 44.4167 37.3368 44.4181H36.155C36.0429 44.419 35.9311 44.4283 35.8205 44.446C35.4 44.5123 35.0095 44.7068 34.7011 45.0036C34.3927 45.3004 34.1812 45.6853 34.0946 46.107L32.7254 52.6839C32.701 52.8015 32.7029 52.923 32.7309 53.0397C32.7588 53.1564 32.8122 53.2654 32.887 53.3586C32.9619 53.4518 33.0563 53.5269 33.1635 53.5785C33.2706 53.63 33.3878 53.6568 33.5065 53.6567ZM35.5282 47.3327L34.9603 49.959C34.9273 50.1053 34.8389 50.2326 34.7142 50.3136C34.5894 50.3947 34.4383 50.423 34.2931 50.3924C34.2215 50.3772 34.1536 50.3477 34.0933 50.3057C34.0331 50.2637 33.9817 50.21 33.9422 50.1476C33.9027 50.0853 33.8758 50.0156 33.8632 49.9427C33.8505 49.8698 33.8524 49.795 33.8686 49.7228L34.4438 47.0909C34.47 46.9656 34.538 46.8531 34.6364 46.7725C34.7348 46.6919 34.8576 46.648 34.9842 46.6482C35.025 46.648 35.0657 46.6524 35.1055 46.6612C35.1766 46.6773 35.2439 46.7074 35.3035 46.7499C35.3631 46.7924 35.4137 46.8465 35.4525 46.9089C35.4913 46.9713 35.5175 47.0409 35.5295 47.1137C35.5416 47.1864 35.5393 47.2609 35.5227 47.3327H35.5282Z" fill="#37474F"/>
<path d="M37.0813 45.508H36.3773C36.3091 45.5075 36.2418 45.5231 36.1806 45.5537C36.1195 45.5843 36.0663 45.629 36.0254 45.6842C35.9844 45.7394 35.9569 45.8035 35.9449 45.8714C35.9329 45.9394 35.9369 46.0092 35.9564 46.0753C36.0842 46.5179 36.1025 46.9855 36.0098 47.4369C35.7745 48.7947 35.4473 50.4835 35.3389 50.7049C35.2488 50.8909 34.8188 51.235 34.1553 51.0508C34.0983 51.0343 34.0386 51.0295 33.9798 51.0367C33.921 51.0439 33.8641 51.063 33.8127 51.0928C33.7613 51.1227 33.7163 51.1626 33.6805 51.2104C33.6446 51.2581 33.6186 51.3126 33.6039 51.3708L33.455 51.992C33.4395 52.0572 33.4387 52.125 33.4528 52.1905C33.4668 52.256 33.4954 52.3175 33.5362 52.3702C33.577 52.423 33.6291 52.4658 33.6886 52.4953C33.7481 52.5248 33.8133 52.5403 33.8796 52.5407H37.0758C37.1923 52.5407 37.304 52.4939 37.3864 52.4105C37.4687 52.3271 37.515 52.2141 37.515 52.0962V45.9582C37.5158 45.8998 37.5051 45.8418 37.4837 45.7876C37.4623 45.7334 37.4306 45.684 37.3903 45.6422C37.35 45.6004 37.302 45.567 37.249 45.544C37.1959 45.521 37.139 45.5088 37.0813 45.508Z" fill="white"/>
<path d="M33.262 53.6567C33.262 53.6567 34.374 50.6249 33.9311 49.1573C33.6351 48.1734 32.174 47.5168 32.174 46.4734V45.3351H30.9095C30.9095 45.3351 28.715 49.9702 30.5419 53.6567H33.262Z" fill="#FF6F00"/>
<path d="M30.9609 45.9135H32.3651C32.4128 45.9135 32.4515 45.8744 32.4515 45.8261V45.6159C32.4515 45.5676 32.4128 45.5285 32.3651 45.5285H30.9609C30.9132 45.5285 30.8745 45.5676 30.8745 45.6159V45.8261C30.8745 45.8744 30.9132 45.9135 30.9609 45.9135Z" fill="#FF6F00"/>
<path d="M30.9609 46.2967H32.3651C32.4128 46.2967 32.4515 46.2576 32.4515 46.2093V45.9991C32.4515 45.9508 32.4128 45.9117 32.3651 45.9117H30.9609C30.9132 45.9117 30.8745 45.9508 30.8745 45.9991V46.2093C30.8745 46.2576 30.9132 46.2967 30.9609 46.2967Z" fill="#FF6F00"/>
<path d="M30.9609 46.6798H32.3651C32.4128 46.6798 32.4515 46.6407 32.4515 46.5924V46.3822C32.4515 46.334 32.4128 46.2948 32.3651 46.2948H30.9609C30.9132 46.2948 30.8745 46.334 30.8745 46.3822V46.5924C30.8745 46.6407 30.9132 46.6798 30.9609 46.6798Z" fill="#FF6F00"/>
<path d="M33.0691 43.6759C32.9463 43.8415 32.8816 44.0437 32.8853 44.2507C32.9128 44.5427 33.0452 44.8087 33.001 44.8347C32.8794 44.776 32.7724 44.6901 32.6884 44.5834C32.6043 44.4768 32.5453 44.3522 32.5158 44.2191C32.4737 44.0385 32.4859 43.8494 32.5508 43.6759H33.0691Z" fill="#263238"/>
<path d="M30.7845 45.1286V44.3418C30.7679 44.2405 30.7163 44.1484 30.6389 44.0819C30.5615 44.0155 30.4633 43.9791 30.3618 43.9791C29.8949 43.9791 29.327 44.5371 29.3013 44.3511C29.2755 44.1651 29.5917 42.7366 30.6963 42.7366H33.3061V43.6778H32.775C32.6574 43.6778 32.2714 43.7503 32.2714 44.3251V45.1305L30.7845 45.1286Z" fill="#DBDBDB"/>
<path d="M30.7183 45.495H32.3375C32.3873 45.495 32.4276 45.4542 32.4276 45.4039V44.7343C32.4276 44.684 32.3873 44.6431 32.3375 44.6431H30.7183C30.6686 44.6431 30.6283 44.684 30.6283 44.7343V45.4039C30.6283 45.4542 30.6686 45.495 30.7183 45.495Z" fill="#263238"/>
<path d="M33.3062 42.6046V43.8061L33.7932 43.7001V42.7106L33.3062 42.6046Z" fill="#FF6F00"/>
<path d="M31.5233 47.3123C30.7294 47.3123 30.2607 48.4562 30.2607 50.0093C30.2641 50.7865 30.3548 51.5609 30.5309 52.3175C30.5578 52.4336 30.6228 52.537 30.7153 52.611C30.8077 52.6849 30.9221 52.7251 31.04 52.7249H32.7327C32.8477 52.7252 32.9596 52.6871 33.051 52.6164C33.1424 52.5458 33.2082 52.4466 33.2382 52.3343C33.4495 51.5326 33.8483 49.7303 33.3631 49.0328C32.7143 48.1028 32.1593 47.8833 31.924 47.3123H31.5233Z" fill="white"/>
<path d="M78.6052 65.0609L78.8607 63.9282L79.1162 65.0609L80.2373 65.3381L79.1125 65.5501L78.8607 66.7498L78.6089 65.5501L77.4841 65.3399L78.6052 65.0609ZM35.4135 51.6689L36.5383 51.8791L36.7901 53.0807L37.0401 51.8791L38.1649 51.6689L37.0456 51.3918L36.7901 50.2591L36.5328 51.3918L35.4135 51.6689ZM97.9165 60.7104L99.0413 60.9206L99.2931 62.1203L99.5449 60.9206L100.67 60.7104L99.5486 60.4333L99.2931 59.2987L99.0376 60.4333L97.9165 60.7104ZM57.2483 85.2401L58.3731 85.4503L58.6231 86.6518L58.8749 85.4503L59.9997 85.2401L58.8804 84.9629L58.6304 83.8302L58.375 84.9629L57.2483 85.2401ZM76.067 62.2672L76.6956 62.3844L76.8353 63.0559L76.9768 62.3844L77.6054 62.2672L76.9786 62.111L76.8353 61.4786L76.6919 62.111L76.067 62.2672ZM41.6864 43.8532L42.315 43.9704L42.4565 44.64L42.5962 43.9704L43.2248 43.8514L42.598 43.697L42.4565 43.0646L42.3132 43.697L41.6864 43.8532ZM64.8022 85.7813L65.4308 85.8985L65.5705 86.57L65.712 85.8985L66.3406 85.7813L65.7139 85.6251L65.5705 84.9927L65.4272 85.6251L64.8022 85.7813ZM74.2144 81.9683L74.8429 82.0855L74.9845 82.757L75.1241 82.0855L75.7527 81.9683L75.1278 81.8121L74.9845 81.1797L74.8411 81.8121L74.2144 81.9683ZM102.048 51.9665L102.677 52.0837L102.818 52.7552L102.958 52.0837L103.587 51.9665L102.962 51.8122L102.818 51.1779L102.675 51.8122L102.048 51.9665ZM79.4874 60.7513C79.5399 60.7464 79.5886 60.7218 79.624 60.6824C79.6595 60.643 79.6791 60.5916 79.6791 60.5383C79.6791 60.4851 79.6595 60.4337 79.624 60.3943C79.5886 60.3549 79.5399 60.3303 79.4874 60.3254C79.435 60.3303 79.3863 60.3549 79.3509 60.3943C79.3154 60.4337 79.2958 60.4851 79.2958 60.5383C79.2958 60.5916 79.3154 60.643 79.3509 60.6824C79.3863 60.7218 79.435 60.7464 79.4874 60.7513ZM99.6166 70.84C99.669 70.835 99.7177 70.8104 99.7532 70.771C99.7886 70.7316 99.8083 70.6803 99.8083 70.627C99.8083 70.5737 99.7886 70.5223 99.7532 70.483C99.7177 70.4436 99.669 70.419 99.6166 70.414C99.5642 70.419 99.5155 70.4436 99.48 70.483C99.4446 70.5223 99.4249 70.5737 99.4249 70.627C99.4249 70.6803 99.4446 70.7316 99.48 70.771C99.5155 70.8104 99.5642 70.835 99.6166 70.84ZM34.4615 52.9263C34.5139 52.9213 34.5626 52.8968 34.598 52.8574C34.6335 52.818 34.6531 52.7666 34.6531 52.7133C34.6531 52.66 34.6335 52.6087 34.598 52.5693C34.5626 52.5299 34.5139 52.5053 34.4615 52.5004C34.409 52.5053 34.3603 52.5299 34.3249 52.5693C34.2894 52.6087 34.2698 52.66 34.2698 52.7133C34.2698 52.7666 34.2894 52.818 34.3249 52.8574C34.3603 52.8968 34.409 52.9213 34.4615 52.9263ZM41.9805 41.651C42.0329 41.646 42.0816 41.6214 42.1171 41.582C42.1525 41.5426 42.1722 41.4913 42.1722 41.438C42.1722 41.3847 42.1525 41.3334 42.1171 41.294C42.0816 41.2546 42.0329 41.23 41.9805 41.225C41.9281 41.23 41.8794 41.2546 41.8439 41.294C41.8085 41.3334 41.7888 41.3847 41.7888 41.438C41.7888 41.4913 41.8085 41.5426 41.8439 41.582C41.8794 41.6214 41.9281 41.646 41.9805 41.651ZM60.1008 81.9572C60.1403 81.9572 60.1781 81.9413 60.2061 81.9131C60.234 81.8848 60.2497 81.8465 60.2497 81.8065C60.2497 81.7666 60.234 81.7282 60.2061 81.7C60.1781 81.6717 60.1403 81.6559 60.1008 81.6559C60.0613 81.6559 60.0234 81.6717 59.9955 81.7C59.9676 81.7282 59.9519 81.7666 59.9519 81.8065C59.9519 81.8465 59.9676 81.8848 59.9955 81.9131C60.0234 81.9413 60.0613 81.9572 60.1008 81.9572ZM63.4955 87.1373C63.535 87.1373 63.5728 87.1214 63.6007 87.0932C63.6287 87.0649 63.6443 87.0266 63.6443 86.9866C63.6443 86.9467 63.6287 86.9083 63.6007 86.8801C63.5728 86.8518 63.535 86.836 63.4955 86.836C63.456 86.8355 63.4179 86.8509 63.3897 86.8788C63.3614 86.9067 63.3452 86.9448 63.3448 86.9848C63.3443 87.0247 63.3595 87.0632 63.3871 87.0918C63.4146 87.1204 63.4523 87.1368 63.4918 87.1373H63.4955ZM77.6366 82.7588C77.6761 82.7588 77.714 82.743 77.7419 82.7147C77.7698 82.6865 77.7855 82.6481 77.7855 82.6082C77.7855 82.5682 77.7698 82.5299 77.7419 82.5016C77.714 82.4734 77.6761 82.4575 77.6366 82.4575C77.5971 82.457 77.5591 82.4724 77.5308 82.5003C77.5025 82.5282 77.4864 82.5664 77.4859 82.6063C77.4854 82.6463 77.5006 82.6848 77.5282 82.7134C77.5558 82.742 77.5935 82.7583 77.6329 82.7588H77.6366ZM76.839 73.4105C76.8784 73.4105 76.9163 73.3946 76.9442 73.3663C76.9721 73.3381 76.9878 73.2998 76.9878 73.2598C76.9878 73.2199 76.9721 73.1815 76.9442 73.1533C76.9163 73.125 76.8784 73.1092 76.839 73.1092C76.7995 73.1087 76.7614 73.1241 76.7331 73.152C76.7049 73.1799 76.6887 73.218 76.6882 73.258C76.6878 73.2979 76.703 73.3364 76.7305 73.365C76.7581 73.3936 76.7958 73.41 76.8353 73.4105H76.839ZM101.33 50.4302C101.369 50.4302 101.407 50.4143 101.435 50.3861C101.463 50.3578 101.478 50.3195 101.478 50.2795C101.478 50.2396 101.463 50.2012 101.435 50.173C101.407 50.1447 101.369 50.1289 101.33 50.1289C101.29 50.1289 101.252 50.1447 101.224 50.173C101.196 50.2012 101.181 50.2396 101.181 50.2795C101.181 50.3195 101.196 50.3578 101.224 50.3861C101.252 50.4143 101.29 50.4302 101.33 50.4302ZM39.2658 53.2369C39.3053 53.2369 39.3432 53.221 39.3711 53.1928C39.399 53.1645 39.4147 53.1262 39.4147 53.0863C39.4147 53.0463 39.399 53.008 39.3711 52.9797C39.3432 52.9515 39.3053 52.9356 39.2658 52.9356C39.2264 52.9356 39.1885 52.9515 39.1606 52.9797C39.1327 53.008 39.117 53.0463 39.117 53.0863C39.117 53.1262 39.1327 53.1645 39.1606 53.1928C39.1885 53.221 39.2264 53.2369 39.2658 53.2369Z" fill="#FF6F00"/>
<path opacity="0.8" d="M78.6052 65.0609L78.8607 63.9282L79.1162 65.0609L80.2373 65.3381L79.1125 65.5501L78.8607 66.7498L78.6089 65.5501L77.4841 65.3399L78.6052 65.0609ZM35.4135 51.6689L36.5383 51.8791L36.7901 53.0807L37.0401 51.8791L38.1649 51.6689L37.0456 51.3918L36.7901 50.2591L36.5328 51.3918L35.4135 51.6689ZM97.9165 60.7104L99.0413 60.9206L99.2931 62.1203L99.5449 60.9206L100.67 60.7104L99.5486 60.4333L99.2931 59.2987L99.0376 60.4333L97.9165 60.7104ZM57.2483 85.2401L58.3731 85.4503L58.6231 86.6518L58.8749 85.4503L59.9997 85.2401L58.8804 84.9629L58.6304 83.8302L58.375 84.9629L57.2483 85.2401ZM76.067 62.2672L76.6956 62.3844L76.8353 63.0559L76.9768 62.3844L77.6054 62.2672L76.9786 62.111L76.8353 61.4786L76.6919 62.111L76.067 62.2672ZM41.6864 43.8532L42.315 43.9704L42.4565 44.64L42.5962 43.9704L43.2248 43.8514L42.598 43.697L42.4565 43.0646L42.3132 43.697L41.6864 43.8532ZM64.8022 85.7813L65.4308 85.8985L65.5705 86.57L65.712 85.8985L66.3406 85.7813L65.7139 85.6251L65.5705 84.9927L65.4272 85.6251L64.8022 85.7813ZM74.2144 81.9683L74.8429 82.0855L74.9845 82.757L75.1241 82.0855L75.7527 81.9683L75.1278 81.8121L74.9845 81.1797L74.8411 81.8121L74.2144 81.9683ZM102.048 51.9665L102.677 52.0837L102.818 52.7552L102.958 52.0837L103.587 51.9665L102.962 51.8122L102.818 51.1779L102.675 51.8122L102.048 51.9665ZM79.4874 60.7513C79.5399 60.7464 79.5886 60.7218 79.624 60.6824C79.6595 60.643 79.6791 60.5916 79.6791 60.5383C79.6791 60.4851 79.6595 60.4337 79.624 60.3943C79.5886 60.3549 79.5399 60.3303 79.4874 60.3254C79.435 60.3303 79.3863 60.3549 79.3509 60.3943C79.3154 60.4337 79.2958 60.4851 79.2958 60.5383C79.2958 60.5916 79.3154 60.643 79.3509 60.6824C79.3863 60.7218 79.435 60.7464 79.4874 60.7513ZM99.6166 70.84C99.669 70.835 99.7177 70.8104 99.7532 70.771C99.7886 70.7316 99.8083 70.6803 99.8083 70.627C99.8083 70.5737 99.7886 70.5223 99.7532 70.483C99.7177 70.4436 99.669 70.419 99.6166 70.414C99.5642 70.419 99.5155 70.4436 99.48 70.483C99.4446 70.5223 99.4249 70.5737 99.4249 70.627C99.4249 70.6803 99.4446 70.7316 99.48 70.771C99.5155 70.8104 99.5642 70.835 99.6166 70.84ZM34.4615 52.9263C34.5139 52.9213 34.5626 52.8968 34.598 52.8574C34.6335 52.818 34.6531 52.7666 34.6531 52.7133C34.6531 52.66 34.6335 52.6087 34.598 52.5693C34.5626 52.5299 34.5139 52.5053 34.4615 52.5004C34.409 52.5053 34.3603 52.5299 34.3249 52.5693C34.2894 52.6087 34.2698 52.66 34.2698 52.7133C34.2698 52.7666 34.2894 52.818 34.3249 52.8574C34.3603 52.8968 34.409 52.9213 34.4615 52.9263ZM41.9805 41.651C42.0329 41.646 42.0816 41.6214 42.1171 41.582C42.1525 41.5426 42.1722 41.4913 42.1722 41.438C42.1722 41.3847 42.1525 41.3334 42.1171 41.294C42.0816 41.2546 42.0329 41.23 41.9805 41.225C41.9281 41.23 41.8794 41.2546 41.8439 41.294C41.8085 41.3334 41.7888 41.3847 41.7888 41.438C41.7888 41.4913 41.8085 41.5426 41.8439 41.582C41.8794 41.6214 41.9281 41.646 41.9805 41.651ZM60.1008 81.9572C60.1403 81.9572 60.1781 81.9413 60.2061 81.9131C60.234 81.8848 60.2497 81.8465 60.2497 81.8065C60.2497 81.7666 60.234 81.7282 60.2061 81.7C60.1781 81.6717 60.1403 81.6559 60.1008 81.6559C60.0613 81.6559 60.0234 81.6717 59.9955 81.7C59.9676 81.7282 59.9519 81.7666 59.9519 81.8065C59.9519 81.8465 59.9676 81.8848 59.9955 81.9131C60.0234 81.9413 60.0613 81.9572 60.1008 81.9572ZM63.4955 87.1373C63.535 87.1373 63.5728 87.1214 63.6007 87.0932C63.6287 87.0649 63.6443 87.0266 63.6443 86.9866C63.6443 86.9467 63.6287 86.9083 63.6007 86.8801C63.5728 86.8518 63.535 86.836 63.4955 86.836C63.456 86.8355 63.4179 86.8509 63.3897 86.8788C63.3614 86.9067 63.3452 86.9448 63.3448 86.9848C63.3443 87.0247 63.3595 87.0632 63.3871 87.0918C63.4146 87.1204 63.4523 87.1368 63.4918 87.1373H63.4955ZM77.6366 82.7588C77.6761 82.7588 77.714 82.743 77.7419 82.7147C77.7698 82.6865 77.7855 82.6481 77.7855 82.6082C77.7855 82.5682 77.7698 82.5299 77.7419 82.5016C77.714 82.4734 77.6761 82.4575 77.6366 82.4575C77.5971 82.457 77.5591 82.4724 77.5308 82.5003C77.5025 82.5282 77.4864 82.5664 77.4859 82.6063C77.4854 82.6463 77.5006 82.6848 77.5282 82.7134C77.5558 82.742 77.5935 82.7583 77.6329 82.7588H77.6366ZM76.839 73.4105C76.8784 73.4105 76.9163 73.3946 76.9442 73.3663C76.9721 73.3381 76.9878 73.2998 76.9878 73.2598C76.9878 73.2199 76.9721 73.1815 76.9442 73.1533C76.9163 73.125 76.8784 73.1092 76.839 73.1092C76.7995 73.1087 76.7614 73.1241 76.7331 73.152C76.7049 73.1799 76.6887 73.218 76.6882 73.258C76.6878 73.2979 76.703 73.3364 76.7305 73.365C76.7581 73.3936 76.7958 73.41 76.8353 73.4105H76.839ZM101.33 50.4302C101.369 50.4302 101.407 50.4143 101.435 50.3861C101.463 50.3578 101.478 50.3195 101.478 50.2795C101.478 50.2396 101.463 50.2012 101.435 50.173C101.407 50.1447 101.369 50.1289 101.33 50.1289C101.29 50.1289 101.252 50.1447 101.224 50.173C101.196 50.2012 101.181 50.2396 101.181 50.2795C101.181 50.3195 101.196 50.3578 101.224 50.3861C101.252 50.4143 101.29 50.4302 101.33 50.4302ZM39.2658 53.2369C39.3053 53.2369 39.3432 53.221 39.3711 53.1928C39.399 53.1645 39.4147 53.1262 39.4147 53.0863C39.4147 53.0463 39.399 53.008 39.3711 52.9797C39.3432 52.9515 39.3053 52.9356 39.2658 52.9356C39.2264 52.9356 39.1885 52.9515 39.1606 52.9797C39.1327 53.008 39.117 53.0463 39.117 53.0863C39.117 53.1262 39.1327 53.1645 39.1606 53.1928C39.1885 53.221 39.2264 53.2369 39.2658 53.2369Z" fill="white"/>
</g>
<defs>
<clipPath id="clip0_124_384">
<rect width="93" height="93" fill="white"/>
</clipPath>
</defs>
</svg>
