<svg width="95" height="95" viewBox="0 0 95 95" fill="none" xmlns="http://www.w3.org/2000/svg">
<path d="M73.5737 56.7321V16.625L72.6769 16.1025L61.997 22.2718L61.5562 22.5321L53.1126 37.6789L23.7405 54.6497V84.1396L24.6354 84.9756L73.5737 56.7321Z" fill="#F0F0F0"/>
<path d="M67.3455 56.2039L73.5775 52.6072L74.0107 52.858V56.9658L67.7806 60.5625L67.3455 60.3136V56.2039Z" fill="#FF6F00"/>
<path opacity="0.1" d="M67.3455 56.2039L73.5775 52.6072L74.0107 52.858V56.9658L67.7806 60.5625L67.3455 60.3136V56.2039Z" fill="black"/>
<path d="M74.0107 56.9658L67.7806 60.5625V56.4547L74.0107 52.858V56.9658Z" fill="#FF6F00"/>
<path opacity="0.25" d="M74.0107 56.9658L67.7806 60.5625V56.4547L74.0107 52.858V56.9658Z" fill="white"/>
<path opacity="0.1" d="M67.3455 56.2039L67.7806 56.4547V60.5625L67.3455 60.3136V56.2039Z" fill="black"/>
<path d="M60.23 60.3136L66.4601 56.715L66.8933 56.9658V61.0755L60.6632 64.6722L60.23 64.4214V60.3136Z" fill="#FF6F00"/>
<path opacity="0.1" d="M60.23 60.3136L66.4601 56.715L66.8933 56.9658V61.0755L60.6632 64.6722L60.23 64.4214V60.3136Z" fill="black"/>
<path d="M66.8933 61.0755L60.6632 64.6722V60.5625L66.8933 56.9658V61.0755Z" fill="#FF6F00"/>
<path opacity="0.25" d="M66.8933 61.0755L60.6632 64.6722V60.5625L66.8933 56.9658V61.0755Z" fill="white"/>
<path opacity="0.1" d="M60.23 60.3136L60.6632 60.5625V64.6722L60.23 64.4214V60.3136Z" fill="black"/>
<path d="M53.1126 64.4214L59.3427 60.8247L59.7778 61.0755V65.1833L53.5477 68.7819L53.1126 68.5311V64.4214Z" fill="#FF6F00"/>
<path opacity="0.1" d="M53.1126 64.4214L59.3427 60.8247L59.7778 61.0755V65.1833L53.5477 68.7819L53.1126 68.5311V64.4214Z" fill="black"/>
<path d="M59.7778 65.1833L53.5477 68.7819V64.6722L59.7778 61.0755V65.1833Z" fill="#FF6F00"/>
<path opacity="0.25" d="M59.7778 65.1833L53.5477 68.7819V64.6722L59.7778 61.0755V65.1833Z" fill="white"/>
<path opacity="0.1" d="M53.1126 64.4214L53.5477 64.6722V68.7819L53.1126 68.5311V64.4214Z" fill="black"/>
<path d="M45.9952 68.5311L52.2253 64.9325L52.6604 65.1833V69.293L46.4303 72.8897L45.9952 72.6389V68.5311Z" fill="#FF6F00"/>
<path opacity="0.1" d="M45.9952 68.5311L52.2253 64.9325L52.6604 65.1833V69.293L46.4303 72.8897L45.9952 72.6389V68.5311Z" fill="black"/>
<path d="M52.6604 69.293L46.4303 72.8897V68.7819L52.6604 65.1833V69.293Z" fill="#FF6F00"/>
<path opacity="0.25" d="M52.6604 69.293L46.4303 72.8897V68.7819L52.6604 65.1833V69.293Z" fill="white"/>
<path opacity="0.1" d="M45.9952 68.5311L46.4303 68.7819V72.8897L45.9952 72.6389V68.5311Z" fill="black"/>
<path d="M38.8797 72.6389L45.1098 69.0422L45.543 69.293V73.4008L39.3129 76.9994L38.8797 76.7486V72.6389Z" fill="#FF6F00"/>
<path opacity="0.1" d="M38.8797 72.6389L45.1098 69.0422L45.543 69.293V73.4008L39.3129 76.9994L38.8797 76.7486V72.6389Z" fill="black"/>
<path d="M45.543 73.4008L39.3129 76.9994V72.8897L45.543 69.293V73.4008Z" fill="#FF6F00"/>
<path opacity="0.25" d="M45.543 73.4008L39.3129 76.9994V72.8897L45.543 69.293V73.4008Z" fill="white"/>
<path opacity="0.1" d="M38.8797 72.6389L39.3129 72.8897V76.9994L38.8797 76.7486V72.6389Z" fill="black"/>
<path d="M31.7623 76.7486L37.9924 73.15L38.4275 73.4027V77.5105L32.1974 81.1072L31.7623 80.8564V76.7486Z" fill="#FF6F00"/>
<path opacity="0.1" d="M31.7623 76.7486L37.9924 73.15L38.4275 73.4027V77.5105L32.1974 81.1072L31.7623 80.8564V76.7486Z" fill="black"/>
<path d="M38.4275 77.5105L32.1974 81.1072V76.9994L38.4275 73.4008V77.5105Z" fill="#FF6F00"/>
<path opacity="0.25" d="M38.4275 77.5105L32.1974 81.1072V76.9994L38.4275 73.4008V77.5105Z" fill="white"/>
<path opacity="0.1" d="M31.7623 76.7486L32.1974 76.9994V81.1072L31.7623 80.8564V76.7486Z" fill="black"/>
<path d="M24.6449 80.8564L30.875 77.2597L31.3101 77.5105V81.6202L25.08 85.2169L24.6449 84.9661V80.8564Z" fill="#FF6F00"/>
<path opacity="0.1" d="M24.6449 80.8564L30.875 77.2597L31.3101 77.5105V81.6202L25.08 85.2169L24.6449 84.9661V80.8564Z" fill="black"/>
<path d="M31.3101 81.6202L25.08 85.2169V81.1072L31.3101 77.5105V81.6202Z" fill="#FF6F00"/>
<path opacity="0.25" d="M31.3101 81.6202L25.08 85.2169V81.1072L31.3101 77.5105V81.6202Z" fill="white"/>
<path opacity="0.1" d="M24.6449 80.8564L25.08 81.1072V85.2169L24.6449 84.9661V80.8564Z" fill="black"/>
<path d="M25.08 81.1053V85.2169L23.3054 84.1871V80.0736L25.08 81.1053Z" fill="#FF6F00"/>
<path opacity="0.2" d="M25.08 81.1053V85.2169L23.3054 84.1871V80.0736L25.08 81.1053Z" fill="black"/>
<path d="M23.7405 79.8228L25.5132 80.8564L25.08 81.1072L23.3054 80.0736L23.7405 79.8228Z" fill="#FF6F00"/>
<path opacity="0.1" d="M23.7405 79.8228L25.5132 80.8564L25.08 81.1072L23.3054 80.0736L23.7405 79.8228Z" fill="black"/>
<path d="M24.6468 75.7169L26.866 74.4325L27.2992 74.6833V78.7911L25.08 80.0774L24.6468 79.8266V75.7169Z" fill="#FF6F00"/>
<path opacity="0.1" d="M24.6468 75.7169L26.866 74.4325L27.2992 74.6833V78.7911L25.08 80.0774L24.6468 79.8266V75.7169Z" fill="black"/>
<path d="M27.2992 78.7911L25.08 80.0774V75.9696L27.2992 74.6833V78.7911Z" fill="#FF6F00"/>
<path opacity="0.25" d="M27.2992 78.7911L25.08 80.0774V75.9696L27.2992 74.6833V78.7911Z" fill="white"/>
<path opacity="0.1" d="M24.6468 75.7169L25.08 75.9696V80.0774L24.6468 79.8266V75.7169Z" fill="black"/>
<path d="M63.3365 53.3862L69.5666 49.7895L70.0017 50.0403V54.15L63.7697 57.7467L63.3365 57.4959V53.3862Z" fill="#FF6F00"/>
<path opacity="0.1" d="M63.3365 53.3862L69.5666 49.7895L70.0017 50.0403V54.15L63.7697 57.7467L63.3365 57.4959V53.3862Z" fill="black"/>
<path d="M70.0017 54.15L63.7697 57.7467V53.637L70.0017 50.0403V54.15Z" fill="#FF6F00"/>
<path opacity="0.25" d="M70.0017 54.15L63.7697 57.7467V53.637L70.0017 50.0403V54.15Z" fill="white"/>
<path opacity="0.1" d="M63.3365 53.3862L63.7697 53.637V57.7467L63.3365 57.4959V53.3862Z" fill="black"/>
<path d="M56.2191 57.4959L62.4492 53.8992L62.8843 54.15V58.2578L56.6542 61.8564L56.2191 61.6037V57.4959Z" fill="#FF6F00"/>
<path opacity="0.1" d="M56.2191 57.4959L62.4492 53.8992L62.8843 54.15V58.2578L56.6542 61.8564L56.2191 61.6037V57.4959Z" fill="black"/>
<path d="M62.8843 58.2578L56.6542 61.8564V57.7467L62.8843 54.15V58.2578Z" fill="#FF6F00"/>
<path opacity="0.25" d="M62.8843 58.2578L56.6542 61.8564V57.7467L62.8843 54.15V58.2578Z" fill="white"/>
<path opacity="0.1" d="M56.2191 57.4959L56.6542 57.7467V61.8564L56.2191 61.6037V57.4959Z" fill="black"/>
<path d="M49.1017 61.6037L55.3337 58.007L55.7669 58.2578V62.3675L49.5368 65.9642L49.1017 65.7134V61.6037Z" fill="#FF6F00"/>
<path opacity="0.1" d="M49.1017 61.6037L55.3337 58.007L55.7669 58.2578V62.3675L49.5368 65.9642L49.1017 65.7134V61.6037Z" fill="black"/>
<path d="M55.7669 62.3675L49.5368 65.9642V61.8564L55.7669 58.2578V62.3675Z" fill="#FF6F00"/>
<path opacity="0.25" d="M55.7669 62.3675L49.5368 65.9642V61.8564L55.7669 58.2578V62.3675Z" fill="white"/>
<path opacity="0.1" d="M49.1017 61.6037L49.5368 61.8564V65.9642L49.1017 65.7134V61.6037Z" fill="black"/>
<path d="M41.9843 65.7134L48.2163 62.1167L48.6514 62.3675V66.4753L42.4194 70.0739L41.9843 69.8231V65.7134Z" fill="#FF6F00"/>
<path opacity="0.1" d="M41.9843 65.7134L48.2163 62.1167L48.6514 62.3675V66.4753L42.4194 70.0739L41.9843 69.8231V65.7134Z" fill="black"/>
<path d="M48.6514 66.4753L42.4194 70.0739V65.9642L48.6514 62.3675V66.4753Z" fill="#FF6F00"/>
<path opacity="0.25" d="M48.6514 66.4753L42.4194 70.0739V65.9642L48.6514 62.3675V66.4753Z" fill="white"/>
<path opacity="0.1" d="M41.9843 65.7134L42.4194 65.9642V70.0739L41.9843 69.8231V65.7134Z" fill="black"/>
<path d="M34.8688 69.8231L41.0989 66.2245L41.534 66.4753V70.585L35.3039 74.1817L34.8688 73.9309V69.8231Z" fill="#FF6F00"/>
<path opacity="0.1" d="M34.8688 69.8231L41.0989 66.2245L41.534 66.4753V70.585L35.3039 74.1817L34.8688 73.9309V69.8231Z" fill="black"/>
<path d="M41.534 70.585L35.3039 74.1817V70.0739L41.534 66.4753V70.585Z" fill="#FF6F00"/>
<path opacity="0.25" d="M41.534 70.585L35.3039 74.1817V70.0739L41.534 66.4753V70.585Z" fill="white"/>
<path opacity="0.1" d="M34.8688 69.8231L35.3039 70.0739V74.1817L34.8688 73.9309V69.8231Z" fill="black"/>
<path d="M27.7514 73.9309L33.9815 70.3342L34.4166 70.585V74.6947L28.1865 78.2914L27.7514 78.0406V73.9309Z" fill="#FF6F00"/>
<path opacity="0.1" d="M27.7514 73.9309L33.9815 70.3342L34.4166 70.585V74.6947L28.1865 78.2914L27.7514 78.0406V73.9309Z" fill="black"/>
<path d="M34.4166 74.6947L28.1865 78.2914V74.1817L34.4166 70.585V74.6947Z" fill="#FF6F00"/>
<path opacity="0.25" d="M34.4166 74.6947L28.1865 78.2914V74.1817L34.4166 70.585V74.6947Z" fill="white"/>
<path opacity="0.1" d="M27.7514 73.9309L28.1865 74.1817V78.2914L27.7514 78.0406V73.9309Z" fill="black"/>
<path d="M70.452 49.2784L73.568 47.4791L74.0031 47.7299V51.8396L70.8871 53.637L70.452 53.3862V49.2784Z" fill="#FF6F00"/>
<path opacity="0.1" d="M70.452 49.2784L73.568 47.4791L74.0031 47.7299V51.8396L70.8871 53.637L70.452 53.3862V49.2784Z" fill="black"/>
<path d="M74.0031 51.8396L70.8871 53.637V49.5292L74.0031 47.7299V51.8396Z" fill="#FF6F00"/>
<path opacity="0.25" d="M74.0031 51.8396L70.8871 53.637V49.5292L74.0031 47.7299V51.8396Z" fill="white"/>
<path opacity="0.1" d="M70.452 49.2784L70.8871 49.5292V53.637L70.452 53.3862V49.2784Z" fill="black"/>
<path d="M25.08 75.9658V80.0774L23.3073 79.0476V74.9341L25.08 75.9658Z" fill="#FF6F00"/>
<path opacity="0.2" d="M25.08 75.9658V80.0774L23.3073 79.0476V74.9341L25.08 75.9658Z" fill="black"/>
<path d="M23.7405 74.6833L25.5151 75.7169L25.08 75.9696L23.3073 74.9341L23.7405 74.6833Z" fill="#FF6F00"/>
<path opacity="0.1" d="M23.7405 74.6833L25.5151 75.7169L25.08 75.9696L23.3073 74.9341L23.7405 74.6833Z" fill="black"/>
<path d="M67.3455 45.9306L73.5775 42.3339L74.0107 42.5847V46.6944L67.7806 50.2911L67.3455 50.0403V45.9306Z" fill="#FF6F00"/>
<path opacity="0.1" d="M67.3455 45.9306L73.5775 42.3339L74.0107 42.5847V46.6944L67.7806 50.2911L67.3455 50.0403V45.9306Z" fill="black"/>
<path d="M74.0107 46.6944L67.7806 50.2911V46.1814L74.0107 42.5847V46.6944Z" fill="#FF6F00"/>
<path opacity="0.25" d="M74.0107 46.6944L67.7806 50.2911V46.1814L74.0107 42.5847V46.6944Z" fill="white"/>
<path opacity="0.1" d="M67.3455 45.9306L67.7806 46.1814V50.2911L67.3455 50.0403V45.9306Z" fill="black"/>
<path d="M60.23 50.0403L66.4601 46.4436L66.8933 46.6944V50.8022L60.6632 54.4008L60.23 54.15V50.0403Z" fill="#FF6F00"/>
<path opacity="0.1" d="M60.23 50.0403L66.4601 46.4436L66.8933 46.6944V50.8022L60.6632 54.4008L60.23 54.15V50.0403Z" fill="black"/>
<path d="M66.8933 50.8022L60.6632 54.4008V50.2911L66.8933 46.6944V50.8022Z" fill="#FF6F00"/>
<path opacity="0.25" d="M66.8933 50.8022L60.6632 54.4008V50.2911L66.8933 46.6944V50.8022Z" fill="white"/>
<path opacity="0.1" d="M60.23 50.0403L60.6632 50.2911V54.4008L60.23 54.15V50.0403Z" fill="black"/>
<path d="M53.1126 54.15L59.3427 50.5514L59.7778 50.8022V54.9119L53.5477 58.5086L53.1126 58.2578V54.15Z" fill="#FF6F00"/>
<path opacity="0.1" d="M53.1126 54.15L59.3427 50.5514L59.7778 50.8022V54.9119L53.5477 58.5086L53.1126 58.2578V54.15Z" fill="black"/>
<path d="M59.7778 54.9119L53.5477 58.5086V54.4008L59.7778 50.8022V54.9119Z" fill="#FF6F00"/>
<path opacity="0.25" d="M59.7778 54.9119L53.5477 58.5086V54.4008L59.7778 50.8022V54.9119Z" fill="white"/>
<path opacity="0.1" d="M53.1126 54.15L53.5477 54.4008V58.5086L53.1126 58.2578V54.15Z" fill="black"/>
<path d="M45.9952 58.2578L52.2253 54.6611L52.6604 54.9119V59.0197L46.4303 62.6183L45.9952 62.3675V58.2578Z" fill="#FF6F00"/>
<path opacity="0.1" d="M45.9952 58.2578L52.2253 54.6611L52.6604 54.9119V59.0197L46.4303 62.6183L45.9952 62.3675V58.2578Z" fill="black"/>
<path d="M52.6604 59.0197L46.4303 62.6183V58.5086L52.6604 54.9119V59.0197Z" fill="#FF6F00"/>
<path opacity="0.25" d="M52.6604 59.0197L46.4303 62.6183V58.5086L52.6604 54.9119V59.0197Z" fill="white"/>
<path opacity="0.1" d="M45.9952 58.2578L46.4303 58.5086V62.6183L45.9952 62.3675V58.2578Z" fill="black"/>
<path d="M38.8797 62.3675L45.1098 58.7689L45.543 59.0197V63.1294L39.3129 66.7261L38.8797 66.4753V62.3675Z" fill="#FF6F00"/>
<path opacity="0.1" d="M38.8797 62.3675L45.1098 58.7689L45.543 59.0197V63.1294L39.3129 66.7261L38.8797 66.4753V62.3675Z" fill="black"/>
<path d="M45.543 63.1294L39.3129 66.7261V62.6183L45.543 59.0197V63.1294Z" fill="#FF6F00"/>
<path opacity="0.25" d="M45.543 63.1294L39.3129 66.7261V62.6183L45.543 59.0197V63.1294Z" fill="white"/>
<path opacity="0.1" d="M38.8797 62.3675L39.3129 62.6183V66.7261L38.8797 66.4753V62.3675Z" fill="black"/>
<path d="M31.7623 66.4753L37.9924 62.8786L38.4275 63.1294V67.2391L32.1974 70.8358L31.7623 70.585V66.4753Z" fill="#FF6F00"/>
<path opacity="0.1" d="M31.7623 66.4753L37.9924 62.8786L38.4275 63.1294V67.2391L32.1974 70.8358L31.7623 70.585V66.4753Z" fill="black"/>
<path d="M38.4275 67.2391L32.1974 70.8358V66.7261L38.4275 63.1294V67.2391Z" fill="#FF6F00"/>
<path opacity="0.25" d="M38.4275 67.2391L32.1974 70.8358V66.7261L38.4275 63.1294V67.2391Z" fill="white"/>
<path opacity="0.1" d="M31.7623 66.4753L32.1974 66.7261V70.8358L31.7623 70.585V66.4753Z" fill="black"/>
<path d="M24.6449 70.585L30.875 66.9864L31.3101 67.2391V71.3469L25.08 74.9436L24.6449 74.6928V70.585Z" fill="#FF6F00"/>
<path opacity="0.1" d="M24.6449 70.585L30.875 66.9864L31.3101 67.2391V71.3469L25.08 74.9436L24.6449 74.6928V70.585Z" fill="black"/>
<path d="M31.3101 71.3469L25.08 74.9436V70.8358L31.3101 67.2391V71.3469Z" fill="#FF6F00"/>
<path opacity="0.25" d="M31.3101 71.3469L25.08 74.9436V70.8358L31.3101 67.2391V71.3469Z" fill="white"/>
<path opacity="0.1" d="M24.6449 70.585L25.08 70.8358V74.9436L24.6449 74.6928V70.585Z" fill="black"/>
<path d="M25.08 70.832V74.9436L23.3054 73.9138V69.8022L25.08 70.832Z" fill="#FF6F00"/>
<path opacity="0.2" d="M25.08 70.832V74.9436L23.3054 73.9138V69.8022L25.08 70.832Z" fill="black"/>
<path d="M23.7405 69.5514L25.5151 70.585L25.08 70.8358L23.3054 69.8022L23.7405 69.5514Z" fill="#FF6F00"/>
<path opacity="0.1" d="M23.7405 69.5514L25.5151 70.585L25.08 70.8358L23.3054 69.8022L23.7405 69.5514Z" fill="black"/>
<path d="M24.6468 65.4322L26.866 64.1459L27.2992 64.3986V68.5064L25.08 69.7927L24.6468 69.5419V65.4322Z" fill="#FF6F00"/>
<path opacity="0.1" d="M24.6468 65.4322L26.866 64.1459L27.2992 64.3986V68.5064L25.08 69.7927L24.6468 69.5419V65.4322Z" fill="black"/>
<path d="M27.2992 68.5064L25.08 69.7927V65.683L27.2992 64.3986V68.5064Z" fill="#FF6F00"/>
<path opacity="0.25" d="M27.2992 68.5064L25.08 69.7927V65.683L27.2992 64.3986V68.5064Z" fill="white"/>
<path opacity="0.1" d="M24.6468 65.4322L25.08 65.683V69.7927L24.6468 69.5419V65.4322Z" fill="black"/>
<path d="M63.3365 43.1015L69.5666 39.5048L70.0017 39.7556V43.8653L63.7697 47.462L63.3365 47.2112V43.1015Z" fill="#FF6F00"/>
<path opacity="0.1" d="M63.3365 43.1015L69.5666 39.5048L70.0017 39.7556V43.8653L63.7697 47.462L63.3365 47.2112V43.1015Z" fill="black"/>
<path d="M70.0017 43.8653L63.7697 47.462V43.3523L70.0017 39.7556V43.8653Z" fill="#FF6F00"/>
<path opacity="0.25" d="M70.0017 43.8653L63.7697 47.462V43.3523L70.0017 39.7556V43.8653Z" fill="white"/>
<path opacity="0.1" d="M63.3365 43.1015L63.7697 43.3523V47.462L63.3365 47.2112V43.1015Z" fill="black"/>
<path d="M56.2191 47.2112L62.4492 43.6126L62.8843 43.8653V47.9731L56.6542 51.5698L56.2191 51.319V47.2112Z" fill="#FF6F00"/>
<path opacity="0.1" d="M56.2191 47.2112L62.4492 43.6126L62.8843 43.8653V47.9731L56.6542 51.5698L56.2191 51.319V47.2112Z" fill="black"/>
<path d="M62.8843 47.9731L56.6542 51.5698V47.462L62.8843 43.8653V47.9731Z" fill="#FF6F00"/>
<path opacity="0.25" d="M62.8843 47.9731L56.6542 51.5698V47.462L62.8843 43.8653V47.9731Z" fill="white"/>
<path opacity="0.1" d="M56.2191 47.2112L56.6542 47.462V51.5698L56.2191 51.319V47.2112Z" fill="black"/>
<path d="M49.1017 51.319L55.3337 47.7223L55.7669 47.9731V52.0828L49.5368 55.6795L49.1017 55.4287V51.319Z" fill="#FF6F00"/>
<path opacity="0.1" d="M49.1017 51.319L55.3337 47.7223L55.7669 47.9731V52.0828L49.5368 55.6795L49.1017 55.4287V51.319Z" fill="black"/>
<path d="M55.7669 52.0828L49.5368 55.6795V51.5698L55.7669 47.9731V52.0828Z" fill="#FF6F00"/>
<path opacity="0.25" d="M55.7669 52.0828L49.5368 55.6795V51.5698L55.7669 47.9731V52.0828Z" fill="white"/>
<path opacity="0.1" d="M49.1017 51.319L49.5368 51.5698V55.6795L49.1017 55.4287V51.319Z" fill="black"/>
<path d="M41.9843 55.4287L48.2163 51.832L48.6514 52.0828V56.1906L42.4194 59.7892L41.9843 59.5384V55.4287Z" fill="#FF6F00"/>
<path opacity="0.1" d="M41.9843 55.4287L48.2163 51.832L48.6514 52.0828V56.1906L42.4194 59.7892L41.9843 59.5384V55.4287Z" fill="black"/>
<path d="M48.6514 56.1906L42.4194 59.7892V55.6795L48.6514 52.0828V56.1906Z" fill="#FF6F00"/>
<path opacity="0.25" d="M48.6514 56.1906L42.4194 59.7892V55.6795L48.6514 52.0828V56.1906Z" fill="white"/>
<path opacity="0.1" d="M41.9843 55.4287L42.4194 55.6795V59.7892L41.9843 59.5384V55.4287Z" fill="black"/>
<path d="M34.8688 59.5384L41.0989 55.9398L41.534 56.1906V60.3003L35.3039 63.897L34.8688 63.6462V59.5384Z" fill="#FF6F00"/>
<path opacity="0.1" d="M34.8688 59.5384L41.0989 55.9398L41.534 56.1906V60.3003L35.3039 63.897L34.8688 63.6462V59.5384Z" fill="black"/>
<path d="M41.534 60.3003L35.3039 63.897V59.7892L41.534 56.1906V60.3003Z" fill="#FF6F00"/>
<path opacity="0.25" d="M41.534 60.3003L35.3039 63.897V59.7892L41.534 56.1906V60.3003Z" fill="white"/>
<path opacity="0.1" d="M34.8688 59.5384L35.3039 59.7892V63.897L34.8688 63.6462V59.5384Z" fill="black"/>
<path d="M27.7514 63.6462L33.9815 60.0495L34.4166 60.3003V64.4081L28.1865 68.0067L27.7514 67.7559V63.6462Z" fill="#FF6F00"/>
<path opacity="0.1" d="M27.7514 63.6462L33.9815 60.0495L34.4166 60.3003V64.4081L28.1865 68.0067L27.7514 67.7559V63.6462Z" fill="black"/>
<path d="M34.4166 64.4081L28.1865 68.0067V63.897L34.4166 60.3003V64.4081Z" fill="#FF6F00"/>
<path opacity="0.25" d="M34.4166 64.4081L28.1865 68.0067V63.897L34.4166 60.3003V64.4081Z" fill="white"/>
<path opacity="0.1" d="M27.7514 63.6462L28.1865 63.897V68.0067L27.7514 67.7559V63.6462Z" fill="black"/>
<path d="M70.452 38.9937L73.568 37.1944L74.0031 37.4452V41.5549L70.8871 43.3523L70.452 43.1015V38.9937Z" fill="#FF6F00"/>
<path opacity="0.1" d="M70.452 38.9937L73.568 37.1944L74.0031 37.4452V41.5549L70.8871 43.3523L70.452 43.1015V38.9937Z" fill="black"/>
<path d="M74.0031 41.5549L70.8871 43.3523V39.2445L74.0031 37.4452V41.5549Z" fill="#FF6F00"/>
<path opacity="0.25" d="M74.0031 41.5549L70.8871 43.3523V39.2445L74.0031 37.4452V41.5549Z" fill="white"/>
<path opacity="0.1" d="M70.452 38.9937L70.8871 39.2445V43.3523L70.452 43.1015V38.9937Z" fill="black"/>
<path d="M25.08 65.6811V69.7927L23.3073 68.7629V64.6494L25.08 65.6811Z" fill="#FF6F00"/>
<path opacity="0.2" d="M25.08 65.6811V69.7927L23.3073 68.7629V64.6494L25.08 65.6811Z" fill="black"/>
<path d="M23.7405 64.3986L25.5151 65.4322L25.08 65.683L23.3073 64.6494L23.7405 64.3986Z" fill="#FF6F00"/>
<path opacity="0.1" d="M23.7405 64.3986L25.5151 65.4322L25.08 65.683L23.3073 64.6494L23.7405 64.3986Z" fill="black"/>
<path d="M67.3455 35.6592L73.5775 32.0625L74.0107 32.3133V36.423L67.7806 40.0197L67.3455 39.7689V35.6592Z" fill="#FF6F00"/>
<path opacity="0.1" d="M67.3455 35.6592L73.5775 32.0625L74.0107 32.3133V36.423L67.7806 40.0197L67.3455 39.7689V35.6592Z" fill="black"/>
<path d="M74.0107 36.423L67.7806 40.0197V35.91L74.0107 32.3133V36.423Z" fill="#FF6F00"/>
<path opacity="0.25" d="M74.0107 36.423L67.7806 40.0197V35.91L74.0107 32.3133V36.423Z" fill="white"/>
<path opacity="0.1" d="M67.3455 35.6592L67.7806 35.91V40.0197L67.3455 39.7689V35.6592Z" fill="black"/>
<path d="M60.23 39.7689L66.4601 36.1722L66.8933 36.423V40.5308L60.6632 44.1275L60.23 43.8767V39.7689Z" fill="#FF6F00"/>
<path opacity="0.1" d="M60.23 39.7689L66.4601 36.1722L66.8933 36.423V40.5308L60.6632 44.1275L60.23 43.8767V39.7689Z" fill="black"/>
<path d="M66.8933 40.5308L60.6632 44.1275V40.0197L66.8933 36.423V40.5308Z" fill="#FF6F00"/>
<path opacity="0.25" d="M66.8933 40.5308L60.6632 44.1275V40.0197L66.8933 36.423V40.5308Z" fill="white"/>
<path opacity="0.1" d="M60.23 39.7689L60.6632 40.0197V44.1275L60.23 43.8767V39.7689Z" fill="black"/>
<path d="M53.1126 43.8767L59.3427 40.28L59.7778 40.5308V44.6405L53.5477 48.2372L53.1126 47.9864V43.8767Z" fill="#FF6F00"/>
<path opacity="0.1" d="M53.1126 43.8767L59.3427 40.28L59.7778 40.5308V44.6405L53.5477 48.2372L53.1126 47.9864V43.8767Z" fill="black"/>
<path d="M59.7778 44.6405L53.5477 48.2372V44.1275L59.7778 40.5308V44.6405Z" fill="#FF6F00"/>
<path opacity="0.25" d="M59.7778 44.6405L53.5477 48.2372V44.1275L59.7778 40.5308V44.6405Z" fill="white"/>
<path opacity="0.1" d="M53.1126 43.8767L53.5477 44.1275V48.2372L53.1126 47.9864V43.8767Z" fill="black"/>
<path d="M45.9952 47.9864L52.2253 44.3897L52.6604 44.6405V48.7483L46.4303 52.3469L45.9952 52.0961V47.9864Z" fill="#FF6F00"/>
<path opacity="0.1" d="M45.9952 47.9864L52.2253 44.3897L52.6604 44.6405V48.7483L46.4303 52.3469L45.9952 52.0961V47.9864Z" fill="black"/>
<path d="M52.6604 48.7483L46.4303 52.3469V48.2372L52.6604 44.6405V48.7483Z" fill="#FF6F00"/>
<path opacity="0.25" d="M52.6604 48.7483L46.4303 52.3469V48.2372L52.6604 44.6405V48.7483Z" fill="white"/>
<path opacity="0.1" d="M45.9952 47.9864L46.4303 48.2372V52.3469L45.9952 52.0961V47.9864Z" fill="black"/>
<path d="M38.8797 52.0961L45.1098 48.4975L45.543 48.7483V52.858L39.3129 56.4547L38.8797 56.2039V52.0961Z" fill="#FF6F00"/>
<path opacity="0.1" d="M38.8797 52.0961L45.1098 48.4975L45.543 48.7483V52.858L39.3129 56.4547L38.8797 56.2039V52.0961Z" fill="black"/>
<path d="M45.543 52.858L39.3129 56.4547V52.3469L45.543 48.7483V52.858Z" fill="#FF6F00"/>
<path opacity="0.25" d="M45.543 52.858L39.3129 56.4547V52.3469L45.543 48.7483V52.858Z" fill="white"/>
<path opacity="0.1" d="M38.8797 52.0961L39.3129 52.3469V56.4547L38.8797 56.2039V52.0961Z" fill="black"/>
<path d="M31.7623 56.2039L37.9924 52.6072L38.4275 52.858V56.9658L32.1974 60.5644L31.7623 60.3136V56.2039Z" fill="#FF6F00"/>
<path opacity="0.1" d="M31.7623 56.2039L37.9924 52.6072L38.4275 52.858V56.9658L32.1974 60.5644L31.7623 60.3136V56.2039Z" fill="black"/>
<path d="M38.4275 56.9658L32.1974 60.5644V56.4547L38.4275 52.858V56.9658Z" fill="#FF6F00"/>
<path opacity="0.25" d="M38.4275 56.9715L32.1974 60.5682V56.4604L38.4275 52.8637V56.9715Z" fill="white"/>
<path opacity="0.1" d="M31.7623 56.2039L32.1974 56.4547V60.5644L31.7623 60.3136V56.2039Z" fill="black"/>
<path d="M24.6449 60.3136L30.875 56.715L31.3101 56.9677V61.0755L25.08 64.6722L24.6449 64.4214V60.3136Z" fill="#FF6F00"/>
<path opacity="0.1" d="M24.6449 60.3136L30.875 56.715L31.3101 56.9677V61.0755L25.08 64.6722L24.6449 64.4214V60.3136Z" fill="black"/>
<path d="M31.3101 61.0755L25.08 64.6722V60.5644L31.3101 56.9658V61.0755Z" fill="#FF6F00"/>
<path opacity="0.25" d="M31.3101 61.0755L25.08 64.6722V60.5644L31.3101 56.9658V61.0755Z" fill="white"/>
<path opacity="0.1" d="M24.6449 60.3136L25.08 60.5644V64.6722L24.6449 64.4214V60.3136Z" fill="black"/>
<path d="M25.08 60.5606V64.6722L23.3054 63.6424V59.5308L25.08 60.5606Z" fill="#FF6F00"/>
<path opacity="0.2" d="M25.08 60.5606V64.6722L23.3054 63.6424V59.5308L25.08 60.5606Z" fill="black"/>
<path d="M23.7405 59.28L25.5151 60.3136L25.08 60.5644L23.3054 59.5308L23.7405 59.28Z" fill="#FF6F00"/>
<path opacity="0.1" d="M23.7405 59.28L25.5151 60.3136L25.08 60.5644L23.3054 59.5308L23.7405 59.28Z" fill="black"/>
<path d="M70.452 28.7071L73.568 26.9097L74.0031 27.1605V31.2683L70.8871 33.0676L70.452 32.8168V28.7071Z" fill="#FF6F00"/>
<path opacity="0.1" d="M70.452 28.7071L73.568 26.9097L74.0031 27.1605V31.2683L70.8871 33.0676L70.452 32.8168V28.7071Z" fill="black"/>
<path d="M74.0031 31.2702L70.8871 33.0676V28.9598L74.0031 27.1605V31.2702Z" fill="#FF6F00"/>
<path opacity="0.25" d="M74.0031 31.2702L70.8871 33.0676V28.9598L74.0031 27.1605V31.2702Z" fill="white"/>
<path opacity="0.1" d="M70.452 28.7071L70.8871 28.9598V33.0676L70.452 32.8168V28.7071Z" fill="black"/>
<path d="M63.3365 32.8168L69.5666 29.2201L70.0017 29.4709V33.5806L63.7697 37.1773L63.3365 36.9265V32.8168Z" fill="#FF6F00"/>
<path opacity="0.1" d="M63.3365 32.8168L69.5666 29.2201L70.0017 29.4709V33.5806L63.7697 37.1773L63.3365 36.9265V32.8168Z" fill="black"/>
<path d="M70.0017 33.5806L63.7697 37.1773V33.0676L70.0017 29.4709V33.5806Z" fill="#FF6F00"/>
<path opacity="0.25" d="M70.0017 33.5806L63.7697 37.1773V33.0676L70.0017 29.4709V33.5806Z" fill="white"/>
<path opacity="0.1" d="M63.3365 32.8168L63.7697 33.0676V37.1773L63.3365 36.9265V32.8168Z" fill="black"/>
<path d="M56.2191 36.9265L62.4492 33.3279L62.8843 33.5806V37.6884L56.6542 41.2851L56.2191 41.0343V36.9265Z" fill="#FF6F00"/>
<path opacity="0.1" d="M56.2191 36.9265L62.4492 33.3279L62.8843 33.5806V37.6884L56.6542 41.2851L56.2191 41.0343V36.9265Z" fill="black"/>
<path d="M62.8843 37.6884L56.6542 41.2851V37.1773L62.8843 33.5806V37.6884Z" fill="#FF6F00"/>
<path opacity="0.25" d="M62.8843 37.6884L56.6542 41.2851V37.1773L62.8843 33.5806V37.6884Z" fill="white"/>
<path opacity="0.1" d="M56.2191 36.9265L56.6542 37.1773V41.2851L56.2191 41.0343V36.9265Z" fill="black"/>
<path d="M49.1017 41.0343L55.3337 37.4376L55.7669 37.6884V41.7981L49.5368 45.3948L49.1017 45.144V41.0343Z" fill="#FF6F00"/>
<path opacity="0.1" d="M49.1017 41.0343L55.3337 37.4376L55.7669 37.6884V41.7981L49.5368 45.3948L49.1017 45.144V41.0343Z" fill="black"/>
<path d="M55.7669 41.7981L49.5368 45.3948V41.2851L55.7669 37.6884V41.7981Z" fill="#FF6F00"/>
<path opacity="0.25" d="M55.7669 41.7981L49.5368 45.3948V41.2851L55.7669 37.6884V41.7981Z" fill="white"/>
<path opacity="0.1" d="M49.1017 41.0343L49.5368 41.2851V45.3948L49.1017 45.144V41.0343Z" fill="black"/>
<path d="M53.9942 36.6548L55.7669 37.6884L49.5368 41.2851L47.7622 40.2515L53.9942 36.6548Z" fill="#FF6F00"/>
<path d="M49.5368 41.2851V41.8L47.7622 40.7702V40.2515L49.5368 41.2851Z" fill="#FF6F00"/>
<path opacity="0.2" d="M49.5368 41.2851V41.8L47.7622 40.7702V40.2515L49.5368 41.2851Z" fill="black"/>
<path d="M24.6468 55.1551L26.866 53.8669L27.2992 54.1177V58.2274L25.08 59.5137L24.6468 59.2629V55.1551Z" fill="#FF6F00"/>
<path d="M25.5265 53.0841L27.2992 54.1177L25.08 55.4059L23.3073 54.3723L25.5265 53.0841Z" fill="#FF6F00"/>
<path d="M27.2992 58.2274L25.08 59.5137V55.4059L27.2992 54.1177V58.2274Z" fill="#FF6F00"/>
<path opacity="0.25" d="M27.2992 58.2274L25.08 59.5137V55.4059L27.2992 54.1177V58.2274Z" fill="white"/>
<path opacity="0.1" d="M24.6468 55.1551L25.08 55.4059V59.5137L24.6468 59.2629V55.1551Z" fill="black"/>
<path d="M41.9843 45.1497L48.2163 41.553L48.6514 41.8038V45.9116L42.4194 49.5102L41.9843 49.2575V45.1497Z" fill="#FF6F00"/>
<path d="M46.8768 40.7702L48.6514 41.8038L42.4194 45.4005L40.6467 44.3669L46.8768 40.7702Z" fill="#FF6F00"/>
<path d="M48.6514 45.9116L42.4194 49.5102V45.4005L48.6514 41.8038V45.9116Z" fill="#FF6F00"/>
<path opacity="0.25" d="M48.6514 45.9116L42.4194 49.5102V45.4005L48.6514 41.8038V45.9116Z" fill="white"/>
<path opacity="0.1" d="M41.9843 45.1497L42.4194 45.4005V49.5102L41.9843 49.2575V45.1497Z" fill="black"/>
<path opacity="0.1" d="M41.9843 45.1497L42.4194 45.4005V49.5102L41.9843 49.2575V45.1497Z" fill="black"/>
<path d="M42.4194 45.4005V45.9154L40.6467 44.8856V44.3669L42.4194 45.4005Z" fill="#FF6F00"/>
<path opacity="0.2" d="M42.4194 45.4005V45.9154L40.6467 44.8856V44.3669L42.4194 45.4005Z" fill="black"/>
<path d="M25.08 55.4021V59.5137L23.3073 58.4839V54.3723L25.08 55.4021Z" fill="#FF6F00"/>
<path opacity="0.2" d="M25.08 55.4021V59.5137L23.3073 58.4839V54.3723L25.08 55.4021Z" fill="black"/>
<path d="M23.7405 54.1196L25.5151 55.1551L25.08 55.4059L23.3073 54.3723L23.7405 54.1196Z" fill="#FF6F00"/>
<path d="M34.8688 49.2575L41.0989 45.6608L41.534 45.9116V50.0213L35.3039 53.618L34.8688 53.3672V49.2575Z" fill="#FF6F00"/>
<path d="M39.7594 44.878L41.534 45.9116L35.3039 49.5102L33.5293 48.4747L39.7594 44.878Z" fill="#FF6F00"/>
<path d="M41.534 50.0213L35.3039 53.618V49.5102L41.534 45.9116V50.0213Z" fill="#FF6F00"/>
<path opacity="0.25" d="M41.534 50.0213L35.3039 53.618V49.5102L41.534 45.9116V50.0213Z" fill="white"/>
<path opacity="0.1" d="M34.8688 49.2575L35.3039 49.5102V53.618L34.8688 53.3672V49.2575Z" fill="black"/>
<path opacity="0.1" d="M34.8688 49.2575L35.3039 49.5102V53.618L34.8688 53.3672V49.2575Z" fill="black"/>
<path d="M35.3039 49.5102V50.0251L33.5293 48.9953V48.4747L35.3039 49.5102Z" fill="#FF6F00"/>
<path opacity="0.2" d="M35.3039 49.5102V50.0251L33.5293 48.9953V48.4747L35.3039 49.5102Z" fill="black"/>
<path d="M27.7514 53.3672L33.9815 49.7705L34.4166 50.0213V54.1291L28.1865 57.7277L27.7514 57.4769V53.3672Z" fill="#FF6F00"/>
<path d="M32.642 48.9877L34.4166 50.0213L28.1865 53.618L26.4119 52.5844L32.642 48.9877Z" fill="#FF6F00"/>
<path d="M34.4166 54.1291L28.1865 57.7277V53.618L34.4166 50.0213V54.1291Z" fill="#FF6F00"/>
<path opacity="0.25" d="M34.4166 54.1291L28.1865 57.7277V53.618L34.4166 50.0213V54.1291Z" fill="white"/>
<path opacity="0.1" d="M27.7514 53.3672L28.1865 53.618V57.7277L27.7514 57.4769V53.3672Z" fill="black"/>
<path opacity="0.1" d="M27.7514 53.3672L28.1865 53.618V57.7277L27.7514 57.4769V53.3672Z" fill="black"/>
<path d="M28.1865 53.618V54.1329L26.4119 53.1031V52.5844L28.1865 53.618Z" fill="#FF6F00"/>
<path opacity="0.2" d="M28.1865 53.618V54.1329L26.4119 53.1031V52.5844L28.1865 53.618Z" fill="black"/>
<path d="M67.3455 25.3498L73.5775 21.7512L74.0107 22.0039V26.1117L67.7806 29.7084L67.3455 29.4576V25.3498Z" fill="#FF6F00"/>
<path opacity="0.1" d="M67.3455 25.3498L73.5775 21.7512L74.0107 22.0039V26.1117L67.7806 29.7084L67.3455 29.4576V25.3498Z" fill="black"/>
<path d="M74.0107 26.1117L67.7806 29.7084V25.6006L74.0107 22.0039V26.1117Z" fill="#FF6F00"/>
<path opacity="0.25" d="M74.0107 26.1117L67.7806 29.7084V25.6006L74.0107 22.0039V26.1117Z" fill="white"/>
<path opacity="0.1" d="M67.3455 25.3498L67.7806 25.6006V29.7084L67.3455 29.4576V25.3498Z" fill="black"/>
<path d="M60.23 29.4576L66.4601 25.8609L66.8933 26.1117V30.2214L60.6632 33.8181L60.23 33.5673V29.4576Z" fill="#FF6F00"/>
<path opacity="0.1" d="M60.23 29.4576L66.4601 25.8609L66.8933 26.1117V30.2214L60.6632 33.8181L60.23 33.5673V29.4576Z" fill="black"/>
<path d="M66.8933 30.2214L60.6632 33.8181V29.7084L66.8933 26.1117V30.2214Z" fill="#FF6F00"/>
<path opacity="0.25" d="M66.8933 30.2214L60.6632 33.8181V29.7084L66.8933 26.1117V30.2214Z" fill="white"/>
<path opacity="0.1" d="M60.23 29.4576L60.6632 29.7084V33.8181L60.23 33.5673V29.4576Z" fill="black"/>
<path d="M53.1126 33.5673L59.3427 29.9706L59.7778 30.2214V34.3292L53.5477 37.9278L53.1126 37.6751V33.5673Z" fill="#FF6F00"/>
<path opacity="0.1" d="M53.1126 33.5673L59.3427 29.9706L59.7778 30.2214V34.3292L53.5477 37.9278L53.1126 37.6751V33.5673Z" fill="black"/>
<path d="M59.7778 34.3292L53.5477 37.9278V33.8181L59.7778 30.2214V34.3292Z" fill="#FF6F00"/>
<path opacity="0.25" d="M59.7778 34.3292L53.5477 37.9278V33.8181L59.7778 30.2214V34.3292Z" fill="white"/>
<path opacity="0.1" d="M53.1126 33.5673L53.5477 33.8181V37.9278L53.1126 37.6751V33.5673Z" fill="black"/>
<path d="M53.1126 33.5673L59.3427 29.9706L59.7778 30.2214V34.3292L53.5477 37.9278L53.1126 37.6751V33.5673Z" fill="#FF6F00"/>
<path opacity="0.1" d="M53.1126 33.5673L59.3427 29.9706L59.7778 30.2214V34.3292L53.5477 37.9278L53.1126 37.6751V33.5673Z" fill="black"/>
<path d="M59.7778 34.3292L53.5477 37.9278V33.8181L59.7778 30.2214V34.3292Z" fill="#FF6F00"/>
<path opacity="0.25" d="M59.7778 34.3292L53.5477 37.9278V33.8181L59.7778 30.2214V34.3292Z" fill="white"/>
<path opacity="0.1" d="M53.1126 33.5673L53.5477 33.8181V37.9278L53.1126 37.6751V33.5673Z" fill="black"/>
<path d="M53.5477 33.8143V37.9278L51.7731 36.8961V32.7845L53.5477 33.8143Z" fill="#FF6F00"/>
<path opacity="0.2" d="M53.5477 33.8143V37.9278L51.7731 36.8961V32.7845L53.5477 33.8143Z" fill="black"/>
<path d="M52.2082 32.5337L53.9809 33.5673L53.5477 33.8181L51.7731 32.7845L52.2082 32.5337Z" fill="#FF6F00"/>
<path opacity="0.1" d="M52.2082 32.5337L53.9809 33.5673L53.5477 33.8181L51.7731 32.7845L52.2082 32.5337Z" fill="black"/>
<path d="M58.0032 29.1878L59.7778 30.2214L53.5477 33.8181L51.7731 32.7845L58.0032 29.1878Z" fill="#FF6F00"/>
<path d="M53.5477 37.9278L51.7731 36.8961V37.4414L53.542 38.4712L57.1216 36.404V35.8625L53.5477 37.9278Z" fill="#F0F0F0"/>
<path d="M60.23 29.4842L56.6542 31.5476L54.8796 30.5159V29.9706L56.6542 31.0004L60.23 28.937V29.4842Z" fill="#F0F0F0"/>
<path d="M63.3365 22.5321L69.5666 18.9354L70.0017 19.1862V23.294L63.7697 26.8926L63.3365 26.6418V22.5321Z" fill="#FF6F00"/>
<path opacity="0.1" d="M63.3365 22.5321L69.5666 18.9354L70.0017 19.1862V23.294L63.7697 26.8926L63.3365 26.6418V22.5321Z" fill="black"/>
<path d="M70.0017 23.294L63.7697 26.8926V22.7829L70.0017 19.1862V23.294Z" fill="#FF6F00"/>
<path opacity="0.25" d="M70.0017 23.294L63.7697 26.8926V22.7829L70.0017 19.1862V23.294Z" fill="white"/>
<path opacity="0.1" d="M63.3365 22.5321L63.7697 22.7829V26.8926L63.3365 26.6418V22.5321Z" fill="black"/>
<path d="M62.4302 21.4985L64.2048 22.5321L63.7697 22.7829L61.997 21.7493L62.4302 21.4985Z" fill="#FF6F00"/>
<path opacity="0.1" d="M62.4302 21.4985L64.2048 22.5321L63.7697 22.7829L61.997 21.7493L62.4302 21.4985Z" fill="black"/>
<path d="M68.2271 18.1526L70.0017 19.1862L63.7697 22.7829L61.997 21.7493L68.2271 18.1526Z" fill="#FF6F00"/>
<path d="M63.7697 22.7829V23.3016L61.997 22.2718V21.7531L63.7697 22.7829Z" fill="#FF6F00"/>
<path opacity="0.2" d="M63.7697 22.7829V23.3016L61.997 22.2718V21.7531L63.7697 22.7829Z" fill="black"/>
<path d="M56.2191 26.6418L62.4492 23.0432L62.8843 23.294V27.4037L56.6542 31.0004L56.2191 30.7496V26.6418Z" fill="#FF6F00"/>
<path opacity="0.1" d="M56.2191 26.6418L62.4492 23.0432L62.8843 23.294V27.4037L56.6542 31.0004L56.2191 30.7496V26.6418Z" fill="black"/>
<path d="M62.8843 27.4037L56.6542 31.0004V26.8926L62.8843 23.294V27.4037Z" fill="#FF6F00"/>
<path opacity="0.25" d="M62.8843 27.4037L56.6542 31.0004V26.8926L62.8843 23.294V27.4037Z" fill="white"/>
<path opacity="0.1" d="M56.2191 26.6418L56.6542 26.8926V31.0004L56.2191 30.7496V26.6418Z" fill="black"/>
<path d="M56.6542 26.8888V31.0004L54.8796 29.9706V25.859L56.6542 26.8888Z" fill="#FF6F00"/>
<path opacity="0.2" d="M56.6542 26.8888V31.0004L54.8796 29.9706V25.859L56.6542 26.8888Z" fill="black"/>
<path d="M55.3147 25.6082L57.0874 26.6418L56.6542 26.8926L54.8796 25.859L55.3147 25.6082Z" fill="#FF6F00"/>
<path opacity="0.1" d="M55.3147 25.6082L57.0874 26.6418L56.6542 26.8926L54.8796 25.859L55.3147 25.6082Z" fill="black"/>
<path d="M61.1097 22.2604L62.8843 23.294L56.6542 26.8926L54.8796 25.859L61.1097 22.2604Z" fill="#FF6F00"/>
<path d="M70.452 18.4243L73.568 16.625L74.0031 16.8758V20.9836L70.8871 22.7829L70.452 22.5321V18.4243Z" fill="#FF6F00"/>
<path opacity="0.1" d="M70.452 18.4243L73.568 16.625L74.0031 16.8758V20.9836L70.8871 22.7829L70.452 22.5321V18.4243Z" fill="black"/>
<path d="M74.0031 20.9836L70.8871 22.7829V18.6751L74.0031 16.8758V20.9836Z" fill="#FF6F00"/>
<path opacity="0.25" d="M74.0031 20.9836L70.8871 22.7829V18.6751L74.0031 16.8758V20.9836Z" fill="white"/>
<path opacity="0.1" d="M70.452 18.4243L70.8871 18.6751V22.7829L70.452 22.5321V18.4243Z" fill="black"/>
<path d="M70.8871 18.6713V19.19L69.1125 18.1583V17.6396L70.8871 18.6713Z" fill="#FF6F00"/>
<path opacity="0.2" d="M70.8871 18.6713V19.19L69.1125 18.1583V17.6396L70.8871 18.6713Z" fill="black"/>
<path d="M69.5476 17.3888L71.3222 18.4243L70.8871 18.6732L69.1125 17.6396L69.5476 17.3888Z" fill="#FF6F00"/>
<path opacity="0.1" d="M69.5476 17.3888L71.3222 18.4243L70.8871 18.6732L69.1125 17.6396L69.5476 17.3888Z" fill="black"/>
<path d="M72.2285 15.8422L74.0031 16.8758L70.8871 18.6751L69.1125 17.6396L72.2285 15.8422Z" fill="#FF6F00"/>
<path d="M44.65 42.7177C44.6928 42.7491 44.7434 42.7681 44.7963 42.7728C44.9733 42.7929 45.152 42.7549 45.3055 42.6645C45.4283 42.5617 45.5744 42.4906 45.7311 42.4574C45.8057 42.4577 45.8799 42.4686 45.9515 42.4897C46.308 42.5843 46.6843 42.573 47.0345 42.4574C47.2081 42.3978 47.3637 42.295 47.4866 42.1587C47.6096 42.0225 47.6959 41.8572 47.7375 41.6784C48.0415 41.7338 48.3554 41.6817 48.6252 41.5308C48.8949 41.38 49.1037 41.1399 49.2157 40.8519C49.5396 40.8673 49.8632 40.8149 50.1657 40.698C50.3179 40.6371 50.4523 40.5389 50.5566 40.4124C50.6609 40.2859 50.7316 40.1351 50.7623 39.9741C51.056 40.0058 51.353 39.9865 51.6401 39.9171C51.7832 39.8815 51.9152 39.8107 52.024 39.7112C52.1329 39.6116 52.2151 39.4865 52.2633 39.3471C52.2842 39.2673 52.2975 39.1723 52.3678 39.1324C52.41 39.1131 52.4567 39.1059 52.5027 39.1115C52.7354 39.1321 52.9699 39.1029 53.1905 39.026C53.3002 38.9854 53.3962 38.9146 53.4675 38.8218C53.5387 38.7291 53.5823 38.6181 53.5933 38.5016C53.5933 38.2223 53.3482 38 53.0898 37.8917C52.8098 37.7755 52.5015 37.7458 52.2044 37.8062C52.1617 37.6649 52.0832 37.5371 51.9765 37.4352C51.8698 37.3333 51.7385 37.2607 51.5954 37.2245C51.4523 37.1884 51.3023 37.1899 51.16 37.2289C51.0177 37.2679 50.8879 37.3431 50.7832 37.4471C50.6165 37.1462 50.3388 36.9224 50.0094 36.8234C49.68 36.7243 49.325 36.7579 49.02 36.917C48.763 37.0258 48.545 37.2099 48.3949 37.4452C48.2848 37.6663 48.2245 37.9089 48.2182 38.1558C48.2215 38.1879 48.2182 38.2203 48.2084 38.2511C48.1986 38.2818 48.1825 38.3102 48.1612 38.3344C48.1315 38.3563 48.097 38.3706 48.0605 38.3762C47.7505 38.4491 47.4524 38.5655 47.1751 38.722C47.0108 38.8026 46.8696 38.9235 46.7647 39.0735C46.6108 39.3243 46.6469 39.6435 46.6697 39.938C46.6763 39.9622 46.6763 39.9878 46.6697 40.0121C46.6507 40.0539 46.5994 40.0672 46.5538 40.0805C46.2139 40.171 45.9227 40.3906 45.7424 40.6927C45.5621 40.9947 45.5069 41.3552 45.5886 41.6974C45.3741 41.7777 45.171 41.8856 44.9844 42.0185C44.821 42.142 44.46 42.56 44.65 42.7177Z" fill="#E0E0E0"/>
<path opacity="0.1" d="M53.6066 38.4959C53.6066 38.2166 53.3615 37.9943 53.1031 37.886C52.8231 37.7698 52.5148 37.7401 52.2177 37.8005C52.1733 37.66 52.0941 37.5331 51.9874 37.4314C51.8808 37.3298 51.7502 37.2567 51.6078 37.2191C51.5696 37.2101 51.5309 37.2031 51.4919 37.1982C51.591 37.2746 51.6635 37.3803 51.699 37.5003C51.7579 37.6636 51.7579 37.8424 51.699 38.0057C51.9455 37.9685 52.1974 37.9953 52.4305 38.0836C52.4974 38.101 52.5591 38.1345 52.6101 38.1812C52.6611 38.2279 52.6999 38.2863 52.7231 38.3515C52.7313 38.4117 52.7239 38.473 52.7016 38.5296C52.6793 38.5861 52.6429 38.636 52.5958 38.6745C52.3583 38.8968 51.9973 38.9006 51.6743 38.8892C51.7142 39.1362 51.7332 39.4383 51.528 39.5808C51.4067 39.6485 51.2671 39.6765 51.129 39.6606H50.5134C50.4893 39.9204 50.3933 40.1684 50.2363 40.3767C50.0792 40.5851 49.8673 40.7457 49.6242 40.8405C49.812 40.8247 49.996 40.7791 50.1695 40.7056C50.3217 40.6447 50.4561 40.5465 50.5604 40.42C50.6647 40.2934 50.7354 40.1427 50.7661 39.9817C51.0598 40.0134 51.3568 39.9941 51.6439 39.9247C51.787 39.8891 51.919 39.8183 52.0279 39.7188C52.1367 39.6192 52.2189 39.4941 52.2671 39.3547C52.288 39.2749 52.3013 39.1799 52.3716 39.14C52.4138 39.1207 52.4605 39.1134 52.5065 39.1191C52.7392 39.1397 52.9737 39.1105 53.1943 39.0336C53.3077 38.9935 53.407 38.9213 53.4802 38.8259C53.5534 38.7304 53.5973 38.6158 53.6066 38.4959Z" fill="black"/>
<path d="M79.5758 54.9062L85.8059 58.5029L82.2472 60.5568L76.0171 56.9601L79.5758 54.9062Z" fill="#FF6F00"/>
<path opacity="0.25" d="M79.5758 54.9062L85.8059 58.5029L82.2472 60.5568L76.0171 56.9601L79.5758 54.9062Z" fill="white"/>
<path d="M82.2453 60.5587L85.8059 58.5029L85.8021 60.5549L82.2396 62.6107L82.2453 60.5587Z" fill="#FF6F00"/>
<path opacity="0.2" d="M82.2453 60.5587L85.8059 58.5029L85.8021 60.5549L82.2396 62.6107L82.2453 60.5587Z" fill="black"/>
<path d="M76.0095 59.014L76.0171 56.9601L82.2472 60.5568L82.2396 62.6107L76.0095 59.014Z" fill="#FF6F00"/>
<path d="M74.9303 57.4769L81.1604 61.0736L77.6017 63.1275L71.3716 59.5308L74.9303 57.4769Z" fill="#FF6F00"/>
<path opacity="0.25" d="M74.9303 57.4769L81.1604 61.0736L77.6017 63.1275L71.3716 59.5308L74.9303 57.4769Z" fill="white"/>
<path d="M77.5998 63.1294L81.1604 61.0736L81.1566 63.1256L77.5941 65.1814L77.5998 63.1294Z" fill="#FF6F00"/>
<path opacity="0.2" d="M77.5998 63.1294L81.1604 61.0736L81.1566 63.1256L77.5941 65.1814L77.5998 63.1294Z" fill="black"/>
<path d="M71.364 61.5847L71.3716 59.5308L77.6017 63.1275L77.5941 65.1814L71.364 61.5847Z" fill="#FF6F00"/>
<path d="M76.4712 53.8783L82.7013 57.4769L79.1445 59.5308L72.9125 55.9341L76.4712 53.8783Z" fill="#FF6F00"/>
<path opacity="0.25" d="M76.4712 53.8783L82.7013 57.4769L79.1445 59.5308L72.9125 55.9341L76.4712 53.8783Z" fill="white"/>
<path d="M79.1407 59.5327L82.7013 57.4769L82.6975 59.5289L79.135 61.5847L79.1407 59.5327Z" fill="#FF6F00"/>
<path opacity="0.2" d="M79.1407 59.5327L82.7013 57.4769L82.6975 59.5289L79.135 61.5847L79.1407 59.5327Z" fill="black"/>
<path d="M72.9049 57.9861L72.9125 55.9341L79.1445 59.5308L79.135 61.5847L72.9049 57.9861Z" fill="#FF6F00"/>
<path d="M67.3284 77.7556L73.72 74.062C73.8514 73.9919 73.9985 73.9566 74.1475 73.9595C74.2976 73.9566 74.446 73.9919 74.5788 74.062L80.9742 77.7556C81.0231 77.7777 81.0652 77.8124 81.0963 77.8561C81.1273 77.8999 81.1462 77.9511 81.1509 78.0045V78.47C81.1464 78.5233 81.1277 78.5744 81.0966 78.6179C81.0655 78.6614 81.0232 78.6956 80.9742 78.717L74.5788 82.4088C74.4465 82.4804 74.2979 82.5164 74.1475 82.5132C73.9983 82.5164 73.8509 82.4804 73.72 82.4088L67.3208 78.717C67.272 78.6953 67.2299 78.661 67.1989 78.6175C67.1678 78.5741 67.1489 78.5232 67.1441 78.47V78.0027C67.1502 77.9489 67.1705 77.8976 67.2028 77.8542C67.2352 77.8108 67.2785 77.7768 67.3284 77.7556Z" fill="#FF6F00"/>
<path opacity="0.1" d="M67.1517 78.0045V78.47C67.1565 78.5232 67.1754 78.5741 67.2065 78.6175C67.2375 78.6609 67.2796 78.6953 67.3284 78.717L73.72 82.4106C73.8509 82.4822 73.9983 82.5183 74.1475 82.5151V73.9651C73.9985 73.9623 73.8514 73.9976 73.72 74.0677L67.3208 77.7613C67.2743 77.7842 67.2344 77.8186 67.2048 77.8611C67.1752 77.9036 67.157 77.953 67.1517 78.0045Z" fill="black"/>
<path opacity="0.3" d="M74.1551 73.9594V82.5094C74.3055 82.5126 74.4541 82.4766 74.5864 82.4049L80.9818 78.7132C81.0307 78.6918 81.073 78.6576 81.1041 78.6141C81.1353 78.5706 81.154 78.5195 81.1585 78.4662V77.9988C81.1538 77.9454 81.1349 77.8942 81.1039 77.8504C81.0728 77.8067 81.0307 77.772 80.9818 77.7499L74.5864 74.062C74.4536 73.9919 74.3052 73.9566 74.1551 73.9594Z" fill="black"/>
<path d="M74.5845 81.947L80.9837 78.2534C81.0353 78.2357 81.0801 78.2022 81.1118 78.1578C81.1436 78.1133 81.1606 78.0601 81.1606 78.0055C81.1606 77.9509 81.1436 77.8976 81.1118 77.8532C81.0801 77.8087 81.0353 77.7753 80.9837 77.7575L74.5845 74.0639C74.4516 73.9956 74.3044 73.96 74.1551 73.96C74.0057 73.96 73.8585 73.9956 73.7257 74.0639L67.3284 77.7575C67.2767 77.7753 67.2319 77.8087 67.2002 77.8532C67.1685 77.8976 67.1514 77.9509 67.1514 78.0055C67.1514 78.0601 67.1685 78.1133 67.2002 78.1578C67.2319 78.2022 67.2767 78.2357 67.3284 78.2534L73.72 81.947C73.8538 82.0154 74.0019 82.0511 74.1522 82.0511C74.3025 82.0511 74.4506 82.0154 74.5845 81.947Z" fill="#FF6F00"/>
<path opacity="0.5" d="M74.5845 81.947L80.9837 78.2534C81.0353 78.2357 81.0801 78.2022 81.1118 78.1578C81.1436 78.1133 81.1606 78.0601 81.1606 78.0055C81.1606 77.9509 81.1436 77.8976 81.1118 77.8532C81.0801 77.8087 81.0353 77.7753 80.9837 77.7575L74.5845 74.0639C74.4516 73.9956 74.3044 73.96 74.1551 73.96C74.0057 73.96 73.8585 73.9956 73.7257 74.0639L67.3284 77.7575C67.2767 77.7753 67.2319 77.8087 67.2002 77.8532C67.1685 77.8976 67.1514 77.9509 67.1514 78.0055C67.1514 78.0601 67.1685 78.1133 67.2002 78.1578C67.2319 78.2022 67.2767 78.2357 67.3284 78.2534L73.72 81.947C73.8538 82.0154 74.0019 82.0511 74.1522 82.0511C74.3025 82.0511 74.4506 82.0154 74.5845 81.947Z" fill="white"/>
<path opacity="0.05" d="M74.1551 73.9594C74.3049 73.956 74.453 73.9921 74.5845 74.0639L80.9837 77.7575C81.0353 77.7753 81.0801 77.8087 81.1118 77.8532C81.1435 77.8976 81.1606 77.9509 81.1606 78.0055C81.1606 78.0601 81.1435 78.1133 81.1118 78.1578C81.0801 78.2023 81.0353 78.2357 80.9837 78.2534L74.5845 81.947C74.4524 82.0173 74.3046 82.0527 74.1551 82.0496V73.9594Z" fill="black"/>
<path d="M70.0245 77.4459L72.9866 67.7939V67.7787C73.0458 67.6184 73.1594 67.4839 73.3077 67.3987C73.5658 67.2557 73.8561 67.1806 74.1513 67.1806C74.4464 67.1806 74.7367 67.2557 74.9949 67.3987C75.143 67.4845 75.2571 67.6187 75.3179 67.7787V67.7901L78.28 77.4459C78.5536 78.2838 78.1717 79.1901 77.14 79.8418C75.4927 80.8735 72.8232 80.8735 71.1759 79.8418C70.1347 79.1901 69.7528 78.28 70.0245 77.4459Z" fill="#FF6F00"/>
<path d="M72.1354 70.5622V70.5508L72.5553 69.179C72.5223 69.3005 72.5226 69.4285 72.556 69.5499C72.5894 69.6712 72.6548 69.7813 72.7453 69.8687C72.8227 69.9535 72.9116 70.027 73.0094 70.0872C73.3604 70.2834 73.7558 70.3864 74.1579 70.3864C74.56 70.3864 74.9555 70.2834 75.3065 70.0872C75.4039 70.0265 75.4927 69.953 75.5706 69.8687C75.6616 69.7812 75.7273 69.6708 75.7607 69.5491C75.7941 69.4273 75.7941 69.2988 75.7606 69.1771L76.1824 70.5527C76.2167 70.6676 76.2263 70.7885 76.2106 70.9073C76.1949 71.0262 76.1542 71.1404 76.0912 71.2424C75.9723 71.4322 75.8102 71.591 75.6181 71.706C75.4573 71.8015 75.2857 71.8774 75.107 71.9321C74.493 72.126 73.8342 72.126 73.2203 71.9321C73.0414 71.8778 72.8697 71.8018 72.7092 71.706C72.5171 71.591 72.3549 71.4322 72.2361 71.2424C72.1721 71.1426 72.1301 71.0304 72.1127 70.9131C72.0954 70.7959 72.1031 70.6763 72.1354 70.5622Z" fill="#FAFAFA"/>
<path d="M70.4387 76.0912V76.0817L70.87 74.708C70.8027 74.932 70.7948 75.1697 70.8472 75.3977C70.9075 75.6553 71.0301 75.8941 71.2044 76.0931C71.3741 76.2875 71.572 76.4553 71.7915 76.5909C73.1025 77.4117 75.2248 77.4117 76.5415 76.5909C76.7619 76.4558 76.9605 76.2879 77.1305 76.0931C77.304 75.8936 77.4265 75.655 77.4877 75.3977C77.5399 75.1702 77.5314 74.933 77.463 74.7099L77.8848 76.0798V76.0931C77.953 76.317 77.9686 76.5537 77.9304 76.7847C77.8449 77.3072 77.482 77.8145 76.8436 78.2154C75.3654 79.1426 72.9695 79.1426 71.4913 78.2154C70.851 77.8145 70.49 77.3072 70.4026 76.7847C70.3604 76.5539 70.3728 76.3164 70.4387 76.0912Z" fill="#FAFAFA"/>
<path d="M71.288 73.3267V73.3172L71.7098 71.9435C71.6402 72.1708 71.6543 72.4155 71.7497 72.6332C71.8835 72.9221 72.1013 73.1638 72.3748 73.3267L72.3938 73.3381C73.3666 73.948 74.9417 73.948 75.9126 73.3381L75.9335 73.3267C76.2069 73.1638 76.4248 72.9221 76.5586 72.6332C76.653 72.4153 76.6671 72.1709 76.5985 71.9435L77.0184 73.3153V73.3267C77.0896 73.5524 77.0896 73.7946 77.0184 74.0202C76.9293 74.2874 76.769 74.5252 76.5548 74.708C76.4501 74.8037 76.3369 74.8896 76.2166 74.9645C75.8711 75.1741 75.4918 75.322 75.0956 75.4015C74.4733 75.5308 73.8311 75.5308 73.2089 75.4015C72.812 75.3223 72.432 75.1744 72.086 74.9645C71.966 74.8891 71.8528 74.8033 71.7478 74.708C71.5348 74.5241 71.3747 74.2867 71.2842 74.0202C71.2151 73.794 71.2164 73.5522 71.288 73.3267Z" fill="#FAFAFA"/>
<path opacity="0.1" d="M74.1551 67.1859C74.4509 67.1807 74.7426 67.2562 74.9987 67.4044C75.1468 67.4902 75.2609 67.6244 75.3217 67.7844V67.7958L78.28 77.4459C78.5536 78.2838 78.1717 79.1901 77.14 79.8418C76.2349 80.3671 75.2032 80.6346 74.157 80.6151H74.1836C75.5136 80.3833 76.418 79.0001 76.2318 77.5447L75.0006 67.9383L74.1551 67.1859Z" fill="black"/>
<path d="M74.9987 68.4627C75.4642 68.1701 75.4642 67.7027 74.9987 67.4044C74.7405 67.2613 74.4502 67.1863 74.1551 67.1863C73.8599 67.1863 73.5696 67.2613 73.3115 67.4044C72.846 67.697 72.846 68.1644 73.3115 68.4627C73.5696 68.6058 73.8599 68.6808 74.1551 68.6808C74.4502 68.6808 74.7405 68.6058 74.9987 68.4627Z" fill="#FF6F00"/>
<path opacity="0.5" d="M74.9987 68.4627C75.4642 68.1701 75.4642 67.7027 74.9987 67.4044C74.7405 67.2613 74.4502 67.1863 74.1551 67.1863C73.8599 67.1863 73.5696 67.2613 73.3115 67.4044C72.846 67.697 72.846 68.1644 73.3115 68.4627C73.5696 68.6058 73.8599 68.6808 74.1551 68.6808C74.4502 68.6808 74.7405 68.6058 74.9987 68.4627Z" fill="white"/>
<path d="M50.7072 74.9911L57.1045 71.2975C57.2376 71.2301 57.3847 71.1949 57.5339 71.1949C57.6831 71.1949 57.8302 71.2301 57.9633 71.2975L64.3587 74.9911C64.4076 75.0132 64.4497 75.0479 64.4808 75.0916C64.5118 75.1354 64.5307 75.1866 64.5354 75.24V75.7055C64.5307 75.759 64.5118 75.8102 64.4808 75.8539C64.4497 75.8977 64.4076 75.9324 64.3587 75.9544L57.9633 79.6461C57.8306 79.7148 57.6833 79.7506 57.5339 79.7506C57.3845 79.7506 57.2372 79.7148 57.1045 79.6461L50.7072 75.9544C50.6583 75.9324 50.6161 75.8977 50.5851 75.8539C50.554 75.8102 50.5352 75.759 50.5305 75.7055V75.24C50.5352 75.1866 50.554 75.1354 50.5851 75.0916C50.6161 75.0479 50.6583 75.0132 50.7072 74.9911Z" fill="#FF6F00"/>
<path opacity="0.1" d="M50.54 75.24V75.7055C50.5447 75.7589 50.5635 75.8102 50.5946 75.8539C50.6256 75.8976 50.6678 75.9323 50.7167 75.9544L57.114 79.6461C57.2456 79.7177 57.3936 79.7537 57.5434 79.7506V71.2006C57.3938 71.1969 57.2458 71.2322 57.114 71.3032L50.7167 74.9968C50.6686 75.0184 50.6269 75.0522 50.5959 75.0948C50.5649 75.1375 50.5456 75.1876 50.54 75.24Z" fill="black"/>
<path opacity="0.3" d="M57.5339 71.1949V79.7449C57.6837 79.748 57.8317 79.712 57.9633 79.6404L64.3587 75.9487C64.4076 75.9266 64.4497 75.892 64.4808 75.8482C64.5118 75.8045 64.5307 75.7533 64.5354 75.6998V75.24C64.5307 75.1866 64.5118 75.1353 64.4808 75.0916C64.4497 75.0479 64.4076 75.0132 64.3587 74.9911L57.9633 71.2975C57.8315 71.2266 57.6835 71.1912 57.5339 71.1949Z" fill="black"/>
<path d="M57.9633 79.1825L64.3606 75.4889C64.5981 75.3502 64.5981 75.1279 64.3606 74.9911L57.9633 71.2975C57.83 71.2298 57.6825 71.1945 57.5329 71.1945C57.3834 71.1945 57.2359 71.2298 57.1026 71.2975L50.7053 74.9911C50.4678 75.1279 50.4678 75.3502 50.7053 75.4889L57.1026 79.1825C57.2359 79.2503 57.3834 79.2856 57.5329 79.2856C57.6825 79.2856 57.83 79.2503 57.9633 79.1825Z" fill="#FF6F00"/>
<path opacity="0.5" d="M57.9633 79.1825L64.3606 75.4889C64.5981 75.3502 64.5981 75.1279 64.3606 74.9911L57.9633 71.2975C57.83 71.2298 57.6825 71.1945 57.5329 71.1945C57.3834 71.1945 57.2359 71.2298 57.1026 71.2975L50.7053 74.9911C50.4678 75.1279 50.4678 75.3502 50.7053 75.4889L57.1026 79.1825C57.2359 79.2503 57.3834 79.2856 57.5329 79.2856C57.6825 79.2856 57.83 79.2503 57.9633 79.1825Z" fill="white"/>
<path opacity="0.05" d="M57.5339 71.1949C57.6834 71.1923 57.8311 71.2276 57.9633 71.2975L64.3606 74.9911C64.5981 75.1279 64.5981 75.3502 64.3606 75.4889L57.9633 79.1806C57.8316 79.252 57.6836 79.288 57.5339 79.2851V71.1949Z" fill="black"/>
<path d="M53.4033 74.6795L56.3635 65.0294V65.0142C56.4229 64.8534 56.5373 64.7187 56.6865 64.6342C56.9446 64.4911 57.2349 64.4161 57.5301 64.4161C57.8252 64.4161 58.1155 64.4911 58.3737 64.6342C58.5219 64.7193 58.6356 64.8538 58.6948 65.0142V65.0256L61.655 74.6776C61.9267 75.5174 61.5448 76.4237 60.5055 77.0754C58.8582 78.1071 56.1887 78.1071 54.5414 77.0754C53.5116 76.4256 53.1297 75.5193 53.4033 74.6795Z" fill="#FF6F00"/>
<path d="M55.5123 67.7958V67.7863L55.9322 66.4145C55.8996 66.536 55.9001 66.6639 55.9335 66.7852C55.9669 66.9064 56.032 67.0165 56.1222 67.1042C56.1996 67.1889 56.2885 67.2625 56.3863 67.3227C56.7376 67.518 57.1329 67.6205 57.5348 67.6205C57.9368 67.6205 58.3321 67.518 58.6834 67.3227C58.7811 67.2625 58.87 67.1889 58.9475 67.1042C59.038 67.0164 59.1033 66.9059 59.1367 66.7843C59.1701 66.6627 59.1704 66.5343 59.1375 66.4126L59.5593 67.7882C59.5937 67.9032 59.6032 68.0242 59.5872 68.1431C59.5711 68.262 59.5299 68.3762 59.4662 68.4779C59.3473 68.6676 59.1852 68.8265 58.9931 68.9415C58.8323 69.037 58.6608 69.1129 58.482 69.1676C57.868 69.3615 57.2092 69.3615 56.5953 69.1676C56.4165 69.1129 56.2449 69.037 56.0842 68.9415C55.8921 68.8265 55.73 68.6676 55.6111 68.4779C55.5483 68.3772 55.5071 68.2646 55.4901 68.1472C55.4731 68.0298 55.4806 67.9101 55.5123 67.7958Z" fill="#FAFAFA"/>
<path d="M53.8156 73.3267V73.3172L54.2374 71.9435C54.1686 72.1672 54.1601 72.4051 54.2127 72.6332C54.2739 72.8899 54.3965 73.1278 54.5699 73.3267C54.7393 73.5226 54.938 73.6912 55.1589 73.8264C56.468 74.6453 58.5903 74.6453 59.8994 73.8264C60.1203 73.6912 60.319 73.5226 60.4884 73.3267C60.6625 73.1283 60.7852 72.8901 60.8456 72.6332C60.8979 72.4058 60.8901 72.1688 60.8228 71.9454L61.2427 73.3153V73.3286C61.3117 73.5517 61.3273 73.788 61.2883 74.0183C61.2028 74.5427 60.8418 75.05 60.2015 75.4509C58.7233 76.3781 56.3274 76.3781 54.8492 75.4509C54.2089 75.05 53.8479 74.5427 53.7624 74.0183C53.7266 73.7867 53.7448 73.55 53.8156 73.3267Z" fill="#FAFAFA"/>
<path d="M54.6649 70.5603V70.5508L55.0867 69.179C55.0181 69.4064 55.0322 69.6508 55.1266 69.8687C55.26 70.1573 55.478 70.3985 55.7517 70.5603L55.7707 70.5736C56.7435 71.1835 58.3186 71.1835 59.2914 70.5736L59.3104 70.5603C59.5841 70.3985 59.8021 70.1573 59.9355 69.8687C60.0309 69.651 60.045 69.4063 59.9754 69.179L60.3972 70.5508V70.5622C60.4675 70.788 60.4675 71.0299 60.3972 71.2557C60.3061 71.5219 60.1462 71.7592 59.9336 71.9435C59.8286 72.0387 59.7154 72.1246 59.5954 72.2C59.2493 72.4093 58.8693 72.5565 58.4725 72.6351C57.8504 72.7662 57.2079 72.7662 56.5858 72.6351C56.1896 72.5565 55.8103 72.4093 55.4648 72.2C55.3442 72.1246 55.2304 72.0387 55.1247 71.9435C54.9121 71.7592 54.7522 71.5219 54.6611 71.2557C54.592 71.0289 54.5933 70.7864 54.6649 70.5603Z" fill="#FAFAFA"/>
<path opacity="0.1" d="M57.5339 64.4214C57.8298 64.4157 58.1216 64.4913 58.3775 64.6399C58.5257 64.725 58.6394 64.8595 58.6986 65.0199V65.0313L61.6588 74.6833C61.9305 75.5231 61.5486 76.4294 60.5093 77.0811C59.605 77.6066 58.5739 77.8741 57.5282 77.8544H57.5529C58.8829 77.6207 59.7892 76.2375 59.603 74.784L58.3775 65.17L57.5339 64.4214Z" fill="black"/>
<path d="M58.3775 65.6963C58.843 65.4056 58.843 64.9363 58.3775 64.6399C58.1193 64.4968 57.829 64.4218 57.5339 64.4218C57.2387 64.4218 56.9484 64.4968 56.6903 64.6399C56.2248 64.9325 56.2248 65.3999 56.6903 65.6963C56.9482 65.8402 57.2386 65.9158 57.5339 65.9158C57.8292 65.9158 58.1196 65.8402 58.3775 65.6963Z" fill="#FF6F00"/>
<path opacity="0.5" d="M58.3775 65.6963C58.843 65.4056 58.843 64.9363 58.3775 64.6399C58.1193 64.4968 57.829 64.4218 57.5339 64.4218C57.2387 64.4218 56.9484 64.4968 56.6903 64.6399C56.2248 64.9325 56.2248 65.3999 56.6903 65.6963C56.9482 65.8402 57.2386 65.9158 57.5339 65.9158C57.8292 65.9158 58.1196 65.8402 58.3775 65.6963Z" fill="white"/>
</svg>
