<svg width="93" height="93" viewBox="0 0 93 93" fill="none" xmlns="http://www.w3.org/2000/svg">
<path d="M47.0413 68.3438V62.2375L39.4859 57.8739L40.2411 64.4174L47.0413 68.3438Z" fill="#263238"/>
<path d="M47.0413 68.3438L58.3742 61.8004L59.1294 55.2569L47.0413 62.2375V68.3438Z" fill="#37474F"/>
<path d="M39.0135 56.5663C39.019 56.5064 39.0404 56.449 39.0753 56.4C39.1103 56.3509 39.1576 56.3121 39.2125 56.2873L51.0905 49.4295C51.2403 49.3534 51.406 49.3137 51.5741 49.3137C51.7422 49.3137 51.9078 49.3534 52.0577 49.4295L59.4028 53.6703C59.4578 53.6949 59.5053 53.7337 59.5403 53.7828C59.5752 53.8318 59.5965 53.8893 59.6018 53.9493V55.694C59.5968 55.7543 59.5757 55.8122 59.5407 55.8616C59.5057 55.911 59.4581 55.9501 59.4028 55.9748L47.5249 62.8308C47.375 62.9069 47.2093 62.9466 47.0413 62.9466C46.8732 62.9466 46.7075 62.9069 46.5577 62.8308L39.2125 58.59C39.1578 58.5651 39.1105 58.5262 39.0756 58.4772C39.0406 58.4282 39.0192 58.3709 39.0135 58.311V56.5663Z" fill="#FF6F00"/>
<path opacity="0.2" d="M39.2125 56.2873L47.0412 51.7675V62.948C46.8727 62.9512 46.7061 62.9108 46.5576 62.8308L39.2125 58.59C39.1577 58.5651 39.1105 58.5262 39.0756 58.4772C39.0406 58.4282 39.0192 58.3709 39.0135 58.311V56.5645C39.0193 56.5048 39.0408 56.4478 39.0758 56.3992C39.1107 56.3505 39.1579 56.3119 39.2125 56.2873Z" fill="black"/>
<path opacity="0.1" d="M47.0413 51.7675L51.0905 49.4295C51.2403 49.3534 51.406 49.3137 51.5741 49.3137C51.7421 49.3137 51.9078 49.3534 52.0577 49.4295L59.4028 53.6703C59.4578 53.6949 59.5053 53.7337 59.5402 53.7828C59.5752 53.8318 59.5965 53.8893 59.6018 53.9493V55.694C59.5968 55.7543 59.5757 55.8122 59.5407 55.8616C59.5057 55.911 59.4581 55.9501 59.4028 55.9748L47.5249 62.8308C47.3764 62.9108 47.2099 62.9512 47.0413 62.948V51.7675Z" fill="black"/>
<path d="M46.5577 61.0861L39.2125 56.8453C38.9465 56.6909 38.9465 56.4417 39.2125 56.2873L51.0905 49.4295C51.2403 49.3534 51.406 49.3137 51.5741 49.3137C51.7421 49.3137 51.9078 49.3534 52.0577 49.4295L59.4028 53.6703C59.6688 53.8247 59.6688 54.0739 59.4028 54.2283L47.5249 61.0861C47.375 61.1623 47.2093 61.2019 47.0413 61.2019C46.8732 61.2019 46.7075 61.1623 46.5577 61.0861Z" fill="#FF6F00"/>
<path opacity="0.2" d="M57.2415 54.1669C57.4498 54.2878 57.4387 54.4887 57.2155 54.617L48.9552 59.3879C48.8352 59.4514 48.7019 59.4856 48.5662 59.4879C48.4304 59.4902 48.2961 59.4604 48.174 59.401C47.9657 59.2819 47.9768 59.0792 48.2 58.9508L56.4603 54.1818C56.5802 54.118 56.7134 54.0835 56.8491 54.0809C56.9849 54.0783 57.1193 54.1078 57.2415 54.1669Z" fill="black"/>
<path opacity="0.2" d="M48.9552 59.3879C48.8352 59.4514 48.7019 59.4856 48.5661 59.4879C48.4304 59.4902 48.296 59.4604 48.174 59.401L48.1331 59.3731C48.154 59.3556 48.1764 59.3401 48.2 59.3266L56.4603 54.5575C56.5801 54.4938 56.7134 54.4592 56.8491 54.4566C56.9848 54.454 57.1193 54.4835 57.2415 54.5426L57.2824 54.5724C57.2614 54.5892 57.239 54.6041 57.2154 54.617L48.9552 59.3879Z" fill="black"/>
<path opacity="0.2" d="M51.1965 50.6776C51.4067 50.7966 51.3955 50.9993 51.1723 51.1277L42.9102 55.8967C42.7906 55.9605 42.6577 55.995 42.5223 55.9976C42.3869 56.0002 42.2527 55.9707 42.1308 55.9116C41.9225 55.7907 41.9337 55.5898 42.155 55.4615L50.4171 50.6906C50.5368 50.6271 50.6698 50.5929 50.8053 50.5906C50.9407 50.5884 51.0747 50.6182 51.1965 50.6776Z" fill="black"/>
<path opacity="0.2" d="M42.9102 55.8967C42.7907 55.9605 42.6578 55.995 42.5223 55.9976C42.3869 56.0002 42.2527 55.9707 42.1309 55.9116C42.1162 55.9032 42.1025 55.8932 42.0899 55.8818C42.1106 55.8655 42.1323 55.8506 42.155 55.8372L50.4172 51.0682C50.5365 51.004 50.6695 50.9692 50.805 50.9666C50.9405 50.964 51.0747 50.9937 51.1965 51.0533C51.2107 51.0617 51.2244 51.071 51.2374 51.0812C51.2171 51.0986 51.1954 51.1142 51.1723 51.1277L42.9102 55.8967Z" fill="black"/>
<path opacity="0.2" d="M43.6393 56.358C43.431 56.4789 43.4421 56.6798 43.6653 56.8081L46.6413 58.523C46.7609 58.5868 46.8938 58.6213 47.0292 58.6239C47.1647 58.6265 47.2988 58.597 47.4207 58.5379C47.629 58.417 47.6178 58.2161 47.3965 58.0878L44.4205 56.3729C44.3006 56.3091 44.1674 56.2746 44.0317 56.272C43.8959 56.2694 43.7615 56.2989 43.6393 56.358Z" fill="black"/>
<path opacity="0.2" d="M46.6395 58.5137C46.759 58.5775 46.8919 58.612 47.0274 58.6146C47.1628 58.6172 47.2969 58.5877 47.4188 58.5286C47.433 58.5202 47.4467 58.5109 47.4598 58.5007C47.4395 58.4833 47.4177 58.4677 47.3946 58.4542L44.4186 56.7393C44.2988 56.6755 44.1656 56.641 44.0298 56.6384C43.8941 56.6358 43.7597 56.6653 43.6374 56.7244C43.6237 56.7333 43.6106 56.7432 43.5984 56.7542C43.6184 56.7713 43.6403 56.7863 43.6635 56.7988L46.6395 58.5137Z" fill="black"/>
<path opacity="0.2" d="M42.1308 57.221C41.9225 57.3401 41.9337 57.5428 42.155 57.6712L45.131 59.3861C45.2509 59.4498 45.3841 59.4844 45.5198 59.487C45.6556 59.4896 45.79 59.4601 45.9122 59.401C46.1205 59.2801 46.1094 59.0773 45.8862 58.949L42.9102 57.2341C42.7905 57.1706 42.6575 57.1364 42.5221 57.1341C42.3866 57.1318 42.2526 57.1616 42.1308 57.221Z" fill="black"/>
<path opacity="0.2" d="M45.1292 59.3861C45.249 59.4498 45.3823 59.4844 45.518 59.487C45.6537 59.4896 45.7882 59.4601 45.9104 59.401C45.9253 59.3917 45.9364 59.3805 45.9494 59.3712C45.9292 59.3538 45.9074 59.3382 45.8843 59.3247L42.9083 57.6098C42.7887 57.5463 42.6557 57.5121 42.5202 57.5098C42.3848 57.5076 42.2507 57.5374 42.129 57.5968C42.1144 57.6045 42.1006 57.6139 42.0881 57.6247C42.1083 57.6421 42.1301 57.6576 42.1532 57.6712L45.1292 59.3861Z" fill="black"/>
<path opacity="0.2" d="M52.7068 51.1147C52.4985 51.2356 52.5078 51.4364 52.731 51.5648L55.707 53.2797C55.8265 53.3434 55.9594 53.378 56.0949 53.3806C56.2303 53.3832 56.3644 53.3537 56.4863 53.2946C56.6965 53.1737 56.6853 52.9728 56.4621 52.8445L53.4861 51.1295C53.3666 51.0658 53.2337 51.0312 53.0982 51.0287C52.9628 51.0261 52.8287 51.0555 52.7068 51.1147Z" fill="black"/>
<path opacity="0.2" d="M55.7051 53.2797C55.825 53.3434 55.9582 53.378 56.0939 53.3806C56.2297 53.3832 56.3641 53.3537 56.4863 53.2946C56.5001 53.2857 56.5132 53.2758 56.5254 53.2648C56.5051 53.248 56.4833 53.2331 56.4603 53.2202L53.4843 51.5053C53.3648 51.4415 53.2318 51.407 53.0964 51.4044C52.961 51.4018 52.8268 51.4313 52.7049 51.4904C52.6907 51.4988 52.6771 51.5081 52.664 51.5183C52.6843 51.5357 52.7061 51.5513 52.7291 51.5648L55.7051 53.2797Z" fill="black"/>
<path opacity="0.2" d="M51.1965 51.9851C50.9882 52.106 50.9993 52.3088 51.2207 52.4371L54.1967 54.152C54.3167 54.2152 54.4499 54.2495 54.5855 54.2521C54.7211 54.2546 54.8555 54.2255 54.9779 54.1669C55.1862 54.046 55.175 53.8433 54.9518 53.7149L51.9758 52C51.856 51.9371 51.7232 51.9031 51.5879 51.9005C51.4526 51.8979 51.3186 51.9269 51.1965 51.9851Z" fill="black"/>
<path opacity="0.2" d="M54.1948 54.152C54.3149 54.2152 54.448 54.2495 54.5836 54.2521C54.7193 54.2546 54.8536 54.2255 54.976 54.1669L55.0169 54.1372C54.996 54.1198 54.9736 54.1042 54.95 54.0907L51.974 52.3757C51.8539 52.3126 51.7208 52.2783 51.5851 52.2757C51.4495 52.2731 51.3151 52.3023 51.1928 52.3609L51.1519 52.3906C51.1725 52.4076 51.1942 52.4231 51.217 52.4371L54.1948 54.152Z" fill="black"/>
<path d="M46.2861 54.8793V56.5663L47.0413 57.0034L47.7964 56.5663V55.2866C47.8041 55.147 47.8444 55.0112 47.9142 54.89C47.984 54.7689 48.0813 54.6658 48.1982 54.5891L50.0582 53.5122L50.4116 53.3095C50.6329 53.1811 50.8133 53.2853 50.8133 53.542V54.8216L51.5685 54.3845V52.6975C51.5705 52.6641 51.5705 52.6305 51.5685 52.5971C51.5669 52.5714 51.5631 52.5459 51.5573 52.5208C51.5521 52.4918 51.5446 52.4632 51.535 52.4353C51.5275 52.4131 51.5188 52.3914 51.509 52.3702C51.4987 52.3489 51.4869 52.3283 51.4736 52.3088C51.4615 52.2897 51.4478 52.2717 51.4327 52.2548C51.4186 52.2386 51.4031 52.2236 51.3862 52.2102C51.37 52.1973 51.3526 52.1861 51.3341 52.1767L51.31 52.1637L50.5827 51.7433C50.4919 51.7008 50.3912 51.6835 50.2914 51.6933C50.1916 51.7032 50.0962 51.7397 50.0154 51.7991L47.0933 53.4862C46.8586 53.6384 46.6631 53.8439 46.5228 54.086C46.3825 54.3281 46.3014 54.5999 46.2861 54.8793Z" fill="#455A64"/>
<path d="M50.0619 53.5122V54.3827L50.817 54.8198V53.5401C50.817 53.2834 50.631 53.1793 50.4153 53.3076L50.0619 53.5122Z" fill="#263238"/>
<path d="M47.0413 55.3145V57.0034L47.7964 56.5663V55.2866C47.8041 55.147 47.8444 55.0112 47.9142 54.89C47.984 54.7689 48.0813 54.6658 48.1982 54.5891L50.0582 53.5141L50.4116 53.3113C50.6329 53.183 50.8133 53.2871 50.8133 53.5438V54.8235L51.5685 54.3883V52.6994C51.5705 52.6659 51.5705 52.6324 51.5685 52.5989C51.5669 52.5733 51.5631 52.5477 51.5573 52.5227C51.5521 52.4936 51.5446 52.465 51.535 52.4371C51.5275 52.415 51.5188 52.3933 51.509 52.372C51.4987 52.3507 51.4869 52.3302 51.4736 52.3106C51.4615 52.2916 51.4478 52.2735 51.4327 52.2567C51.4186 52.2404 51.4031 52.2255 51.3862 52.2121C51.37 52.1992 51.3526 52.188 51.3341 52.1786L51.31 52.1656C51.2211 52.1324 51.1255 52.1215 51.0315 52.1338C50.9374 52.1461 50.8478 52.1813 50.7706 52.2362L47.8485 53.9233C47.6144 54.0757 47.4194 54.2811 47.2792 54.5227C47.1389 54.7644 47.0575 55.0356 47.0413 55.3145Z" fill="#37474F"/>
<path d="M50.8189 62.6727L50.5399 62.5127L49.7829 62.948L50.0638 63.1098L50.8189 62.6727Z" fill="#455A64"/>
<path d="M50.0638 63.1098L49.7848 66.761L49.7829 62.948L50.0638 63.1098Z" fill="#263238"/>
<path d="M50.8189 62.6727L50.5399 66.3239L50.6311 66.2811L50.8189 62.6727Z" fill="#37474F"/>
<path d="M44.4949 63.3851L44.7739 63.2233L45.5291 63.6585L45.2501 63.8203L44.4949 63.3851Z" fill="#455A64"/>
<path d="M44.4949 63.3851L44.7739 67.0344L44.6828 66.9916L44.4949 63.3851Z" fill="black"/>
<path d="M41.4724 61.6385L41.7533 61.4786L42.5084 61.9138L42.2276 62.0756L41.4724 61.6385Z" fill="#455A64"/>
<path d="M45.5291 67.4715L45.2501 63.8203L45.5291 63.6585V67.4715Z" fill="#37474F"/>
<path d="M42.5084 61.9138V65.7268L42.2276 62.0756L42.5084 61.9138Z" fill="#37474F"/>
<path d="M41.4724 61.6385L41.7514 65.2897L41.6603 65.2469L41.4724 61.6385Z" fill="black"/>
<path d="M56.1069 59.6204L55.8279 59.4586L55.0727 59.8939L55.3517 60.0557L56.1069 59.6204Z" fill="#455A64"/>
<path d="M55.3517 60.0557L55.0727 63.7069V59.8939L55.3517 60.0557Z" fill="#263238"/>
<path d="M56.1069 59.6204L55.8279 63.2716L55.9209 63.227L56.1069 59.6204Z" fill="#37474F"/>
<path d="M49.3774 62.0533L49.3793 61.181L50.8896 60.3086L51.1425 60.4537L51.1407 61.3261L49.6285 62.1984L49.3774 62.0533Z" fill="#37474F"/>
<path d="M51.1425 60.4537L51.1407 61.3261L49.6285 62.1984L49.6322 61.3261L51.1425 60.4537Z" fill="#455A64"/>
<path d="M49.6322 61.3261L49.3793 61.181L49.3774 62.0533L49.6285 62.1984L49.6322 61.3261Z" fill="#263238"/>
<path d="M54.7063 58.9787L54.71 58.1064L56.2203 57.2341L56.4733 57.3791L56.4696 58.2515L54.9593 59.1238L54.7063 58.9787Z" fill="#37474F"/>
<path d="M56.4733 57.3791L56.4696 58.2515L54.9593 59.1238L54.9611 58.2515L56.4733 57.3791Z" fill="#455A64"/>
<path d="M54.9611 58.2515L54.71 58.1064L54.7063 58.9787L54.9593 59.1238L54.9611 58.2515Z" fill="#263238"/>
<path d="M46.0146 71.9374C45.9123 71.995 45.7207 71.9932 45.6593 72.062V72.3131L46.8274 72.1438L47.2682 72.4024L47.1008 72.7539L45.9216 72.6739V72.925C45.9466 72.9439 45.9727 72.9613 45.9997 72.9771C46.2788 73.1183 46.5871 73.1919 46.8999 73.1919C47.2127 73.1919 47.5211 73.1183 47.8002 72.9771C47.903 72.9309 47.9917 72.8581 48.0571 72.7663C48.1225 72.6744 48.1622 72.5668 48.1722 72.4544V72.2033L48.1033 72.2145C48.1027 72.2102 48.1027 72.2058 48.1033 72.2015L52.5227 69.6496C52.972 69.7492 53.442 69.6901 53.8526 69.4822C54.0115 69.4043 54.1374 69.2725 54.2079 69.1102V68.8572L53.0398 69.2794L52.599 69.0209L52.7664 68.6693L53.9456 68.4982V68.2453C53.9456 68.2453 52.5673 68.1541 52.0651 68.4313C51.9379 68.4981 51.8307 68.5976 51.7545 68.7196L51.6876 68.6954V68.9446C51.6868 69.0376 51.7133 69.1288 51.7638 69.2069L47.3445 71.7588C46.8939 71.6626 46.4238 71.7257 46.0146 71.9374Z" fill="#37474F"/>
<path d="M52.5227 69.657V69.4059L48.1033 71.9578V72.2089L52.5227 69.657Z" fill="#37474F"/>
<path d="M51.7638 68.9669L47.3445 71.5189C46.8953 71.4194 46.4256 71.4779 46.0146 71.6844C45.8557 71.7622 45.7297 71.8941 45.6593 72.0564L46.8274 71.8871L47.2682 72.1457L47.1008 72.4954L45.9216 72.6683C45.9466 72.6872 45.9727 72.7046 45.9997 72.7204C46.2788 72.8616 46.5871 72.9352 46.8999 72.9352C47.2127 72.9352 47.5211 72.8616 47.8002 72.7204C48.1722 72.5121 48.2689 72.2071 48.1033 71.9448L52.5227 69.3929C52.9721 69.4916 53.4417 69.4325 53.8526 69.2255C54.0115 69.1477 54.1374 69.0158 54.2079 68.8535L53.0398 69.0246L52.599 68.7661L52.7664 68.4145L53.9456 68.2415L53.8675 68.1913C53.5884 68.0501 53.28 67.9765 52.9672 67.9765C52.6545 67.9765 52.3461 68.0501 52.067 68.1913C51.708 68.3996 51.5983 68.7047 51.7638 68.9669Z" fill="#455A64"/>
<path d="M52.692 68.8274L52.599 68.7735L52.7664 68.422L53.9456 68.249V68.5019L52.7664 68.6731L52.692 68.8274Z" fill="#263238"/>
<path d="M47.1752 72.3466L47.2682 72.1513L46.8274 71.8909L45.6593 72.062V72.3149L46.8274 72.1438L47.1752 72.3466Z" fill="#263238"/>
<path d="M48.719 75.6499L49.649 77.2495L52.7664 75.4509C52.8385 75.4062 52.8964 75.3419 52.9333 75.2655C52.9702 75.189 52.9846 75.1037 52.9747 75.0194C52.9625 74.7923 52.8968 74.5714 52.783 74.3746C52.6693 74.1777 52.5106 74.0105 52.32 73.8866C52.2541 73.8386 52.1765 73.8092 52.0954 73.8013C52.0143 73.7935 51.9325 73.8075 51.8587 73.842L48.719 75.6499Z" fill="#FF6F00"/>
<path d="M48.533 75.981C48.52 76.2247 48.1759 76.2767 48.1759 76.2767L48.8287 77.4095C48.8287 77.4095 49.0463 77.1416 49.264 77.2477C49.5857 77.3872 49.8369 77.2142 49.8369 76.8292C49.8244 76.6024 49.7586 76.3819 49.6448 76.1854C49.531 75.9889 49.3725 75.822 49.1821 75.6983C48.8473 75.503 48.572 75.6332 48.533 75.981Z" fill="#FF6F00"/>
<path opacity="0.05" d="M48.533 75.981C48.52 76.2247 48.1759 76.2767 48.1759 76.2767L48.8287 77.4095C48.8287 77.4095 49.0463 77.1416 49.264 77.2477C49.5857 77.3872 49.8369 77.2142 49.8369 76.8292C49.8244 76.6024 49.7586 76.3819 49.6448 76.1854C49.531 75.9889 49.3725 75.822 49.1821 75.6983C48.8473 75.503 48.572 75.6332 48.533 75.981Z" fill="black"/>
<path opacity="0.05" d="M48.3303 76.2284C48.2804 76.2509 48.2279 76.2672 48.174 76.2767L48.8269 77.4095C48.8629 77.3685 48.9035 77.3317 48.9478 77.2997C48.9291 77.0869 48.8642 76.8808 48.7575 76.6957C48.6509 76.5107 48.505 76.3512 48.3303 76.2284Z" fill="black"/>
<path d="M47.4933 76.3567L47.5472 76.4516C47.5286 76.5176 47.5192 76.5858 47.5193 76.6543C47.5318 76.8813 47.5976 77.1021 47.7113 77.2989C47.8251 77.4957 47.9836 77.6629 48.174 77.7871C48.2318 77.8218 48.2945 77.8475 48.36 77.8633L48.414 77.9582L48.6316 77.8336C48.6974 77.7857 48.7492 77.7212 48.7819 77.6467C48.8146 77.5722 48.8269 77.4903 48.8176 77.4095C48.8054 77.1826 48.74 76.9619 48.6266 76.7651C48.5131 76.5683 48.3549 76.401 48.1647 76.2767C48.0985 76.2287 48.0206 76.1993 47.9392 76.1915C47.8578 76.1836 47.7758 76.1976 47.7016 76.2321L47.4933 76.3567Z" fill="#FF6F00"/>
<path d="M48.6092 77.536C48.5971 77.3091 48.5317 77.0883 48.4182 76.8915C48.3048 76.6947 48.1466 76.5274 47.9564 76.4032C47.5955 76.1949 47.3017 76.3642 47.3017 76.7752C47.3145 77.0021 47.3804 77.2228 47.4941 77.4196C47.6078 77.6163 47.7662 77.7836 47.9564 77.908C48.3172 78.12 48.6092 77.9526 48.6092 77.536Z" fill="#FF6F00"/>
<path opacity="0.15" d="M48.6092 77.536C48.5971 77.3091 48.5317 77.0883 48.4182 76.8915C48.3048 76.6947 48.1466 76.5274 47.9564 76.4032C47.5955 76.1949 47.3017 76.3642 47.3017 76.7752C47.3145 77.0021 47.3804 77.2228 47.4941 77.4196C47.6078 77.6163 47.7662 77.7836 47.9564 77.908C48.3172 78.12 48.6092 77.9526 48.6092 77.536Z" fill="black"/>
<path opacity="0.15" d="M47.7016 77.7052C47.75 77.7594 47.8043 77.8081 47.8634 77.8503L48.0159 77.4151L47.8299 77.2793L47.7016 77.7052Z" fill="black"/>
<path opacity="0.2" d="M52.4353 74.5711C52.4574 74.6129 52.4628 74.6615 52.4504 74.7071C52.4379 74.7527 52.4086 74.7919 52.3683 74.8166L50.1363 76.1019C50.0946 76.1247 50.0457 76.1307 49.9997 76.1186C49.9537 76.1065 49.914 76.0772 49.8889 76.0368C49.8668 75.995 49.8614 75.9464 49.8739 75.9008C49.8863 75.8552 49.9156 75.816 49.9559 75.7913L52.1879 74.506C52.2296 74.4832 52.2785 74.4772 52.3246 74.4893C52.3706 74.5014 52.4102 74.5307 52.4353 74.5711Z" fill="black"/>
<path opacity="0.2" d="M52.0335 74.0931C52.0507 74.1018 52.0652 74.1151 52.0753 74.1315C52.0854 74.1479 52.0908 74.1668 52.0908 74.1861C52.0908 74.2054 52.0854 74.2243 52.0753 74.2407C52.0652 74.2571 52.0507 74.2704 52.0335 74.2791L49.7643 75.5811C49.7222 75.6014 49.6753 75.6094 49.6289 75.6041C49.5825 75.5989 49.5385 75.5806 49.5021 75.5513C49.4848 75.5427 49.4704 75.5294 49.4603 75.5129C49.4501 75.4965 49.4448 75.4776 49.4448 75.4583C49.4448 75.4391 49.4501 75.4202 49.4603 75.4037C49.4704 75.3873 49.4848 75.374 49.5021 75.3653L51.7694 74.0633C51.8117 74.0427 51.859 74.0345 51.9058 74.0397C51.9526 74.045 51.9969 74.0635 52.0335 74.0931Z" fill="black"/>
<path opacity="0.2" d="M52.6492 75.1589C52.6486 75.1401 52.643 75.1218 52.633 75.1059C52.623 75.09 52.609 75.077 52.5923 75.0683C52.5757 75.0596 52.557 75.0555 52.5382 75.0563C52.5195 75.0572 52.5013 75.0631 52.4855 75.0733L50.2163 76.3753C50.1778 76.4016 50.1474 76.4383 50.1286 76.481C50.1099 76.5238 50.1035 76.5709 50.1103 76.6171C50.1109 76.6359 50.1165 76.6542 50.1264 76.6701C50.1364 76.686 50.1505 76.699 50.1671 76.7077C50.1838 76.7164 50.2025 76.7205 50.2212 76.7196C50.24 76.7188 50.2582 76.7129 50.274 76.7027L52.5432 75.4007C52.5815 75.3742 52.6118 75.3375 52.6305 75.2948C52.6492 75.2521 52.6557 75.205 52.6492 75.1589Z" fill="black"/>
<path d="M42.222 80.1753V80.6105L43.312 80.2571C43.4196 80.0538 43.5677 79.8746 43.7472 79.7308L47.8876 77.3407L48.0141 76.978L47.8876 76.9054L43.7472 79.2955C43.6789 79.3301 43.6028 79.3461 43.5264 79.3418C43.4499 79.3376 43.376 79.3133 43.312 79.2713L42.222 80.1753Z" fill="#455A64"/>
<path d="M42.3503 80.2497V80.6849L43.4403 80.3315C43.5474 80.1279 43.6956 79.9486 43.8755 79.8052L48.0159 77.4151V76.978L43.8755 79.3681C43.8075 79.4031 43.7314 79.4195 43.6549 79.4156C43.5785 79.4117 43.5044 79.3876 43.4403 79.3457L42.3503 80.2497Z" fill="#37474F"/>
<path d="M42.3504 80.6849L42.2239 80.6105V80.1753L42.3504 80.2497V80.6849Z" fill="#263238"/>
<path d="M42.2239 80.1753L42.3504 80.2497L43.4403 79.3457L43.3138 79.2713L42.2239 80.1753Z" fill="#455A64"/>
<path d="M66.6308 72.447L64.914 71.863C64.7671 70.2187 64.9791 66.2346 67.6519 63.8966C70.3657 61.5232 72.1364 63.0447 72.0843 64.0826C72.0285 65.2153 69.5938 66.2774 68.3643 67.8026C67.0214 69.4617 66.6029 70.5963 66.6308 72.447Z" fill="#FF6F00"/>
<path opacity="0.5" d="M66.6308 72.447L64.914 71.863C64.7671 70.2187 64.9791 66.2346 67.6519 63.8966C70.3657 61.5232 72.1364 63.0447 72.0843 64.0826C72.0285 65.2153 69.5938 66.2774 68.3643 67.8026C67.0214 69.4617 66.6029 70.5963 66.6308 72.447Z" fill="white"/>
<path d="M65.472 72.1438C65.4477 72.1433 65.4245 72.1333 65.4075 72.1159C65.3904 72.0985 65.3809 72.0752 65.3809 72.0508C65.4051 67.6277 68.6898 63.7571 70.3266 63.506C70.3388 63.5041 70.3513 63.5047 70.3633 63.5077C70.3753 63.5107 70.3865 63.516 70.3965 63.5234C70.4064 63.5307 70.4148 63.5399 70.4212 63.5505C70.4275 63.5611 70.4317 63.5728 70.4336 63.585C70.4354 63.5972 70.4348 63.6097 70.4318 63.6217C70.4289 63.6337 70.4235 63.6449 70.4162 63.6549C70.4089 63.6648 70.3996 63.6732 70.3891 63.6796C70.3785 63.6859 70.3667 63.6901 70.3545 63.692C68.7512 63.9375 65.5892 67.8751 65.5669 72.0527C65.5666 72.0649 65.564 72.0769 65.5591 72.0881C65.5542 72.0993 65.5471 72.1094 65.5383 72.1179C65.5295 72.1264 65.5191 72.133 65.5078 72.1375C65.4964 72.1419 65.4842 72.1441 65.472 72.1438Z" fill="white"/>
<path d="M70.7098 68.4815C69.2218 67.9923 65.9854 69.6198 65.3586 72.0155L66.6308 72.4451C67.6582 71.6056 68.902 71.0736 70.2187 70.9106C72.3149 70.7005 72.1922 68.9707 70.7098 68.4815Z" fill="#FF6F00"/>
<path opacity="0.65" d="M70.7098 68.4815C69.2218 67.9923 65.9854 69.6198 65.3586 72.0155L66.6308 72.4451C67.6582 71.6056 68.902 71.0736 70.2187 70.9106C72.3149 70.7005 72.1922 68.9707 70.7098 68.4815Z" fill="white"/>
<path d="M65.9389 72.3391C65.9241 72.3396 65.9094 72.3364 65.8961 72.3298C65.8744 72.318 65.8582 72.2981 65.8509 72.2745C65.8436 72.2509 65.8458 72.2254 65.8571 72.2033C67.1312 69.7426 69.897 69.0153 71.0223 69.3166C71.0341 69.3196 71.0452 69.325 71.0549 69.3324C71.0646 69.3397 71.0727 69.349 71.0788 69.3596C71.0849 69.3702 71.0888 69.3819 71.0902 69.394C71.0917 69.4061 71.0907 69.4184 71.0874 69.4301C71.0808 69.4538 71.0653 69.474 71.0442 69.4865C71.023 69.499 70.9978 69.5028 70.9739 69.497C69.8988 69.2087 67.2539 69.9155 66.0226 72.287C66.0151 72.3028 66.0032 72.3161 65.9884 72.3254C65.9736 72.3346 65.9564 72.3394 65.9389 72.3391Z" fill="white"/>
<path d="M64.503 44.8781V72.3838C64.5112 72.4753 64.5438 72.5629 64.5975 72.6375C64.6512 72.7121 64.7239 72.7709 64.808 72.8078C65.0357 72.9242 65.2879 72.9849 65.5436 72.9849C65.7994 72.9849 66.0515 72.9242 66.2793 72.8078C66.3632 72.7706 66.4357 72.7117 66.4893 72.6372C66.5429 72.5626 66.5757 72.4752 66.5843 72.3838V44.8781H64.503Z" fill="#455A64"/>
<path d="M64.503 50.034L66.5843 48.8324V44.8781H64.503V50.034Z" fill="#37474F"/>
<path d="M61.5958 49.5913L75.9512 41.3032V15.611L61.5958 23.8991V49.5913Z" fill="#FF6F00"/>
<path d="M75.9512 15.611L69.4915 11.8817L55.136 20.1698L61.5958 23.8991L75.9512 15.611Z" fill="#FF6F00"/>
<path opacity="0.2" d="M75.9512 15.611L69.4915 11.8817L55.136 20.1698L61.5958 23.8991L75.9512 15.611Z" fill="white"/>
<path d="M55.136 20.1698V45.862L61.5958 49.5913V23.8991L55.136 20.1698Z" fill="#FF6F00"/>
<path opacity="0.2" d="M55.136 20.1698V45.862L61.5958 49.5913V23.8991L55.136 20.1698Z" fill="black"/>
<path d="M70.7488 22.2902L65.4255 36.1379L68.7735 33.4298L66.1695 43.2208L72.1215 28.3334L68.7735 30.9448L70.7488 22.2902Z" fill="#FAFAFA"/>
<path d="M62.682 24.1056C62.8792 23.9921 63.041 24.0851 63.041 24.3139C63.0341 24.4384 62.998 24.5595 62.9357 24.6674C62.8733 24.7753 62.7864 24.867 62.682 24.9352C62.483 25.0505 62.323 24.9575 62.323 24.7287C62.3298 24.604 62.3658 24.4826 62.4282 24.3743C62.4905 24.2661 62.5775 24.174 62.682 24.1056Z" fill="#37474F"/>
<path d="M62.682 47.3147C62.8792 47.1994 63.041 47.2924 63.041 47.5211C63.0341 47.6456 62.998 47.7667 62.9357 47.8746C62.8733 47.9825 62.7864 48.0743 62.682 48.1424C62.483 48.2577 62.323 48.1647 62.323 47.9359C62.3295 47.8114 62.3654 47.6901 62.4278 47.5821C62.4902 47.4741 62.5773 47.3825 62.682 47.3147Z" fill="#37474F"/>
<path d="M74.8743 17.0618C75.0733 16.9465 75.2333 17.0395 75.2333 17.2682C75.2268 17.3928 75.1909 17.5141 75.1285 17.622C75.0661 17.73 74.979 17.8217 74.8743 17.8895C74.6771 18.0048 74.5172 17.9118 74.5172 17.683C74.5237 17.5587 74.5595 17.4377 74.6215 17.3297C74.6835 17.2218 74.7702 17.13 74.8743 17.0618Z" fill="#37474F"/>
<path d="M74.8743 40.269C75.0733 40.1537 75.2333 40.2467 75.2333 40.4755C75.2268 40.6 75.1909 40.7213 75.1285 40.8293C75.0661 40.9373 74.979 41.0289 74.8743 41.0967C74.6771 41.212 74.5172 41.119 74.5172 40.8902C74.5237 40.7659 74.5595 40.6449 74.6215 40.5369C74.6835 40.429 74.7702 40.3372 74.8743 40.269Z" fill="#37474F"/>
<path d="M75.9512 15.611V33.8446L83.8469 29.2857V3.59352L69.4915 11.8817L75.9512 15.611Z" fill="#FF6F00"/>
<path d="M83.8469 3.59352L69.4915 11.8817L68.7735 11.4669L83.129 3.17874L83.8469 3.59352Z" fill="#FF6F00"/>
<path opacity="0.2" d="M83.8469 3.59352L69.4915 11.8817L68.7735 11.4669L83.129 3.17874L83.8469 3.59352Z" fill="white"/>
<path d="M68.7735 12.2965V11.4669L69.4915 11.8817L68.7735 12.2965Z" fill="#FF6F00"/>
<path opacity="0.2" d="M68.7735 12.2965V11.4669L69.4915 11.8817L68.7735 12.2965Z" fill="black"/>
<path opacity="0.2" d="M69.4915 11.8817L78.7357 14.4187V32.2375L75.9512 33.8446V15.611L69.4915 11.8817Z" fill="black"/>
</svg>
