<svg width="93" height="93" viewBox="0 0 93 93" fill="none" xmlns="http://www.w3.org/2000/svg">
<path d="M5.92782 21.8215L7.44 22.6939L37.6613 5.2452L36.1491 4.37286L5.92782 21.8215Z" fill="#F5F5F5"/>
<path d="M5.92782 21.8215L7.44 22.6939V50.6125L5.92782 49.7383V21.8215Z" fill="#EBEBEB"/>
<path d="M37.6613 5.2452V33.1638L7.44 50.6125V22.6939L37.6613 5.2452Z" fill="#E0E0E0"/>
<path d="M36.9061 6.55464V32.7267L8.19516 49.303V23.131L36.9061 6.55464Z" fill="#FAFAFA"/>
<path d="M36.9061 32.7267L36.1491 32.2915V6.98988L36.9061 6.55464V32.7267Z" fill="#EBEBEB"/>
<path d="M36.9061 32.7267L36.1491 32.2915L8.19516 48.4307V49.303L36.9061 32.7267Z" fill="#F5F5F5"/>
<g opacity="0.15">
<path d="M17.1827 24.4404C17.1464 24.4125 17.1178 24.3759 17.0996 24.3339C17.0813 24.2919 17.0741 24.246 17.0785 24.2005V19.9355L17.4505 19.7179V20.1512C17.5324 20.0601 17.6179 19.9466 17.7128 19.8239C17.9183 19.535 18.1554 19.2699 18.4196 19.0334C18.6372 18.8451 18.8875 18.6982 19.158 18.6C19.2926 18.5557 19.4185 18.4884 19.53 18.401V17.8988L19.902 17.6849V21.1277C19.901 21.2126 19.882 21.2963 19.8462 21.3733V22.0131L18.1722 31.9064L17.2013 32.4644L17.1827 24.4404ZM17.4542 22.7162C18.4549 22.1117 18.799 21.6002 19.3533 20.7762L19.517 20.5344V19.5542C19.4219 19.6604 19.3325 19.7715 19.2491 19.8871C19.0436 20.1743 18.8072 20.4382 18.5442 20.6739C18.3286 20.863 18.0811 21.0123 17.8132 21.1147C17.6838 21.1557 17.5624 21.2186 17.4542 21.3007V22.7162Z" fill="black"/>
<path d="M21.5425 21.974C21.4607 21.9517 21.39 21.868 21.39 21.7118V17.4468L21.762 17.2292V17.67C21.8438 17.5807 21.9294 17.4673 22.0243 17.3445C22.2293 17.0552 22.4664 16.79 22.7311 16.554C22.9448 16.3634 23.192 16.2139 23.4602 16.1132C23.5952 16.069 23.7212 16.001 23.8322 15.9123V15.4101L24.2042 15.1943V18.6372C24.2034 18.7227 24.1844 18.807 24.1484 18.8846L23.6908 19.8871L24.0386 19.7569L23.3709 27.9L20.9882 28.7947L21.5425 21.974ZM21.7657 20.2256C22.7664 19.623 23.1105 19.1096 23.6648 18.2857L23.8285 18.0457V17.0655C23.7429 17.1566 23.6555 17.272 23.5606 17.3966C23.3556 17.6848 23.1192 17.9493 22.8557 18.1852C22.6405 18.3745 22.3929 18.5232 22.1247 18.6242C21.9953 18.6695 21.8741 18.7354 21.7657 18.8195V20.2256Z" fill="black"/>
<path d="M17.5472 41.9077C17.4431 41.9077 17.3315 41.8221 17.3315 41.6361V38.9819L17.4356 38.9224V38.5355C17.4368 38.4123 17.4722 38.2919 17.5379 38.1877V33.7497L17.5175 33.7627L17.3185 33.4186L18.879 32.5184C18.9755 32.4596 19.0859 32.4275 19.1989 32.4254C19.2883 32.4248 19.3762 32.4479 19.4537 32.4923C19.6769 32.6225 19.8053 32.9146 19.8053 33.2959V36.1844C19.8053 36.7927 19.4854 37.4548 19.0762 37.6892L17.8913 38.3755C17.8538 38.4205 17.8328 38.4769 17.8318 38.5355V38.688L17.9378 38.6285V41.3887C17.9361 41.4814 17.9124 41.5723 17.8687 41.6541C17.8251 41.7359 17.7627 41.8062 17.6867 41.8593C17.6456 41.8881 17.5973 41.9048 17.5472 41.9077ZM17.83 37.944L18.879 37.3395C19.1617 37.1758 19.4091 36.6327 19.4091 36.177V33.294C19.4198 33.2109 19.4117 33.1264 19.3853 33.0469C19.3588 32.9674 19.3149 32.8948 19.2566 32.8346C19.2388 32.8251 19.219 32.82 19.1989 32.8197C19.1555 32.8228 19.1134 32.8362 19.0762 32.8588L17.83 33.5804V37.944Z" fill="black"/>
<path d="M20.9845 38.9819C20.9228 38.9795 20.8642 38.9539 20.8207 38.91C20.7772 38.8661 20.752 38.8074 20.7502 38.7457L20.6758 38.7884C20.6479 38.8058 20.6156 38.8148 20.5828 38.8145C20.4767 38.8145 20.3968 38.7215 20.3558 38.5597C20.3386 38.5624 20.321 38.5624 20.3038 38.5597C20.2688 38.5599 20.2344 38.5509 20.2041 38.5336C20.1737 38.5162 20.1484 38.4913 20.1308 38.4611C20.1054 38.4152 20.0988 38.3613 20.1123 38.3107C20.1259 38.2601 20.1585 38.2166 20.2033 38.1895L20.3391 38.1114C20.3651 37.9012 20.4414 37.6464 20.5828 37.5646L20.7464 37.4716V37.4344C20.7475 37.3281 20.7741 37.2236 20.824 37.1298C20.8738 37.0359 20.9455 36.9554 21.0329 36.895L21.9499 36.3649C21.9925 36.3388 22.0413 36.3247 22.0912 36.3239C22.2103 36.3239 22.3293 36.4169 22.3293 36.6271V36.9619L22.5711 36.8243C22.6378 36.7632 22.6909 36.6887 22.7268 36.6057C22.7627 36.5227 22.7806 36.433 22.7794 36.3425V33.1415C22.7764 32.9813 22.8118 32.8227 22.8827 32.679C22.9535 32.5353 23.0578 32.4107 23.1868 32.3156L23.4211 32.1817C23.459 31.9986 23.5672 31.8377 23.7224 31.7335L24.6524 31.1903C24.6991 31.1622 24.7523 31.1468 24.8068 31.1457C24.8476 31.1454 24.8877 31.1556 24.9232 31.1755C24.9588 31.1954 24.9885 31.2243 25.0096 31.2592L25.0691 31.2257C25.132 31.1877 25.2039 31.1671 25.2774 31.1662C25.3388 31.1657 25.3992 31.1818 25.4522 31.2127C25.5285 31.2662 25.5893 31.339 25.6285 31.4236C25.6677 31.5082 25.6839 31.6016 25.6754 31.6944V34.4267C25.6739 34.4679 25.6802 34.5089 25.694 34.5476L26.3488 34.1756V32.922C26.3506 32.771 26.3883 32.6226 26.4588 32.489C26.5293 32.3554 26.6306 32.2405 26.7542 32.1538C26.8104 32.1195 26.8745 32.1003 26.9402 32.098C27.0946 32.098 27.2509 32.2245 27.2509 32.5072V35.3084C27.249 35.4596 27.211 35.6082 27.1402 35.7418C27.0693 35.8754 26.9676 35.9902 26.8435 36.0766C26.7876 36.1113 26.7234 36.1306 26.6575 36.1324C26.5031 36.1324 26.3488 36.0059 26.3488 35.7232V34.6258L25.8838 34.8936C25.8214 34.9314 25.7502 34.9519 25.6773 34.9531C25.6151 34.9532 25.5541 34.9365 25.5006 34.9048C25.4245 34.8515 25.3638 34.779 25.3246 34.6948C25.2854 34.6105 25.2691 34.5174 25.2774 34.4249V31.6944C25.2791 31.6527 25.2728 31.611 25.2588 31.5716L25.0468 31.6963C25.0081 31.8791 24.9001 32.0397 24.7454 32.1445L23.808 32.6858C23.7613 32.7155 23.7072 32.7316 23.6518 32.7323C23.6114 32.7319 23.5718 32.7214 23.5367 32.7015C23.5015 32.6817 23.472 32.6532 23.4509 32.6188L23.3783 32.6597C23.3113 32.7207 23.2579 32.7951 23.2217 32.8781C23.1854 32.9611 23.1672 33.0509 23.1682 33.1415V36.35C23.1712 36.5099 23.1358 36.6682 23.0649 36.8116C22.994 36.955 22.8897 37.0793 22.7608 37.174L22.3219 37.4288V37.8715C22.3205 37.9777 22.2937 38.082 22.2439 38.1758C22.1941 38.2696 22.1226 38.3502 22.0354 38.4109L21.1184 38.941C21.0777 38.965 21.0318 38.979 20.9845 38.9819Z" fill="black"/>
<path d="M25.9061 21.6839C25.5731 21.6839 25.3202 21.3547 25.2755 20.8636C25.2489 20.5371 25.2798 20.2085 25.3667 19.8927C25.4458 19.5675 25.5414 19.2466 25.6531 18.9311C25.7033 18.7804 25.7629 18.6298 25.8205 18.4828C25.8782 18.3359 25.9414 18.1703 25.9898 18.0197C26.0802 17.7321 26.137 17.435 26.159 17.1343C26.1683 16.7623 26.159 16.3773 26.159 15.9997C26.159 15.8137 26.159 15.6277 26.159 15.4417C26.0949 15.374 26.0452 15.2938 26.0132 15.2062C25.9812 15.1185 25.9676 15.0252 25.973 14.9321C25.9688 14.735 26.0118 14.5398 26.0985 14.3627C26.1853 14.1857 26.3132 14.0321 26.4715 13.9147C26.5435 13.8713 26.6256 13.8475 26.7096 13.8458C26.7796 13.8459 26.8482 13.8645 26.9086 13.8998C26.9962 13.9655 27.065 14.0529 27.1084 14.1534C27.1518 14.2538 27.1682 14.3639 27.156 14.4727C27.1526 14.7111 27.0886 14.9447 26.97 15.1516C26.97 15.3227 26.97 15.7561 26.97 15.7561L27.6526 15.3617C27.686 15.3406 27.7247 15.329 27.7642 15.3283C27.7913 15.3296 27.8179 15.3365 27.8422 15.3486C27.8665 15.3606 27.8881 15.3776 27.9055 15.3983C27.923 15.4191 27.936 15.4433 27.9437 15.4693C27.9513 15.4953 27.9536 15.5227 27.9502 15.5496C27.949 15.6236 27.9298 15.6962 27.8941 15.761C27.8584 15.8258 27.8075 15.881 27.7456 15.9216L26.97 16.368C26.97 16.5056 26.97 16.6414 26.97 16.7735C26.9821 17.0046 27.0383 17.2312 27.1355 17.4412C27.1836 17.5313 27.2383 17.6177 27.2992 17.6998C27.361 17.7843 27.4175 17.8725 27.4685 17.9639C27.59 18.1653 27.688 18.38 27.7605 18.6037C27.8547 18.8855 27.8865 19.1845 27.8535 19.4798C27.7977 20.1605 27.4183 20.9008 27.0109 21.1277L26.9161 20.9678C27.2657 20.7539 27.5931 20.0713 27.6303 19.4798C27.6529 19.2274 27.6186 18.9731 27.5299 18.7358C27.4571 18.5393 27.3616 18.352 27.2453 18.1778C27.1959 18.0984 27.1418 18.022 27.0835 17.949C27.0089 17.8617 26.9417 17.7684 26.8826 17.67C26.7579 17.4276 26.6832 17.1625 26.6631 16.8907C26.6631 16.753 26.6519 16.6191 26.6501 16.4852L26.479 16.5838C26.479 16.7549 26.479 16.9297 26.4622 17.1083C26.431 17.452 26.3598 17.791 26.2502 18.1183C26.1907 18.2931 26.1237 18.4549 26.0642 18.6112C26.0047 18.7674 25.9507 18.8902 25.9005 19.0352C25.786 19.3345 25.6885 19.6401 25.6085 19.9504C25.5246 20.2331 25.4894 20.5281 25.5043 20.8227C25.5322 21.2189 25.7089 21.4923 25.9377 21.4923C26.0031 21.4906 26.067 21.4727 26.1237 21.4402L26.2148 21.602C26.1233 21.6595 26.0179 21.691 25.9098 21.6932L25.9061 21.6839ZM26.4845 16.1132L26.6426 16.022V15.5031C26.5964 15.5267 26.5469 15.543 26.4957 15.5515C26.4883 15.6891 26.4845 16.1132 26.4845 16.1132ZM26.3915 15.1106C26.4146 15.119 26.435 15.1331 26.4511 15.1516H26.4641C26.5599 15.0678 26.6363 14.9642 26.688 14.8479C26.7398 14.7316 26.7655 14.6055 26.7635 14.4782C26.7635 14.3183 26.7152 14.2588 26.7022 14.2513C26.6877 14.2535 26.6738 14.2586 26.6612 14.2662C26.5654 14.3499 26.489 14.4536 26.4373 14.5698C26.3856 14.6861 26.3598 14.8123 26.3618 14.9395C26.3602 14.998 26.3703 15.0562 26.3915 15.1106Z" fill="black"/>
<path d="M26.2985 25.7796L25.469 26.2595V24.3697L26.2985 23.8898V23.6164L25.7182 23.9512V23.5829L25.9544 23.4453V23.1923L26.2985 22.9933V22.865L26.9867 22.4669V23.4937L27.8572 22.9915V23.4472L28.1623 23.2705V24.247L27.8572 24.4237V24.8794L26.9867 25.3816V29.8809L26.2985 30.2789V25.7796Z" fill="black"/>
<path d="M30.9597 32.5147V31.7948L30.8016 31.886V32.0608L30.4408 32.2691C30.2665 32.3866 30.1121 32.531 29.9832 32.6969C29.9204 32.7709 29.8455 32.8338 29.7619 32.8829C29.6891 32.9282 29.6057 32.9532 29.5201 32.9555C29.3155 32.9555 29.1778 32.7862 29.1778 32.537C29.185 32.3647 29.2333 32.1966 29.3188 32.0468C29.4042 31.8969 29.5242 31.7697 29.6689 31.6758C29.7409 31.6306 29.8238 31.6056 29.9088 31.6033H29.933C30.0769 31.6081 30.2197 31.5761 30.3478 31.5103L30.8016 31.248V31.434L30.9597 31.341V30.2529L30.5226 30.504C30.4981 30.5187 30.4698 30.526 30.4412 30.5249C30.4126 30.5238 30.385 30.5144 30.3617 30.4978C30.3384 30.4812 30.3204 30.4581 30.31 30.4315C30.2996 30.4049 30.2972 30.3758 30.3031 30.3478C30.3028 30.2991 30.3141 30.2512 30.3361 30.2078C30.3581 30.1644 30.3902 30.127 30.4296 30.0985L30.9597 29.7935V29.0495L32.111 28.3836V29.1276L32.3584 28.9862V28.2422L33.5098 27.5764V28.3204L33.7199 28.1995V28.0135L34.0808 27.8051C34.2555 27.6883 34.41 27.5438 34.5383 27.3773C34.6012 27.3034 34.676 27.2405 34.7597 27.1913C34.8325 27.1463 34.9159 27.1213 35.0015 27.1188C35.2061 27.1188 35.3437 27.2881 35.3437 27.5392C35.3365 27.7112 35.2882 27.8791 35.2028 28.0286C35.1173 28.1781 34.9973 28.3049 34.8527 28.3985C34.7806 28.4437 34.6978 28.4687 34.6127 28.471H34.596C34.4518 28.4658 34.3088 28.4985 34.1812 28.5659L33.7274 28.8263V28.6514L33.5172 28.7742V29.8623L34.0064 29.5796C34.0287 29.5657 34.0545 29.5586 34.0808 29.5591C34.1496 29.5591 34.2259 29.6131 34.2259 29.7358C34.2265 29.7842 34.2153 29.8321 34.1933 29.8752C34.1712 29.9183 34.139 29.9554 34.0994 29.9832L33.5098 30.318V31.1364L32.7658 33.3107L32.3566 33.5488V30.9876L32.1092 31.129V33.6939L31.7372 33.9078L30.9597 32.5147ZM32.111 30.6714L32.3584 30.5282V29.4401L32.111 29.5833V30.6714Z" fill="black"/>
<path d="M9.1698 29.3099L9.52692 29.1034V27.342L9.34092 27.4462V26.1628C9.33305 25.8314 9.27922 25.5028 9.18096 25.1863C9.14113 25.0402 9.12172 24.8894 9.1233 24.738C9.1233 24.1391 9.3651 23.5309 9.6813 23.3523C9.73745 23.3182 9.80162 23.2996 9.8673 23.2984C10.1407 23.2984 10.3249 23.6425 10.3249 24.1558C10.3243 24.3246 10.3062 24.4929 10.2709 24.658C10.1769 25.0427 10.1221 25.4359 10.1072 25.8317V27.0091L9.92124 27.1114V28.8691L10.2765 28.6645V32.8495L9.1605 33.4912L9.1698 29.3099Z" fill="black"/>
<path d="M10.9405 28.2869L11.1879 28.1455V26.3878L11.0019 26.492V25.2067C10.994 24.8752 10.9396 24.5465 10.8401 24.2302C10.8008 24.0847 10.782 23.9345 10.7843 23.7838C10.7843 23.1849 11.0261 22.5748 11.3423 22.3963C11.3986 22.3628 11.4628 22.3449 11.5283 22.3442C11.8017 22.3442 11.9858 22.6883 11.9858 23.2016C11.9854 23.3706 11.9667 23.5389 11.93 23.7038C11.8376 24.0881 11.7834 24.4807 11.7682 24.8756V26.053L11.5822 26.1572V27.9149L11.8296 27.7735V31.9585L10.9368 32.4737L10.9405 28.2869Z" fill="black"/>
<path d="M12.648 27.2974L12.834 27.1876V25.4299L12.648 25.5341V24.2488C12.6393 23.9174 12.5848 23.5888 12.4862 23.2723C12.4469 23.1262 12.4281 22.9753 12.4304 22.8241C12.4304 22.2251 12.6722 21.6169 12.9884 21.4384C13.0445 21.4043 13.1087 21.3857 13.1744 21.3844C13.4497 21.3844 13.6338 21.7285 13.6338 22.2419C13.6334 22.4114 13.6147 22.5804 13.578 22.7459C13.4855 23.1302 13.4313 23.5228 13.4162 23.9177V25.0951L13.2302 25.1993V26.957L13.4162 26.8454V31.0322L12.648 31.4824V27.2974Z" fill="black"/>
<path d="M14.3704 26.3078L14.508 26.226V24.4683L14.322 24.5725V23.2891C14.3141 22.9577 14.2603 22.6291 14.162 22.3126C14.1213 22.1667 14.1019 22.0157 14.1044 21.8643C14.1044 21.2654 14.3462 20.6572 14.6624 20.4786C14.7185 20.4445 14.7827 20.4259 14.8484 20.4247C15.1218 20.4247 15.3059 20.7688 15.3059 21.2821C15.3057 21.4511 15.287 21.6194 15.2501 21.7843C15.1575 22.1692 15.1033 22.5624 15.0883 22.958V24.1354L14.9023 24.2377V25.9954L15.04 25.9172V30.1022L14.3666 30.491L14.3704 26.3078Z" fill="black"/>
<path d="M28.9732 20.8208V17.298L29.3303 17.0915V15.3245L29.1443 15.4268V15.0195V14.136C29.1353 13.8054 29.0815 13.4775 28.9844 13.1614C28.9442 13.0154 28.9248 12.8645 28.9267 12.7131C28.9268 12.5427 28.9468 12.3729 28.9862 12.2072V12.1681L30.0148 11.5729L30.0502 11.6827C30.0948 11.8278 30.1161 11.9791 30.1134 12.1309C30.1126 12.3005 30.0933 12.4696 30.0557 12.635C29.9666 13.0193 29.9124 13.4109 29.8939 13.8049V14.3629V14.9842L29.7079 15.0883V16.8516L30.0632 16.647V20.274L29.9441 20.899L29.1164 21.39L28.9732 20.8208Z" fill="black"/>
<path d="M30.7439 19.7978V16.2638L30.9913 16.1225V14.3648L30.8053 14.4689V14.0616V13.1855C30.7964 12.8549 30.7426 12.527 30.6454 12.2109C30.6044 12.0651 30.5849 11.9141 30.5877 11.7626C30.5879 11.5917 30.6079 11.4213 30.6472 11.2549V11.2158L31.6814 10.6187L31.7149 10.7322C31.755 10.8782 31.7744 11.0291 31.7725 11.1805C31.7723 11.35 31.7535 11.519 31.7167 11.6845C31.6276 12.0688 31.5734 12.4604 31.5549 12.8545V13.4125V14.0356L31.3689 14.1379V15.8974L31.6126 15.7561V19.3831L31.4954 20.0062L30.8667 20.3689L30.7439 19.7978Z" fill="black"/>
<path d="M32.4589 18.8083V15.2743L32.6449 15.1627V13.4069L32.4589 13.511V13.1018V12.2258C32.45 11.895 32.3955 11.567 32.297 11.2511C32.2568 11.1058 32.2374 10.9555 32.2394 10.8047C32.2394 10.6337 32.2593 10.4633 32.2989 10.297L32.3082 10.2579L33.3498 9.672L33.387 9.77988C33.43 9.92534 33.4507 10.0765 33.4484 10.2281C33.4474 10.3976 33.4287 10.5666 33.3926 10.7322C33.3029 11.1171 33.2481 11.5093 33.2289 11.904V12.462V13.0832L33.0429 13.1874V14.9451L33.2289 14.8354V18.4512L33.108 19.0762L32.5891 19.3756L32.4589 18.8083Z" fill="black"/>
<path d="M34.1756 17.8169V14.2829L34.3114 14.2048V12.449L34.1254 12.5513V12.1439V11.2679C34.1162 10.9373 34.0624 10.6094 33.9655 10.2932C33.9252 10.1473 33.9058 9.99637 33.9078 9.84498C33.908 9.67399 33.928 9.5036 33.9673 9.3372V9.3L35.0015 8.70108L35.035 8.81454C35.076 8.96034 35.0954 9.11137 35.0926 9.2628C35.0925 9.43235 35.0737 9.60138 35.0368 9.76686C34.9477 10.1512 34.8935 10.5427 34.875 10.9368V11.4948V12.116L34.689 12.2202V13.9779L34.8266 13.8979V17.5249L34.7057 18.1499L34.2965 18.3842L34.1756 17.8169Z" fill="black"/>
<path d="M9.1698 45.6667L9.11028 45.5607L9.1698 45.5272V45.0511L9.11028 44.9469L9.1698 44.9116V44.4354L9.11028 44.3312L9.1698 44.2959V43.8216L9.11028 43.7156L9.1698 43.6821V43.2059L9.11028 43.1018L9.1698 43.0664V42.5903L9.11028 42.4861L9.1698 42.4508V41.9765L9.11028 41.8705L9.1698 41.837V41.3608L9.11028 41.2567L9.1698 41.2213V40.7452L9.11028 40.641L9.1698 40.6057V40.1314L9.11028 40.0253L9.1698 39.9919V39.5157L9.11028 39.4115L9.1698 39.3762V38.9L9.11028 38.7959L9.1698 38.7605V38.2862L9.11028 38.1802L9.1698 38.1467V37.6706L9.11028 37.5664L9.1698 37.5311V37.0549L9.11028 36.9508L9.1698 36.9154V35.3809L10.5406 34.5886V45.6035L10.4904 45.6277L9.1698 46.3903V45.6667Z" fill="black"/>
<path d="M14.4745 39.3929L14.4131 39.2888L14.4745 39.2534V38.7773L14.4131 38.6731L14.4745 38.6378V38.1635L14.4131 38.0575L14.4745 38.024V37.5478L14.4131 37.4437L14.4745 37.4083V36.9322L14.4131 36.828L14.4745 36.7927V36.3184L14.4131 36.2123L14.4745 36.1789V35.7027L14.4131 35.5985L14.4745 35.5632V35.087L14.4131 34.9829L14.4745 34.9475V34.4732L14.4131 34.3672L14.4745 34.3337V34.1924L11.8966 35.6804V33.8074L15.691 31.6163V33.2754L15.8453 33.1861V39.326L14.4745 40.1165V39.3929Z" fill="black"/>
<path d="M11.2976 38.8015L15.438 42.78L11.2976 45.1645V38.8015ZM12.1904 43.338L13.4199 42.6293L12.1904 41.4464V43.338Z" fill="black"/>
<path d="M29.1295 28.2088C29.1045 28.2069 29.0801 28.2 29.0579 28.1886C29.0356 28.1771 29.0159 28.1612 29 28.142C28.984 28.1227 28.972 28.1004 28.9649 28.0764C28.9578 28.0524 28.9555 28.0272 28.9583 28.0023V27.727C28.9593 27.6631 28.9754 27.6004 29.0051 27.5439C29.0348 27.4873 29.0774 27.4386 29.1295 27.4015V27.0983C29.131 27.0255 29.119 26.953 29.0941 26.8844L29.0272 26.7877C28.9789 26.6888 28.9553 26.5797 28.9583 26.4697V25.482C28.9583 25.3778 28.9583 25.2346 28.9583 25.1398C28.9583 25.0449 28.9583 24.9538 28.9583 24.8719C28.9388 24.2353 29.0089 23.5992 29.1667 22.9822C29.4475 21.8996 30.0669 21.7229 30.0967 21.7155L30.437 21.6262L30.1859 21.8717C29.5628 22.4855 29.5759 23.4174 29.76 23.7652C29.783 23.8082 29.8183 23.8434 29.8614 23.8662C29.9044 23.8891 29.9533 23.8986 30.0018 23.8936C30.0484 23.8931 30.0947 23.8863 30.1394 23.8731H30.1525H30.1766C30.2603 23.8731 30.344 23.9512 30.344 24.1261V24.366L32.736 22.9766V22.7757L34.7653 21.6039C34.8057 21.5794 34.8519 21.5659 34.8992 21.5648C35.0126 21.5648 35.1242 21.6541 35.1242 21.8513V22.32C35.1234 22.4186 35.0987 22.5156 35.0524 22.6027C35.0061 22.6898 34.9395 22.7645 34.8583 22.8203L32.736 24.0368V23.8359L30.3422 25.2179V25.4243C30.3333 25.5821 30.3007 25.7376 30.2455 25.8856L30.0855 26.306C30.0379 26.4332 30.0091 26.5666 29.9999 26.7022V26.9105H30.0353C30.1171 26.9105 30.2045 26.9756 30.2045 27.1169V27.3922C30.2043 27.4569 30.1883 27.5206 30.1578 27.5776C30.1273 27.6347 30.0834 27.6834 30.0297 27.7196L29.2262 28.1846C29.1963 28.2023 29.1623 28.2119 29.1276 28.2125L29.1295 28.2088Z" fill="black"/>
</g>
<path d="M19.9262 20.806L17.4617 23.9773V32.1203L18.2559 31.6628L19.9262 21.829V20.806Z" fill="#F5F5F5"/>
<path d="M18.1462 31.4619L18.2559 31.6628L19.9262 21.829V20.9771L19.7662 21.0682V21.9108L18.1462 31.4619Z" fill="#E0E0E0"/>
<path d="M17.4617 23.9773V32.1203L17.6105 31.7874V23.7875L17.4617 23.9773Z" fill="#E0E0E0"/>
<path d="M18.1592 30.5282C18.1606 30.6171 18.1416 30.7051 18.1035 30.7854C18.0655 30.8657 18.0094 30.9362 17.9397 30.9913C17.8188 31.062 17.7221 30.9671 17.7221 30.7811C17.7201 30.6924 17.7387 30.6044 17.7765 30.524C17.8143 30.4437 17.8701 30.3731 17.9397 30.318C18.0606 30.2473 18.1592 30.3422 18.1592 30.5282Z" fill="#E0E0E0"/>
<path d="M19.796 17.7667V18.2485C19.4798 18.5386 19.2175 18.4475 18.6688 18.9181C18.1201 19.3886 17.8541 19.9541 17.5528 20.1754V19.6937L17.3668 19.8034V24.0145C17.3668 24.1558 17.4431 24.2284 17.5379 24.1744L18.8567 23.4118C18.9113 23.3753 18.954 23.3236 18.9794 23.263L19.9429 21.1482C19.9734 21.0836 19.9899 21.0132 19.9913 20.9417V17.6588L19.796 17.7667ZM19.796 20.3707C19.1022 21.39 18.786 21.9759 17.5472 22.692V21.0812C17.8597 20.7985 18.122 20.8841 18.6632 20.4172C19.2045 19.9504 19.4835 19.3756 19.7904 19.1599L19.796 20.3707Z" fill="#EBEBEB"/>
<path d="M17.5472 21.0812C17.8597 20.7985 18.122 20.8841 18.6632 20.4172C19.2045 19.9504 19.4835 19.3756 19.7904 19.1599V18.2485C19.4742 18.5386 19.2119 18.4475 18.6632 18.9181C18.1145 19.3886 17.8486 19.9541 17.5472 20.1754V21.0812Z" fill="#E0E0E0"/>
<path opacity="0.1" d="M17.5472 21.0812C17.8597 20.7985 18.122 20.8841 18.6632 20.4172C19.2045 19.9504 19.4835 19.3756 19.7904 19.1599V18.2485C19.4742 18.5386 19.2119 18.4475 18.6632 18.9181C18.1145 19.3886 17.8486 19.9541 17.5472 20.1754V21.0812Z" fill="black"/>
<path d="M23.4695 27.6433L21.2784 28.4636L21.9257 20.5307L24.1168 19.7086L23.4695 27.6433Z" fill="#F5F5F5"/>
<path d="M22.3609 27.0277C22.3591 27.1143 22.3358 27.1992 22.2929 27.2746C22.25 27.3499 22.189 27.4134 22.1154 27.4592C21.9964 27.5038 21.9127 27.3829 21.9294 27.1895C21.932 27.103 21.9557 27.0184 21.9985 26.9432C22.0413 26.868 22.1019 26.8044 22.1749 26.758C22.294 26.7133 22.3777 26.8342 22.3609 27.0277Z" fill="#E0E0E0"/>
<path d="M22.1452 20.447L21.9257 20.5307L21.2784 28.4636L21.5407 27.874L22.1452 20.447Z" fill="#E0E0E0"/>
<path d="M24.1168 19.7086L23.8954 19.7923L23.2909 27.2192L23.4695 27.6433L24.1168 19.7086Z" fill="#E0E0E0"/>
<path d="M24.1075 15.278V15.7598C23.7913 16.0499 23.5271 15.9569 22.9803 16.4294C22.4335 16.9018 22.1656 17.4654 21.8643 17.6867V17.205L21.6783 17.3129V21.5258C21.6783 21.6671 21.7546 21.7397 21.8494 21.6839L23.1682 20.9231C23.2224 20.8862 23.2649 20.8346 23.2909 20.7743L24.2544 18.6595C24.285 18.5942 24.3014 18.5233 24.3028 18.4512V15.1702L24.1075 15.278ZM24.1075 17.882C23.4137 18.8995 23.0975 19.4816 21.8587 20.1977V18.6C22.1712 18.3154 22.4335 18.4028 22.9747 17.936C23.516 17.4691 23.795 16.8944 24.1019 16.6786L24.1075 17.882Z" fill="#EBEBEB"/>
<path d="M21.8587 18.6C22.1712 18.3154 22.4335 18.4028 22.9747 17.936C23.516 17.4691 23.795 16.8944 24.1019 16.6786V15.7672C23.7857 16.0574 23.5216 15.9644 22.9747 16.4368C22.4279 16.9093 22.16 17.4728 21.8587 17.6942V18.6Z" fill="#E0E0E0"/>
<path opacity="0.1" d="M21.8587 18.6C22.1712 18.3154 22.4335 18.4028 22.9747 17.936C23.516 17.4691 23.795 16.8944 24.1019 16.6786V15.7672C23.7857 16.0574 23.5216 15.9644 22.9747 16.4368C22.4279 16.9093 22.16 17.4728 21.8587 17.6942V18.6Z" fill="black"/>
<path d="M17.923 33.2512H17.8169V38.1467H17.923V33.2512Z" fill="#E0E0E0"/>
<path d="M17.9248 38.941H17.7146V38.3495C17.7132 38.2671 17.7316 38.1857 17.7682 38.1119C17.8047 38.0381 17.8584 37.9741 17.9248 37.9254L19.1115 37.2409C19.424 37.0549 19.6881 36.4969 19.6881 35.9984V33.108C19.6881 32.842 19.6137 32.6411 19.4891 32.5686C19.4454 32.5482 19.3971 32.5396 19.3491 32.5439C19.3011 32.5481 19.2551 32.565 19.2157 32.5928L17.7277 33.4465L17.6216 33.2605L19.1096 32.4068C19.1801 32.3593 19.2623 32.3319 19.3471 32.3277C19.432 32.3234 19.5165 32.3424 19.5914 32.3826C19.7774 32.4942 19.8964 32.7546 19.8964 33.1043V35.9929C19.8964 36.5713 19.597 37.1963 19.2138 37.4176L18.029 38.1021C17.9952 38.1326 17.9683 38.1699 17.95 38.2116C17.9318 38.2533 17.9225 38.2984 17.923 38.3439L17.9248 38.941Z" fill="#F0F0F0"/>
<path d="M17.8262 41.597H17.8132C17.7016 41.6621 17.6105 41.597 17.6105 41.4445V38.8405L18.0308 38.5987V41.2027C18.03 41.2799 18.011 41.3557 17.9755 41.4242C17.9399 41.4927 17.8888 41.5519 17.8262 41.597Z" fill="#E0E0E0"/>
<path d="M17.9434 39.1363C17.9439 39.1864 17.9331 39.236 17.9119 39.2813C17.8906 39.3267 17.8594 39.3668 17.8207 39.3985C17.7518 39.4376 17.696 39.3836 17.696 39.2795C17.6949 39.2291 17.7056 39.1791 17.7273 39.1336C17.7489 39.0881 17.7809 39.0482 17.8207 39.0172C17.8876 38.9763 17.9434 39.0302 17.9434 39.1363Z" fill="#FAFAFA"/>
<path d="M20.4898 38.2881C20.4713 38.2885 20.453 38.2838 20.437 38.2746C20.421 38.2655 20.4077 38.2521 20.3986 38.236C20.3843 38.2118 20.3802 38.183 20.3872 38.1558C20.3942 38.1286 20.4117 38.1053 20.4358 38.0909L22.8036 36.7257C22.8848 36.6574 22.9497 36.5719 22.9938 36.4754C23.0379 36.3789 23.0599 36.2738 23.0584 36.1677V32.9555C23.0559 32.8118 23.0873 32.6697 23.15 32.5404C23.2127 32.4112 23.3049 32.2985 23.4193 32.2115L25.3109 31.1197C25.3537 31.0918 25.4032 31.0759 25.4542 31.0736C25.5052 31.0714 25.5559 31.0828 25.601 31.1066C25.6644 31.1515 25.715 31.2122 25.7476 31.2827C25.7802 31.3532 25.7938 31.431 25.787 31.5084V34.2407C25.787 34.3616 25.8224 34.4379 25.8577 34.4584C25.871 34.4635 25.8854 34.465 25.8995 34.4627C25.9135 34.4604 25.9267 34.4544 25.9377 34.4453L26.8677 33.9041C26.8798 33.8971 26.8931 33.8926 26.907 33.8907C26.9208 33.8889 26.9349 33.8898 26.9484 33.8935C26.9618 33.8971 26.9745 33.9034 26.9855 33.9119C26.9966 33.9204 27.0058 33.931 27.0128 33.9431C27.0197 33.9551 27.0242 33.9683 27.026 33.982C27.0278 33.9957 27.0269 34.0096 27.0232 34.0229C27.0196 34.0363 27.0134 34.0487 27.0049 34.0596C26.9964 34.0705 26.9858 34.0796 26.9737 34.0864L26.0437 34.6295C26.001 34.6576 25.9513 34.6735 25.9002 34.6755C25.8491 34.6774 25.7984 34.6654 25.7536 34.6406C25.6902 34.5962 25.6396 34.5358 25.607 34.4656C25.5743 34.3954 25.5607 34.3179 25.5676 34.2407V31.5084C25.5676 31.3856 25.5322 31.3112 25.4969 31.2908C25.4615 31.2703 25.4522 31.2908 25.4188 31.3019L23.5271 32.3938C23.4455 32.4618 23.3802 32.5472 23.3358 32.6438C23.2914 32.7403 23.269 32.8455 23.2705 32.9518V36.1603C23.2729 36.3039 23.2416 36.4461 23.1789 36.5753C23.1162 36.7046 23.0239 36.8173 22.9096 36.9043L20.5437 38.2714C20.5275 38.2816 20.5089 38.2874 20.4898 38.2881Z" fill="#F0F0F0"/>
<path d="M26.996 35.8124C26.797 35.9259 26.6371 35.8124 26.6371 35.539V32.736C26.6389 32.6012 26.6723 32.4687 26.7346 32.3492C26.797 32.2296 26.8865 32.1264 26.996 32.0478C27.1951 31.9325 27.3569 32.0478 27.3569 32.3194V35.1224C27.3549 35.2576 27.3212 35.3905 27.2585 35.5103C27.1958 35.6302 27.1059 35.7336 26.996 35.8124Z" fill="#E0E0E0"/>
<path d="M24.8942 31.8785L23.9549 32.4198C23.8024 32.5072 23.6778 32.4198 23.6778 32.2115V32.1557C23.6797 32.0521 23.7058 31.9505 23.7539 31.8588C23.802 31.7671 23.8708 31.6879 23.9549 31.6274L24.8942 31.0862C25.0468 30.9969 25.1695 31.0862 25.1695 31.2945V31.3503C25.1679 31.4537 25.1422 31.5553 25.0944 31.647C25.0466 31.7387 24.9781 31.818 24.8942 31.8785Z" fill="#E0E0E0"/>
<path d="M22.1824 38.1449L21.2654 38.6731C21.1315 38.7512 21.0254 38.6731 21.0254 38.4871V37.2558C21.0265 37.1658 21.0488 37.0772 21.0905 36.9974C21.1322 36.9176 21.1921 36.8487 21.2654 36.7964L22.1824 36.2663C22.3144 36.19 22.4223 36.2663 22.4223 36.4523V37.6892C22.4201 37.7785 22.3973 37.8661 22.3556 37.9451C22.314 38.0241 22.2547 38.0925 22.1824 38.1449Z" fill="#E0E0E0"/>
<path d="M20.8153 38.5225C20.6999 38.5894 20.6051 38.4071 20.6051 38.1151C20.6051 37.8231 20.6999 37.5329 20.8153 37.466L21.0254 37.3451V38.4016L20.8153 38.5225Z" fill="#E0E0E0"/>
<path opacity="0.1" d="M20.8748 38.4871L21.0254 38.4016V37.3451L20.8748 37.4325V38.4871Z" fill="black"/>
<path d="M22.2995 37.1126C22.3006 37.1621 22.2903 37.2111 22.2693 37.256C22.2484 37.3008 22.2173 37.3402 22.1786 37.3711C22.1098 37.4102 22.0559 37.3581 22.0559 37.2539C22.0547 37.2043 22.0652 37.155 22.0865 37.1101C22.1079 37.0652 22.1394 37.0259 22.1786 36.9954C22.2456 36.9563 22.2995 37.014 22.2995 37.1126Z" fill="#FAFAFA"/>
<path d="M27.1188 33.852C27.12 33.902 27.1095 33.9515 27.0882 33.9967C27.0669 34.0419 27.0353 34.0815 26.996 34.1124C26.9291 34.1515 26.8733 34.0975 26.8733 33.9934C26.8726 33.9437 26.8832 33.8946 26.9045 33.8498C26.9258 33.805 26.9571 33.7656 26.996 33.7348C27.0649 33.7032 27.1188 33.7571 27.1188 33.852Z" fill="#FAFAFA"/>
<path d="M26.6092 15.278C26.5555 15.2786 26.5028 15.2644 26.4566 15.2371C26.3821 15.1808 26.3234 15.1062 26.2862 15.0204C26.2491 14.9347 26.2347 14.8408 26.2446 14.7479C26.2446 14.3759 26.4436 13.9574 26.6966 13.8179C26.7472 13.7846 26.8058 13.7655 26.8663 13.7625C26.9269 13.7596 26.9871 13.7729 27.0407 13.8012C27.1157 13.8575 27.1747 13.9325 27.2118 14.0186C27.249 14.1047 27.2631 14.199 27.2527 14.2922C27.2551 14.4718 27.2155 14.6494 27.137 14.8108C27.0585 14.9723 26.9434 15.1132 26.8007 15.2222C26.7429 15.2574 26.6768 15.2767 26.6092 15.278ZM26.8882 13.976C26.8571 13.9779 26.8271 13.9875 26.8007 14.0039C26.6903 14.0956 26.6019 14.2108 26.5421 14.3412C26.4822 14.4716 26.4523 14.6138 26.4548 14.7572C26.4548 14.9432 26.5106 15.0344 26.5627 15.0641C26.5843 15.0737 26.6081 15.0774 26.6316 15.0748C26.6552 15.0722 26.6776 15.0634 26.6966 15.0493C26.806 14.9588 26.8938 14.8451 26.9536 14.7163C27.0135 14.5876 27.0438 14.4472 27.0425 14.3053C27.0425 14.1193 26.9867 14.0281 26.9347 13.9984C26.9235 13.9825 26.907 13.9713 26.8882 13.9667V13.976Z" fill="#F0F0F0"/>
<path d="M27.0686 14.8168C27.0686 15.4082 27.0463 16.0332 27.0593 16.5949C27.0716 16.8396 27.131 17.0795 27.2341 17.3017C27.329 17.4877 27.4666 17.6347 27.5689 17.8281C27.6876 18.0241 27.7831 18.2332 27.8535 18.4512C27.9437 18.7204 27.9748 19.0059 27.9446 19.2882C27.8907 19.9225 27.5429 20.646 27.1467 20.8655C27.5429 20.6237 27.8684 19.902 27.9056 19.3031C27.9297 19.0374 27.8935 18.7697 27.7996 18.52C27.725 18.3144 27.6264 18.1184 27.5057 17.936C27.3959 17.75 27.262 17.6272 27.1504 17.4301C27.032 17.1984 26.9612 16.9455 26.9421 16.6861C26.9142 16.0871 26.9216 15.5012 26.9105 14.9098C26.9099 14.8772 26.9166 14.8449 26.9301 14.8153C26.9436 14.7857 26.9636 14.7595 26.9886 14.7386C27.0314 14.7126 27.0686 14.7386 27.0686 14.8112V14.8168Z" fill="#F0F0F0"/>
<path d="M26.5868 15.0958C26.5757 15.7021 26.5868 16.2769 26.5552 16.9093C26.5242 17.2441 26.455 17.5742 26.3488 17.8932C26.2353 18.2187 26.1014 18.4996 25.9916 18.8083C25.877 19.1128 25.7789 19.4233 25.6978 19.7383C25.6111 20.032 25.5758 20.3385 25.5936 20.6441C25.6289 21.2021 25.9544 21.5462 26.3506 21.3323C25.9544 21.5686 25.6066 21.2468 25.5527 20.6739C25.5293 20.3573 25.5601 20.039 25.6438 19.7327C25.721 19.4121 25.816 19.096 25.9284 18.786C26.0307 18.4735 26.1683 18.1666 26.2632 17.8709C26.3574 17.5763 26.416 17.2716 26.438 16.9632C26.4511 16.3847 26.438 15.7858 26.438 15.1962C26.4375 15.1642 26.4442 15.1325 26.4577 15.1035C26.4713 15.0744 26.4912 15.0489 26.5162 15.0288C26.5608 15.0028 26.5961 15.0288 26.5961 15.1032L26.5868 15.0958Z" fill="#F0F0F0"/>
<path d="M27.4118 15.6062L26.4565 16.1575L26.5615 16.3395L27.5168 15.7882L27.4118 15.6062Z" fill="#F0F0F0"/>
<path d="M27.8833 15.6556L27.156 16.0797V15.6798L27.8833 15.252C27.9707 15.2018 28.0414 15.252 28.0414 15.3599C28.04 15.4181 28.025 15.4752 27.9975 15.5266C27.9701 15.5779 27.9309 15.6221 27.8833 15.6556Z" fill="#F0F0F0"/>
<path d="M27.0797 29.6428L26.5775 29.933V22.7329L27.0797 22.4428V29.6428Z" fill="#F0F0F0"/>
<path d="M27.9502 24.6394L25.748 25.9117V24.2377L27.9502 22.9654V24.6394Z" fill="#EBEBEB"/>
<path d="M27.9502 24.2842L25.748 25.5564V25.9117L27.9502 24.6394V24.2842Z" fill="#E0E0E0"/>
<path opacity="0.1" d="M27.9502 24.2842L25.748 25.5564V25.9117L27.9502 24.6394V24.2842Z" fill="black"/>
<path d="M28.2553 24.007L27.9502 24.1837V23.423L28.2553 23.2444V24.007Z" fill="#E0E0E0"/>
<path opacity="0.1" d="M28.0525 24.1242L27.9502 24.1837V23.423L28.0525 23.3635V24.1242Z" fill="black"/>
<path d="M26.2334 23.0603V23.3132L25.9972 23.4509V23.6053L27.0797 22.9784V22.8259V22.5711L26.2334 23.0603Z" fill="#E0E0E0"/>
<path d="M27.0797 28.9416L26.7096 29.1555V29.0346L27.0797 28.8207V28.9416Z" fill="#E0E0E0"/>
<path d="M27.0797 27.8721L26.7096 28.0879V27.9651L27.0797 27.7512V27.8721Z" fill="#E0E0E0"/>
<path d="M27.0797 26.8045L26.7096 27.0184V26.8956L27.0797 26.6817V26.8045Z" fill="#E0E0E0"/>
<path d="M27.0797 25.735L26.7096 25.9489V25.828L27.0797 25.6122V25.735Z" fill="#E0E0E0"/>
<path d="M30.5747 31.7074C30.5742 31.6752 30.5811 31.6434 30.595 31.6143C30.6089 31.5853 30.6293 31.5598 30.6547 31.54L34.224 29.4754C34.2686 29.4494 34.304 29.4847 34.304 29.5517C34.3045 29.5839 34.2975 29.6157 34.2837 29.6448C34.2698 29.6738 34.2494 29.6993 34.224 29.7191L30.6472 31.7837C30.61 31.806 30.5747 31.7744 30.5747 31.7074Z" fill="#E0E0E0"/>
<path d="M30.5803 32.0032L30.8946 31.8172V31.2238L30.5803 31.4098C30.4318 31.4869 30.2656 31.5234 30.0985 31.5158C30.0287 31.518 29.9607 31.5386 29.9014 31.5754C29.771 31.6613 29.6627 31.7769 29.5855 31.9127C29.5082 32.0484 29.4641 32.2005 29.4568 32.3566C29.4568 32.6449 29.6558 32.7639 29.9014 32.6225C29.9759 32.5773 30.0425 32.5201 30.0985 32.4533C30.2366 32.2808 30.3988 32.1292 30.5803 32.0032Z" fill="#E0E0E0"/>
<g opacity="0.1">
<path d="M30.5803 32.0032L30.8946 31.8172V31.2238L30.5803 31.4098C30.4318 31.4869 30.2656 31.5234 30.0985 31.5158C30.0287 31.518 29.9607 31.5386 29.9014 31.5754C29.771 31.6613 29.6627 31.7769 29.5855 31.9127C29.5082 32.0484 29.4641 32.2005 29.4568 32.3566C29.4568 32.6449 29.6558 32.7639 29.9014 32.6225C29.9759 32.5773 30.0425 32.5201 30.0985 32.4533C30.2366 32.2808 30.3988 32.1292 30.5803 32.0032Z" fill="black"/>
</g>
<path d="M34.3189 28.0004C34.3189 27.9335 34.2835 27.9 34.2389 27.9242L30.6621 29.9906C30.6365 30.0103 30.6159 30.0357 30.602 30.0648C30.5881 30.0938 30.5813 30.1258 30.5821 30.158C30.5821 30.225 30.6175 30.2585 30.6621 30.2324L34.2389 28.1678C34.2645 28.1482 34.285 28.1228 34.2989 28.0937C34.3128 28.0646 34.3197 28.0327 34.3189 28.0004Z" fill="#E0E0E0"/>
<path d="M34.3133 28.2999L34.0008 28.4859V27.8907L34.3133 27.7047C34.4947 27.5786 34.6569 27.427 34.795 27.2546C34.851 27.1877 34.9176 27.1306 34.9922 27.0853C35.2377 26.944 35.4367 27.063 35.4367 27.3532C35.4291 27.5089 35.3849 27.6606 35.3077 27.796C35.2304 27.9314 35.1223 28.0467 34.9922 28.1325C34.9328 28.1693 34.8648 28.1898 34.795 28.192C34.6278 28.186 34.4619 28.2231 34.3133 28.2999Z" fill="#E0E0E0"/>
<g opacity="0.1">
<path d="M34.3133 28.2999L34.0008 28.4859V27.8907L34.3133 27.7047C34.4947 27.5786 34.6569 27.427 34.795 27.2546C34.851 27.1877 34.9176 27.1306 34.9922 27.0853C35.2377 26.944 35.4367 27.063 35.4367 27.3532C35.4291 27.5089 35.3849 27.6606 35.3077 27.796C35.2304 27.9314 35.1223 28.0467 34.9922 28.1325C34.9328 28.1693 34.8648 28.1898 34.795 28.192C34.6278 28.186 34.4619 28.2231 34.3133 28.2999Z" fill="black"/>
</g>
<path d="M33.6028 30.9392V27.5485L32.6374 28.1046V33.2047L32.8774 33.0652L33.6028 30.9392Z" fill="#EBEBEB"/>
<path opacity="0.1" d="M32.7806 33.121V28.0228L32.6374 28.1046V33.2047L32.7806 33.121Z" fill="black"/>
<path d="M31.2368 32.3045V28.9137L32.204 28.3557V33.4558L31.9622 33.5935L31.2368 32.3045Z" fill="#EBEBEB"/>
<path opacity="0.1" d="M32.059 33.5377V28.4394L32.204 28.3557V33.4558L32.059 33.5377Z" fill="black"/>
<path d="M31.6907 31.2015C31.6423 31.2294 31.6014 31.1922 31.6014 31.1159C31.6016 31.0803 31.6098 31.0451 31.6252 31.0129C31.6406 30.9808 31.663 30.9524 31.6907 30.9299C31.739 30.902 31.78 30.9411 31.78 31.0174C31.7797 31.0528 31.7716 31.0877 31.7561 31.1195C31.7407 31.1514 31.7183 31.1794 31.6907 31.2015Z" fill="#E0E0E0"/>
<path d="M33.1657 30.3496C33.1154 30.3775 33.0764 30.3496 33.0764 30.2641C33.0757 30.2282 33.0834 30.1927 33.0989 30.1604C33.1144 30.1281 33.1372 30.0999 33.1657 30.0781C33.214 30.0483 33.2549 30.0874 33.2549 30.1636C33.2552 30.1994 33.2473 30.2347 33.2319 30.267C33.2164 30.2992 33.1937 30.3275 33.1657 30.3496Z" fill="#E0E0E0"/>
<path d="M31.6907 29.6707C31.6423 29.6986 31.6014 29.6596 31.6014 29.5852C31.6016 29.5495 31.6098 29.5143 31.6252 29.4822C31.6406 29.45 31.663 29.4217 31.6907 29.3992C31.739 29.3713 31.78 29.4103 31.78 29.4847C31.78 29.5204 31.772 29.5557 31.7565 29.5879C31.7411 29.6201 31.7186 29.6484 31.6907 29.6707Z" fill="#E0E0E0"/>
<path d="M33.1657 28.8188C33.1154 28.8467 33.0764 28.8095 33.0764 28.7333C33.0757 28.6974 33.0834 28.6619 33.0989 28.6296C33.1144 28.5973 33.1372 28.5691 33.1657 28.5473C33.214 28.5175 33.2549 28.5566 33.2549 28.6328C33.255 28.6686 33.2469 28.7038 33.2315 28.736C33.216 28.7682 33.1935 28.7965 33.1657 28.8188Z" fill="#E0E0E0"/>
<path d="M10.0198 29.3954L9.80592 29.5182V26.5794L10.0198 26.4566V29.3954Z" fill="#F0F0F0"/>
<path d="M9.6255 25.9805V26.6966L10.1984 26.3655V25.6494C10.2155 25.2476 10.271 24.8484 10.3639 24.4571C10.3981 24.2982 10.4155 24.1361 10.416 23.9735C10.416 23.4155 10.1909 23.09 9.91194 23.25C9.63294 23.41 9.40788 23.994 9.40788 24.552C9.4064 24.6945 9.42455 24.8366 9.46182 24.9742C9.56164 25.3007 9.6167 25.6392 9.6255 25.9805Z" fill="#E0E0E0"/>
<g opacity="0.1">
<path d="M9.6255 25.9805V26.6966L10.1984 26.3655V25.6494C10.2155 25.2476 10.271 24.8484 10.3639 24.4571C10.3981 24.2982 10.4155 24.1361 10.416 23.9735C10.416 23.4155 10.1909 23.09 9.91194 23.25C9.63294 23.41 9.40788 23.994 9.40788 24.552C9.4064 24.6945 9.42455 24.8366 9.46182 24.9742C9.56164 25.3007 9.6167 25.6392 9.6255 25.9805Z" fill="black"/>
</g>
<path d="M10.1984 26.7728L9.6255 27.1039V26.6966L10.1984 26.3655V26.7728Z" fill="#EBEBEB"/>
<path d="M10.3751 32.6132L9.4488 33.1489V29.1778L10.3751 28.6421V32.6132Z" fill="#F5F5F5"/>
<path d="M10.2653 32.6783L10.3751 32.6132V28.6421L10.2653 28.7054V32.6783Z" fill="#E0E0E0"/>
<path d="M9.4488 33.1489L9.5604 33.0857V29.1146L9.4488 29.1778V33.1489Z" fill="#E0E0E0"/>
<path d="M11.6789 28.4357L11.4669 28.5603V25.6215L11.6789 25.4987V28.4357Z" fill="#F0F0F0"/>
<path d="M11.2865 25.0207V25.7387L11.8594 25.4076V24.6896C11.8763 24.288 11.9311 23.8888 12.023 23.4974C12.0588 23.3393 12.0769 23.1777 12.077 23.0156C12.077 22.4576 11.8519 22.1303 11.5729 22.2921C11.2939 22.4539 11.0689 23.0361 11.0689 23.5941C11.0667 23.736 11.0842 23.8774 11.1209 24.0145C11.2212 24.3409 11.2769 24.6794 11.2865 25.0207Z" fill="#E0E0E0"/>
<g opacity="0.1">
<path d="M11.2865 25.0207V25.7387L11.8594 25.4076V24.6896C11.8763 24.288 11.9311 23.8888 12.023 23.4974C12.0588 23.3393 12.0769 23.1777 12.077 23.0156C12.077 22.4576 11.8519 22.1303 11.5729 22.2921C11.2939 22.4539 11.0689 23.0361 11.0689 23.5941C11.0667 23.736 11.0842 23.8774 11.1209 24.0145C11.2212 24.3409 11.2769 24.6794 11.2865 25.0207Z" fill="black"/>
</g>
<path d="M11.8594 25.8131L11.2865 26.1442V25.7387L11.8594 25.4076V25.8131Z" fill="#EBEBEB"/>
<path d="M11.9263 31.7186L11.2195 32.1259V28.1548L11.9263 27.7475V31.7186Z" fill="#F5F5F5"/>
<path d="M11.8166 31.7818L11.9263 31.7186V27.7475L11.8166 27.8107V31.7818Z" fill="#E0E0E0"/>
<path d="M11.2195 32.1259L11.3293 32.0627V28.0916L11.2195 28.1548V32.1259Z" fill="#E0E0E0"/>
<path d="M13.3399 27.4778L13.126 27.6005V24.6617L13.3399 24.539V27.4778Z" fill="#F0F0F0"/>
<path d="M12.9475 24.0628V24.7789L13.5203 24.4478V23.7317C13.537 23.33 13.5918 22.9308 13.684 22.5395C13.7189 22.3806 13.737 22.2185 13.738 22.0559C13.738 21.4979 13.511 21.1724 13.2339 21.3323C12.9568 21.4923 12.7298 22.0763 12.7298 22.6343C12.7277 22.7768 12.7452 22.9189 12.7819 23.0566C12.8823 23.383 12.938 23.7215 12.9475 24.0628Z" fill="#E0E0E0"/>
<g opacity="0.1">
<path d="M12.9475 24.0628V24.7789L13.5203 24.4478V23.7317C13.537 23.33 13.5918 22.9308 13.684 22.5395C13.7189 22.3806 13.737 22.2185 13.738 22.0559C13.738 21.4979 13.511 21.1724 13.2339 21.3323C12.9568 21.4923 12.7298 22.0763 12.7298 22.6343C12.7277 22.7768 12.7452 22.9189 12.7819 23.0566C12.8823 23.383 12.938 23.7215 12.9475 24.0628Z" fill="black"/>
</g>
<path d="M13.5203 24.8552L12.9475 25.1863V24.7789L13.5203 24.4478V24.8552Z" fill="#EBEBEB"/>
<path d="M13.5315 30.7923L12.9344 31.1364V27.1653L13.5315 26.8212V30.7923Z" fill="#F5F5F5"/>
<path d="M13.4218 30.8555L13.5315 30.7923V26.8212L13.4218 26.8844V30.8555Z" fill="#E0E0E0"/>
<path d="M12.9344 31.1364L13.0442 31.0732V27.1021L12.9344 27.1653V31.1364Z" fill="#E0E0E0"/>
<path d="M14.999 26.5199L14.787 26.6426V23.7038L14.999 23.5811V26.5199Z" fill="#F0F0F0"/>
<path d="M14.6066 23.1049V23.821L15.1795 23.4899V22.7738C15.1962 22.3702 15.2517 21.9691 15.345 21.576C15.3792 21.4171 15.3966 21.255 15.3971 21.0924C15.3971 20.5344 15.172 20.2089 14.893 20.3689C14.614 20.5288 14.389 21.1129 14.389 21.6709C14.3866 21.8135 14.4048 21.9557 14.4429 22.0931C14.5432 22.4213 14.5983 22.7618 14.6066 23.1049Z" fill="#E0E0E0"/>
<g opacity="0.1">
<path d="M14.6066 23.1049V23.821L15.1795 23.4899V22.7738C15.1962 22.3702 15.2517 21.9691 15.345 21.576C15.3792 21.4171 15.3966 21.255 15.3971 21.0924C15.3971 20.5344 15.172 20.2089 14.893 20.3689C14.614 20.5288 14.389 21.1129 14.389 21.6709C14.3866 21.8135 14.4048 21.9557 14.4429 22.0931C14.5432 22.4213 14.5983 22.7618 14.6066 23.1049Z" fill="black"/>
</g>
<path d="M15.1795 23.8973L14.6066 24.2284V23.821L15.1795 23.4899V23.8973Z" fill="#EBEBEB"/>
<path d="M15.1367 29.8642L14.6494 30.145V26.1739L15.1367 25.8949V29.8642Z" fill="#F5F5F5"/>
<path d="M15.0269 29.9293L15.1367 29.8642V25.8949L15.0269 25.9582V29.9293Z" fill="#E0E0E0"/>
<path d="M14.6494 30.145L14.7591 30.0818V26.1107L14.6494 26.1739V30.145Z" fill="#E0E0E0"/>
<path d="M29.8232 17.3724L29.6093 17.4952V14.5564L29.8232 14.4336V17.3724Z" fill="#F0F0F0"/>
<path d="M30.2213 11.9524C30.2202 12.115 30.2021 12.2771 30.1673 12.436C30.0754 12.8268 30.02 13.2253 30.0018 13.6264V14.3425L29.4289 14.6735V13.95C29.4195 13.6106 29.3644 13.274 29.2652 12.9493C29.2269 12.8119 29.2088 12.6697 29.2113 12.5271C29.211 12.3636 29.2304 12.2006 29.269 12.0416L30.1636 11.532C30.2041 11.6684 30.2235 11.8101 30.2213 11.9524Z" fill="#E0E0E0"/>
<g opacity="0.1">
<path d="M30.2213 11.9524C30.2202 12.115 30.2021 12.2771 30.1673 12.436C30.0754 12.8268 30.02 13.2253 30.0018 13.6264V14.3425L29.4289 14.6735V13.95C29.4195 13.6106 29.3644 13.274 29.2652 12.9493C29.2269 12.8119 29.2088 12.6697 29.2113 12.5271C29.211 12.3636 29.2304 12.2006 29.269 12.0416L30.1636 11.532C30.2041 11.6684 30.2235 11.8101 30.2213 11.9524Z" fill="black"/>
</g>
<path d="M30.0037 14.7498L29.4308 15.0809V14.6735L30.0037 14.3425V14.7498Z" fill="#EBEBEB"/>
<path d="M30.1785 16.621V20.088L30.0688 20.6534L29.3638 21.0608L29.2522 20.6237V17.1566L30.1785 16.621Z" fill="#F5F5F5"/>
<path d="M30.1785 16.621V20.088L30.0688 20.6534V16.6842L30.1785 16.621Z" fill="#E0E0E0"/>
<path d="M29.3638 17.0915V21.0608L29.2522 20.6237V17.1566L29.3638 17.0915Z" fill="#E0E0E0"/>
<path d="M31.4842 16.4145L31.2703 16.5373V13.5985L31.4842 13.4757V16.4145Z" fill="#F0F0F0"/>
<path d="M31.8804 10.9945C31.8801 11.1571 31.862 11.3193 31.8265 11.4781C31.7362 11.8691 31.6814 12.2675 31.6628 12.6685V13.392L31.0899 13.7212V12.9995C31.0806 12.6601 31.0256 12.3235 30.9262 11.9989C30.8881 11.8614 30.8699 11.7192 30.8723 11.5766C30.8724 11.4132 30.8911 11.2504 30.9281 11.0912L31.8265 10.5722C31.8646 10.7097 31.8827 10.8519 31.8804 10.9945Z" fill="#E0E0E0"/>
<g opacity="0.1">
<path d="M31.8804 10.9945C31.8801 11.1571 31.862 11.3193 31.8265 11.4781C31.7362 11.8691 31.6814 12.2675 31.6628 12.6685V13.392L31.0899 13.7212V12.9995C31.0806 12.6601 31.0256 12.3235 30.9262 11.9989C30.8881 11.8614 30.8699 11.7192 30.8723 11.5766C30.8724 11.4132 30.8911 11.2504 30.9281 11.0912L31.8265 10.5722C31.8646 10.7097 31.8827 10.8519 31.8804 10.9945Z" fill="black"/>
</g>
<path d="M31.6628 13.7919L31.0899 14.1211V13.7156L31.6628 13.3846V13.7919Z" fill="#EBEBEB"/>
<path d="M31.7297 15.7263V19.1933L31.6219 19.7569L31.1345 20.0378L31.0229 19.6007V16.1336L31.7297 15.7263Z" fill="#F5F5F5"/>
<path d="M31.7297 15.7263V19.1933L31.6219 19.7569V15.7895L31.7297 15.7263Z" fill="#E0E0E0"/>
<path d="M31.1345 16.0704V20.0378L31.0229 19.6007V16.1336L31.1345 16.0704Z" fill="#E0E0E0"/>
<path d="M33.1433 15.4547L32.9313 15.5775V12.6406L33.1433 12.5159V15.4547Z" fill="#F0F0F0"/>
<path d="M33.5414 10.044C33.5411 10.2073 33.523 10.3701 33.4874 10.5295C33.3955 10.9203 33.3401 11.3188 33.3219 11.7199V12.4248L32.7509 12.7559V12.0398C32.7419 11.7002 32.6862 11.3635 32.5853 11.0391C32.5481 10.9021 32.5299 10.7607 32.5314 10.6187C32.5321 10.4546 32.5514 10.2912 32.5891 10.1314L33.48 9.6162C33.5238 9.75447 33.5445 9.899 33.5414 10.044Z" fill="#E0E0E0"/>
<g opacity="0.1">
<path d="M33.5414 10.044C33.5411 10.2073 33.523 10.3701 33.4874 10.5295C33.3955 10.9203 33.3401 11.3188 33.3219 11.7199V12.4248L32.7509 12.7559V12.0398C32.7419 11.7002 32.6862 11.3635 32.5853 11.0391C32.5481 10.9021 32.5299 10.7607 32.5314 10.6187C32.5321 10.4546 32.5514 10.2912 32.5891 10.1314L33.48 9.6162C33.5238 9.75447 33.5445 9.899 33.5414 10.044Z" fill="black"/>
</g>
<path d="M33.3238 12.8321L32.7509 13.1632V12.7559L33.3238 12.4267V12.8321Z" fill="#EBEBEB"/>
<path d="M33.3349 14.7982V18.2652L33.2252 18.8306L32.8476 19.0483L32.7379 18.6112V15.1441L33.3349 14.7982Z" fill="#F5F5F5"/>
<path d="M33.3349 14.7982V18.2652L33.2252 18.8306V14.8633L33.3349 14.7982Z" fill="#E0E0E0"/>
<path d="M32.8476 15.0809V19.0483L32.7379 18.6112V15.1441L32.8476 15.0809Z" fill="#E0E0E0"/>
<path d="M34.8043 14.4968L34.5904 14.6196V11.6808L34.8043 11.558V14.4968Z" fill="#F0F0F0"/>
<path d="M35.2005 9.0768C35.2002 9.23948 35.1821 9.40165 35.1466 9.5604C35.0563 9.95146 35.0015 10.3499 34.9829 10.7508V11.4669L34.41 11.798V11.0819C34.4005 10.7425 34.3455 10.4059 34.2463 10.0812C34.2082 9.94377 34.19 9.80158 34.1924 9.65898C34.1921 9.49544 34.2115 9.33245 34.25 9.17352L35.154 8.65458C35.1896 8.79237 35.2053 8.93456 35.2005 9.0768Z" fill="#E0E0E0"/>
<g opacity="0.1">
<path d="M35.2005 9.0768C35.2002 9.23948 35.1821 9.40165 35.1466 9.5604C35.0563 9.95146 35.0015 10.3499 34.9829 10.7508V11.4669L34.41 11.798V11.0819C34.4005 10.7425 34.3455 10.4059 34.2463 10.0812C34.2082 9.94377 34.19 9.80158 34.1924 9.65898C34.1921 9.49544 34.2115 9.33245 34.25 9.17352L35.154 8.65458C35.1896 8.79237 35.2053 8.93456 35.2005 9.0768Z" fill="black"/>
</g>
<path d="M34.9847 11.8742L34.4119 12.2053V11.798L34.9847 11.4669V11.8742Z" fill="#EBEBEB"/>
<path d="M34.942 13.8719V17.3389L34.8304 17.9044L34.5662 18.0569L34.4546 17.6198V14.1527L34.942 13.8719Z" fill="#F5F5F5"/>
<path d="M34.942 13.8719V17.3389L34.8304 17.9044V13.9351L34.942 13.8719Z" fill="#E0E0E0"/>
<path d="M34.5662 14.0895V18.0569L34.4546 17.6198V14.1527L34.5662 14.0895Z" fill="#E0E0E0"/>
<path d="M10.6336 45.3598L9.4488 46.0424V35.2489L10.6336 34.5644V45.3598Z" fill="#F0F0F0"/>
<path d="M9.7092 45.8936L9.4488 46.0424V35.2489L9.7092 35.0982V45.8936Z" fill="#FAFAFA"/>
<path d="M10.6336 45.3598L10.3751 45.5086V34.7132L10.6336 34.5644V45.3598Z" fill="#E0E0E0"/>
<path d="M10.2089 35.6469C10.2619 35.4741 10.2301 35.311 10.1377 35.2827C10.0454 35.2543 9.9276 35.3715 9.87456 35.5443C9.82152 35.7172 9.85335 35.8803 9.94567 35.9086C10.038 35.9369 10.1558 35.8198 10.2089 35.6469Z" fill="#E0E0E0"/>
<path d="M9.99262 45.0831L9.42377 45.411L9.47672 45.5028L10.0456 45.175L9.99262 45.0831Z" fill="#E0E0E0"/>
<path d="M9.99607 44.4643L9.42728 44.7923L9.48025 44.8842L10.049 44.5562L9.99607 44.4643Z" fill="#E0E0E0"/>
<path d="M9.99542 43.8491L9.42664 44.1771L9.4796 44.269L10.0484 43.941L9.99542 43.8491Z" fill="#E0E0E0"/>
<path d="M9.99477 43.2321L9.42598 43.5601L9.47895 43.6519L10.0477 43.3239L9.99477 43.2321Z" fill="#E0E0E0"/>
<path d="M9.99505 42.6185L9.42626 42.9465L9.47922 43.0384L10.048 42.7104L9.99505 42.6185Z" fill="#E0E0E0"/>
<path d="M9.9944 42.0034L9.42561 42.3313L9.47857 42.4232L10.0474 42.0952L9.9944 42.0034Z" fill="#E0E0E0"/>
<path d="M9.99375 41.3882L9.42496 41.7162L9.47792 41.808L10.0467 41.48L9.99375 41.3882Z" fill="#E0E0E0"/>
<path d="M9.99588 40.7746L9.4271 41.1026L9.48006 41.1944L10.0488 40.8665L9.99588 40.7746Z" fill="#E0E0E0"/>
<path d="M9.99187 40.1607L9.42303 40.4886L9.47598 40.5805L10.0448 40.2526L9.99187 40.1607Z" fill="#E0E0E0"/>
<path d="M9.99458 39.5424L9.4258 39.8704L9.47876 39.9622L10.0475 39.6342L9.99458 39.5424Z" fill="#E0E0E0"/>
<path d="M9.99486 38.9288L9.42607 39.2568L9.47904 39.3487L10.0478 39.0207L9.99486 38.9288Z" fill="#E0E0E0"/>
<path d="M9.99421 38.3136L9.42542 38.6416L9.47839 38.7335L10.0472 38.4055L9.99421 38.3136Z" fill="#E0E0E0"/>
<path d="M9.99356 37.6985L9.42477 38.0265L9.47774 38.1183L10.0465 37.7903L9.99356 37.6985Z" fill="#E0E0E0"/>
<path d="M9.9957 37.083L9.42691 37.411L9.47987 37.5029L10.0487 37.1749L9.9957 37.083Z" fill="#E0E0E0"/>
<path d="M9.99505 36.4679L9.42626 36.7959L9.47922 36.8877L10.048 36.5597L9.99505 36.4679Z" fill="#E0E0E0"/>
<path d="M14.7535 33.8446V39.7705L15.9365 39.086V33.1601L14.7535 33.8446Z" fill="#F0F0F0"/>
<path d="M14.7535 33.8446V39.7705L15.0121 39.6199V33.6958L14.7535 33.8446Z" fill="#FAFAFA"/>
<path d="M15.6779 33.3107V39.2348L15.9383 39.086V33.1601L15.6779 33.3107Z" fill="#E0E0E0"/>
<path d="M15.2937 38.8109L14.7249 39.1389L14.7778 39.2308L15.3466 38.9028L15.2937 38.8109Z" fill="#E0E0E0"/>
<path d="M15.293 38.1958L14.7242 38.5237L14.7772 38.6156L15.346 38.2876L15.293 38.1958Z" fill="#E0E0E0"/>
<path d="M15.2924 37.5787L14.7236 37.9067L14.7765 37.9986L15.3453 37.6706L15.2924 37.5787Z" fill="#E0E0E0"/>
<path d="M15.2945 36.9652L14.7257 37.2931L14.7787 37.385L15.3475 37.057L15.2945 36.9652Z" fill="#E0E0E0"/>
<path d="M15.2938 36.35L14.7251 36.678L14.778 36.7698L15.3468 36.4418L15.2938 36.35Z" fill="#E0E0E0"/>
<path d="M15.2932 35.7348L14.7244 36.0628L14.7774 36.1546L15.3462 35.8266L15.2932 35.7348Z" fill="#E0E0E0"/>
<path d="M15.2935 35.1212L14.7247 35.4492L14.7776 35.5411L15.3464 35.2131L15.2935 35.1212Z" fill="#E0E0E0"/>
<path d="M15.2928 34.5042L14.724 34.8322L14.777 34.924L15.3458 34.596L15.2928 34.5042Z" fill="#E0E0E0"/>
<path d="M15.294 33.889L14.7252 34.217L14.7782 34.3088L15.347 33.9809L15.294 33.889Z" fill="#E0E0E0"/>
<path d="M12.1756 33.6753L15.784 31.5921V33.2494L12.1756 35.3326V33.6753Z" fill="#E0E0E0"/>
<path opacity="0.1" d="M12.1756 33.6753L15.784 31.5921V33.2494L12.1756 35.3326V33.6753Z" fill="black"/>
<path d="M15.4622 32.6058C15.4635 32.6874 15.4461 32.7683 15.4112 32.8421C15.3764 32.916 15.3251 32.9808 15.2613 33.0317C15.1497 33.0968 15.0586 33.0094 15.0586 32.8457C15.0573 32.7639 15.075 32.6829 15.1101 32.6091C15.1453 32.5352 15.197 32.4704 15.2613 32.4198C15.371 32.3491 15.4622 32.4347 15.4622 32.6058Z" fill="#F0F0F0"/>
<path d="M11.5766 38.8331V44.826L15.464 42.581L11.5766 38.8331ZM12.276 41.0502L13.764 42.4694L12.276 43.3213V41.0502Z" fill="#F0F0F0"/>
<path d="M11.5766 44.8186L11.7571 44.4373L15.2836 42.4006L15.464 42.5735L11.5766 44.8186Z" fill="#E0E0E0"/>
<path d="M11.7571 44.4373V39.0061L11.5766 38.8331V44.8186L11.7571 44.4373Z" fill="#FAFAFA"/>
<path d="M33.3033 23.3225V22.679L30.0613 24.552V25.1956L33.3033 23.3225Z" fill="#F0F0F0"/>
<path d="M30.0948 26.8435V26.5162C30.1037 26.3698 30.1345 26.2256 30.1859 26.0884L30.3459 25.6661C30.3974 25.5289 30.4281 25.3847 30.437 25.2383V23.9363C30.437 23.8322 30.398 23.7652 30.3515 23.7782C30.2648 23.813 30.1689 23.8168 30.0797 23.789C29.9906 23.7613 29.9138 23.7036 29.8623 23.6257C29.6596 23.2388 29.6596 22.2586 30.3068 21.6225C30.3068 21.6225 29.7172 21.7787 29.4475 22.8203C29.2769 23.5186 29.2067 24.2376 29.2392 24.9556C29.2392 25.0616 29.2392 25.229 29.2392 25.3276V26.2781C29.2362 26.3697 29.2547 26.4608 29.2931 26.5441L29.3582 26.6408C29.3959 26.7242 29.4138 26.8153 29.4103 26.9068V27.4927C29.4103 27.5968 29.494 27.7028 29.5498 27.6433L29.9962 27.1374C30.0587 27.052 30.0931 26.9493 30.0948 26.8435Z" fill="#E0E0E0"/>
<path d="M30.2994 27.2025V26.9272C30.2994 26.8324 30.2417 26.7896 30.1711 26.8305L29.3675 27.2936C29.3279 27.3217 29.2955 27.3588 29.2728 27.4017C29.2502 27.4447 29.238 27.4924 29.2373 27.541V27.8163C29.2373 27.9112 29.295 27.9558 29.3675 27.9149L30.1711 27.4499C30.2103 27.4216 30.2424 27.3845 30.2647 27.3415C30.287 27.2985 30.2989 27.2509 30.2994 27.2025Z" fill="#E0E0E0"/>
<path opacity="0.1" d="M30.0948 26.6278V26.8733L29.4103 27.2695V27.0221L30.0948 26.6278Z" fill="black"/>
<path d="M35.2191 21.6653V22.134C35.2181 22.2164 35.1977 22.2974 35.1596 22.3704C35.1214 22.4434 35.0666 22.5065 34.9996 22.5544L33.0169 23.7001V22.6529L34.9996 21.5072C35.1224 21.4291 35.2191 21.5035 35.2191 21.6653Z" fill="#E0E0E0"/>
<path d="M72.8506 30.0111L66.1881 59.3173L73.018 63.2605L79.6805 33.9562L72.8506 30.0111Z" fill="#FF6F00"/>
<path opacity="0.4" d="M72.8506 30.0111L66.1881 59.3173L73.018 63.2605L79.6805 33.9562L72.8506 30.0111Z" fill="white"/>
<path opacity="0.05" d="M69.7612 61.38C70.0867 59.9552 70.4308 58.5063 70.6558 57.9074C70.9906 57.0183 71.6026 56.252 72.0229 54.405C72.0229 54.405 71.783 56.4231 71.2789 57.368C70.959 57.965 70.468 59.9497 70.0941 61.5697L69.7612 61.38Z" fill="white"/>
<path opacity="0.05" d="M78.864 33.48C78.492 35.1075 76.978 41.9765 76.8347 42.78C76.4181 45.1329 76.0907 47.1845 75.41 50.2572C75.41 50.2572 75.8229 48.8864 76.433 45.769C76.7194 44.3052 76.9612 42.9511 77.0933 42.2462C77.2253 41.5412 79.0295 33.5711 79.0295 33.5711L78.864 33.48Z" fill="white"/>
<path opacity="0.1" d="M70.1462 61.6032L70.3043 60.9038C70.8474 58.5119 71.238 56.916 71.6453 55.986C72.0527 55.056 72.5214 53.0435 72.7148 52.1321C72.5639 53.1728 72.3546 54.2043 72.088 55.2215C71.597 57.182 71.318 57.4331 70.6707 60.2566L70.3378 61.7222L70.1462 61.6032Z" fill="black"/>
<path opacity="0.1" d="M78.4715 33.2587C78.0828 34.968 76.7845 40.6838 76.5781 41.5896C76.3716 42.4954 76.2656 44.8465 75.9996 46.0145C76.1928 45.3324 76.3339 44.6367 76.4218 43.9332C76.5855 42.6833 78.3971 34.4732 78.6538 33.361L78.4715 33.2587Z" fill="black"/>
<path opacity="0.05" d="M71.7588 62.5351C72.1457 60.8332 73.0069 57.0648 73.3305 55.6531C73.7416 53.8414 74.5934 50.938 75.1235 48.3823C75.6239 46.0052 75.9047 44.1657 75.9475 43.9183C75.8083 45.4564 75.5816 46.9853 75.2686 48.4976C74.8148 50.499 73.9052 54.0962 73.4086 56.291C73.0757 57.7586 72.4135 60.6732 71.9578 62.6504L71.7588 62.5351Z" fill="white"/>
<path opacity="0.05" d="M77.2811 32.5705C76.898 34.2445 75.6369 39.8059 75.3337 41.1265C75.0305 42.4471 74.4558 44.4094 73.9424 46.6637C73.4291 48.918 73.1315 50.8357 72.9306 52.3218C72.7297 53.8079 72.3726 55.3722 72.3726 55.3722C72.7104 54.1407 72.9793 52.8913 73.178 51.6299C73.5652 49.1624 74.1019 46.7207 74.785 44.3182C75.4695 42.0286 77.4895 32.6876 77.4895 32.6876L77.2811 32.5705Z" fill="white"/>
<path opacity="0.05" d="M69.6886 61.3391C70.3471 58.3631 71.6305 52.5859 72.0564 50.7129C72.633 48.2 73.4347 44.9469 73.4347 44.9469C73.4347 44.9469 72.3373 50.3279 71.1283 55.6475C70.4828 58.4691 70.0997 60.1561 69.8114 61.4135L69.6886 61.3391Z" fill="white"/>
<path opacity="0.1" d="M76.6562 32.2096C76.6562 32.2096 74.015 43.8253 73.2691 47.0989C72.5233 50.3725 71.8574 54.1148 71.8574 54.1148C71.8574 54.1148 72.5809 51.4569 73.4998 47.4356C73.7713 46.2452 76.9277 32.3696 76.9277 32.3696L76.6562 32.2133V32.2096Z" fill="black"/>
<path opacity="0.1" d="M72.2405 62.8122C72.7483 60.5802 73.5425 57.0648 73.842 55.7888C74.2624 53.9419 75.4211 49.197 75.702 48.0717C75.702 48.0717 74.746 52.85 73.3175 59.1164L72.4433 62.9331L72.2405 62.8122Z" fill="black"/>
<path opacity="0.1" d="M71.4835 62.3751C71.9057 60.5151 72.4991 57.9241 72.7632 56.7653C73.1631 55.0058 74.281 50.9993 74.692 49.1877C75.1031 47.3761 77.6383 35.3419 78.1535 33.0764L77.9173 32.9406C77.5973 34.3468 74.6213 45.5551 74.0001 48.2837C73.3789 51.0124 73.1185 54.0274 72.7316 55.7237C72.4656 56.89 71.729 60.1115 71.2436 62.2337L71.4835 62.3751ZM73.5518 52.452C73.4365 52.385 73.8364 49.9801 74.201 48.3786C74.5209 46.9687 75.2835 44.2382 75.3895 44.2996C75.4955 44.361 74.9282 47.1324 74.5916 48.6111C74.2549 50.0898 73.6672 52.519 73.5518 52.452Z" fill="black"/>
<path opacity="0.05" d="M70.5851 61.8562C70.9088 60.4314 71.2529 58.9787 71.4556 58.3687C71.7569 57.4628 72.2629 56.637 72.6832 54.79C72.6832 54.79 72.3893 56.7709 71.9522 57.766C71.6788 58.391 71.1934 60.37 70.8232 61.9994L70.5851 61.8562Z" fill="white"/>
<path opacity="0.05" d="M68.82 60.8313C69.4468 58.1362 70.2113 54.9053 70.3657 54.3566C71.0111 52.0447 71.6063 50.0786 72.3354 46.9073C72.3354 46.9073 72.0899 48.4325 71.2845 51.5573C70.9125 53.0267 70.5405 54.3473 70.3545 55.0616C70.2392 55.4931 69.5547 58.4654 68.9893 60.928L68.82 60.8313Z" fill="white"/>
<path opacity="0.1" d="M73.4012 30.3403L72.7744 33.108C72.2164 35.5837 71.8667 37.2651 71.7848 38.4332C71.703 39.6013 71.251 41.6956 71.0241 42.6238C71.344 41.6002 71.6061 40.5594 71.809 39.5064C72.2387 37.4269 72.1234 36.9359 72.7874 34.0138C73.4514 31.0918 73.5946 30.4538 73.5946 30.4538L73.4012 30.3403Z" fill="black"/>
<path opacity="0.1" d="M68.4052 60.5988C68.9409 58.2422 69.5212 55.6828 69.6682 55.0523C69.8802 54.1223 70.7525 52.147 71.0278 50.9324C70.9064 51.6371 70.7316 52.3317 70.5052 53.01C70.241 53.8191 69.2924 57.7586 68.5987 60.7067L68.4052 60.5988Z" fill="black"/>
<path opacity="0.05" d="M74.8055 32.1966L72.9343 40.4457C72.5102 42.3169 71.9708 45.5216 71.3329 48.1182C70.6949 50.7148 70.1239 52.5673 70.1239 52.5673C70.6698 51.1325 71.1264 49.6653 71.491 48.174C71.9615 46.1001 72.7372 42.2834 73.2524 40.0086C73.7676 37.7338 75.211 31.3763 75.211 31.3763L75.1347 31.3336L74.8055 32.1966Z" fill="white"/>
<path opacity="0.05" d="M67.213 59.9106C67.7431 57.5893 68.329 55.0411 68.5336 54.1241C68.8423 52.7422 69.2069 50.5901 69.7333 48.2503C70.2596 45.9104 70.8176 44.0746 71.2771 42.6703C71.7365 41.266 72.101 39.6626 72.101 39.6626C71.8664 40.955 71.5609 42.2335 71.1859 43.4924C70.4538 45.9592 69.865 48.4663 69.4226 51.0012C69.1529 52.664 68.1578 57.0127 67.451 60.0389L67.213 59.9106Z" fill="white"/>
<path opacity="0.05" d="M72.9529 30.0818C72.9529 30.0818 70.5349 40.4624 69.9472 43.0664C69.3594 45.6704 68.634 49.104 68.634 49.104C68.634 49.104 69.9955 43.6654 71.238 38.1616C72.4805 32.6579 73.0571 30.1432 73.0571 30.1432L72.9529 30.0818Z" fill="white"/>
<path opacity="0.1" d="M66.588 59.5498L69.3929 47.2105C70.1592 43.8179 71.1822 40.1425 71.1822 40.1425C71.1822 40.1425 70.6484 43.0218 69.7072 47.1863L66.8614 59.706L66.588 59.5498Z" fill="black"/>
<path opacity="0.1" d="M75.4974 31.5419C75.4974 31.5419 73.8234 38.9503 73.3826 40.8623C72.9418 42.7744 71.8946 47.7685 71.6546 48.9664C71.6546 48.9664 72.8767 44.1527 74.3479 37.6631L75.702 31.6646L75.4974 31.5419Z" fill="black"/>
<path opacity="0.1" d="M68.1076 60.4258C69.1771 55.9618 71.0055 48.4846 71.3366 47.0245C71.7569 45.1515 72.5437 40.7842 72.9585 38.9596C73.3733 37.1349 74.7385 31.1048 74.7385 31.1048L74.506 30.9764C74.506 30.9764 72.9101 37.9961 72.5158 39.7594C72.1215 41.5226 71.078 44.1936 70.4345 47.0227C69.9583 49.1412 68.6154 56.1088 67.7933 60.2454L68.1076 60.4258ZM69.8728 51.6503C69.7612 51.5852 70.2968 48.6111 70.6279 47.151C70.9999 45.4937 71.6825 43.1576 71.7979 43.2245C71.9132 43.2915 71.3682 45.849 71.0204 47.3761C70.6726 48.9031 69.9788 51.708 69.8728 51.6503Z" fill="black"/>
<path opacity="0.05" d="M73.842 30.597C73.5816 31.7372 72.7539 35.2823 72.6144 36.3202C72.4749 37.3581 72.5214 38.5522 72.0862 40.4569C72.0862 40.4569 72.6758 38.5652 72.7465 37.3246C72.8171 36.084 74.0838 30.7253 74.0838 30.7253L73.842 30.597Z" fill="white"/>
<path d="M74.7125 29.3415L72.8506 30.0111L79.6805 33.9562L81.5424 33.2866L74.7125 29.3415Z" fill="#FF6F00"/>
<path opacity="0.6" d="M74.7125 29.3415L72.8506 30.0111L79.6805 33.9562L81.5424 33.2866L74.7125 29.3415Z" fill="white"/>
<path opacity="0.1" d="M77.9173 32.9406L79.5671 32.4217L78.1535 33.0764L77.9173 32.9406Z" fill="black"/>
<path opacity="0.1" d="M78.4715 33.2587L79.3364 33.0299L78.6501 33.361L78.4715 33.2587Z" fill="black"/>
<path opacity="0.1" d="M76.6562 32.2096L78.2762 31.7111L76.9277 32.3659L76.6562 32.2096Z" fill="black"/>
<path opacity="0.1" d="M74.506 30.9764L76.167 30.4742L74.7385 31.1066L74.506 30.9764Z" fill="black"/>
<path opacity="0.05" d="M72.9529 30.0836L74.1377 29.6875L73.0664 30.1487" fill="white"/>
<path opacity="0.05" d="M73.842 30.597L75.6406 30.0111L74.0857 30.7253L73.842 30.597Z" fill="white"/>
<path opacity="0.05" d="M78.8677 33.4856L80.6626 32.8941L79.0333 33.5823L78.8677 33.4856Z" fill="white"/>
<path d="M73.018 63.2605L74.8799 62.5909L81.5424 33.2866L79.6805 33.9562L73.018 63.2605Z" fill="#FF6F00"/>
<path opacity="0.3" d="M73.018 63.2605L74.8799 62.5909L81.5424 33.2866L79.6805 33.9562L73.018 63.2605Z" fill="white"/>
<path opacity="0.1" d="M73.018 63.2605L74.8799 62.5909L81.5424 33.2866L79.6805 33.9562L73.018 63.2605Z" fill="black"/>
<path opacity="0.1" d="M73.496 63.0893L73.8141 62.974C74.1117 62.0143 74.3516 61.3967 74.6976 60.011C75.0058 58.8384 75.2474 57.6491 75.4211 56.4491C75.1942 57.5168 74.6269 59.892 74.1191 61.1977C73.8799 61.8174 73.6719 62.4488 73.496 63.0893Z" fill="black"/>
<path opacity="0.05" d="M75.118 59.8529C75.5082 58.413 75.8218 56.9533 76.0573 55.4801C76.5171 52.582 77.1487 49.7138 77.9489 46.8906C78.6929 44.3275 80.6496 35.4125 81.0774 33.4521L80.7593 33.5674C80.2292 35.9054 78.8882 41.8295 78.5478 43.3101C78.1888 44.8837 77.482 47.3333 76.8738 50.0061C76.2656 52.6789 75.9438 54.7975 75.7336 56.4101C75.5309 57.965 75.144 59.7432 75.118 59.8529Z" fill="white"/>
<path opacity="0.1" d="M74.3237 59.215C74.3572 59.0903 75.224 55.8539 76.2916 51.1872C76.5874 49.9075 79.6954 36.2291 80.2571 33.7478L79.8721 33.8855C79.3588 36.1361 76.7473 47.6253 75.9531 51.1147C75.0845 54.9277 74.3461 59.0885 74.3237 59.215Z" fill="black"/>
<path opacity="0.1" d="M75.9977 57.66L76.7008 54.5705C76.8422 53.6405 77.0728 52.3646 77.3165 51.3304C77.5285 50.4004 77.9154 48.9124 78.2465 47.7964L80.6236 37.3376C79.3848 42.1439 77.5378 49.2416 77.0375 51.4588C76.5185 53.6945 76.26 55.8725 75.9977 57.66Z" fill="black"/>
<path opacity="0.05" d="M74.2642 62.8122L74.5748 62.7006L74.6325 62.5518C75.1589 61.2498 75.4621 59.254 75.4974 59.0178C75.1837 60.3122 74.7715 61.5807 74.2642 62.8122Z" fill="white"/>
<path d="M77.2142 65.5855L86.8657 21.2375L83.6721 19.3384L74.0187 63.6883L77.2142 65.5855Z" fill="#FF6F00"/>
<path opacity="0.5" d="M77.2142 65.5855L86.8657 21.2375L83.6721 19.3384L74.0187 63.6883L77.2142 65.5855Z" fill="white"/>
<path d="M83.6721 19.3384L85.4317 18.494L88.6253 20.3912L86.8657 21.2375L83.6721 19.3384Z" fill="#FF6F00"/>
<path opacity="0.6" d="M83.6721 19.3384L85.4317 18.494L88.6253 20.3912L86.8657 21.2375L83.6721 19.3384Z" fill="white"/>
<path d="M77.2142 65.5855L78.9719 64.741L88.6253 20.3912L86.8657 21.2375L77.2142 65.5855Z" fill="#FF6F00"/>
<path opacity="0.4" d="M77.2142 65.5855L78.9719 64.741L88.6253 20.3912L86.8657 21.2375L77.2142 65.5855Z" fill="white"/>
<path opacity="0.1" d="M77.2142 65.5855L78.9719 64.741L88.6253 20.3912L86.8657 21.2375L77.2142 65.5855Z" fill="black"/>
<path opacity="0.05" d="M74.214 63.798C74.5507 62.2523 74.9059 60.6806 75.131 60.0241C75.4639 59.0513 76.061 58.1882 76.4925 56.185C76.4925 56.185 76.2209 58.3575 75.7243 59.4047C75.41 60.065 74.9041 62.2207 74.5153 63.9784L74.214 63.798Z" fill="white"/>
<path opacity="0.05" d="M86.118 20.7911C85.733 22.5562 84.0125 30.6491 83.86 31.5307C83.4154 34.0771 82.2436 40.0681 81.5294 43.4012C81.5294 43.4012 81.9479 41.9132 82.5914 38.5318C82.8946 36.947 83.9734 31.7056 84.1148 30.9411C84.2561 30.1766 86.2705 20.8822 86.2705 20.8822L86.118 20.7911Z" fill="white"/>
<path opacity="0.1" d="M74.5618 64.01L74.7274 63.253C75.2854 60.649 75.7001 58.9322 76.0982 57.8906C76.4962 56.849 77.9879 50.0786 78.1888 49.0928C78.1888 49.0928 77.0356 54.9091 76.5297 57.0443C76.0238 59.1796 75.7559 59.4623 75.0845 62.5239L74.7385 64.1161L74.5618 64.01Z" fill="black"/>
<path opacity="0.1" d="M85.746 20.5735C85.3405 22.4335 83.8525 29.282 83.6368 30.2641C83.421 31.2461 82.4464 37.546 82.1692 38.8201C82.1692 38.8201 83.2517 34.1329 83.4359 32.7862C83.62 31.4396 85.6474 21.8848 85.9097 20.6776L85.746 20.5735Z" fill="black"/>
<path opacity="0.05" d="M76.0517 64.8954C76.4534 63.0484 77.3537 58.9601 77.6829 57.4219C78.1107 55.4578 80.7445 44.1694 81.3006 41.3999C81.8233 38.8238 82.9523 33.0596 82.9969 32.7918C82.9653 33.1061 81.8809 39.4785 81.4327 41.5133C80.9602 43.684 78.2576 55.7182 77.735 58.1008C77.389 59.693 76.699 62.855 76.2284 65.0014L76.0517 64.8954Z" fill="white"/>
<path opacity="0.05" d="M84.6505 19.9206C84.2543 21.7415 82.8016 28.4227 82.4873 29.8642C82.1729 31.3057 80.7668 37.213 80.233 39.6589C79.6991 42.1048 78.6092 47.6978 78.386 49.3012C78.1628 50.9045 76.8013 57.2043 76.8013 57.2043C76.8013 57.2043 78.2316 51.0365 78.6427 48.5441C79.0537 46.0517 80.3911 39.5901 81.0848 37.0921C81.7786 34.5941 84.8532 20.0396 84.8532 20.0396L84.6505 19.9206Z" fill="white"/>
<path opacity="0.05" d="M74.1396 63.7608C74.8259 60.5374 77.164 49.6639 77.6066 47.6309C78.2037 44.9041 79.7977 37.838 79.7977 37.838C79.7977 37.838 76.8775 51.788 75.6202 57.5633C74.9506 60.6248 74.5525 62.4569 74.2531 63.8278L74.1396 63.7608Z" fill="white"/>
<path opacity="0.1" d="M84.072 19.5784C84.072 19.5784 80.365 36.6085 79.5894 40.1611C78.8138 43.7137 76.3363 55.8856 76.3363 55.8856C76.3363 55.8856 78.8454 44.8669 79.7996 40.5052C80.0823 39.2144 84.3231 19.7272 84.3231 19.7272L84.072 19.5784Z" fill="black"/>
<path opacity="0.1" d="M76.4962 65.1595C77.0226 62.7415 77.8522 58.9229 78.1591 57.5335C78.5943 55.5284 81.5591 42.2499 81.8549 41.026C81.8549 41.026 79.0798 54.3287 77.5955 61.127L76.6897 65.2693L76.4962 65.1595Z" fill="black"/>
<path opacity="0.1" d="M75.7969 64.7447C76.2358 62.7266 76.8515 59.9087 77.1249 58.6588C77.5415 56.7486 80.4506 44.2568 80.8765 42.2908C81.3025 40.3248 84.922 22.8538 85.4577 20.3968L85.2382 20.2666C84.9071 21.7918 80.8951 38.4109 80.2497 41.372C79.6043 44.3331 77.5211 55.694 77.1193 57.554C76.844 58.8206 76.0796 62.3174 75.5774 64.622L75.7969 64.7447ZM78.9589 49.3867C78.8528 49.3235 80.0488 43.2041 80.4283 41.465C80.7612 39.9361 81.5443 36.9638 81.6373 37.0214C81.7303 37.0791 81.1388 40.0811 80.7891 41.6863C80.4394 43.2915 79.0742 49.45 78.9663 49.3867H78.9589Z" fill="black"/>
<path opacity="0.05" d="M74.9673 64.2518C75.304 62.7043 75.6592 61.1289 75.8638 60.4612C76.167 59.4716 76.6599 58.5547 77.097 56.5552C77.097 56.5552 76.7752 58.6942 76.3437 59.7823C76.0721 60.4705 75.5718 62.6299 75.1868 64.3876L74.9673 64.2518Z" fill="white"/>
<path opacity="0.1" d="M85.2382 20.2721L86.795 19.6025L85.4558 20.4023L85.2382 20.2721Z" fill="black"/>
<path opacity="0.1" d="M85.7516 20.5735L86.5663 20.2703L85.9153 20.672L85.7516 20.5735Z" fill="black"/>
<path opacity="0.1" d="M84.0739 19.5784L85.6028 18.9329L84.325 19.7272L84.0739 19.5784Z" fill="black"/>
<path opacity="0.05" d="M86.1161 20.7911L87.8125 20.0341L86.2687 20.8822L86.1161 20.7911Z" fill="white"/>
<path opacity="0.1" d="M77.6662 65.3697L77.9656 65.2246C78.2669 64.1774 78.5069 63.5004 78.8621 61.9938C79.4294 59.5758 79.6061 58.2868 79.6229 58.1362C79.3848 59.2931 78.7989 61.871 78.293 63.3032C78.0698 63.9301 77.8745 64.5699 77.6662 65.3697Z" fill="black"/>
<path opacity="0.05" d="M79.2602 61.7948C79.2899 61.6795 80.804 55.1509 81.2429 52.4539C81.6968 49.6639 83.1215 42.7558 83.9809 39.6199C84.7435 36.8299 87.7418 22.7329 88.1863 20.6069L87.8869 20.752C87.3289 23.2891 85.7999 30.3664 85.4465 31.9734C85.0745 33.6809 83.5326 40.1276 82.9021 43.0199C82.2715 45.9122 80.1493 56.332 79.9149 58.0711C79.6898 59.7488 79.2844 61.6757 79.2602 61.7948Z" fill="white"/>
<path opacity="0.1" d="M78.5311 61.1698C78.5645 61.034 81.2206 49.3886 82.3292 44.3257C82.6342 42.9344 86.8285 23.6666 87.4126 20.9734L87.0406 21.1482L82.0148 44.268C81.1109 48.4065 78.5534 61.0322 78.5311 61.1698Z" fill="black"/>
<path opacity="0.1" d="M80.1344 59.3991L81.866 51.4439C82.0204 50.4376 83.0397 45.5365 83.2852 44.4131C83.5066 43.3975 83.9027 41.7905 84.2357 40.5647L87.6692 24.7901C86.3951 30.0167 83.5382 42.1699 83.0192 44.5637C82.4836 46.9892 80.4208 57.461 80.1344 59.3991Z" fill="black"/>
<path opacity="0.05" d="M78.3916 65.02L78.6854 64.8787C78.704 64.821 78.7226 64.7689 78.7431 64.7168C79.2658 63.2865 79.595 61.1326 79.634 60.8685C79.3104 62.2778 78.8953 63.6646 78.3916 65.02Z" fill="white"/>
<path d="M84.9295 70.1778L86.1013 31.5809L82.8053 29.561L81.6354 68.1578L84.9295 70.1778Z" fill="#FF6F00"/>
<path opacity="0.4" d="M84.9295 70.1778L86.1013 31.5809L82.8053 29.561L81.6354 68.1578L84.9295 70.1778Z" fill="white"/>
<path d="M82.8053 29.561L84.2896 28.7575L87.5837 30.7756L86.1013 31.5809L82.8053 29.561Z" fill="#FF6F00"/>
<path opacity="0.5" d="M82.8053 29.561L84.2896 28.7575L87.5837 30.7756L86.1013 31.5809L82.8053 29.561Z" fill="white"/>
<path d="M84.9295 70.1778L86.4137 69.3724L87.5837 30.7756L86.1013 31.5809L84.9295 70.1778Z" fill="#FF6F00"/>
<path opacity="0.3" d="M84.9295 70.1778L86.4137 69.3724L87.5837 30.7756L86.1013 31.5809L84.9295 70.1778Z" fill="white"/>
<path opacity="0.05" d="M81.84 68.2787C81.8809 66.7201 81.9367 65.1372 82.026 64.4769C82.1636 63.5004 82.5617 62.6429 82.6138 60.623C82.6138 60.623 82.744 62.8196 82.4668 63.8668C82.292 64.5271 82.199 66.6996 82.1488 68.4703L81.84 68.2787Z" fill="white"/>
<path opacity="0.05" d="M85.3256 31.1066C85.2791 32.8867 85.1043 34.9513 85.1173 35.8348C85.1508 38.4016 85.1173 44.4447 85.0392 47.8057C85.0392 47.8057 85.1657 46.3028 85.1694 42.8972C85.1694 41.2994 85.2531 36.0152 85.2494 35.2433C85.2457 34.4714 85.4837 31.2034 85.4837 31.2034L85.3256 31.1066Z" fill="white"/>
<path opacity="0.1" d="M82.1953 68.5019L82.2157 67.7393C82.2845 65.1223 82.3589 63.3832 82.5468 62.3453C82.7347 61.3075 82.93 54.4794 82.943 53.4824C82.943 53.4824 82.8928 59.347 82.7979 61.4972C82.703 63.6473 82.5059 63.9263 82.4259 67.0139L82.3831 68.6173L82.1953 68.5019Z" fill="black"/>
<path opacity="0.1" d="M84.9499 30.876C84.8997 32.7453 84.7211 33.5525 84.6951 34.5421C84.6691 35.5316 84.8681 41.8928 84.8346 43.1706C84.8346 43.1706 85.0206 38.4499 84.9499 37.0884C84.8792 35.7269 85.0876 32.1966 85.121 30.9802L84.9499 30.876Z" fill="black"/>
<path opacity="0.05" d="M83.7316 69.4431C83.78 67.5831 83.8916 63.4613 83.9325 61.912C83.9846 59.9329 84.4459 48.559 84.4756 45.7672C84.5091 43.1632 84.5463 37.3581 84.5407 37.0865C84.5668 37.4065 84.6728 43.8365 84.6207 45.8862C84.563 48.0754 84.1669 60.2082 84.0999 62.6002C84.059 64.2053 83.9753 67.3915 83.9139 69.5547L83.7316 69.4431Z" fill="white"/>
<path opacity="0.05" d="M83.8153 30.1804C83.767 32.0162 83.5921 32.6504 83.5549 34.1031C83.5177 35.5558 83.248 41.5059 83.1829 43.9704C83.1178 46.4349 83.0862 52.0763 83.1625 53.6963C83.2387 55.3164 83.0788 61.6646 83.0788 61.6646C83.0788 61.6646 83.3224 55.4503 83.2648 52.9356C83.2071 50.4209 83.3131 43.9053 83.5196 41.3924C83.726 38.8796 84.0218 30.3087 84.0218 30.3087L83.8153 30.1804Z" fill="white"/>
<path opacity="0.05" d="M81.7619 68.236C81.8307 64.9865 82.0911 54.0274 82.145 51.9796C82.2213 49.2305 82.4594 42.1104 82.4594 42.1104C82.4594 42.1104 82.199 56.1794 82.0465 61.9938C81.9628 65.0795 81.9144 66.9247 81.8772 68.3066L81.7619 68.236Z" fill="white"/>
<path opacity="0.1" d="M83.2201 29.8158C83.2201 29.8158 82.77 40.8809 82.6751 44.454C82.5803 48.0271 82.4185 60.3068 82.4185 60.3068C82.4185 60.3068 82.8109 49.2063 82.93 44.8093C82.9653 43.5073 83.488 29.9665 83.488 29.9665L83.2276 29.8084L83.2201 29.8158Z" fill="black"/>
<path opacity="0.1" d="M84.1892 69.724C84.2543 67.2799 84.3547 63.439 84.3956 62.044C84.4477 60.0241 84.8681 46.6432 84.9257 45.4119C84.9257 45.4119 84.6858 58.8206 84.5035 65.6729L84.3901 69.8467L84.1892 69.724Z" fill="black"/>
<path opacity="0.1" d="M83.4694 69.2813C83.5214 67.2483 83.5996 64.4155 83.633 63.1433C83.6833 61.2182 84.191 48.6353 84.2413 46.66C84.2915 44.6846 84.5816 33.1638 84.6467 30.6863L84.4217 30.5486C84.3826 32.0869 83.5772 42.7242 83.4917 45.7095C83.4061 48.6948 83.4749 60.1598 83.4266 62.0198C83.3931 63.2958 83.2982 66.8205 83.2406 69.1381L83.4694 69.2813ZM83.7149 53.8005C83.6033 53.7317 83.6405 47.5602 83.687 45.8025C83.726 44.2606 83.9251 41.2678 84.0274 41.3385C84.1297 41.4092 84.1018 44.4261 84.059 46.0424C84.0162 47.6588 83.8246 53.8675 83.7149 53.8005Z" fill="black"/>
<path opacity="0.05" d="M82.6138 68.7586C82.6547 67.1999 82.7086 65.6115 82.7812 64.94C82.889 63.9449 83.1829 63.0298 83.2369 61.0099C83.2369 61.0099 83.3131 63.1693 83.1048 64.2593C82.9727 64.9493 82.889 67.1255 82.8407 68.8963L82.6138 68.7586Z" fill="white"/>
<path opacity="0.1" d="M84.4217 30.5542L85.7479 29.9218L84.6467 30.6919L84.4217 30.5542Z" fill="black"/>
<path opacity="0.1" d="M84.9499 30.876L85.653 30.5914L85.121 30.9802L84.9499 30.876Z" fill="black"/>
<path opacity="0.1" d="M83.2201 29.8158L84.5258 29.2076L83.4805 29.9758L83.2201 29.8158Z" fill="black"/>
<path opacity="0.05" d="M85.3256 31.1066L86.7653 30.3887L85.4837 31.2034L85.3256 31.1066Z" fill="white"/>
<path opacity="0.1" d="M85.3108 69.9713L85.5637 69.8337C85.6586 68.7809 85.7627 68.1002 85.8297 66.5824C85.9301 64.1495 85.8669 62.8457 85.8576 62.6932C85.8409 63.8594 85.7479 66.4559 85.5302 67.9012C85.4335 68.5243 85.374 69.166 85.3108 69.9713Z" fill="black"/>
<path opacity="0.05" d="M86.1626 66.402C86.1626 66.2867 86.4286 59.706 86.3617 56.9867C86.2947 54.1762 86.4026 47.2068 86.6481 44.0467C86.8657 41.2362 87.1726 33.1266 87.2061 30.9857L86.9531 31.1215C86.8862 33.679 86.7039 34.7132 86.6593 36.3295C86.6128 38.05 86.3152 44.5433 86.237 47.4579C86.1589 50.3725 86.0213 60.8778 86.1087 62.6355C86.2036 64.3318 86.1645 66.2737 86.1626 66.402Z" fill="white"/>
<path opacity="0.1" d="M85.374 65.738C85.374 65.6003 85.8018 53.8693 85.9413 48.7655C85.9804 47.363 86.49 34.0454 86.5588 31.3298L86.2519 31.4972C86.1868 33.958 85.7404 44.8892 85.64 48.6985C85.5302 52.8686 85.374 65.5985 85.374 65.738Z" fill="black"/>
<path opacity="0.1" d="M86.5532 63.984L86.7634 55.9655C86.7299 54.95 86.8136 50.0135 86.8453 48.8771C86.8713 47.8541 86.9569 46.2359 87.0517 45.0027L87.4665 35.2061C87.2024 40.468 86.6853 46.6116 86.6221 49.024C86.5532 51.4718 86.4788 62.0329 86.5532 63.984Z" fill="black"/>
<path opacity="0.05" d="M85.932 69.6384L86.1794 69.5045C86.1794 69.4468 86.1961 69.3929 86.2036 69.3408C86.4379 67.9067 86.3672 65.7305 86.3561 65.4646C86.3063 66.8636 86.1646 68.2579 85.932 69.6384Z" fill="white"/>
<path d="M39.6998 71.8574L30.5356 78.4697L28.0283 80.2795L26.8398 80.9639C26.8381 80.9648 26.8361 80.9652 26.8342 80.9652C26.8323 80.9652 26.8304 80.9648 26.8286 80.9639C26.7916 80.9865 26.7515 81.0034 26.7096 81.0142L27.8665 80.1809L30.4594 78.3116L38.2416 72.6944L39.6998 71.8574Z" fill="#263238"/>
<path d="M35.1168 86.0492L35.0629 86.0213C35.0629 86.0213 34.5272 85.7144 34.1756 85.5116C33.9795 85.3857 33.8183 85.2124 33.7069 85.0076L23.6629 64.276L25.1212 65.1167L34.6927 84.8569L35.2916 86.0864C35.2317 86.0839 35.1726 86.0714 35.1168 86.0492Z" fill="#37474F"/>
<path d="M36.4727 85.5098L35.5911 86.0176C35.4979 86.0722 35.3899 86.0963 35.2823 86.0864L34.6834 84.8569L25.11 65.1167L26.5682 64.276L36.6271 85.002C36.6696 85.0906 36.6774 85.1919 36.6488 85.2859C36.6202 85.38 36.5574 85.4598 36.4727 85.5098Z" fill="#263238"/>
<path d="M31.2387 77.7517L32.6969 76.9091L39.6998 71.8555L38.2397 72.6981L31.2387 77.7517Z" fill="black"/>
<path d="M30.4594 78.3153L27.8665 80.1846L26.7096 81.0179C26.6433 81.0369 26.5738 81.0422 26.5054 81.0336C26.437 81.025 26.3711 81.0025 26.3116 80.9677C26.3116 80.9677 25.7759 80.6626 25.4225 80.458C25.3844 80.4428 25.3515 80.4169 25.3277 80.3835C25.3039 80.3501 25.2902 80.3106 25.2882 80.2696C25.2863 80.2287 25.2961 80.188 25.3166 80.1525C25.3371 80.117 25.3674 80.0881 25.4039 80.0693L36.802 71.8685L38.2416 72.6981L30.4594 78.3153Z" fill="#37474F"/>
<path d="M28.3185 80.0693C28.1585 80.1846 27.8888 80.3594 27.7177 80.458L26.8398 80.9639C26.7988 80.9874 26.7551 81.0055 26.7096 81.0179L27.8665 80.1846L30.4594 78.3153L30.5356 78.4697L28.3185 80.0693Z" fill="black"/>
<path d="M66.1435 56.5905L56.9792 63.2009L54.472 65.0107L53.2834 65.6971C53.2817 65.6979 53.2798 65.6983 53.2778 65.6983C53.2759 65.6983 53.274 65.6979 53.2723 65.6971C53.2349 65.7188 53.1949 65.7357 53.1532 65.7473L54.312 64.914L56.903 63.054L64.6852 57.4387L66.1435 56.5905Z" fill="#263238"/>
<path d="M61.566 70.7823L61.5121 70.7544L60.6248 70.2429C60.4283 70.1182 60.267 69.9453 60.1561 69.7407L50.0972 49.0091L51.5555 49.8499L61.127 69.59L61.726 70.8176C61.6711 70.8143 61.6172 70.8023 61.566 70.7823Z" fill="#37474F"/>
<path d="M62.9164 70.2429L62.0347 70.7507C61.9417 70.8056 61.8334 70.8291 61.726 70.8176L61.127 69.59L51.5555 49.848L53.0137 49.0073L63.0707 69.75C63.109 69.8369 63.1145 69.9348 63.0861 70.0254C63.0577 70.1161 62.9974 70.1933 62.9164 70.2429Z" fill="#263238"/>
<path d="M57.6823 62.4848L59.1424 61.6423L66.1434 56.5886L64.6834 57.4312L57.6823 62.4848Z" fill="black"/>
<path d="M56.903 63.054L54.312 64.914L53.1551 65.7473C53.0887 65.7657 53.0193 65.7708 52.951 65.7622C52.8827 65.7536 52.8167 65.7314 52.757 65.6971C52.757 65.6971 52.2214 65.3902 51.8698 65.1874C51.8316 65.1724 51.7986 65.1467 51.7746 65.1134C51.7506 65.0801 51.7367 65.0406 51.7346 64.9996C51.7324 64.9587 51.7421 64.9179 51.7624 64.8823C51.7828 64.8467 51.813 64.8176 51.8494 64.7987L63.24 56.6017L64.6796 57.4312L56.903 63.054Z" fill="#37474F"/>
<path d="M54.764 64.8005C54.6022 64.9177 54.3325 65.0926 54.1613 65.1911L53.2834 65.6971C53.2421 65.7197 53.1984 65.7378 53.1532 65.751L54.312 64.914L56.903 63.054L56.9792 63.2084L54.764 64.8005Z" fill="black"/>
<path d="M18.5442 61.3874L38.9428 73.165L72.1885 53.9716L51.788 42.1941L18.5442 61.3874Z" fill="#455A64"/>
<path d="M29.8772 66.1844L30.6323 66.6215L38.9428 61.8227L38.1895 61.3856L29.8772 66.1844Z" fill="#263238"/>
<path d="M18.5442 61.3874V63.1321L38.9447 74.9096L38.9428 73.165L18.5442 61.3874Z" fill="#263238"/>
<path d="M72.1885 53.9716V55.7163L38.9447 74.9096L38.9428 73.165L72.1885 53.9716Z" fill="#37474F"/>
<path d="M74.4558 45.6835L45.7448 62.2598L35.167 56.1534L63.878 39.5771L74.4558 45.6835Z" fill="#FF6F00"/>
<path opacity="0.05" d="M71.1989 43.803C69.8039 44.6102 68.3903 45.4417 67.8379 45.849C67.0177 46.4554 66.4355 47.2403 64.6257 48.2837C64.6257 48.2837 66.6866 47.3184 67.5013 46.5502C68.0146 46.0648 69.9434 44.9097 71.5263 43.989L71.1989 43.803Z" fill="white"/>
<path opacity="0.05" d="M44.932 61.7911C46.526 60.8611 53.2723 57.022 54.0814 56.5961C56.4324 55.3592 58.4951 54.3157 61.5121 52.5878C61.5121 52.5878 60.2101 53.4434 57.115 55.1285C55.6642 55.919 54.312 56.6314 53.6089 57.0071C52.9058 57.3829 45.0976 61.8859 45.0976 61.8859L44.932 61.7911Z" fill="white"/>
<path opacity="0.1" d="M71.5821 44.0262L70.8995 44.4205C68.554 45.7746 67.0121 46.7009 66.1565 47.3854C65.3009 48.0698 63.3535 49.2137 62.4532 49.7178C62.4532 49.7178 63.6027 49.1784 65.5111 48.0308C67.4194 46.8832 67.5738 46.567 70.3471 44.9655L71.783 44.1359L71.5821 44.0262Z" fill="black"/>
<path opacity="0.1" d="M44.5358 61.566C46.2098 60.5969 51.8122 57.3661 52.6994 56.8546C53.5866 56.3431 56.0474 55.3536 57.1987 54.6914C56.5364 55.1133 55.8481 55.4929 55.1378 55.8279C53.8693 56.4398 45.8044 61.0359 44.7218 61.6683L44.5358 61.566Z" fill="black"/>
<path opacity="0.05" d="M73.1966 44.9562L66.4504 48.8622C64.6778 49.8852 61.9045 51.682 59.3824 53.0863C57.0388 54.3994 55.1843 55.3313 54.9351 55.4596C55.2383 55.3257 57.7251 54.219 59.5609 53.1588C61.5214 52.0261 65.0107 49.9187 67.159 48.6743C68.5968 47.8448 71.4519 46.195 73.3882 45.0734L73.1966 44.9562Z" fill="white"/>
<path opacity="0.05" d="M43.338 60.8741L51.7285 56.0381C53.0305 55.2848 54.8905 54.0758 57.102 52.7998C59.3135 51.5239 61.2424 50.5492 62.7508 49.8238C64.2593 49.0984 65.7975 48.2149 65.7975 48.2149C65.7975 48.2149 64.4248 49.104 62.111 50.2944C59.7971 51.4848 57.1094 52.9579 54.9277 54.3864C52.7459 55.8149 43.5631 61.008 43.5631 61.008L43.338 60.8741Z" fill="white"/>
<path opacity="0.05" d="M71.1264 43.7621C68.2081 45.4361 62.5332 48.6743 60.6974 49.7345C58.2366 51.1593 55.056 53.0528 55.056 53.0528C55.056 53.0528 60.3775 50.1103 65.5873 47.1008L71.2417 43.8328L71.1264 43.7621Z" fill="white"/>
<path opacity="0.1" d="M42.7186 60.5132L57.3066 52.0893C60.5114 50.2293 64.25 48.267 64.25 48.267C64.25 48.267 61.6906 49.8666 57.7549 52.1451C56.5905 52.8203 42.992 60.6713 42.992 60.6713L42.7186 60.5132Z" fill="black"/>
<path opacity="0.1" d="M73.6765 45.2352C71.4872 46.4981 68.0462 48.4865 66.7945 49.2119C64.9847 50.2553 60.3682 53.0044 59.2763 53.6647C59.2763 53.6647 64.0082 51.0607 70.1462 47.5267L73.8829 45.3654L73.6765 45.2352Z" fill="black"/>
<path opacity="0.1" d="M72.6832 44.6605L66.3071 48.347C64.6331 49.3086 61.5251 50.6757 58.8523 52.2195C56.1794 53.7633 45.3617 60.4463 43.9834 61.2405L44.2196 61.3763C46.4405 60.0966 58.3166 53.449 60.0817 52.426C61.8469 51.403 65.7026 48.9701 67.4269 47.9731L72.912 44.7981L72.6832 44.6605ZM59.427 52.5673C57.9781 53.4025 55.2457 54.9239 55.1341 54.8588C55.0225 54.7937 57.6488 53.1402 59.0308 52.3423C60.5988 51.4364 63.0094 50.194 63.1228 50.2609C63.2363 50.3279 60.8704 51.7322 59.427 52.5673Z" fill="black"/>
<path opacity="0.05" d="M72.0229 44.2792C70.6261 45.0864 69.2087 45.9178 68.634 46.314C67.784 46.9036 67.0976 47.616 65.286 48.6688C65.286 48.6688 67.2874 47.6718 68.1727 46.9445C68.7307 46.4851 70.6707 45.3356 72.2647 44.4168L72.0229 44.2792Z" fill="white"/>
<path opacity="0.05" d="M38.117 57.8553C39.8505 56.8528 47.1901 52.664 48.068 52.199C50.6162 50.8468 52.8519 49.7048 56.1329 47.8225C56.1329 47.8225 54.7063 48.7525 51.3472 50.5883C49.7717 51.4513 48.3061 52.2288 47.5435 52.6343C46.7809 53.0398 38.2825 57.9446 38.2825 57.9446L38.117 57.8553Z" fill="white"/>
<path opacity="0.1" d="M64.7726 40.0942C63.0335 41.1153 62.1296 41.69 61.3837 42.2722C60.4333 43.0051 58.3129 44.255 57.3364 44.8037C57.3364 44.8037 58.5714 44.2085 60.6565 42.9641C62.5704 41.8165 62.5741 41.6175 64.9642 40.2039L64.7726 40.0942Z" fill="black"/>
<path opacity="0.1" d="M37.7208 57.6265L46.6042 52.4985C47.5695 51.9405 50.2219 50.8468 51.4681 50.127C50.7486 50.5826 50.0033 50.9962 49.2361 51.3658C47.8634 52.0372 39.0916 57.0443 37.9049 57.7307L37.7208 57.6265Z" fill="black"/>
<path opacity="0.05" d="M66.3815 41.0223C64.462 42.1383 62.5611 43.2301 61.5753 43.803C59.6446 44.919 56.611 46.859 53.8693 48.3953C51.3918 49.7848 49.4053 50.7947 49.0649 50.9733C49.4741 50.7873 52.0912 49.5969 54.0516 48.466C56.1869 47.2328 59.9887 44.932 62.3286 43.5891L66.5768 41.1358L66.3815 41.0223Z" fill="white"/>
<path opacity="0.05" d="M36.5304 56.9402L45.6611 51.6671C47.0785 50.8487 49.1189 49.5374 51.522 48.1498C53.9251 46.7623 56.0176 45.6928 57.647 44.8911C59.2763 44.0894 60.9503 43.1334 60.9503 43.1334C60.9503 43.1334 59.4512 44.0987 56.942 45.3989C54.4329 46.699 51.5164 48.3098 49.13 49.8629C46.7437 51.416 36.748 57.0722 36.748 57.0722L36.5304 56.9402Z" fill="white"/>
<path opacity="0.05" d="M64.3002 39.8207C60.9857 41.7179 57.0462 43.9723 55.5005 44.8651C52.8221 46.4126 49.3625 48.4735 49.3625 48.4735C49.3625 48.4735 55.1434 45.265 60.8034 41.9914L64.4285 39.8989L64.3002 39.8207Z" fill="white"/>
<path opacity="0.1" d="M35.898 56.5793L51.7731 47.4114C55.2625 45.3952 59.3173 43.2431 59.3173 43.2431C59.3173 43.2431 56.5273 44.9785 52.2381 47.4579L36.177 56.73L35.9036 56.5738L35.898 56.5793Z" fill="black"/>
<path opacity="0.1" d="M66.8596 41.292L61.9101 44.1545C59.9441 45.2947 54.9072 48.28 53.7261 48.9998C53.7261 48.9998 58.8597 46.1652 65.5445 42.3038L67.079 41.4166L66.8596 41.292Z" fill="black"/>
<path opacity="0.1" d="M65.87 40.734C63.9728 41.8333 62.2988 42.8005 61.4637 43.2822C59.6502 44.3294 56.2929 45.8304 53.3839 47.5156C50.4748 49.2007 38.6675 56.4436 37.1702 57.314L37.4065 57.4498C39.8245 56.0548 52.7236 48.812 54.6542 47.6978C56.5849 46.5837 60.7811 43.9499 62.6671 42.8618L66.1063 40.8735L65.87 40.734ZM53.966 47.8634C52.3888 48.7729 49.4146 50.4283 49.316 50.3669C49.2175 50.3056 52.0744 48.5069 53.5773 47.6383C55.2829 46.6544 57.8944 45.2947 58.0115 45.3617C58.1287 45.4286 55.5266 46.9445 53.9586 47.8559L53.966 47.8634Z" fill="black"/>
<path opacity="0.05" d="M65.2228 40.362C64.5718 40.7507 64.3374 40.9033 64.0491 41.106C63.1191 41.744 62.3379 42.5159 60.3719 43.6523C60.3719 43.6523 62.5425 42.5624 63.5227 41.7812C64.1472 41.3155 64.798 40.8864 65.472 40.4959L65.2228 40.362Z" fill="white"/>
<path opacity="0.05" d="M70.2466 43.2543C67.6129 44.7907 64.4583 46.6414 63.9319 46.9743C61.7129 48.3786 59.8399 49.6081 56.7393 51.4104C56.7393 51.4104 58.2719 50.6273 61.2944 48.7859C62.7155 47.9173 63.9914 47.1119 64.6722 46.6897C65.0907 46.433 67.9979 44.7442 70.4084 43.3417L70.2466 43.2543Z" fill="white"/>
<path opacity="0.1" d="M39.4766 58.6309L42.1829 57.0685C44.6102 55.6698 46.2749 54.7472 47.4877 54.232C48.7004 53.7168 50.7631 52.558 51.6652 52.0168C51.6652 52.0168 50.6943 52.6994 48.6409 53.8396C46.5874 54.9797 46.0201 55.0783 43.152 56.73L39.6645 58.7407L39.4766 58.6309Z" fill="black"/>
<path opacity="0.1" d="M69.843 43.0199L64.4099 46.1596C63.4967 46.6879 61.726 48.1405 60.5374 48.8287C61.2345 48.4665 61.9085 48.0615 62.5555 47.616C63.3163 47.0952 67.1572 44.826 70.0364 43.139L69.843 43.0199Z" fill="black"/>
<path opacity="0.05" d="M41.9951 59.0401L50.0786 54.3771C51.9126 53.3206 55.1267 51.6578 57.6507 50.153C60.1747 48.6483 61.9287 47.4784 61.9287 47.4784C60.5914 48.4764 59.2026 49.4033 57.7679 50.2553C55.7368 51.4271 51.961 53.5141 49.7327 54.7993L41.2734 59.6781L41.199 59.6353L41.9951 59.0401Z" fill="white"/>
<path opacity="0.05" d="M68.6507 42.3317L62.9833 45.6091C61.6292 46.3865 59.4661 47.5063 57.1764 48.8231C54.8867 50.14 53.1383 51.2932 51.8233 52.1972C50.5083 53.1011 48.931 54.0107 48.931 54.0107C48.931 54.0107 50.5269 53.1923 52.6659 51.8084C54.8049 50.4246 57.448 48.8324 60.0017 47.5156C61.6757 46.6618 65.9296 44.1973 68.887 42.4694L68.6507 42.3317Z" fill="white"/>
<path opacity="0.05" d="M39.0284 58.3705C39.0284 58.3705 49.1765 52.4557 51.7266 50.9845C54.2767 49.5132 57.6786 47.6179 57.6786 47.6179C57.6786 47.6179 52.3999 50.7947 47.0059 53.9047L39.1474 58.4375L39.0284 58.3705Z" fill="white"/>
<path opacity="0.1" d="M68.0258 41.9728L55.9358 48.9515C52.6101 50.8654 49.0761 53.0974 49.0761 53.0974C49.0761 53.0974 51.9424 51.5666 56.0251 49.2137L68.3011 42.129L68.0258 41.9728Z" fill="black"/>
<path opacity="0.1" d="M41.5636 59.8436L50.6943 54.5761C52.5692 53.4955 57.4926 50.7352 58.6793 50.0824C58.6793 50.0824 54.0125 52.9077 47.6532 56.5756L41.7756 59.9664L41.5636 59.8436Z" fill="black"/>
<path opacity="0.1" d="M69.2292 42.6665C65.1372 44.9116 58.2124 48.6613 56.1385 49.8554C53.3653 51.455 50.9101 53.3113 49.1858 54.3064C47.4616 55.3015 40.5796 59.2689 40.5796 59.2689L40.8065 59.4065C40.8065 59.4065 46.712 56.0027 48.5032 54.9667C50.2944 53.9307 54.6412 51.6299 56.4845 50.5753C57.9148 49.7494 65.2004 45.4138 69.5454 42.8488L69.2292 42.6665ZM56.7393 50.1865C55.242 51.0514 52.7273 52.4725 52.6082 52.4018C52.4892 52.3311 54.7249 50.897 56.3468 49.9596C57.7772 49.1338 60.7457 47.5639 60.8573 47.629C60.9689 47.6941 58.2366 49.3216 56.7393 50.1865Z" fill="black"/>
<path opacity="0.05" d="M39.9193 58.8857C41.0353 58.2403 44.5024 56.2185 45.5551 55.707C46.6079 55.1955 47.8931 54.777 49.7662 53.6963C49.7662 53.6963 47.975 54.8942 46.6767 55.4261C45.3784 55.9581 40.15 59.029 40.15 59.029L39.9193 58.8857Z" fill="white"/>
<path d="M35.167 56.1534V57.8981L45.7448 64.0045V62.2598L35.167 56.1534Z" fill="#FF6F00"/>
<path opacity="0.1" d="M35.167 56.1534V57.8981L45.7448 64.0045V62.2598L35.167 56.1534Z" fill="black"/>
<path opacity="0.1" d="M43.9834 61.2405L44.0634 62.7583L44.2196 61.3781L43.9834 61.2405Z" fill="black"/>
<path opacity="0.1" d="M44.5358 61.5623L44.6251 62.3416L44.7144 61.6646L44.5358 61.5623Z" fill="black"/>
<path opacity="0.1" d="M42.7205 60.5132L42.8098 61.9994L42.992 60.6713L42.7205 60.5132Z" fill="black"/>
<path opacity="0.1" d="M40.5796 59.2689L40.6801 60.7885L40.8065 59.4065L40.5796 59.2689Z" fill="black"/>
<path opacity="0.1" d="M37.7208 57.6265L37.8138 59.2057L37.8994 57.7307L37.7208 57.6265Z" fill="black"/>
<path opacity="0.1" d="M35.9036 56.5793L36.0375 58.2682L36.177 56.7356L35.9036 56.5793Z" fill="black"/>
<path opacity="0.05" d="M36.5304 56.9402L36.6141 58.0971L36.748 57.0648L36.5304 56.9402Z" fill="white"/>
<path opacity="0.05" d="M39.0284 58.3705L39.0619 59.4698L39.1418 58.4375" fill="white"/>
<path opacity="0.05" d="M39.9193 58.8857L39.9844 60.5467L40.1481 59.029L39.9193 58.8857Z" fill="white"/>
<path opacity="0.05" d="M44.932 61.7911L44.9897 63.452L45.0976 61.8859L44.932 61.7911Z" fill="white"/>
<path d="M74.4558 45.6835V47.4281L45.7448 64.0045V62.2598L74.4558 45.6835Z" fill="#FF6F00"/>
<path opacity="0.1" d="M74.4558 45.6835V47.4281L45.7448 64.0045V62.2598L74.4558 45.6835Z" fill="black"/>
<path opacity="0.1" d="M74.4539 46.128V46.4256C73.5444 47.032 72.9771 47.4616 71.6305 48.2707C69.4691 49.5634 68.2527 50.1493 68.1095 50.2163C69.1604 49.6248 71.4761 48.2596 72.6758 47.3519C73.2003 46.9576 73.749 46.5781 74.4539 46.128Z" fill="black"/>
<path opacity="0.05" d="M71.623 48.6706C71.5207 48.7357 69.8263 49.8164 67.319 51.0998C64.728 52.426 61.6311 54.126 58.8802 55.9097C56.4343 57.4926 47.6699 62.4755 45.743 63.5692V63.2716C48.0345 61.9492 53.8396 58.603 55.2904 57.7623C56.8304 56.8714 59.174 55.3666 61.7855 53.8563C64.3969 52.346 66.5396 51.2728 68.1802 50.486C69.7686 49.7252 71.5151 48.732 71.623 48.6706Z" fill="white"/>
<path opacity="0.1" d="M70.6391 48.28C70.5182 48.3544 67.399 50.2907 62.8271 52.93C61.5734 53.6573 48.174 61.393 45.7411 62.788V62.4402L62.6188 52.6938C66.3555 50.5343 70.5107 48.347 70.6391 48.28Z" fill="black"/>
<path opacity="0.1" d="M63.4 53.4248C61.2386 54.6728 54.3641 58.8764 49.7122 61.7129L59.9571 55.8C61.0322 55.1062 62.4607 54.2302 63.3776 53.7001C64.3913 53.1142 65.6599 52.4353 66.5992 51.9647L69.6272 50.2163C67.8156 51.1109 65.591 52.1544 63.4 53.4248Z" fill="black"/>
<path opacity="0.05" d="M74.4539 46.8515V47.1436L74.3182 47.2459C73.1296 48.1666 71.1171 49.1747 70.8697 49.2919C72.1162 48.5572 73.3135 47.742 74.4539 46.8515Z" fill="white"/>
<path d="M37.825 61.261C37.931 61.0359 38.1263 60.9336 38.2156 61.261C38.1784 60.4091 37.8436 60.197 37.572 60.1319C37.6445 59.8883 37.8343 59.7097 37.9868 59.9459C37.8008 59.2205 37.4176 59.1871 37.1107 59.2577C37.1479 59.0122 37.3209 58.7723 37.5218 58.9118C37.2056 58.3668 36.7908 58.5119 36.4765 58.7128C36.4765 58.4821 36.616 58.1938 36.8485 58.2254C36.4207 57.8944 36.004 58.2087 35.7027 58.5268C35.6795 58.4059 35.6987 58.2807 35.757 58.1724C35.8152 58.064 35.909 57.9789 36.0226 57.9316C35.513 57.8386 35.1224 58.3036 34.8564 58.7146C34.8192 58.5932 34.8225 58.4629 34.8658 58.3435C34.909 58.224 34.99 58.1219 35.0963 58.0525C34.5383 58.2031 34.2017 58.7834 33.9803 59.2633C33.8725 59.1647 33.878 58.8597 34.1236 58.5788C33.5563 58.9639 33.2959 59.6204 33.1489 60.1338C33.0187 60.0966 32.9741 59.8288 33.1861 59.4735C32.7487 59.9774 32.4784 60.6045 32.4124 61.2684C32.2673 61.2963 32.1743 61.0824 32.3417 60.6769C31.9766 61.2461 31.7942 61.9133 31.819 62.589C31.6684 62.6783 31.5363 62.5369 31.6442 62.1073C31.2722 62.9833 31.3168 63.5953 31.4117 64.0063C31.2666 64.1514 31.1011 64.09 31.1438 63.6659C30.8927 64.5959 31.0471 65.1093 31.2164 65.4218C31.0862 65.6078 30.9002 65.6357 30.876 65.2488C30.809 65.8068 30.876 66.1676 30.9876 66.4057L31.1122 66.335L33.1936 65.1316L34.2761 64.5067L34.7839 64.2146L35.8627 63.5915L37.7785 62.4848L38.2081 62.2375C38.2025 61.6795 38.0091 61.4135 37.825 61.261Z" fill="white"/>
<path d="M37.758 61.4228L37.678 61.3558L37.758 61.194C37.8038 61.0793 37.8829 60.9809 37.9849 60.9113C38.0073 60.8975 38.0318 60.8874 38.0575 60.8815C37.9459 60.4556 37.7134 60.3458 37.5292 60.3031L37.4344 60.2807L37.4864 60.104C37.5265 59.9426 37.6203 59.7996 37.7524 59.6986C37.6929 59.5831 37.5938 59.4928 37.4733 59.4443C37.3527 59.3958 37.2188 59.3923 37.0958 59.4344L36.9898 59.4586L37.0159 59.2726C37.0382 59.0958 37.1134 58.9298 37.2316 58.7965C37.0456 58.657 36.828 58.6681 36.5546 58.8262L36.4876 58.8671L36.3779 58.9378V58.776C36.3772 58.6359 36.4077 58.4974 36.4672 58.3705C36.4841 58.3336 36.504 58.2982 36.5267 58.2645C36.383 58.2463 36.2375 58.2793 36.1156 58.3575C35.9775 58.4414 35.8523 58.5448 35.7436 58.6644L35.6395 58.7741L35.6097 58.6309C35.5839 58.4773 35.6013 58.3195 35.6599 58.1752C35.6599 58.1566 35.6748 58.138 35.6822 58.1194C35.617 58.137 35.5545 58.1633 35.4962 58.1975C35.2555 58.3561 35.0559 58.5697 34.9141 58.8206L34.8229 58.962L34.7671 58.8504C34.7079 58.7038 34.7027 58.5411 34.7522 58.391V58.3742C34.4391 58.623 34.2004 58.9531 34.0622 59.3284L33.9878 59.494L33.9097 59.4233C33.8656 59.3687 33.8345 59.3049 33.8187 59.2366C33.803 59.1683 33.8029 59.0973 33.8185 59.029C33.8176 59.0234 33.8176 59.0178 33.8185 59.0122C33.5433 59.3454 33.3468 59.7364 33.2438 60.1561L33.1936 60.3328L33.0987 60.3068C33.002 60.2789 32.9406 60.1673 32.935 60.0055V59.9906C32.7091 60.3745 32.5665 60.8016 32.5165 61.2442L32.4923 61.4302L32.3882 61.4488C32.2803 61.4693 32.2022 61.4005 32.1631 61.2628C32.1629 61.2585 32.1629 61.2541 32.1631 61.2498C31.993 61.6542 31.9137 62.0911 31.9306 62.5295V62.6969L31.819 62.762C31.7982 62.7781 31.774 62.7893 31.7483 62.7948C31.7225 62.8003 31.6959 62.7999 31.6703 62.7936C31.6447 62.7874 31.6209 62.7754 31.6006 62.7587C31.5803 62.7419 31.564 62.7208 31.553 62.6969C31.4384 63.0929 31.4268 63.5116 31.5196 63.9133L31.553 64.0547L31.447 64.1607C31.4198 64.1887 31.3892 64.213 31.3559 64.2332C31.3257 64.2571 31.2883 64.27 31.2499 64.27C31.2114 64.27 31.174 64.2571 31.1438 64.2332C31.0811 64.5999 31.1405 64.977 31.3131 65.3065L31.3708 65.4143L31.2778 65.5538C31.2346 65.621 31.1775 65.6781 31.1104 65.7212C31.0674 65.749 31.0154 65.759 30.9653 65.7491C30.9676 65.9613 31.0205 66.1698 31.1197 66.3574L33.201 65.1539L34.2835 64.529L34.7913 64.237L35.8701 63.6139L37.7859 62.5072V62.4941C37.8283 62.4259 37.8856 62.3681 37.9533 62.3249C37.997 62.2975 38.0497 62.2881 38.1002 62.2988C38.0891 61.7743 37.9068 61.5511 37.758 61.4228Z" fill="#F0F0F0"/>
<path d="M34.5421 61.9138C33.7981 62.3472 33.1861 63.6325 33.1861 64.7857C33.1861 64.9019 33.1929 65.018 33.2066 65.1335L34.2891 64.5085L34.7969 64.2165L35.8757 63.5934C35.8903 63.4699 35.8978 63.3457 35.898 63.2214C35.898 62.0663 35.2916 61.4823 34.5421 61.9138Z" fill="#E0E0E0"/>
<path opacity="0.1" d="M34.888 63.798C34.8859 63.9404 34.8549 64.0809 34.7969 64.2109L34.2891 64.5029C34.2213 64.4156 34.1882 64.3063 34.1961 64.196C34.1936 64.0558 34.2236 63.9169 34.2836 63.7901C34.3436 63.6633 34.432 63.5521 34.5421 63.4651C34.7336 63.3609 34.888 63.5097 34.888 63.798Z" fill="black"/>
</svg>
