<svg width="95" height="95" viewBox="0 0 95 95" fill="none" xmlns="http://www.w3.org/2000/svg">
<path d="M7.3416 65.5709L17.3812 65.5253L27.4208 65.5082L47.5 65.4759L67.5792 65.5082L77.6188 65.5253L87.6584 65.5709L77.6188 65.6165L67.5792 65.6336L47.5 65.6659L27.4208 65.6336L17.3812 65.6165L7.3416 65.5709Z" fill="#263238"/>
<path d="M16.3096 47.1371C16.1091 47.8693 15.9768 48.6186 15.9144 49.3753C15.9353 49.4133 15.9315 49.552 15.9144 49.514C15.9144 49.6356 15.7244 49.6147 15.7244 49.4931C15.7244 49.4133 15.7244 49.3335 15.7244 49.2575C15.2874 48.7141 14.6528 48.3702 14.1398 47.899C13.7261 47.5284 13.4246 47.0491 13.2696 46.5158C12.844 45.049 13.243 43.4948 12.7319 42.0299C12.2892 40.7683 11.4988 39.672 10.8319 38.5282C10.1251 37.3198 9.6026 36.0487 9.5513 34.6332C9.5095 33.5483 9.6387 32.1043 10.4652 31.2911C11.3392 30.4304 12.4241 31.0764 13.0948 31.844C15.0385 34.0746 15.9448 36.8942 16.302 39.7746C16.492 41.3706 16.7105 42.9761 16.6611 44.5854C16.6298 45.4456 16.5121 46.3004 16.3096 47.1371Z" fill="#FF6F00"/>
<path d="M15.9239 49.97C16.0291 48.465 16.0107 46.9538 15.8688 45.4518C15.8705 45.4463 15.8705 45.4403 15.8688 45.4347C15.8935 44.213 15.9904 42.997 15.9429 41.7734C15.8837 40.4513 15.7037 39.1374 15.4052 37.848C15.4052 37.8328 15.3786 37.8366 15.3824 37.848C15.6204 39.1154 15.762 40.3991 15.8061 41.6879C15.8308 42.3776 15.827 43.0692 15.7909 43.757C15.7776 43.9831 15.7567 44.2092 15.7434 44.4353C15.2361 41.006 13.9971 37.7259 12.1106 34.8175C12.084 34.7776 12.0137 34.8175 12.0384 34.8612C13.3911 37.0698 14.3935 39.4746 15.01 41.99C14.06 40.2534 12.6559 38.8284 11.609 37.1659C11.609 37.1564 11.5881 37.1659 11.5938 37.1659C12.5343 39.0165 14.0885 40.4776 15.0784 42.2959C15.2507 43.0395 15.39 43.7893 15.4964 44.5455C15.637 45.588 15.7125 46.6382 15.7225 47.69C15.1525 46.626 14.5616 45.6 14.0961 44.4828C14.0847 44.4524 14.041 44.4733 14.0505 44.5037C14.4476 45.6722 14.9796 46.9319 15.7244 47.9237C15.7244 48.6647 15.7041 49.4045 15.6636 50.1429C15.5477 52.1151 15.2114 54.0626 15.0556 56.0329C15.0563 56.0436 15.0608 56.0537 15.0683 56.0614C15.0757 56.0691 15.0856 56.074 15.0963 56.0751C15.1069 56.0762 15.1176 56.0736 15.1265 56.0676C15.1354 56.0616 15.1419 56.0527 15.1449 56.0424C15.5417 54.0383 15.802 52.0095 15.9239 49.97Z" fill="#263238"/>
<path d="M13.8282 34.7472C13.8282 34.732 13.8016 34.7472 13.8054 34.7567C14.1664 35.7523 14.3754 36.7631 14.63 37.7834C14.6328 37.7919 14.6386 37.7992 14.6462 37.8039C14.6539 37.8086 14.663 37.8104 14.6719 37.8091C14.6808 37.8077 14.6889 37.8032 14.6948 37.7964C14.7007 37.7896 14.704 37.781 14.7041 37.772C14.5996 36.7365 14.2291 35.701 13.8282 34.7472Z" fill="#263238"/>
<path d="M22.9786 38.9234C22.7382 39.51 22.4615 40.0811 22.1502 40.6334C21.5004 41.8114 20.8202 42.8906 20.7005 44.2624C20.6473 44.8761 20.6264 45.4917 20.4402 46.0807C20.2695 46.5878 20.0256 47.0672 19.7163 47.5038C19.0133 48.5298 18.1336 49.4038 17.4819 50.4754C16.8038 51.584 16.3032 52.7918 15.998 54.055C15.9809 54.1234 15.8726 54.1044 15.8897 54.036V54.0208C15.8887 54.0184 15.8881 54.0158 15.8881 54.0132C15.8881 54.0106 15.8887 54.008 15.8897 54.0056C15.7871 51.0644 16.0227 48.0985 16.9195 45.2808C17.315 44.0414 17.791 42.8291 18.3445 41.6518C18.8252 40.6296 19.4256 39.6473 20.2692 38.8835C20.8164 38.3895 22.0039 37.4547 22.7829 37.9506C23.1534 38.19 23.1249 38.5548 22.9786 38.9234Z" fill="#FF6F00"/>
<path d="M20.0222 45.6C19.5031 46.4532 18.9321 47.2736 18.3122 48.0567C18.0272 48.4367 17.7422 48.7977 17.4534 49.1701C17.3204 49.3468 17.1684 49.5216 17.0449 49.7097C17.1228 49.4019 17.1988 49.0903 17.2786 48.7825C17.6586 47.2967 18.0215 45.7957 18.5877 44.3669C19.1669 42.983 19.8497 41.6447 20.6302 40.3636C20.6511 40.3294 20.596 40.3047 20.5751 40.337C19.95 41.3516 19.323 42.37 18.81 43.4511C18.5196 44.0521 18.2658 44.67 18.05 45.3017C18.2895 43.9608 18.6248 42.6388 19.0532 41.3459C19.0532 41.3345 19.0399 41.325 19.0361 41.3364C18.475 42.6456 18.1236 44.0351 17.9949 45.4537C17.8682 45.8337 17.7504 46.2194 17.6415 46.6108C17.1779 48.2562 16.7713 49.9187 16.3932 51.5888C16.3868 50.4918 16.4815 49.3965 16.6763 48.317C16.6763 48.2923 16.644 48.2866 16.6383 48.317C16.3509 49.443 16.2552 50.6095 16.3552 51.7674C16.2133 52.4007 16.074 53.034 15.9372 53.6674C15.6484 55.0221 15.2931 56.4034 15.124 57.779C15.1242 57.7856 15.1266 57.7919 15.1309 57.7969C15.1352 57.8019 15.1411 57.8052 15.1476 57.8063C15.1542 57.8075 15.1608 57.8063 15.1666 57.803C15.1723 57.7998 15.1767 57.7946 15.1791 57.7885C15.3805 57.0475 15.5021 56.278 15.6674 55.5256C15.8327 54.7732 16.0037 54.0189 16.1785 53.2684C16.4331 52.174 16.701 51.0815 16.9746 49.9909C17.1646 49.5919 17.5085 49.2309 17.7726 48.9003C18.0614 48.5336 18.3426 48.165 18.6333 47.7907C19.1626 47.0996 19.6353 46.367 20.0469 45.6C20.0564 45.5886 20.0298 45.5772 20.0222 45.6Z" fill="#263238"/>
<path d="M20.14 44.3346C19.4924 45.1616 18.9315 46.053 18.4661 46.9946C18.4661 47.006 18.4794 47.0193 18.487 47.0079C19.057 46.1244 19.6042 45.2352 20.1647 44.3479C20.1818 44.3365 20.1571 44.3194 20.14 44.3346Z" fill="#263238"/>
<path d="M7.6228 41.7126C8.0028 42.3681 8.4398 43.1566 8.2764 43.9451C8.1719 44.4448 7.8071 44.8495 7.7406 45.3587C7.5943 46.4835 8.7134 47.2245 9.5247 47.7565C11.5444 49.0865 14.3146 50.2626 14.6813 52.9701C14.6965 53.0651 14.8713 53.0423 14.8485 52.9473C14.8494 52.9416 14.8494 52.9358 14.8485 52.9302C14.8485 52.9302 14.8599 52.9302 14.8599 52.915C15.1238 51.5482 15.1109 50.1423 14.8219 48.7806C14.5198 47.3841 13.9118 46.132 13.1917 44.9065C11.9776 42.8317 10.6894 40.7075 8.8502 39.1191C8.3429 38.6802 7.2998 37.8898 6.8951 38.8816C6.4904 39.8734 7.1573 40.9108 7.6228 41.7126Z" fill="#FF6F00"/>
<path d="M9.4734 46.1092C10.8034 47.5589 12.9409 48.3721 14.0942 49.9966C13.4503 47.523 12.2331 45.2358 10.5412 43.32C10.4975 43.2706 10.5678 43.2003 10.6153 43.2459C11.8483 44.4444 12.8346 45.8729 13.5185 47.4506C13.2004 46.3493 12.7819 45.2795 12.2683 44.2548C12.2493 44.2149 12.3044 44.1807 12.3272 44.2187C12.9661 45.3382 13.4227 46.5523 13.68 47.8154C15.2 51.49 15.3349 55.8068 15.01 59.6828C15.01 59.6944 15.0054 59.7055 14.9972 59.7137C14.989 59.7219 14.9779 59.7265 14.9663 59.7265C14.9547 59.7265 14.9436 59.7219 14.9354 59.7137C14.9272 59.7055 14.9226 59.6944 14.9226 59.6828C15.01 56.6276 14.9606 53.5211 14.2291 50.5362L14.1816 50.3462C12.9276 48.5982 10.8072 47.7869 9.443 46.1263C9.44187 46.1243 9.44116 46.1221 9.44088 46.1198C9.44061 46.1175 9.44079 46.1152 9.4414 46.113C9.44202 46.1108 9.44307 46.1088 9.44448 46.107C9.4459 46.1052 9.44765 46.1037 9.44965 46.1025C9.45164 46.1014 9.45384 46.1007 9.45611 46.1004C9.45839 46.1001 9.46069 46.1003 9.4629 46.1009C9.4651 46.1016 9.46717 46.1026 9.46897 46.104C9.47077 46.1054 9.47227 46.1072 9.4734 46.1092Z" fill="#263238"/>
<path d="M9.1618 44.8647C9.8648 45.5088 10.5564 46.1681 11.2613 46.8141C11.2613 46.8141 11.2613 46.8331 11.2518 46.8274C10.4547 46.2901 9.73711 45.6435 9.12 44.9065C9.0972 44.8761 9.1333 44.84 9.1618 44.8647Z" fill="#263238"/>
<path d="M9.0516 42.0698C9.6733 43.0896 10.3767 44.0574 11.1549 44.9635C11.1562 44.9661 11.1565 44.969 11.156 44.9718C11.1554 44.9747 11.154 44.9772 11.1518 44.9792C11.1497 44.9811 11.147 44.9823 11.1441 44.9825C11.1412 44.9828 11.1383 44.9821 11.1359 44.9806C10.2631 44.1504 9.54456 43.1719 9.0136 42.0907C9.01223 42.0882 9.01136 42.0854 9.01105 42.0826C9.01073 42.0798 9.01098 42.0769 9.01177 42.0742C9.01338 42.0686 9.01711 42.064 9.02215 42.0612C9.02719 42.0584 9.03312 42.0578 9.03864 42.0594C9.04417 42.061 9.04883 42.0647 9.0516 42.0698Z" fill="#263238"/>
<path d="M11.0599 65.5177H19.532L18.3901 54.1215H12.3652L11.0599 65.5177Z" fill="#455A64"/>
<path d="M12.1524 55.974H18.5763L18.3901 54.1215H12.3652L12.1524 55.974Z" fill="#263238"/>
<path d="M11.3259 54.6782H19.266V52.858H11.3259V54.6782Z" fill="#455A64"/>
<path d="M76.1558 35.074C76.0975 34.069 75.9558 33.0706 75.7321 32.0891C75.5212 31.2037 75.2229 30.3012 74.6662 29.5697C74.1551 28.9028 73.4236 28.3708 72.5762 28.2663C71.7573 28.1675 70.9878 28.5323 70.376 29.0472C69.616 29.6875 69.0346 30.533 68.4893 31.3538C67.892 32.2716 67.3483 33.2232 66.861 34.2038C66.8589 34.2102 66.8591 34.2171 66.8616 34.2233C66.8641 34.2295 66.8687 34.2346 66.8746 34.2378C66.8805 34.241 66.8873 34.242 66.8938 34.2406C66.9004 34.2393 66.9062 34.2357 66.9104 34.2304C67.3315 33.3976 67.8181 32.5996 68.3658 31.844C68.8653 31.1198 69.4266 30.4402 70.0435 29.8129C70.6135 29.2638 71.3203 28.7508 72.1335 28.7261C72.9467 28.7014 73.6915 29.1536 74.1798 29.7787C74.7251 30.4779 75.0025 31.35 75.2115 32.1993C75.4268 33.1367 75.5672 34.0897 75.6314 35.0493C75.791 37.0158 75.8347 38.9937 75.8784 40.9659C75.9031 42.0831 75.9183 43.1984 75.9297 44.3156C75.9297 44.8856 75.9392 45.4461 75.943 46.0123C75.9468 46.5785 75.9183 52.5008 76.0076 53.0423C76.0266 53.1525 76.1976 53.1411 76.2242 53.0423C76.2913 52.529 76.3167 52.0112 76.3002 51.4938C76.3002 50.9561 76.3135 45.0338 76.3192 44.4942C76.3287 43.4511 76.3344 42.4042 76.3306 41.3668C76.3249 39.2616 76.3002 37.1621 76.1558 35.074Z" fill="#263238"/>
<path d="M69.1999 30.1701C68.989 30.2556 69.2759 27.7647 68.2936 27.4455C66.9066 26.9971 63.7336 27.8103 61.9628 30.1701C61.6224 30.6533 61.3655 31.1902 61.2028 31.7585C62.0787 31.3348 64.9724 29.9953 65.6982 30.4057C66.3594 30.7857 62.2117 32.0815 60.9349 32.9175C60.8779 33.2635 60.8398 33.6123 60.8209 33.9625C61.56 33.44 63.593 32.11 64.5012 32.11C65.512 32.11 62.1604 33.8827 60.8057 35.15C60.8559 36.3895 61.1207 37.611 61.5885 38.76C61.9362 38.1026 62.7 36.8239 63.688 36.1342C65.056 35.1842 65.6564 36.7156 63.9312 37.9335C63.0116 38.5833 62.3485 39.1191 61.9286 39.4801C62.3177 40.225 62.8363 40.8947 63.46 41.458C64.0731 40.7683 64.8462 40.2398 65.7115 39.919C66.044 39.8031 66.5912 39.6511 67.2486 39.4307C67.3645 38.9994 67.6875 37.7093 67.716 36.8771C67.754 35.8644 68.9548 36.4268 68.4665 38.2261C68.3753 38.5643 68.2917 38.8436 68.2119 39.0773C68.5634 38.9386 69.2664 38.6707 69.6787 38.3572C69.7452 37.7682 69.6464 36.4116 69.4051 35.1272C69.1049 33.5331 70.319 33.4172 70.5812 35.4274C70.7047 36.3546 70.528 37.3141 70.4691 37.9392C71.8409 37.1393 72.979 35.5148 72.979 35.5148C72.8531 34.6173 72.5286 33.7592 72.029 33.003C71.3545 31.9846 72.0841 31.5837 72.7605 32.5033C73.1405 33.0163 73.3609 33.877 73.4844 34.5382C74.936 29.7046 73.15 28.5836 69.1999 30.1701ZM62.6183 35.4711C62.2383 34.9277 63.5398 33.9321 63.8191 34.2703C64.1801 34.7035 62.9926 36.0145 62.6183 35.4711ZM71.269 33.25C70.7446 33.63 70.2411 32.3722 70.5812 32.1556C70.9213 31.939 71.7155 32.9156 71.269 33.25Z" fill="#FF6F00"/>
<path d="M70.0663 32.5318C69.8877 32.1803 69.7015 31.8307 69.4963 31.4925C69.3095 31.156 69.0913 30.8379 68.8446 30.5425C68.9016 30.4741 68.9548 30.4038 69.0137 30.3354C69.0365 30.3069 68.9966 30.2689 68.9719 30.2955C68.9054 30.3715 68.8427 30.4494 68.7819 30.5254C68.7687 30.5322 68.7585 30.5437 68.7534 30.5577C68.5102 30.8503 68.2797 31.1505 68.0618 31.4583C67.6758 31.5467 67.2952 31.6571 66.9218 31.7889C66.5418 31.9181 66.1523 32.053 65.7818 32.2126C65.7419 32.2278 65.7609 32.2924 65.8008 32.2753C66.1808 32.1119 66.5513 31.9523 66.9408 31.8212C67.3303 31.6901 67.678 31.6027 68.0466 31.4982C67.9269 31.6673 67.8091 31.8402 67.6951 32.0131C66.9988 32.2336 66.3215 32.51 65.6697 32.8396C64.9857 33.1645 64.3264 33.5426 63.6709 33.9226C63.6348 33.9435 63.6709 34.0005 63.707 33.9777C64.3519 33.6021 65.0152 33.259 65.6944 32.9498C66.329 32.6534 66.9845 32.4083 67.6248 32.1252C66.0136 34.6389 65.0484 37.5402 63.7564 40.2249C63.7393 40.2629 63.8001 40.2952 63.8153 40.2572C64.2105 39.3072 64.6646 38.3971 65.094 37.4718C65.474 36.6396 65.854 35.8036 66.234 34.9714C66.3461 34.7282 66.462 34.485 66.5798 34.2437C66.5095 35.587 66.538 36.9512 66.3176 38.2793C66.3164 38.2843 66.3163 38.2896 66.3174 38.2946C66.3185 38.2997 66.3208 38.3044 66.324 38.3085C66.3272 38.3125 66.3313 38.3158 66.3359 38.3181C66.3406 38.3203 66.3457 38.3215 66.3508 38.3215C66.356 38.3215 66.3611 38.3203 66.3658 38.3181C66.3704 38.3158 66.3745 38.3125 66.3777 38.3085C66.3809 38.3044 66.3832 38.2997 66.3843 38.2946C66.3854 38.2896 66.3853 38.2843 66.3841 38.2793C66.4772 36.8448 66.7299 35.4293 66.7204 33.991C66.7204 33.991 66.7204 33.9796 66.7204 33.972C66.9927 33.4235 67.2853 32.8852 67.5982 32.357C68.1321 33.6129 68.6926 34.8878 68.9415 36.2368C68.9415 36.2786 69.0175 36.2596 69.0061 36.2178C68.6432 34.865 68.3069 33.5103 67.6552 32.262C67.999 31.6924 68.3798 31.1459 68.7952 30.6261C68.9738 30.9605 69.2037 31.2759 69.407 31.5951C69.6103 31.9143 69.8022 32.2202 69.977 32.5451C70.3741 33.2246 70.7117 33.9373 70.9859 34.675C70.9992 34.7149 71.0657 34.694 71.0486 34.656C70.7294 33.9454 70.4178 33.2272 70.0663 32.5318Z" fill="#263238"/>
<path d="M80.6284 36.0677C79.7582 35.1956 78.7474 34.0499 77.3984 34.0537C76.1007 34.0537 75.145 35.1006 74.5978 36.1779C74.0278 37.3046 73.8169 38.5814 73.6478 39.8221C73.4572 41.3087 73.3425 42.8041 73.3039 44.3023C73.2811 45.1345 73.283 45.9686 73.3039 46.8008C73.3248 47.633 73.3457 53.8821 73.4939 54.7086C73.5186 54.8435 73.7352 54.8492 73.7428 54.7086C73.7808 54.0094 73.7542 47.9142 73.7428 47.2131C73.7314 46.512 73.7428 45.8318 73.7751 45.1421C73.8264 43.7456 73.9271 42.3529 74.0905 40.9621C74.2349 39.7499 74.347 38.5035 74.7099 37.3331C75.0386 36.2767 75.6504 35.0702 76.722 34.6066C78.1812 33.972 79.6081 35.1291 80.5638 36.1057C80.6113 36.1285 80.655 36.1 80.6284 36.0677Z" fill="#263238"/>
<path d="M85.8021 38.9994C84.2289 38.8379 84.6621 37.9829 86.0947 38.3591C86.8625 38.5672 87.5857 38.9143 88.2284 39.3832C88.2398 38.0874 88.0783 36.7707 87.5957 35.6573C86.2828 35.3286 85.0877 35.9062 83.8622 36.4819C82.6367 37.0576 81.8159 35.5661 83.258 34.8498C83.8615 34.5526 84.5231 34.3922 85.1958 34.3801C85.8684 34.3679 86.5354 34.5043 87.1492 34.7795C87.0415 34.5899 86.9242 34.406 86.7977 34.2285C86.4602 33.7329 86.0569 33.2854 85.5988 32.8985C84.5253 32.9859 83.9306 33.6471 83.6133 33.8485C83.1611 34.1449 82.4486 33.7953 82.9008 33.1531C83.2523 32.6496 84.1301 32.4197 84.8559 32.3589C83.562 31.5989 82.2719 31.5989 81.5404 31.9276C80.2731 32.4976 80.6284 35.8454 80.6284 35.8454C80.6284 35.8454 77.3053 34.067 76.2166 35.4654C75.8693 35.9536 75.6332 36.512 75.525 37.1013C76.7011 36.6681 78.147 36.5636 78.2819 37.2685C78.4263 38.0114 76.437 37.7929 75.4034 37.9126C75.2799 39.4022 75.6276 41.1426 76.8132 42.3738C77.824 40.432 80.0679 38.9538 80.389 40.0273C80.7101 41.1008 78.299 41.3706 77.3091 42.8203C77.7369 43.133 78.2014 43.3921 78.6923 43.5917C79.2319 42.7842 80.1306 41.6708 80.5619 42.009C80.9932 42.3472 79.8627 43.1338 79.1312 43.7684C80.1727 44.1465 81.2426 44.4413 82.3308 44.65C82.5968 43.5309 83.1098 42.484 83.6038 42.5809C84.0978 42.6778 83.1402 43.8482 82.726 44.7317C84.1781 45.0189 85.6485 45.2043 87.1264 45.2865C87.2176 45.2637 87.8218 43.4948 88.0935 41.2965C87.368 41.0053 86.5952 40.85 85.8135 40.8386C84.702 40.7854 84.5956 39.52 86.26 39.6986C86.9569 39.8009 87.6175 40.0744 88.1828 40.4947C88.1999 40.2629 88.2132 40.0254 88.2227 39.7841C87.478 39.3598 86.6541 39.0927 85.8021 38.9994ZM85.3879 37.2666C85.557 36.8866 86.5735 37.0234 86.4747 37.487C86.3759 37.9506 85.2473 37.5877 85.3879 37.2666ZM77.0659 40.4092C77.0051 40.0938 77.6853 39.805 77.7803 40.0577C77.8753 40.3104 77.1514 40.831 77.0659 40.4092ZM81.8501 43.0027C81.3105 42.7215 82.0838 41.4827 82.5797 41.686C82.9844 41.8494 82.3916 43.2858 81.8501 43.0027Z" fill="#FF6F00"/>
<path d="M86.9326 45.0414C86.1859 43.7931 85.4468 42.5372 84.664 41.3117C84.2979 40.7417 83.9179 40.1818 83.524 39.6321C83.5848 39.6207 83.6437 39.6036 83.7026 39.5903C83.8014 39.5688 83.9002 39.5498 83.999 39.5333C84.2289 39.4934 84.4607 39.4611 84.6906 39.4364C84.9205 39.4117 85.1276 39.4041 85.348 39.4003C85.5817 39.3886 85.816 39.4007 86.0472 39.4364C86.0757 39.4364 86.0795 39.3984 86.0472 39.4003C85.8154 39.4003 85.576 39.3794 85.3423 39.3756C85.1086 39.3718 84.8882 39.3756 84.6621 39.3927C84.436 39.4098 84.2365 39.425 84.0256 39.4573C83.9097 39.4763 83.7938 39.4953 83.6779 39.5181C83.6095 39.5333 83.5373 39.5428 83.4689 39.5637C83.0648 39.0076 82.6456 38.4623 82.2111 37.9278C83.5038 37.2995 84.8802 36.8605 86.298 36.6244C86.3227 36.6244 86.3132 36.5826 86.2885 36.5864C84.8492 36.7859 83.4502 37.2104 82.1427 37.8442C81.9033 37.5516 81.6633 37.2603 81.4226 36.9702C81.1509 36.6453 80.8526 36.328 80.6189 35.9822C80.6159 35.9782 80.6114 35.9755 80.6064 35.9748C80.6014 35.9741 80.5963 35.9754 80.5923 35.9784C80.5883 35.9814 80.5856 35.9859 80.5849 35.9909C80.5842 35.9959 80.5855 36.001 80.5885 36.005C80.9251 36.3746 81.2422 36.7614 81.5385 37.164C81.0049 37.5359 80.4971 37.9434 80.0185 38.3838C79.5226 38.8246 79.0362 39.2806 78.5669 39.748C78.5642 39.7493 78.5619 39.7512 78.5601 39.7536C78.5582 39.7559 78.557 39.7587 78.5565 39.7616C78.5559 39.7645 78.556 39.7675 78.5569 39.7704C78.5577 39.7733 78.5592 39.7759 78.5612 39.7781C78.5632 39.7802 78.5657 39.7819 78.5685 39.783C78.5713 39.784 78.5743 39.7843 78.5773 39.784C78.5802 39.7837 78.5831 39.7826 78.5856 39.781C78.588 39.7794 78.5901 39.7772 78.5916 39.7746C79.0571 39.3129 79.5416 38.8702 80.0451 38.4446C80.5486 38.019 81.0806 37.639 81.5879 37.2248L81.9356 37.6827L82.1123 37.9107C82.1123 37.9107 82.1123 37.9221 82.1237 37.9278C82.3137 38.1805 82.5037 38.4332 82.7032 38.6878C82.4802 39.0158 82.2893 39.3644 82.1332 39.729C81.966 40.0824 81.8197 40.4453 81.6848 40.812C81.4181 41.5746 81.2104 42.3565 81.0635 43.1509C81.0635 43.1756 81.0939 43.187 81.0996 43.1623C81.2585 42.3794 81.4861 41.612 81.7798 40.869C81.9242 40.489 82.0895 40.109 82.2605 39.7442C82.4144 39.406 82.6025 39.0811 82.7488 38.7391C82.916 38.9633 83.0813 39.1856 83.2466 39.4117C83.2941 39.4763 83.3397 39.5447 83.3872 39.6017C83.3872 39.6169 83.3872 39.6359 83.4024 39.6359C83.9154 40.3522 84.4037 41.0856 84.8787 41.8266C84.8499 41.8779 84.8282 41.9329 84.8141 41.99C84.7837 42.0793 84.7552 42.1705 84.7286 42.2617C84.6755 42.4443 84.6317 42.6295 84.5975 42.8165C84.5652 42.9932 84.5405 43.1699 84.5234 43.3485C84.5213 43.5506 84.5067 43.7524 84.4797 43.9527C84.4788 43.9556 84.4785 43.9586 84.479 43.9616C84.4794 43.9645 84.4806 43.9674 84.4824 43.9698C84.4841 43.9722 84.4864 43.9742 84.4891 43.9756C84.4918 43.9769 84.4947 43.9776 84.4977 43.9776C84.5008 43.9776 84.5037 43.9769 84.5064 43.9756C84.5091 43.9742 84.5114 43.9722 84.5131 43.9698C84.5149 43.9674 84.5161 43.9645 84.5165 43.9616C84.517 43.9586 84.5167 43.9556 84.5158 43.9527C84.5007 43.7617 84.5148 43.5695 84.5576 43.3827C84.5842 43.1927 84.6203 43.0027 84.664 42.8127C84.7077 42.6227 84.7514 42.4707 84.8027 42.3016C84.8274 42.2161 84.854 42.1325 84.8844 42.0489C84.8996 42.0052 84.9205 41.9577 84.9357 41.9121C85.1574 42.2604 85.3771 42.61 85.595 42.9609C86.0244 43.6601 86.45 44.3612 86.8794 45.0509C86.8965 45.1079 86.9535 45.0775 86.9326 45.0414Z" fill="#263238"/>
<path d="M75.8537 55.2406C75.8404 54.7162 75.7169 48.7996 75.6998 48.2752C75.6655 46.7247 75.4745 45.1817 75.1298 43.6696C74.9544 42.8073 74.525 42.0172 73.8967 41.401C73.5702 41.0784 73.1431 40.8772 72.6864 40.831C72.2262 40.8183 71.7747 40.9579 71.402 41.2281C70.9771 41.5412 70.611 41.9272 70.3209 42.3681C70.0071 42.8032 69.7251 43.2603 69.4773 43.7361C69.4678 43.7551 69.4963 43.7665 69.5077 43.7494C69.974 42.9548 70.5934 42.2606 71.3298 41.7069C71.6569 41.4367 72.0571 41.27 72.4793 41.2281C72.9122 41.1972 73.3405 41.3332 73.6763 41.6081C74.2881 42.1401 74.6092 42.902 74.8163 43.6696C75.0671 44.5816 75.3749 46.9357 75.4395 48.2296C75.468 48.7844 75.5592 54.7371 75.6751 55.2824C75.6806 55.3061 75.6954 55.3266 75.716 55.3394C75.7367 55.3522 75.7616 55.3563 75.7853 55.3508C75.809 55.3453 75.8295 55.3305 75.8423 55.3099C75.8551 55.2892 75.8592 55.2643 75.8537 55.2406Z" fill="#263238"/>
<path d="M72.5952 41.9634C71.3906 41.9406 70.1138 42.8393 70.1138 42.8393C70.1138 42.8393 70.7921 40.4928 68.9073 40.5688C67.7863 40.6144 66.3879 41.7886 66.1067 43.6221C66.5399 43.3922 67.45 42.9514 68.1701 42.9381C69.1467 42.921 69.2132 43.6848 67.8661 43.8007C67.2555 43.835 66.6503 43.9351 66.0611 44.099C66.0392 44.672 66.1157 45.2446 66.2872 45.7919C67.0472 45.3359 68.3221 44.8514 68.3601 45.4803C68.3886 45.9477 67.0624 45.9857 66.4088 46.1491C66.6834 46.8676 67.0624 47.5417 67.5336 48.1498C68.4531 48.0163 69.3608 47.8117 70.2487 47.538C70.2514 47.2086 70.2227 46.8796 70.1632 46.5557C70.0036 45.7197 70.6192 45.7045 70.699 46.5082C70.7264 46.8082 70.7072 47.1108 70.642 47.405C71.2537 47.2026 71.8387 46.927 72.3843 46.5842C72.3695 45.9483 72.2408 45.3202 72.0043 44.7298C71.7649 44.0762 72.2399 43.7019 72.6408 44.4524C72.8992 44.9369 72.7947 45.847 72.7092 46.3524C72.9257 46.1865 73.1176 45.9907 73.2792 45.771C74.5636 43.9831 73.7979 41.99 72.5952 41.9634ZM67.3987 42.3966C67.4424 42.0584 68.2822 42.123 68.2404 42.3852C68.1986 42.6474 67.3474 42.7766 67.3987 42.3966ZM66.4601 45.1516C66.5418 44.935 66.9047 44.9616 66.8876 45.1364C66.8705 45.3112 66.405 45.2941 66.4601 45.1516ZM71.4552 46.3334C70.9669 46.3524 71.1284 45.3378 71.4134 45.2979C71.6528 45.2637 71.8295 46.3182 71.4552 46.3334Z" fill="#FF6F00"/>
<path d="M71.0201 46.4246C70.9726 46.2992 70.9308 46.17 70.8909 46.0446C70.927 46.1757 70.9612 46.3068 70.984 46.4379C70.9849 46.4403 70.9862 46.4425 70.9879 46.4443C70.9896 46.4462 70.9917 46.4477 70.994 46.4487C70.9963 46.4498 70.9988 46.4504 71.0013 46.4505C71.0038 46.4506 71.0063 46.4502 71.0087 46.4493C71.0111 46.4484 71.0132 46.4471 71.0151 46.4454C71.017 46.4437 71.0185 46.4416 71.0195 46.4393C71.0206 46.437 71.0212 46.4346 71.0213 46.432C71.0214 46.4295 71.021 46.427 71.0201 46.4246Z" fill="#263238"/>
<path d="M70.5223 44.7925C70.433 44.5322 70.3323 44.2757 70.2335 44.0192C70.1803 43.8843 70.1233 43.7475 70.0644 43.6145C70.0212 43.495 69.9644 43.3809 69.8953 43.2744C69.9539 43.1684 70.0053 43.0586 70.0492 42.9457C70.0492 42.9343 70.0378 42.9267 70.0321 42.9343C69.8933 43.1135 69.77 43.3041 69.6635 43.5043C69.6122 43.5936 69.5628 43.6829 69.5096 43.7722C69.4037 43.7829 69.2984 43.7994 69.1942 43.8216C69.0802 43.8425 68.9681 43.8653 68.856 43.8919L68.5197 43.9698C68.4095 43.9964 68.2993 44.0325 68.1853 44.0496C68.1606 44.0496 68.1701 44.0952 68.1948 44.0857C68.3099 44.0451 68.4281 44.014 68.5482 43.9926C68.6565 43.9698 68.7648 43.9508 68.875 43.9356C68.9852 43.9204 69.0935 43.9052 69.2037 43.8938L69.4526 43.8748C69.407 43.9527 69.3614 44.0325 69.3177 44.1123C69.3177 44.1237 69.3044 44.137 69.2968 44.1503C69.206 44.1491 69.1153 44.1593 69.027 44.1807C68.9301 44.1997 68.837 44.2168 68.7363 44.2396C68.5387 44.2814 68.343 44.3289 68.1492 44.3821C67.7407 44.4961 67.3379 44.6272 66.937 44.7621C66.9142 44.7621 66.9275 44.8039 66.9503 44.7963C67.3499 44.6619 67.7565 44.549 68.1682 44.4581C68.3582 44.4144 68.5482 44.3707 68.7477 44.3308L69.0384 44.2681C69.1141 44.2564 69.189 44.2398 69.2626 44.2187C69.0555 44.5987 68.8598 44.9901 68.6812 45.3872C68.2898 46.2536 67.9611 47.1428 67.6267 48.0301C67.6172 48.0529 67.6514 48.0681 67.659 48.0453C67.9827 47.1628 68.3576 46.3 68.7819 45.4613C68.8579 45.3074 68.9358 45.1554 69.0118 45.0034C69.0118 45.0338 69.0251 45.0642 69.0308 45.0965C69.0498 45.201 69.0688 45.3055 69.0859 45.4119C69.122 45.6209 69.1581 45.8318 69.1885 46.0427C69.2789 46.4735 69.3297 46.9117 69.3405 47.3518C69.3405 47.3784 69.3823 47.3784 69.3785 47.3518C69.3443 47.1428 69.3443 46.9243 69.331 46.7134C69.3177 46.5025 69.3006 46.2726 69.2759 46.0541C69.2512 45.8356 69.2227 45.6304 69.1885 45.4195C69.1714 45.315 69.1524 45.2105 69.1334 45.106C69.1278 45.027 69.1078 44.9498 69.0745 44.878C69.1847 44.6557 69.293 44.4334 69.4051 44.213C69.5172 43.9926 69.616 43.7988 69.7243 43.5936C69.7699 43.5062 69.8193 43.4188 69.8668 43.3314C69.9022 43.4396 69.944 43.5455 69.9922 43.6487C70.0397 43.7665 70.0891 43.8862 70.1385 44.004C70.2449 44.2681 70.3456 44.5322 70.4463 44.7982C70.5888 45.1782 70.7465 45.5582 70.8643 45.9534C70.7484 45.5658 70.6515 45.1725 70.5223 44.7925Z" fill="#263238"/>
<path d="M70.8909 46.0408C70.8909 46.0104 70.8738 45.98 70.8643 45.9496C70.87 45.98 70.8814 46.0104 70.8909 46.0408Z" fill="#263238"/>
<path d="M80.2655 53.4698L80.1325 56.2742L79.7924 64.3302H72.333L71.991 56.2742L71.858 53.4698H80.2655Z" fill="#455A64"/>
<path d="M80.2655 53.4698L80.1325 56.2742H71.991L71.858 53.4698H80.2655Z" fill="#263238"/>
<path d="M80.7956 52.3355H71.3279V54.6041H80.7956V52.3355Z" fill="#455A64"/>
<path d="M74.2463 64.3302H72.9372V65.5177H74.2463V64.3302Z" fill="#455A64"/>
<path d="M74.2463 64.3302H72.9372V64.9249H74.2463V64.3302Z" fill="#263238"/>
<path d="M79.1882 64.3302H77.8791V65.5177H79.1882V64.3302Z" fill="#455A64"/>
<path d="M79.1882 64.3302H77.8791V64.9249H79.1882V64.3302Z" fill="#263238"/>
<path d="M84.7267 54.34C84.1947 53.8175 83.5069 53.1867 82.6937 53.4128C81.9337 53.6237 81.6335 54.4597 81.4967 55.157C81.32 56.0538 81.1832 56.9601 81.0407 57.8645C80.8982 58.7689 80.7614 59.6904 80.6303 60.6062C80.5568 61.1217 80.4834 61.6379 80.4099 62.1547L80.3016 62.928C80.2674 63.1826 80.2256 63.4353 80.2104 63.688C80.2104 63.7697 80.3339 63.7811 80.3529 63.7032C80.4517 63.2738 80.4916 62.8254 80.5543 62.3884C80.617 61.9514 80.6816 61.5087 80.7443 61.0698C80.8716 60.1977 81.0046 59.3237 81.1357 58.4516C81.2668 57.5795 81.4036 56.7074 81.5423 55.8353C81.6601 55.0962 81.7171 54.1785 82.3726 53.6902C82.551 53.5691 82.7573 53.4954 82.972 53.4761C83.1868 53.4568 83.4029 53.4926 83.6 53.58C84.0155 53.7686 84.3924 54.0327 84.7115 54.359C84.7229 54.3723 84.74 54.3571 84.7267 54.34Z" fill="#263238"/>
<path d="M83.999 53.8137C83.999 53.8137 82.9103 53.4223 82.3726 54.2165C81.8349 55.0107 82.479 57.0323 87.4342 58.1704C87.2889 56.6216 86.8856 55.1079 86.241 53.6921C85.1789 51.3741 83.2865 52.25 83.999 53.8137Z" fill="#FF6F00"/>
<path d="M87.1492 57.8398C87.0735 57.7018 86.9904 57.568 86.9003 57.4389L86.6495 57.0589C86.5849 56.9639 86.5203 56.8689 86.4595 56.7758C86.4645 56.7527 86.4677 56.7291 86.469 56.7055L86.4861 56.5763L86.526 56.297C86.5393 56.2058 86.5545 56.107 86.5735 56.0215C86.5842 55.9219 86.6059 55.8238 86.6381 55.7289C86.6381 55.7156 86.6172 55.708 86.6153 55.7289C86.6054 55.7845 86.5908 55.8392 86.5716 55.8923C86.5602 55.9341 86.5488 55.9759 86.5393 56.0177C86.5146 56.1108 86.4918 56.2077 86.4709 56.3008C86.45 56.3939 86.4348 56.4756 86.4196 56.563C86.4196 56.6067 86.4063 56.6485 86.4006 56.6903C86.3113 56.5649 86.222 56.4395 86.1289 56.3103C85.8648 55.9626 85.5874 55.6301 85.2986 55.3052C85.2963 54.7863 85.3389 54.2682 85.4259 53.7567C85.4259 53.7434 85.4088 53.7358 85.405 53.7567C85.2717 54.2392 85.2077 54.7382 85.215 55.2387C85.1124 55.1228 85.0079 55.0088 84.9015 54.8948C84.6602 54.6345 84.4151 54.3799 84.1624 54.1348C84.1529 54.1253 84.1377 54.1348 84.1472 54.15C84.5652 54.6003 84.9604 55.0677 85.348 55.5446C85.0455 55.5398 84.743 55.5512 84.4417 55.5788C84.1054 55.6035 83.771 55.6453 83.4385 55.6928C83.4368 55.692 83.4349 55.6917 83.433 55.6919C83.4311 55.692 83.4293 55.6927 83.4277 55.6937C83.4261 55.6947 83.4248 55.6962 83.4239 55.6978C83.423 55.6995 83.4225 55.7013 83.4225 55.7032C83.4225 55.7051 83.423 55.707 83.4239 55.7087C83.4248 55.7103 83.4261 55.7117 83.4277 55.7128C83.4293 55.7138 83.4311 55.7144 83.433 55.7146C83.4349 55.7148 83.4368 55.7145 83.4385 55.7137C83.7704 55.666 84.1047 55.6361 84.4398 55.6244C84.7628 55.6111 85.0858 55.6244 85.4088 55.6244C85.6159 55.8828 85.823 56.1431 86.0263 56.4072H85.7527C85.6026 56.4072 85.4506 56.4205 85.3024 56.4319C84.9945 56.4575 84.6886 56.5032 84.3866 56.5687C84.3836 56.5687 84.3807 56.5699 84.3785 56.572C84.3764 56.5742 84.3752 56.5771 84.3752 56.5801C84.3752 56.5831 84.3764 56.586 84.3785 56.5882C84.3807 56.5903 84.3836 56.5915 84.3866 56.5915C84.6906 56.5573 84.9965 56.5288 85.3024 56.5174C85.4487 56.5174 85.595 56.5174 85.7413 56.5174H85.9693C86.0114 56.5224 86.0542 56.5186 86.0947 56.506L86.4937 57.0247C86.5982 57.1634 86.7027 57.304 86.8034 57.4446C86.9041 57.5852 87.0029 57.7448 87.1188 57.8797C87.1397 57.8626 87.1549 57.8512 87.1492 57.8398Z" fill="#263238"/>
<path d="M84.4721 54.9404C84.297 54.9173 84.1204 54.9084 83.9439 54.9138C83.7653 54.9138 83.5886 54.9138 83.4119 54.9252C83.4089 54.9252 83.406 54.9264 83.4038 54.9285C83.4017 54.9306 83.4005 54.9335 83.4005 54.9366C83.4005 54.9396 83.4017 54.9425 83.4038 54.9446C83.406 54.9468 83.4089 54.948 83.4119 54.948C83.5905 54.9347 83.771 54.9309 83.9496 54.9347C84.1282 54.9385 84.2973 54.9537 84.4702 54.948L84.4721 54.9404Z" fill="#263238"/>
<path d="M86.0282 55.3394C86.0491 55.1703 86.07 54.9993 86.1061 54.834C86.1061 54.8169 86.0871 54.8131 86.0852 54.834C86.0586 55.0012 86.0263 55.1665 86.0016 55.3337L85.9674 55.5845C85.9526 55.6621 85.9462 55.7411 85.9484 55.8201C85.9484 55.8353 85.9731 55.8372 85.9769 55.8201C85.991 55.7423 85.9992 55.6635 86.0016 55.5845C86.0092 55.5009 86.0187 55.4192 86.0282 55.3394Z" fill="#263238"/>
<path d="M79.249 63.5151C79.2224 63.2035 79.192 62.8919 79.1597 62.5803C79.0926 61.9634 79.0178 61.3472 78.9355 60.7316C78.8538 60.1179 78.774 59.5023 78.6752 58.8924C78.6379 58.6084 78.5742 58.3286 78.4852 58.0564C78.453 57.9399 78.3944 57.8323 78.3141 57.7421C78.2337 57.6518 78.1336 57.5812 78.0216 57.5358C77.4383 57.3344 77.045 57.9386 76.8094 58.3661C76.8087 58.3675 76.8082 58.369 76.808 58.3705C76.8078 58.3721 76.808 58.3736 76.8084 58.3751C76.8089 58.3766 76.8096 58.378 76.8106 58.3793C76.8116 58.3805 76.8128 58.3815 76.8141 58.3822C76.8155 58.383 76.817 58.3835 76.8186 58.3836C76.8201 58.3838 76.8217 58.3836 76.8232 58.3832C76.8247 58.3828 76.8261 58.382 76.8273 58.3811C76.8285 58.3801 76.8295 58.3789 76.8303 58.3775C76.9709 58.1742 77.3604 57.6061 77.8031 57.6327C78.0995 57.6498 78.3389 57.8607 78.4814 58.6017C78.8367 60.4523 79.1578 64.2048 79.1958 64.4499C79.2148 64.5791 79.3079 64.5734 79.3079 64.4347C79.3117 64.1269 79.2756 63.821 79.249 63.5151Z" fill="#263238"/>
<path d="M76.969 58.14C76.969 58.14 77.4782 56.3407 76.3515 57.2394C74.4762 58.7385 74.4097 61.9894 74.4097 61.9894C74.4097 61.9894 77.7442 60.0533 78.1584 58.7765C78.7759 56.8765 76.969 58.14 76.969 58.14Z" fill="#FF6F00"/>
<path d="M77.5998 59.0197C77.3395 59.0729 77.0735 59.1071 76.8094 59.1451L76.4294 59.1983L76.1748 59.2287C76.4237 58.8867 76.6745 58.5447 76.912 58.197C76.9215 58.1818 76.9006 58.1685 76.8892 58.1799C76.6926 58.3841 76.5068 58.5985 76.3325 58.8221L76.1843 58.4041C76.1232 58.2448 76.0706 58.0825 76.0266 57.9177C76.0257 57.9156 76.0242 57.9139 76.0224 57.9127C76.0205 57.9115 76.0184 57.9108 76.0161 57.9108C76.0139 57.9108 76.0118 57.9115 76.0099 57.9127C76.008 57.9139 76.0066 57.9156 76.0057 57.9177C76.0513 58.083 76.0836 58.2521 76.1273 58.4174C76.171 58.5827 76.2185 58.7347 76.2736 58.8905C76.152 59.0482 76.0361 59.2097 75.9221 59.375C75.8632 59.2116 75.7929 59.0539 75.7435 58.8905C75.7435 58.8875 75.7423 58.8845 75.7402 58.8824C75.738 58.8803 75.7351 58.8791 75.7321 58.8791C75.7291 58.8791 75.7262 58.8803 75.724 58.8824C75.7219 58.8845 75.7207 58.8875 75.7207 58.8905C75.7815 59.0805 75.8138 59.2705 75.8689 59.4472C75.7929 59.5574 75.7169 59.6695 75.6428 59.7835C75.5079 59.9906 75.3825 60.2034 75.2628 60.4162C75.2533 60.4202 75.2454 60.4272 75.2403 60.4361C75.2352 60.445 75.2331 60.4554 75.2343 60.4656C75.0234 60.8304 74.8239 61.2009 74.6244 61.5733C74.6229 61.576 74.6225 61.5793 74.6234 61.5823C74.6243 61.5854 74.6264 61.5879 74.6291 61.5894C74.6319 61.5909 74.6352 61.5913 74.6382 61.5904C74.6412 61.5895 74.6438 61.5874 74.6453 61.5847C74.8353 61.2161 75.0633 60.857 75.2913 60.5055C75.3266 60.495 75.3629 60.488 75.3996 60.4846L75.5155 60.4599C75.6016 60.4409 75.6871 60.42 75.772 60.3972C75.9411 60.3554 76.1083 60.3155 76.2793 60.287C76.2945 60.287 76.2793 60.2623 76.2793 60.2661C76.0779 60.3041 75.8746 60.3269 75.6713 60.3497C75.5744 60.3611 75.4813 60.3744 75.3825 60.3896H75.3692C75.4883 60.2072 75.6099 60.0267 75.734 59.8481C75.8556 59.6714 75.9791 59.4985 76.1045 59.3256C76.2204 59.3085 76.3344 59.2781 76.4484 59.2572L76.8284 59.1812C77.0868 59.1299 77.3433 59.0729 77.6036 59.0292C77.6207 59.0387 77.615 59.0159 77.5998 59.0197Z" fill="#263238"/>
<path d="M75.5972 59.1964L75.5516 59.0539C75.5212 58.9551 75.4965 58.8544 75.4756 58.7518C75.4747 58.7497 75.4732 58.748 75.4714 58.7468C75.4695 58.7456 75.4674 58.7449 75.4651 58.7449C75.4629 58.7449 75.4608 58.7456 75.4589 58.7468C75.457 58.748 75.4556 58.7497 75.4547 58.7518C75.4756 58.8544 75.5003 58.9551 75.5231 59.0558C75.5435 59.1582 75.5728 59.2586 75.6105 59.356C75.62 59.3788 75.6561 59.3693 75.6485 59.3446C75.6409 59.3199 75.62 59.2477 75.5972 59.1964Z" fill="#263238"/>
<path d="M77.9418 58.6036C77.7898 58.6264 77.6359 58.6359 77.4839 58.6492C77.3319 58.6625 77.178 58.6853 77.0241 58.7081V58.7214C77.1761 58.71 77.3281 58.6986 77.482 58.6777C77.6359 58.6568 77.786 58.6359 77.9399 58.6245C77.957 58.6245 77.9551 58.5998 77.9418 58.6036Z" fill="#263238"/>
<path d="M81.7 61.237C81.6411 59.907 81.5575 58.5884 81.4245 57.2698C81.358 56.6124 81.2839 55.955 81.1908 55.3014C81.1089 54.6599 80.9819 54.025 80.8108 53.4014C80.6943 52.9159 80.4796 52.4594 80.18 52.06C80.0321 51.8641 79.8368 51.7089 79.6124 51.6092C79.3881 51.5095 79.1421 51.4685 78.8975 51.49C78.318 51.5622 77.8525 51.927 77.4478 52.3241C76.9956 52.7706 76.5795 53.257 76.1596 53.732C76.0532 53.8536 75.9487 53.9733 75.8442 54.0968C75.8347 54.1063 75.8442 54.1234 75.8613 54.112C76.2717 53.6408 76.6973 53.1829 77.1438 52.744C77.5561 52.3393 77.9798 51.8966 78.5517 51.7294C78.8166 51.6453 79.1001 51.6387 79.3687 51.7104C79.5825 51.7786 79.7749 51.901 79.9273 52.0657C80.2329 52.4193 80.4498 52.8408 80.56 53.295C80.9153 54.511 81.0426 55.7897 81.1756 57.0456C81.3086 58.3015 81.4017 59.6049 81.4644 60.8893C81.5271 62.1737 81.5803 63.4695 81.7038 64.7558C81.719 64.9154 81.7399 65.0731 81.7608 65.2308C81.7741 65.3372 81.9394 65.3372 81.9299 65.2308C81.8235 63.8989 81.7627 62.5689 81.7 61.237Z" fill="#263238"/>
<path d="M77.3756 52.4723C77.3756 52.4723 78.1356 51.072 77.2369 50.6217C76.3382 50.1714 73.3514 53.5135 72.4774 58.3965C72.4774 58.3965 77.3091 56.259 78.9507 54.1291C80.5923 51.9992 78.7322 51.528 77.3756 52.4723Z" fill="#FF6F00"/>
<path d="M78.09 53.6104C77.5466 53.6104 77.0051 53.5705 76.4617 53.5743C76.5624 53.4565 76.665 53.3406 76.7676 53.2247C76.919 53.069 77.0605 52.904 77.1913 52.7307C77.1938 52.7282 77.1952 52.7247 77.1952 52.7212C77.1952 52.7176 77.1938 52.7142 77.1913 52.7117C77.1888 52.7092 77.1854 52.7078 77.1818 52.7078C77.1782 52.7078 77.1748 52.7092 77.1723 52.7117C77.025 52.8389 76.8872 52.9767 76.76 53.124C76.6232 53.2684 76.4883 53.4128 76.3534 53.5591C76.1463 53.7833 75.943 54.0132 75.7397 54.2412C75.7397 54.2184 75.7397 54.1975 75.7397 54.1747C75.7397 54.0797 75.7397 53.9847 75.7397 53.8897C75.7397 53.6997 75.7397 53.5211 75.7397 53.3368C75.7397 52.9568 75.7397 52.5882 75.7682 52.2158C75.7682 52.2025 75.7454 52.2025 75.7454 52.2158C75.7188 52.5958 75.6808 52.9644 75.6618 53.3387C75.6523 53.5287 75.6485 53.7073 75.6466 53.8916C75.6466 53.9866 75.6466 54.0816 75.6466 54.1766C75.6466 54.2298 75.6466 54.2849 75.6466 54.3381C75.6143 54.3742 75.582 54.4084 75.5516 54.4445C75.1165 54.9385 74.7061 55.4515 74.3033 55.9645C74.3033 55.936 74.3033 55.9075 74.3033 55.879C74.3033 55.8505 74.29 55.7631 74.2843 55.7061C74.2691 55.5826 74.252 55.4572 74.233 55.3261C74.214 55.195 74.1988 55.0924 74.1779 54.9765C74.157 54.8606 74.1247 54.7143 74.1152 54.5832C74.1152 54.5661 74.0886 54.5699 74.0924 54.5832C74.1153 54.7152 74.1305 54.8484 74.138 54.9822C74.1494 55.1019 74.1608 55.2197 74.1703 55.3394L74.2045 55.6985L74.2216 55.8714L74.233 55.9569C74.2362 55.9809 74.2439 56.0041 74.2558 56.0253C74.1874 56.1165 74.1171 56.2153 74.0487 56.2951C73.7751 56.658 73.5072 57.0247 73.2374 57.3914C73.2374 57.4028 73.2374 57.418 73.2526 57.4066C73.5091 57.0741 73.7713 56.7473 74.0354 56.4243C74.2349 56.4338 74.4382 56.4243 74.6358 56.4148C74.8334 56.4053 75.0557 56.4148 75.2647 56.4148C75.2677 56.4148 75.2706 56.4136 75.2728 56.4114C75.2749 56.4093 75.2761 56.4064 75.2761 56.4034C75.2761 56.4004 75.2749 56.3975 75.2728 56.3953C75.2706 56.3932 75.2677 56.392 75.2647 56.392H74.6358C74.4458 56.392 74.2558 56.3825 74.0658 56.392C74.2995 56.107 74.537 55.822 74.7726 55.5446L75.0329 55.2368C75.1138 55.2444 75.1952 55.2444 75.2761 55.2368H75.5611H76.0969C76.4655 55.2368 76.8341 55.2178 77.2027 55.2178C77.2057 55.2178 77.2086 55.2166 77.2108 55.2144C77.2129 55.2123 77.2141 55.2094 77.2141 55.2064C77.2141 55.2034 77.2129 55.2005 77.2108 55.1983C77.2086 55.1962 77.2057 55.195 77.2027 55.195C76.8341 55.195 76.4636 55.1741 76.095 55.1646L75.5592 55.1532H75.2723C75.2191 55.1532 75.1621 55.1532 75.1089 55.1532C75.3103 54.9125 75.513 54.6719 75.7169 54.4312C75.7222 54.4283 75.7263 54.4236 75.7283 54.4179C75.9183 54.1842 76.1235 53.9505 76.3249 53.7187L76.4066 53.6237C76.9766 53.6427 77.5333 53.6047 78.0957 53.6237C78.0995 53.6332 78.0995 53.6104 78.09 53.6104Z" fill="#263238"/>
<path d="M77.8069 54.5718H77.6758C77.6625 54.5718 77.6644 54.5927 77.6758 54.5927H77.8088C77.8221 54.5927 77.8221 54.5718 77.8069 54.5718Z" fill="#263238"/>
<path d="M76 56.2039C75.6463 56.145 75.2888 56.1126 74.9303 56.107C75.2856 56.1412 75.6409 56.1602 75.9943 56.2172C76 56.2267 76.0095 56.2058 76 56.2039Z" fill="#263238"/>
<path d="M74.5427 54.6478C74.5427 54.6174 74.5427 54.587 74.5313 54.5547C74.5313 54.4863 74.5123 54.416 74.5009 54.3457C74.48 54.2127 74.4572 54.0816 74.4325 53.9486C74.4325 53.9372 74.4078 53.9486 74.4097 53.9486C74.4268 54.0854 74.442 54.2222 74.4534 54.359C74.4534 54.4255 74.4648 54.4939 74.4705 54.5604C74.4686 54.6249 74.4782 54.6893 74.499 54.7504C74.5009 54.7549 74.504 54.7588 74.5081 54.7615C74.5122 54.7642 74.5169 54.7656 74.5218 54.7656C74.5267 54.7656 74.5314 54.7642 74.5355 54.7615C74.5396 54.7588 74.5427 54.7549 74.5446 54.7504C74.5509 54.7164 74.5502 54.6815 74.5427 54.6478Z" fill="#263238"/>
<path d="M81.6544 50.673C81.4815 50.3519 81.2611 49.9263 80.8298 49.9529C80.4745 49.9757 80.313 50.3329 80.237 50.6407C80.0014 51.5698 79.9843 52.5502 79.9387 53.504C79.8418 55.518 79.7487 57.5339 79.7487 59.5517C79.7487 60.1103 79.7487 60.6695 79.7487 61.2294C79.7487 61.7994 79.7487 62.3694 79.7886 62.9394C79.7886 62.9505 79.793 62.9611 79.8008 62.969C79.8087 62.9768 79.8193 62.9812 79.8304 62.9812C79.8415 62.9812 79.8521 62.9768 79.86 62.969C79.8678 62.9611 79.8722 62.9505 79.8722 62.9394C79.8722 62.4511 79.857 61.9628 79.8551 61.4764C79.8532 60.99 79.8551 60.5264 79.8646 60.0476C79.8798 59.0849 79.9058 58.1216 79.9425 57.1577C79.9767 56.2077 80.0204 55.2425 80.0603 54.2849C80.0812 53.8061 80.1002 53.3349 80.123 52.8504C80.1458 52.3659 80.1629 51.9232 80.2161 51.4615C80.2465 51.2031 80.2845 50.9447 80.3377 50.6901C80.3654 50.5011 80.4428 50.3227 80.5619 50.1733C80.6442 50.0923 80.7527 50.0432 80.868 50.0348C80.9832 50.0264 81.0976 50.0594 81.1908 50.1277C81.3878 50.2697 81.5423 50.4628 81.6373 50.6863C81.643 50.6977 81.662 50.6863 81.6544 50.673Z" fill="#263238"/>
<path d="M81.5385 50.5191C81.5385 50.5191 81.1832 49.267 81.9679 49.894C83.2751 50.9371 83.3207 53.2057 83.3207 53.2057C83.3207 53.2057 80.9989 51.8567 80.7101 50.9675C80.2788 49.6432 81.5385 50.5191 81.5385 50.5191Z" fill="#FF6F00"/>
<path d="M82.84 52.2766C82.8191 52.2405 82.7963 52.2082 82.7735 52.1721C82.7763 52.1367 82.7763 52.1011 82.7735 52.0657V51.9042L82.7849 51.5869C82.7849 51.5717 82.764 51.5736 82.764 51.5869C82.764 51.6914 82.7545 51.794 82.7507 51.8985V52.0543C82.7507 52.0752 82.7507 52.098 82.7507 52.1208C82.6595 51.9802 82.5607 51.8396 82.4695 51.7028L82.3821 51.5831C82.3707 51.4472 82.3707 51.3105 82.3821 51.1746C82.3821 51.0283 82.3821 50.8839 82.3821 50.7376C82.3821 50.7224 82.3612 50.7243 82.3612 50.7376C82.3612 50.8896 82.3479 51.0416 82.3403 51.1917C82.3337 51.2999 82.3337 51.4084 82.3403 51.5166C82.1161 51.2126 81.8767 50.9181 81.6373 50.6255C81.6278 50.616 81.6107 50.6255 81.6183 50.6388C81.7684 50.8288 81.9109 51.0188 82.0515 51.2183C81.7779 51.1537 81.5005 51.1176 81.2231 51.0777C81.2079 51.0777 81.2022 51.0967 81.2231 51.0986C81.5176 51.1423 81.8045 51.2164 82.0952 51.2886C82.2079 51.4469 82.3181 51.6046 82.4258 51.7617C82.4714 51.8263 82.5132 51.8909 82.5569 51.9517H82.5455L82.4543 51.9403L82.2643 51.9213L81.8615 51.8966C81.8482 51.8966 81.8482 51.9194 81.8615 51.9194C81.9945 51.9194 82.1256 51.9327 82.2567 51.946L82.4638 51.9707L82.555 51.9821H82.5816L82.8058 52.3108C82.9369 52.5008 83.0528 52.7136 83.1858 52.8998C83.1858 52.9112 83.2086 52.8998 83.2029 52.8884C83.0944 52.6773 82.9732 52.473 82.84 52.2766Z" fill="#263238"/>
<path d="M82.2529 50.8592C82.2529 50.8117 82.2529 50.7623 82.2529 50.7129C82.25 50.6108 82.2539 50.5086 82.2643 50.407C82.2651 50.4053 82.2654 50.4034 82.2652 50.4015C82.265 50.3996 82.2644 50.3978 82.2634 50.3962C82.2623 50.3946 82.2609 50.3933 82.2593 50.3924C82.2576 50.3915 82.2557 50.3911 82.2538 50.3911C82.252 50.3911 82.2501 50.3915 82.2484 50.3924C82.2468 50.3933 82.2453 50.3946 82.2443 50.3962C82.2433 50.3978 82.2426 50.3996 82.2425 50.4015C82.2423 50.4034 82.2426 50.4053 82.2434 50.407C82.2434 50.5096 82.232 50.6103 82.2263 50.7129C82.2263 50.7623 82.2263 50.8136 82.2263 50.8649V50.9352C82.2217 50.959 82.2217 50.9836 82.2263 51.0074C82.2263 51.0099 82.2273 51.0123 82.2291 51.0141C82.2309 51.0159 82.2333 51.0169 82.2358 51.0169C82.2383 51.0169 82.2407 51.0159 82.2425 51.0141C82.2443 51.0123 82.2453 51.0099 82.2453 51.0074C82.2491 50.9848 82.2491 50.9616 82.2453 50.939C82.2548 50.92 82.2529 50.8858 82.2529 50.8592Z" fill="#263238"/>
<path d="M81.966 51.3798C81.8792 51.3662 81.7916 51.3573 81.7038 51.3532C81.6088 51.3532 81.5138 51.3361 81.4169 51.3228C81.4139 51.3228 81.411 51.324 81.4088 51.3262C81.4067 51.3283 81.4055 51.3312 81.4055 51.3342C81.4055 51.3372 81.4067 51.3401 81.4088 51.3423C81.411 51.3444 81.4139 51.3456 81.4169 51.3456C81.6069 51.357 81.7836 51.3893 81.966 51.3969C81.9755 51.3969 81.9774 51.3798 81.966 51.3798Z" fill="#263238"/>
<path d="M82.6956 51.3874C82.6956 51.3969 82.6956 51.4235 82.6956 51.4349V51.4748C82.6956 51.5052 82.6956 51.5337 82.6956 51.5622V51.6515C82.6908 51.6766 82.6908 51.7024 82.6956 51.7275C82.6956 51.7275 82.6956 51.7275 82.7051 51.7275C82.7079 51.7156 82.7079 51.7032 82.7051 51.6914V51.6496C82.7051 51.6211 82.7051 51.5926 82.7051 51.5622V51.4349C82.7022 51.4185 82.7022 51.4018 82.7051 51.3855C82.7298 51.3665 82.6804 51.3665 82.6956 51.3874Z" fill="#263238"/>
<path d="M81.7095 57.3629C81.2212 56.9962 80.7823 56.468 80.1249 56.4433C79.5834 56.4224 79.2034 56.8233 78.9849 57.285C78.8763 57.527 78.7873 57.7773 78.7189 58.0336C78.622 58.3756 78.5289 58.7214 78.4434 59.0672C78.2724 59.7474 78.1274 60.4339 78.0083 61.1268C77.9418 61.5068 77.881 61.9001 77.8316 62.2877C77.7699 62.6815 77.7319 63.0787 77.7176 63.4771C77.7192 63.4912 77.7256 63.5044 77.7356 63.5144C77.7457 63.5245 77.7589 63.5308 77.7731 63.5323C77.7872 63.5339 77.8015 63.5306 77.8135 63.523C77.8255 63.5153 77.8346 63.5038 77.8392 63.4904C77.9057 63.1655 77.9323 62.8311 77.9817 62.5024C78.0311 62.1737 78.0786 61.8431 78.1356 61.5144C78.2458 60.8557 78.3725 60.2009 78.5156 59.5498C78.6562 58.9361 78.793 58.311 78.9925 57.7125C79.135 57.285 79.363 56.7834 79.8247 56.6295C80.5296 56.3939 81.1699 56.9905 81.6867 57.3781C81.7 57.38 81.7209 57.38 81.7095 57.3629Z" fill="#263238"/>
<path d="M81.2041 57.0114C81.2041 57.0114 80.7538 55.7251 81.4036 55.4743C82.3802 55.0943 84.9338 57.9728 84.4341 62.3808C83.2294 61.7062 82.0823 60.9334 81.0046 60.0704C79.5473 58.8468 79.173 57.2508 79.8152 56.8404C80.4574 56.43 81.2041 57.0114 81.2041 57.0114Z" fill="#FF6F00"/>
<path d="M84.1396 61.4365C84.0718 61.2825 83.9924 61.1339 83.9021 60.9919C83.8185 60.8399 83.7349 60.6898 83.6475 60.5416C83.4784 60.2509 83.3093 59.9602 83.1364 59.6733C83.1079 59.6258 83.0775 59.5802 83.0509 59.5327C83.0509 59.5156 83.0509 59.4985 83.0604 59.4814L83.0889 59.3541C83.1117 59.2591 83.1288 59.1641 83.1459 59.0653C83.182 58.8753 83.2143 58.6853 83.2656 58.4953C83.2656 58.482 83.2466 58.4763 83.2428 58.4953C83.2029 58.6853 83.144 58.8753 83.087 59.0539C83.0604 59.1451 83.03 59.2344 83.0072 59.3275C82.9977 59.3579 82.9901 59.3902 82.9825 59.4206C82.7716 59.0767 82.5588 58.7347 82.3289 58.4041C82.3434 58.3586 82.3511 58.3112 82.3517 58.2635L82.3745 58.0735C82.3916 57.9291 82.4087 57.7828 82.4296 57.6384C82.4668 57.3548 82.5181 57.0732 82.5835 56.7948C82.5835 56.7815 82.5645 56.7777 82.5626 56.7948C82.4923 57.0722 82.4144 57.3496 82.3631 57.6308C82.3365 57.7695 82.3118 57.9082 82.2928 58.0469L82.27 58.2559C82.27 58.2768 82.27 58.2977 82.27 58.3186C82.1978 58.2198 82.1275 58.1191 82.0534 58.0222C81.8267 57.7258 81.5949 57.4344 81.358 57.1482C81.358 57.1368 81.3314 57.1482 81.3409 57.1596C81.7443 57.676 82.1149 58.2173 82.4505 58.7803C82.5151 58.8848 82.5778 58.9893 82.6405 59.0919H82.5778L82.3289 59.0691L81.8292 59.0254C81.4967 58.9988 81.1642 58.9798 80.8317 58.9437C80.8184 58.9437 80.8146 58.9646 80.8317 58.9646C81.168 59.0045 81.5024 59.0577 81.8368 59.1052L82.3327 59.1717C82.4577 59.1977 82.585 59.2111 82.7127 59.2116C82.8438 59.4225 82.9749 59.6353 83.1041 59.8481C83.075 59.8452 83.0458 59.8452 83.0167 59.8481H82.5417H81.8995C81.8843 59.8481 81.8862 59.869 81.8995 59.869C82.1161 59.869 82.3327 59.8842 82.5493 59.8956L82.8571 59.9127L83.011 59.9241C83.0553 59.9346 83.1015 59.9346 83.1459 59.9241C83.258 60.1046 83.3701 60.2851 83.4803 60.4656C83.5905 60.6461 83.6855 60.7981 83.79 60.9634C83.8895 61.1393 84.0019 61.3076 84.1263 61.4669C84.1263 61.4669 84.1453 61.4498 84.1396 61.4365Z" fill="#263238"/>
<path d="M83.1991 57.874C83.1795 58.0152 83.1503 58.1548 83.1117 58.292C83.0756 58.4345 83.0338 58.577 82.9863 58.7157C82.9857 58.7174 82.9854 58.7193 82.9855 58.7211C82.9856 58.723 82.986 58.7248 82.9868 58.7265C82.9876 58.7282 82.9887 58.7297 82.9901 58.7309C82.9915 58.7322 82.9931 58.7331 82.9948 58.7337C82.9966 58.7344 82.9984 58.7346 83.0003 58.7346C83.0022 58.7345 83.004 58.734 83.0056 58.7332C83.0073 58.7324 83.0088 58.7313 83.0101 58.7299C83.0113 58.7285 83.0123 58.7269 83.0129 58.7252C83.0566 58.5865 83.0965 58.4459 83.1307 58.3053C83.1649 58.1647 83.1877 58.0184 83.2219 57.8778C83.22 57.8626 83.201 57.8588 83.1991 57.874Z" fill="#263238"/>
<path d="M81.7494 58.7347C81.7197 58.708 81.681 58.6937 81.6411 58.6948L81.4511 58.6682L81.1053 58.6264C80.864 58.5979 80.6227 58.5751 80.3833 58.5447C80.3681 58.5447 80.3643 58.5656 80.3833 58.5675C80.6094 58.5941 80.8355 58.6283 81.0616 58.6587L81.396 58.7024L81.5556 58.7195C81.6203 58.7196 81.6845 58.7305 81.7456 58.7518C81.7471 58.751 81.7484 58.7499 81.7494 58.7486C81.7504 58.7473 81.7511 58.7457 81.7515 58.7441C81.7519 58.7425 81.7519 58.7408 81.7515 58.7392C81.7511 58.7375 81.7504 58.736 81.7494 58.7347Z" fill="#263238"/>
<path d="M83.1953 60.6727C83.0832 60.6632 82.9673 60.6594 82.8533 60.6556H82.6823H82.5987C82.5633 60.6585 82.5277 60.6585 82.4923 60.6556C82.4752 60.6556 82.4733 60.6803 82.4923 60.6765C82.5258 60.6736 82.5595 60.6736 82.593 60.6765H82.6823L82.8552 60.686C82.9692 60.686 83.0832 60.6993 83.1972 60.7012C83.2086 60.6974 83.22 60.6746 83.1953 60.6727Z" fill="#263238"/>
<path d="M83.8907 60.1787C83.904 60.1141 83.9173 60.0495 83.9287 59.9887C83.9515 59.8614 83.9762 59.736 83.999 59.6087C83.999 59.6057 83.9978 59.6028 83.9957 59.6006C83.9935 59.5985 83.9906 59.5973 83.9876 59.5973C83.9846 59.5973 83.9817 59.5985 83.9795 59.6006C83.9774 59.6028 83.9762 59.6057 83.9762 59.6087C83.9496 59.7322 83.9211 59.8557 83.8926 59.9792L83.8527 60.1692L83.8337 60.2547C83.8249 60.2842 83.8217 60.3152 83.8242 60.3459C83.8242 60.3573 83.8413 60.3649 83.8489 60.3459C83.8739 60.2935 83.8881 60.2367 83.8907 60.1787Z" fill="#263238"/>
<path d="M77.2103 62.9831L77.3471 64.5468L77.8145 69.8212H81.9451L82.5284 64.5468L82.7013 62.9831H77.2103Z" fill="#37474F"/>
<path d="M77.2103 62.9831L77.3471 64.5468H82.5284L82.7013 62.9831H77.2103Z" fill="#263238"/>
<path d="M76.8018 63.8248H83.1117V62.5575H76.8018V63.8248Z" fill="#37474F"/>
<path d="M11.3715 78.0767C12.2678 77.8497 13.1906 77.7443 14.1151 77.7632C14.9378 77.805 16.7922 78.1641 17.3565 78.2667C17.9208 78.3693 18.6713 78.2515 18.6276 78.4928C18.5839 78.7341 15.9239 79.5435 14.7706 79.3763C13.6173 79.2091 11.3715 78.0767 11.3715 78.0767Z" fill="#37474F"/>
<path d="M15.1848 72.8327C15.1848 72.4527 15.1715 72.0613 15.1658 71.6737C15.1658 70.3912 15.143 69.1087 15.1126 67.8243C15.0873 66.811 15.0562 65.7926 15.0195 64.7691C15.0195 64.7691 15.0195 64.7596 15.0081 64.7558V63.9217C15.0081 63.9217 14.9967 63.9103 14.9853 63.9122C14.9739 63.9141 14.9644 63.9122 14.9644 63.9217C14.9644 64.201 14.9644 64.4803 14.9644 64.7577C14.9644 64.7577 14.9644 64.7577 14.9644 64.771C14.896 66.5836 14.8371 68.3962 14.8219 70.2088C14.8219 70.5774 14.8219 70.946 14.8219 71.3146C14.8042 72.4989 14.7978 73.6814 14.8029 74.8619C14.8029 75.0519 14.8029 75.2419 14.8029 75.4319C14.8029 76.5149 14.8162 81.9261 14.8181 83.0072C14.8181 83.0661 14.9017 83.0946 14.991 83.0984C15.0803 83.1022 15.2038 83.0699 15.2038 83.0034C15.2038 81.8102 15.2152 76.2869 15.2152 75.0937C15.1886 74.3375 15.2 73.5851 15.1848 72.8327Z" fill="#263238"/>
<path d="M13.2734 65.8559C13.2734 65.8559 11.0732 64.22 8.9851 65.3258C6.897 66.4316 6.5683 70.68 6.5683 70.68C6.5683 70.68 9.6349 71.1189 11.5672 69.2797C13.4292 67.5032 13.2734 65.8559 13.2734 65.8559Z" fill="#FF6F00"/>
<path d="M13.87 65.9566C13.4653 65.7967 13.0273 65.7392 12.5951 65.7894C12.5058 65.7748 12.4157 65.7659 12.3253 65.7628L12.0194 65.74L11.3772 65.6944C10.944 65.6621 10.507 65.6355 10.0738 65.5918C10.0586 65.5918 10.0567 65.6184 10.0738 65.6203C10.5013 65.6735 10.9288 65.7362 11.3601 65.778C11.5805 65.8008 11.8009 65.8236 12.0232 65.8388L12.1847 65.8559L11.9947 65.9034C11.6463 66.0033 11.3094 66.1396 10.9896 66.31C10.8167 66.3404 10.6438 66.3879 10.4747 66.4297C10.2011 66.4924 9.9313 66.5627 9.6596 66.6349C9.1257 66.7736 8.5975 66.9313 8.0655 67.0852C8.06197 67.0852 8.05859 67.0866 8.05609 67.0891C8.0536 67.0916 8.0522 67.095 8.0522 67.0985C8.0522 67.102 8.0536 67.1054 8.05609 67.1079C8.05859 67.1104 8.06197 67.1118 8.0655 67.1118C8.5956 66.9826 9.1276 66.8629 9.6596 66.7318C9.9161 66.671 10.1745 66.6102 10.4329 66.5418L10.64 66.5C10.0486 66.8659 9.52048 67.3253 9.0763 67.8604C8.64705 68.385 8.28218 68.959 7.9895 69.5704C7.9895 69.5856 8.0028 69.6008 8.0123 69.5856C8.3738 68.9548 8.81647 68.3742 9.329 67.8585C9.329 67.887 9.3081 67.9174 9.3005 67.9459C9.2587 68.0751 9.2188 68.2062 9.177 68.3259C9.0953 68.5843 9.0136 68.8446 8.9357 69.1049C8.9357 69.122 8.9566 69.1277 8.9623 69.1049C9.0554 68.8541 9.1523 68.6014 9.2321 68.3449L9.3632 67.9649C9.386 67.9022 9.4069 67.8376 9.4297 67.7749C9.43552 67.7549 9.4425 67.7352 9.4506 67.716C9.69563 67.477 9.95652 67.2548 10.2315 67.051C10.5955 66.795 10.9875 66.5815 11.4 66.4145L11.3772 66.5266C11.3544 66.6273 11.3335 66.728 11.3126 66.8287C11.2689 67.0358 11.229 67.2448 11.1872 67.4538C11.1055 67.8794 11.0542 68.3107 10.9744 68.7382C10.9744 68.7417 10.9758 68.7451 10.9783 68.7476C10.9808 68.7501 10.9842 68.7515 10.9877 68.7515C10.9912 68.7515 10.9946 68.7501 10.9971 68.7476C10.9996 68.7451 11.001 68.7417 11.001 68.7382C11.0998 68.3107 11.2271 67.8889 11.3221 67.4595C11.3696 67.2448 11.419 67.0301 11.4627 66.8154C11.4836 66.7147 11.5045 66.614 11.5235 66.5133C11.5349 66.4563 11.5482 66.4012 11.5558 66.3442C11.5957 66.329 11.6337 66.31 11.6755 66.2948C12.2455 66.082 12.8896 65.9262 13.5052 66.044C13.7971 66.0982 14.0711 66.2234 14.3031 66.4086C14.5351 66.5939 14.7178 66.8334 14.8352 67.1061C14.8542 67.1536 14.9302 67.1232 14.9188 67.0757C14.8441 66.8199 14.7103 66.5853 14.5281 66.3909C14.3459 66.1965 14.1204 66.0477 13.87 65.9566Z" fill="#263238"/>
<path d="M10.5051 67.7692C10.4424 68.0485 10.3797 68.3278 10.3151 68.6071C10.2459 68.8744 10.1945 69.1461 10.1612 69.4203C10.1612 69.4317 10.1764 69.4317 10.1802 69.4203C10.2617 69.1512 10.3251 68.877 10.3702 68.5995C10.4234 68.3259 10.4785 68.0504 10.5317 67.7749C10.5355 67.7597 10.5089 67.7521 10.5051 67.7692Z" fill="#263238"/>
<path d="M8.3752 68.4779C8.0959 68.6204 7.8242 68.7819 7.5316 68.8978C7.52922 68.898 7.52692 68.8988 7.52489 68.9001C7.52287 68.9014 7.52118 68.9031 7.51995 68.9052C7.51873 68.9072 7.51801 68.9095 7.51785 68.9119C7.5177 68.9143 7.51811 68.9167 7.51905 68.9189C7.51999 68.9211 7.52144 68.9231 7.52328 68.9246C7.52512 68.9261 7.5273 68.9272 7.52963 68.9278C7.53197 68.9283 7.53439 68.9283 7.53672 68.9277C7.53904 68.9271 7.54119 68.926 7.543 68.9244C7.83018 68.7938 8.11048 68.6486 8.3828 68.4893C8.3828 68.4893 8.3828 68.4741 8.3752 68.4779Z" fill="#263238"/>
<path d="M15.01 63.384C15.01 63.384 17.5408 62.4606 17.974 60.3326C18.4072 58.2046 17.1304 55.9987 17.1304 55.9987C17.1304 55.9987 14.6813 57.4503 14.1664 59.0672C13.6515 60.6841 15.01 63.384 15.01 63.384Z" fill="#FF6F00"/>
<path d="M14.9226 66.3233C14.8903 66.0212 14.8827 65.7153 14.8675 65.4113C14.8523 65.1073 14.8485 64.8299 14.8504 64.5392C14.8526 63.9463 14.8862 63.3539 14.9511 62.7646C14.9929 62.3846 15.0518 62.016 15.1183 61.6455C15.1031 61.5999 15.0917 61.5524 15.0803 61.5068C15.0575 61.4251 15.0347 61.3434 15.0138 61.2617C14.9701 61.0964 14.9283 60.9292 14.8865 60.762C14.7934 60.3972 14.7155 60.0286 14.6186 59.6638C14.6186 59.6467 14.6414 59.6353 14.6452 59.6524C14.744 60.0115 14.858 60.363 14.9587 60.7202C15.0081 60.8969 15.0594 61.0717 15.1069 61.2465C15.124 61.3111 15.1411 61.3738 15.1563 61.4365C15.2923 60.7219 15.4673 60.0153 15.6807 59.3199L15.7719 59.0406C15.7719 59.0197 15.7719 58.9969 15.7719 58.9741C15.7719 58.919 15.7719 58.8639 15.7719 58.8088L15.7491 58.4687C15.7339 58.2464 15.7092 58.0241 15.675 57.8037C15.6741 57.8014 15.6739 57.7989 15.6742 57.7965C15.6745 57.7941 15.6754 57.7918 15.6768 57.7897C15.6782 57.7877 15.68 57.7861 15.6822 57.7849C15.6844 57.7838 15.6868 57.7832 15.6892 57.7832C15.6917 57.7832 15.6941 57.7838 15.6963 57.7849C15.6985 57.7861 15.7003 57.7877 15.7017 57.7897C15.7031 57.7918 15.704 57.7941 15.7043 57.7965C15.7046 57.7989 15.7044 57.8014 15.7035 57.8037C15.7415 58.0279 15.7776 58.2521 15.8061 58.4782C15.8213 58.5865 15.8308 58.6948 15.8384 58.805C15.8384 58.824 15.8384 58.843 15.8384 58.8601C16.0018 58.3794 16.1861 57.9101 16.3742 57.4313C16.3742 57.4142 16.4046 57.4313 16.3989 57.4427C16.051 58.3871 15.7772 59.3571 15.58 60.344C15.6312 60.299 15.6852 60.2571 15.7415 60.2186C15.9163 60.0989 16.0949 59.9868 16.2754 59.8785C16.6554 59.6524 17.0354 59.4244 17.404 59.1869C17.4192 59.1774 17.4363 59.1983 17.4211 59.2078C17.0734 59.451 16.7333 59.7037 16.3913 59.9564C16.2317 60.0761 16.0664 60.1901 15.903 60.306C15.7693 60.401 15.6423 60.5051 15.523 60.6176C15.5078 60.6936 15.4907 60.7677 15.4774 60.8418C15.4109 61.1838 15.3558 61.5277 15.3045 61.8735L15.5344 61.7139C15.7092 61.5942 15.884 61.4764 16.0626 61.3605C16.4103 61.1325 16.758 60.9026 17.0924 60.6556C17.1057 60.6442 17.1228 60.667 17.1095 60.6765C16.7713 60.9311 16.4426 61.199 16.1139 61.4631C15.9543 61.5885 15.7909 61.7139 15.6275 61.8336L15.3786 62.0122C15.3471 62.0389 15.3127 62.0618 15.276 62.0806C15.1734 62.8216 15.0974 63.5683 15.0537 64.315C15.0328 64.6418 15.0214 64.9705 15.0119 65.2992C15.0024 65.6279 15.0119 65.9718 15.0119 66.31C15.029 66.3765 14.9283 66.3936 14.9226 66.3233Z" fill="#263238"/>
<path d="M14.9549 59.5555C14.9004 59.3022 14.8472 59.0457 14.7953 58.786C14.7953 58.7689 14.8181 58.7651 14.8219 58.786C14.877 59.0368 14.934 59.2876 14.9948 59.5365C15.0556 59.7854 15.124 60.0362 15.1582 60.2965C15.073 60.0546 15.005 59.807 14.9549 59.5555Z" fill="#263238"/>
<path d="M16.3628 58.8544C16.4521 58.748 16.5528 58.6492 16.6497 58.5504C16.7029 58.4991 16.7542 58.4478 16.8055 58.3946L16.8834 58.3148C16.9161 58.2892 16.9443 58.2584 16.967 58.2236C16.9803 58.2027 17.005 58.2236 16.9879 58.2407C16.9588 58.2675 16.9326 58.2975 16.91 58.33L16.8359 58.4136C16.7865 58.4649 16.739 58.5181 16.6915 58.5713C16.5966 58.6782 16.4957 58.7797 16.3894 58.8753C16.3704 58.8867 16.3514 58.8677 16.3628 58.8544Z" fill="#263238"/>
<path d="M16.1975 70.6078C16.1975 70.6078 16.6326 73.6231 18.9012 74.6795C21.1698 75.7359 23.9343 74.6795 23.9343 74.6795C23.9343 74.6795 22.8475 68.153 16.1975 70.6078Z" fill="#FF6F00"/>
<path d="M22.3725 72.7168C22.1616 72.6921 21.9545 72.6579 21.7474 72.6199L21.4415 72.561L21.2838 72.5306C21.223 72.4736 21.1622 72.4147 21.0938 72.3596C20.664 71.9818 20.1996 71.6453 19.7068 71.3545C19.4384 71.1951 19.1605 71.0523 18.8746 70.927H18.9183L19.665 70.9593C20.1628 70.9821 20.6606 70.9935 21.1584 71.0258C21.1755 71.0258 21.1755 70.9992 21.1584 70.9973C20.6587 70.9631 20.1628 70.9099 19.6631 70.8662L18.9392 70.8016L18.5592 70.7693L18.4642 70.7579C18.3331 70.7104 18.2039 70.6648 18.0728 70.6249C17.4542 70.4116 16.7884 70.3748 16.15 70.5185C15.58 70.6648 15.01 71.0372 14.8618 71.6395C14.8618 71.6604 14.8903 71.6756 14.8979 71.6547C15.1107 71.1512 15.6693 70.8947 16.1728 70.794C16.5118 70.7291 16.8593 70.7221 17.2007 70.7731C17.2236 70.9285 17.2618 71.0812 17.3147 71.2291C17.3774 71.4419 17.4401 71.6547 17.5047 71.8656C17.632 72.2893 17.7745 72.7092 17.8999 73.1348C17.8999 73.1519 17.9303 73.1348 17.9265 73.1253C17.8201 72.7035 17.7365 72.276 17.6301 71.8504C17.5807 71.6433 17.5275 71.4343 17.4762 71.2272C17.4464 71.082 17.4083 70.9386 17.3622 70.7978C17.5522 70.8339 17.7574 70.8814 17.9512 70.9365C18.3013 71.0419 18.6446 71.1688 18.9791 71.3165C19.0114 71.5331 19.0589 71.7459 19.1083 71.9568C19.171 72.2247 19.2394 72.4869 19.3249 72.7472C19.3241 72.7492 19.3238 72.7514 19.324 72.7536C19.3243 72.7557 19.325 72.7578 19.3262 72.7596C19.3275 72.7614 19.3291 72.7629 19.331 72.7639C19.3329 72.7649 19.3351 72.7654 19.3373 72.7654C19.3394 72.7654 19.3416 72.7649 19.3435 72.7639C19.3454 72.7629 19.347 72.7614 19.3483 72.7596C19.3495 72.7578 19.3502 72.7557 19.3505 72.7536C19.3507 72.7514 19.3504 72.7492 19.3496 72.7472C19.3496 72.732 19.3496 72.7149 19.3496 72.6978C19.2983 72.4508 19.2432 72.2057 19.1919 71.9587C19.1501 71.7687 19.1102 71.5616 19.0684 71.3621C19.3496 71.4894 19.627 71.6281 19.8949 71.782C19.8949 71.8428 19.9158 71.9055 19.9234 71.9625C19.9405 72.0651 19.9595 72.1677 19.9785 72.2703C20.0203 72.504 20.0678 72.7358 20.1229 72.9657C20.2218 73.4103 20.3488 73.8481 20.5029 74.2767C20.501 74.2795 20.5 74.2828 20.5 74.2862C20.5 74.2896 20.501 74.2929 20.5029 74.2957C20.5083 74.2998 20.5128 74.305 20.5162 74.3109C20.5162 74.3223 20.5428 74.3109 20.539 74.2957C20.4345 73.8492 20.3148 73.4065 20.216 72.9562C20.1666 72.732 20.1172 72.5097 20.0735 72.2836C20.0507 72.1715 20.0298 72.0594 20.0089 71.9473C20.0089 71.915 19.9975 71.8808 19.9937 71.8447C20.2984 72.0253 20.5933 72.2219 20.8772 72.4337C21.3655 72.8018 21.8178 73.2153 22.2281 73.6687C22.2452 73.6877 22.2775 73.6687 22.2623 73.6421C22.0934 73.4131 21.9126 73.193 21.7208 72.9828C21.6068 72.8593 21.489 72.7415 21.3674 72.6256H21.4054C21.5118 72.6427 21.6182 72.6598 21.7246 72.6731C21.9355 72.7016 22.1445 72.7225 22.3554 72.7453C22.382 72.7453 22.3896 72.7187 22.3725 72.7168Z" fill="#263238"/>
<path d="M20.7784 73.739C20.7784 73.7124 20.7784 73.6877 20.767 73.6611C20.7556 73.6345 20.7442 73.5965 20.7385 73.5623C20.691 73.359 20.653 73.1576 20.615 72.9524C20.615 72.9391 20.5903 72.9524 20.5903 72.9524C20.6048 73.2229 20.6632 73.4892 20.7632 73.7409H20.7803L20.7784 73.739Z" fill="#263238"/>
<path d="M18.8784 73.6915C18.8787 73.6897 18.8786 73.6878 18.8781 73.686C18.8775 73.6842 18.8766 73.6826 18.8753 73.6813C18.8739 73.68 18.8723 73.6791 18.8706 73.6785C18.8688 73.678 18.8669 73.6778 18.8651 73.6782C18.8024 73.4122 18.7397 73.1443 18.6751 72.8745L18.5896 72.4508C18.5763 72.3748 18.5611 72.2988 18.5478 72.2209C18.5414 72.1554 18.5247 72.0913 18.4984 72.0309C18.4974 72.0284 18.4957 72.0263 18.4935 72.0248C18.4913 72.0233 18.4887 72.0225 18.486 72.0225C18.4834 72.0225 18.4808 72.0233 18.4786 72.0248C18.4764 72.0263 18.4747 72.0284 18.4737 72.0309C18.4717 72.1679 18.491 72.3044 18.5307 72.4356C18.5592 72.5838 18.5877 72.7301 18.62 72.8764C18.6846 73.1747 18.7606 73.4711 18.8442 73.7637C18.8442 73.7808 18.8746 73.777 18.8746 73.7637L18.8784 73.6915Z" fill="#263238"/>
<path d="M22.1654 71.8485C21.7512 71.7915 21.337 71.7307 20.9209 71.6813C20.9038 71.6813 20.8962 71.706 20.9209 71.7079C21.3332 71.7687 21.7493 71.82 22.1635 71.8751C22.1749 71.877 22.1825 71.8504 22.1654 71.8485Z" fill="#263238"/>
<path d="M11.3715 78.0767C11.1131 78.1565 10.8756 79.1654 11.0428 79.6898C11.21 80.2142 10.2429 81.8463 10.0453 82.517C9.8477 83.1877 9.9921 83.3758 10.0453 83.5012C10.0985 83.6266 9.5608 83.8565 9.6311 83.9819C9.7014 84.1073 10.2733 84.1719 10.5317 84.1282C10.7901 84.0845 12.16 84.74 13.5128 84.9034C15.7548 85.1751 18.1697 84.4968 18.6295 84.3334C18.7796 84.2764 19.3192 84.4512 19.5263 84.3676C19.7334 84.284 19.513 83.9116 19.4921 83.7862C19.4712 83.6608 19.6365 83.277 19.665 82.4562C19.6935 81.6354 18.24 79.8779 18.3084 79.61C18.3768 79.3421 18.6466 78.6372 18.6276 78.4966C18.6086 78.356 16.3001 79.1692 14.7706 79.0666C13.2411 78.964 11.78 77.9513 11.3715 78.0767Z" fill="#455A64"/>
<path d="M23.921 59.033C23.8329 59.0378 23.7458 59.0119 23.6747 58.9595C23.6036 58.9072 23.553 58.8317 23.5315 58.7461L14.4875 20.6112C14.4643 20.4804 14.4874 20.3456 14.553 20.2301C14.6186 20.1146 14.7224 20.0256 14.8466 19.9785C14.9008 19.9505 14.9605 19.9348 15.0215 19.9324C15.0825 19.9301 15.1432 19.9412 15.1994 19.9649C15.2556 19.9887 15.3059 20.0245 15.3467 20.0699C15.3875 20.1152 15.4179 20.169 15.4356 20.2274L24.4796 58.3604C24.5028 58.4912 24.4797 58.6259 24.4141 58.7415C24.3485 58.857 24.2447 58.946 24.1205 58.9931C24.0573 59.0196 23.9895 59.0332 23.921 59.033Z" fill="#FF6F00"/>
<path opacity="0.2" d="M23.921 59.033C23.8329 59.0378 23.7458 59.0119 23.6747 58.9595C23.6036 58.9072 23.553 58.8317 23.5315 58.7461L14.4875 20.6112C14.4643 20.4804 14.4874 20.3456 14.553 20.2301C14.6186 20.1146 14.7224 20.0256 14.8466 19.9785C14.9008 19.9505 14.9605 19.9348 15.0215 19.9324C15.0825 19.9301 15.1432 19.9412 15.1994 19.9649C15.2556 19.9887 15.3059 20.0245 15.3467 20.0699C15.3875 20.1152 15.4179 20.169 15.4356 20.2274L24.4796 58.3604C24.5028 58.4912 24.4797 58.6259 24.4141 58.7415C24.3485 58.857 24.2447 58.946 24.1205 58.9931C24.0573 59.0196 23.9895 59.0332 23.921 59.033Z" fill="black"/>
<path d="M18.9259 57.9652C18.8803 57.8569 27.5994 57.9652 27.9224 57.9652C28.2454 57.9652 29.1745 64.6532 29.2828 65.4227C29.3911 66.1922 27.0427 68.2993 26.0528 68.2993C24.0559 68.2993 21.147 67.1593 20.3528 66.1922C19.5586 65.2251 19.0133 58.1685 18.9259 57.9652Z" fill="#C7C7C7"/>
<path d="M24.4682 61.8659C24.1409 61.628 23.8794 61.311 23.7082 60.9444C23.2484 59.9659 23.0299 58.6169 22.8722 58.1913C22.8551 58.1457 22.7677 58.1761 22.7791 58.2274C22.9691 59.0349 23.0147 59.774 23.2028 60.5777C23.269 60.8903 23.4096 61.1824 23.6126 61.4291C23.8157 61.6759 24.0753 61.87 24.3694 61.9951C24.4492 62.0331 24.5442 61.9153 24.4682 61.8659Z" fill="#A6A6A6"/>
<path d="M25.1104 60.0951C24.9789 59.4561 24.8056 58.8265 24.5917 58.2103C24.5822 58.1856 24.5423 58.2103 24.5442 58.2293C24.6487 59.394 25.2054 60.5435 25.0363 61.7614C25.0363 61.8051 25.0971 61.8184 25.1142 61.7709C25.3365 61.1629 25.2434 60.6575 25.1104 60.0951Z" fill="#A6A6A6"/>
<path d="M22.3668 57.9196C22.5283 57.9196 21.6467 55.1095 21.6391 54.9271C21.6315 54.7447 23.8355 54.644 24.0274 54.8264C24.2193 55.0088 24.7551 57.9367 24.8368 57.9367L22.3668 57.9196Z" fill="#C7C7C7"/>
<path d="M31.6635 68.9225C29.4329 69.122 27.1776 69.0004 24.9432 69.0232C22.7088 69.046 20.463 69.0897 18.2229 68.9434C18.1811 68.9434 18.1811 68.8275 18.2229 68.8275L18.5516 68.8066C18.7416 68.4114 18.9867 68.1701 19.2736 68.0941C19.3648 68.0713 19.5909 68.1739 19.6536 68.1036C19.7163 68.0333 19.6954 67.9706 19.741 67.811C20.0298 66.8116 20.5979 66.861 21.1356 67.0776C20.843 65.7799 21.4472 65.0807 22.1749 64.7976C23.0128 64.4708 23.7975 64.7444 24.1167 66.1029C24.4739 65.6697 24.9261 65.5709 25.3289 65.9129C25.5436 66.0915 25.5835 66.3062 25.8191 66.215C26.0192 66.1102 26.2484 66.0748 26.4708 66.1143C26.7157 66.1918 26.9294 66.3456 27.0807 66.5532C27.2118 66.7204 27.3277 67.0795 27.4607 67.1612C27.6241 67.2619 27.7647 67.0833 27.9376 67.3227C28.0773 67.5506 28.1436 67.8159 28.1276 68.0827C28.6159 67.8091 29.013 67.982 29.4785 68.3468C29.7046 68.5273 29.8984 68.3107 30.1378 68.3905C30.3216 68.4644 30.4749 68.5983 30.5729 68.7705C30.9339 68.7876 31.293 68.8085 31.654 68.8408C31.6939 68.8465 31.6939 68.9206 31.6635 68.9225Z" fill="#FF6F00"/>
<path opacity="0.3" d="M31.6635 68.9225C29.4329 69.122 27.1776 69.0004 24.9432 69.0232C22.7088 69.046 20.463 69.0897 18.2229 68.9434C18.1811 68.9434 18.1811 68.8275 18.2229 68.8275L18.5516 68.8066C18.7416 68.4114 18.9867 68.1701 19.2736 68.0941C19.3648 68.0713 19.5909 68.1739 19.6536 68.1036C19.7163 68.0333 19.6954 67.9706 19.741 67.811C20.0298 66.8116 20.5979 66.861 21.1356 67.0776C20.843 65.7799 21.4472 65.0807 22.1749 64.7976C23.0128 64.4708 23.7975 64.7444 24.1167 66.1029C24.4739 65.6697 24.9261 65.5709 25.3289 65.9129C25.5436 66.0915 25.5835 66.3062 25.8191 66.215C26.0192 66.1102 26.2484 66.0748 26.4708 66.1143C26.7157 66.1918 26.9294 66.3456 27.0807 66.5532C27.2118 66.7204 27.3277 67.0795 27.4607 67.1612C27.6241 67.2619 27.7647 67.0833 27.9376 67.3227C28.0773 67.5506 28.1436 67.8159 28.1276 68.0827C28.6159 67.8091 29.013 67.982 29.4785 68.3468C29.7046 68.5273 29.8984 68.3107 30.1378 68.3905C30.3216 68.4644 30.4749 68.5983 30.5729 68.7705C30.9339 68.7876 31.293 68.8085 31.654 68.8408C31.6939 68.8465 31.6939 68.9206 31.6635 68.9225Z" fill="black"/>
<path d="M50.9447 68.9282L51.0264 71.9644L48.2657 72.9999L50.9447 68.9282Z" fill="#FF6F00"/>
<path d="M56.9354 75.0443L58.064 79.2015L50.217 72.2722L51.0017 71.4305L56.9354 75.0443Z" fill="#FF6F00"/>
<path opacity="0.2" d="M56.9354 75.0443L58.064 79.2015L50.217 72.2722L51.0017 71.4305L56.9354 75.0443Z" fill="black"/>
<path d="M64.4594 78.3427C64.4594 78.3427 66.1276 78.983 67.1631 78.2895C70.3931 76.1387 69.1714 67.1669 67.6305 67.2144C66.0896 67.2619 63.5341 72.2798 63.5341 72.2798L64.4594 78.3427ZM64.7007 77.539L63.9806 72.8175C63.9806 72.8175 66.1428 68.4475 67.3417 68.4019C68.5406 68.3563 69.3215 75.8233 66.804 77.4972C65.9984 78.0349 64.7007 77.539 64.7007 77.539Z" fill="#FF6F00"/>
<path d="M55.3622 81.2668L65.4645 81.2801L63.8381 66.3195L57.3553 66.367L55.3622 81.2668Z" fill="#FF6F00"/>
<path d="M63.8381 66.3195L64.8736 65.2308L56.5877 65.132L57.3553 66.367L63.8381 66.3195Z" fill="#FF6F00"/>
<path opacity="0.2" d="M63.8381 66.3195L64.8736 65.2308L56.5877 65.132L57.3553 66.367L63.8381 66.3195Z" fill="black"/>
<path d="M61.0983 70.7826C57.7011 70.0587 56.5725 75.3426 59.9735 76.0608C63.3745 76.779 64.4993 71.5065 61.0983 70.7826Z" fill="white"/>
<path d="M61.56 73.2279C61.3285 73.8306 60.9913 74.3871 60.5644 74.8714C60.5188 74.9227 59.7341 73.8986 59.5023 73.3856C59.3807 73.1139 59.2135 72.5135 59.4871 72.2627C59.9963 71.7915 60.4162 72.96 60.5625 73.6079C60.6442 72.9011 60.9216 71.5578 61.5695 72.0879C61.8716 72.3349 61.6702 72.96 61.56 73.2279Z" fill="#FF6F00"/>
<path d="M45.8755 86.6628C45.9439 86.6875 45.5601 81.4777 45.5487 81.2839C45.5487 81.2839 41.1787 80.5524 40.1831 80.7975C39.7309 80.9077 36.7992 82.2168 36.7631 82.8039C36.7156 83.5487 38.551 84.9509 40.1983 85.7489C41.6252 86.4386 45.752 86.6191 45.8755 86.6628Z" fill="#A6A6A6"/>
<path d="M47.7679 84.5158C47.7831 84.5158 47.7223 83.41 47.7185 83.3758C47.7185 83.3758 42.7443 82.8058 42.5315 82.8609C42.4346 82.8856 41.8076 83.1782 41.8019 83.3055C41.8019 83.4651 42.1952 83.7596 42.5619 83.9249C42.8621 84.0617 47.7413 84.5082 47.7679 84.5158Z" fill="#DBDBDB"/>
<path d="M53.0309 83.5297C51.1138 83.2922 47.7109 83.3682 47.7109 83.3682L47.7584 84.5177C47.7584 84.5177 51.2582 85.1656 52.8314 85.3784C54.4046 85.5912 54.9461 83.7653 53.0309 83.5297ZM53.1107 84.8597C53.032 84.8446 52.9596 84.8065 52.9028 84.75C52.8459 84.6936 52.8071 84.6215 52.7915 84.543C52.7758 84.4644 52.7839 84.3829 52.8147 84.309C52.8456 84.2351 52.8977 84.172 52.9646 84.1279C53.0315 84.0838 53.11 84.0606 53.1901 84.0613C53.2702 84.062 53.3482 84.0866 53.4143 84.1319C53.4804 84.1772 53.5314 84.2412 53.5609 84.3157C53.5904 84.3902 53.5971 84.4717 53.58 84.55C53.5593 84.654 53.4984 84.7457 53.4106 84.8051C53.3227 84.8645 53.2149 84.8869 53.1107 84.8673V84.8597Z" fill="#FF6F00"/>
</svg>
