<svg width="94" height="93" viewBox="0 0 94 93" fill="none" xmlns="http://www.w3.org/2000/svg">
<g clip-path="url(#clip0_150_16)">
<path d="M46.0223 43.9983L49.1834 44.8291C49.4231 44.892 49.6353 45.0326 49.7867 45.2288C49.9381 45.425 50.0202 45.6658 50.0203 45.9136V55.1382H44.1769V45.3994C44.1769 45.3994 44.3995 44.0941 46.0223 43.9983Z" fill="#455A64"/>
<path d="M48.2568 44.8731H48.2275L48.1412 44.8783C48.033 44.8871 47.9255 44.9032 47.8194 44.9266C47.6518 44.9639 47.4896 45.0218 47.3363 45.0992C47.1334 45.199 46.9563 45.3443 46.8186 45.5236C46.7797 45.5746 46.7454 45.6289 46.716 45.6858C46.6846 45.745 46.6583 45.8068 46.6374 45.8705C46.6269 45.9033 46.6183 45.9367 46.6116 45.9705C46.6023 46.0042 46.5957 46.0385 46.5917 46.0732C46.5818 46.1452 46.5772 46.2179 46.5779 46.2906C46.5779 46.5891 46.5779 46.9075 46.5779 47.2396C46.5779 47.9109 46.5779 48.6485 46.5779 49.4224C46.5779 50.9702 46.5727 52.3713 46.571 53.3911C46.571 53.8967 46.5658 54.3065 46.5641 54.5938C46.5641 54.7335 46.5641 54.8431 46.5641 54.9199C46.5641 54.9561 46.5641 54.9837 46.5641 55.0062C46.5641 55.0286 46.5641 55.0355 46.5641 55.0355C46.563 55.0257 46.563 55.0159 46.5641 55.0062C46.5641 54.9846 46.5641 54.957 46.5641 54.9199C46.5641 54.8431 46.5641 54.7335 46.5598 54.5938C46.5598 54.3065 46.5598 53.8967 46.5529 53.3911C46.5529 52.3739 46.5486 50.9754 46.5469 49.4224C46.5469 48.6459 46.5469 47.9109 46.5469 47.2396C46.5469 46.904 46.5469 46.5848 46.5469 46.2906C46.5466 46.2165 46.5515 46.1424 46.5615 46.0689C46.5661 46.033 46.5733 45.9976 46.5831 45.9628C46.5901 45.928 46.5993 45.8937 46.6107 45.8601C46.6339 45.7947 46.6628 45.7315 46.697 45.6712C46.7276 45.613 46.7631 45.5576 46.8031 45.5055C46.9456 45.3222 47.1287 45.1746 47.338 45.0741C47.4937 44.9972 47.6587 44.9407 47.8289 44.9059C47.9358 44.8841 48.0443 44.8708 48.1533 44.8662H48.2396C48.2455 44.8682 48.2512 44.8705 48.2568 44.8731Z" fill="#263238"/>
<path d="M12.1584 55.1157L12.7476 56.4038H15.5291L16.0451 55.1157H12.1584Z" fill="#455A64"/>
<path opacity="0.3" d="M12.1584 55.1157L12.3758 55.5894H15.8553L16.0451 55.1157H12.1584Z" fill="black"/>
<path d="M44.6151 55.1157L45.2044 56.4038H47.9859L48.5018 55.1157H44.6151Z" fill="#455A64"/>
<path opacity="0.3" d="M44.6151 55.1157L44.8317 55.5894H48.312L48.5018 55.1157H44.6151Z" fill="black"/>
<path d="M15.5291 43.9758L12.368 44.8058C12.1284 44.8689 11.9165 45.0095 11.7653 45.2057C11.614 45.4018 11.532 45.6426 11.532 45.8903V55.1157H17.3754V45.3761C17.3754 45.3761 17.1528 44.0707 15.5291 43.9758Z" fill="#455A64"/>
<path d="M15.5291 41.8388V43.9759C15.5291 43.9759 17.1847 44.4849 17.3754 45.7583V47.7288L31.151 47.7754V42.0554C31.1512 41.9302 31.1037 41.8096 31.0181 41.7182C30.9325 41.6268 30.8153 41.5715 30.6903 41.5636C28.5006 41.4264 19.1415 40.8734 16.0554 41.247C15.9105 41.2643 15.777 41.334 15.68 41.4431C15.583 41.5521 15.5294 41.6929 15.5291 41.8388Z" fill="#455A64"/>
<path d="M31.151 42.2167V47.778L44.4236 47.8272C44.4236 47.8272 44.0785 45.3036 46.0223 43.9983L46.1034 40.92C46.1034 40.92 39.2937 41.5239 37.9935 41.6525C36.953 41.7543 33.1785 41.6525 31.7247 41.611C31.647 41.6121 31.5703 41.6288 31.499 41.66C31.4278 41.6912 31.3636 41.7364 31.3101 41.7929C31.2566 41.8493 31.215 41.9159 31.1877 41.9887C31.1604 42.0615 31.1479 42.139 31.151 42.2167Z" fill="#455A64"/>
<path d="M45.4805 47.8272C45.6159 48.0135 46.5158 48.6192 46.5158 48.6192H14.9571L17.3728 47.7314L45.4805 47.8272Z" fill="#455A64"/>
<path d="M46.5124 51.5085H15.5291V55.1149H46.5124V51.5085Z" fill="#455A64"/>
<path d="M46.5124 48.6192H14.9934V51.5086H46.5124V48.6192Z" fill="#455A64"/>
<path d="M46.5124 51.5086C46.5124 51.4447 46.5095 50.4816 46.5037 48.6192L46.5124 48.6278L14.9951 48.6416L15.0175 48.6192V51.5086L14.9951 51.4861L37.3758 51.4956L46.5141 51.5086L37.3905 51.5249L14.9934 51.5344H14.9709V48.6011H14.9951L46.5124 48.614H46.5253V48.6235C46.5173 50.4836 46.5129 51.4453 46.5124 51.5086Z" fill="#263238"/>
<path d="M46.5123 48.6192L46.4787 48.6054L46.3786 48.564L45.9887 48.3914L44.4857 47.7374L30.7455 47.7487L17.3728 47.7383H17.3771L15.5895 48.3888L15.1176 48.5614L14.9959 48.6036L14.9545 48.6174L14.9951 48.6011L15.115 48.5545L15.5852 48.3819L17.3685 47.721L30.7412 47.7107L44.4814 47.7219H44.4866L45.9843 48.3854L46.3726 48.5579L46.4709 48.6028L46.5123 48.6192Z" fill="#263238"/>
<path d="M31.151 47.778C31.1584 47.7971 31.1627 47.8172 31.164 47.8375C31.17 47.8824 31.1778 47.9385 31.1873 48.0101C31.2054 48.1576 31.2356 48.363 31.2545 48.6244C31.2545 48.9393 31.2545 49.3146 31.2589 49.7261C31.2589 50.5544 31.2528 51.2618 31.2442 51.5379H31.2287C31.2279 51.4926 31.2305 51.4473 31.2364 51.4024C31.2429 51.4473 31.2455 51.4926 31.2442 51.5379H31.2287C31.22 51.261 31.214 50.5535 31.214 49.7261C31.214 49.318 31.214 48.9393 31.2183 48.6244C31.2028 48.3759 31.1778 48.1611 31.1665 48.0161C31.1605 47.9471 31.1562 47.891 31.1527 47.8436C31.1497 47.8219 31.1491 47.7999 31.151 47.778Z" fill="#263238"/>
<path d="M17.3754 47.7288C17.3734 47.7122 17.3734 47.6954 17.3754 47.6788C17.3754 47.6408 17.3754 47.5925 17.3754 47.5356C17.3754 47.4053 17.3754 47.2267 17.3754 47.0093C17.3754 46.7919 17.3754 46.5227 17.3711 46.2328C17.3711 46.0862 17.3651 45.9326 17.3547 45.773C17.3444 45.6134 17.3357 45.4486 17.3099 45.2829C17.2625 44.9702 17.1239 44.6785 16.9113 44.4443C16.7234 44.2671 16.4922 44.1424 16.2409 44.0828C16.0712 44.039 15.898 44.0102 15.7232 43.9966C15.5999 43.9853 15.5309 43.9828 15.5309 43.9793C15.5475 43.9773 15.5643 43.9773 15.5809 43.9793C15.6137 43.9793 15.662 43.9793 15.7241 43.9793C15.9005 43.9872 16.0756 44.0126 16.2469 44.0552C16.5052 44.1123 16.7435 44.2374 16.9371 44.4176C17.1583 44.6572 17.3023 44.9578 17.3504 45.2803C17.3771 45.4529 17.3858 45.6151 17.3953 45.7747C17.4048 45.9343 17.4073 46.0896 17.4091 46.2363C17.4091 46.5305 17.4091 46.7953 17.4039 47.0179C17.3987 47.2405 17.3935 47.42 17.3892 47.5433C17.3892 47.602 17.384 47.6495 17.3815 47.6866C17.381 47.7008 17.379 47.715 17.3754 47.7288Z" fill="#263238"/>
<path d="M13.2955 44.8507C13.3049 44.8494 13.3145 44.8494 13.3239 44.8507H13.4102C13.5195 44.8561 13.6282 44.8697 13.7355 44.8913C13.9053 44.9258 14.07 44.9821 14.2255 45.0586C14.4348 45.1591 14.6179 45.3068 14.7604 45.49C14.8008 45.5422 14.8363 45.5979 14.8665 45.6565C14.9011 45.7167 14.93 45.78 14.9528 45.8455C14.9647 45.8789 14.974 45.9132 14.9804 45.9481C14.9903 45.9829 14.9975 46.0184 15.002 46.0543C15.0124 46.1277 15.0176 46.2018 15.0175 46.276C15.0175 46.5745 15.0175 46.8929 15.0175 47.225C15.0175 47.8962 15.0175 48.6339 15.0175 49.4087C15.0175 50.9564 15.0124 52.3575 15.0106 53.3773C15.0106 53.8829 15.0054 54.2927 15.0037 54.5791C15.0037 54.7189 15.0037 54.8285 14.9994 54.9061C14.9994 54.9415 14.9994 54.97 14.9994 54.9924C15.0005 55.0019 15.0005 55.0114 14.9994 55.0209C14.9983 55.0114 14.9983 55.0019 14.9994 54.9924C14.9994 54.9708 14.9994 54.9424 14.9994 54.9061C14.9994 54.8285 14.9994 54.7189 14.9951 54.5791C14.9951 54.2927 14.9951 53.8829 14.9882 53.3773C14.9882 52.3601 14.9839 50.9616 14.9813 49.4087C14.9813 48.6322 14.9813 47.8962 14.9813 47.225C14.9813 46.8903 14.9813 46.5711 14.9813 46.276C14.9818 46.2036 14.9775 46.1313 14.9684 46.0594C14.964 46.0245 14.9571 45.9899 14.9476 45.9559C14.9417 45.9219 14.933 45.8885 14.9218 45.8558C14.9011 45.7924 14.8748 45.7309 14.8433 45.6721C14.8144 45.615 14.7803 45.5607 14.7414 45.5099C14.6033 45.3307 14.4263 45.1853 14.2238 45.0845C14.0706 45.0077 13.9087 44.9498 13.7415 44.912C13.6352 44.8888 13.5274 44.8729 13.4188 44.8645L13.3326 44.8594C13.3199 44.8581 13.3074 44.8552 13.2955 44.8507Z" fill="#263238"/>
<path d="M11.5725 55.0994C14.4653 55.0994 43.6195 55.1158 46.514 55.1158Z" fill="#455A64"/>
<path d="M46.5123 55.1158C46.5123 55.1279 38.6906 55.1339 29.0433 55.1296C19.396 55.1253 11.5725 55.1115 11.5725 55.0994C11.5725 55.0873 19.3934 55.0804 29.0433 55.0847C38.6932 55.089 46.5123 55.1028 46.5123 55.1158Z" fill="#263238"/>
<path d="M18.6298 49.7994C18.6103 49.7461 18.6 49.6897 18.5997 49.6329C18.5887 49.4969 18.5916 49.3602 18.6083 49.2248C18.6239 49.0897 18.6528 48.9565 18.6946 48.8271C18.7093 48.7723 18.7326 48.7202 18.7636 48.6727C18.7765 48.6778 18.6859 48.9186 18.6497 49.2309C18.6135 49.5432 18.6437 49.7994 18.6298 49.7994Z" fill="#263238"/>
<path d="M19.1242 50.2947C19.0935 50.2205 19.0721 50.1429 19.0604 50.0635C19.0218 49.8747 18.9958 49.6836 18.9827 49.4914C18.9695 49.299 18.9695 49.1059 18.9827 48.9134C18.9846 48.8334 18.9953 48.7538 19.0147 48.6761C19.0207 48.7554 19.0207 48.835 19.0147 48.9143C19.0147 49.0618 19.0147 49.2645 19.0259 49.488C19.0371 49.7115 19.0673 49.9125 19.0897 50.0583C19.1066 50.1362 19.1181 50.2152 19.1242 50.2947Z" fill="#263238"/>
<path d="M31.1355 47.8393C31.1226 47.8393 31.1131 46.5348 31.1131 44.9258C31.1131 43.3168 31.1226 42.0123 31.1355 42.0123C31.1484 42.0123 31.1579 43.3168 31.1579 44.9258C31.1579 46.5348 31.1476 47.8393 31.1355 47.8393Z" fill="#263238"/>
<path d="M17.8447 43.0984C17.7915 43.1579 17.7338 43.2133 17.6722 43.2641C17.5652 43.3642 17.4211 43.5074 17.2736 43.6756C17.1261 43.8439 17.0044 44.0061 16.9199 44.1251C16.8774 44.1926 16.8302 44.2569 16.7784 44.3175C16.8081 44.2433 16.8467 44.1729 16.8931 44.1079C16.9968 43.9456 17.1121 43.791 17.2382 43.6454C17.3648 43.5004 17.502 43.3652 17.6489 43.2408C17.7083 43.1857 17.774 43.1379 17.8447 43.0984Z" fill="#263238"/>
<path d="M17.5212 44.2399C17.4378 44.2864 17.3475 44.3193 17.2538 44.3374C17.1637 44.3702 17.0691 44.3885 16.9734 44.3917C17.0571 44.3453 17.1476 44.3123 17.2417 44.2942C17.3317 44.2624 17.4259 44.2441 17.5212 44.2399Z" fill="#263238"/>
<path d="M26.8209 44.4409C26.8403 44.4291 26.8628 44.4234 26.8856 44.4245C26.9474 44.4231 27.008 44.4419 27.0581 44.478C27.0974 44.5048 27.1288 44.5417 27.149 44.5848C27.1692 44.6279 27.1774 44.6757 27.1729 44.723C27.1691 44.7819 27.1473 44.8382 27.1102 44.8841C27.0732 44.9301 27.0229 44.9634 26.9661 44.9796C26.9094 44.9958 26.849 44.994 26.7934 44.9744C26.7377 44.9549 26.6894 44.9186 26.6552 44.8706C26.6266 44.8325 26.6087 44.7875 26.6032 44.7402C26.5978 44.6929 26.605 44.645 26.6242 44.6014C26.648 44.5435 26.6905 44.4952 26.7449 44.4642C26.7639 44.4515 26.786 44.4443 26.8088 44.4435C26.8088 44.4435 26.7872 44.4547 26.7544 44.4789C26.7083 44.5126 26.6734 44.5595 26.6544 44.6135C26.6393 44.6516 26.6344 44.693 26.6404 44.7336C26.6463 44.7741 26.6627 44.8124 26.688 44.8447C26.7176 44.8855 26.759 44.9162 26.8066 44.9327C26.8542 44.9492 26.9057 44.9507 26.9542 44.937C27.0027 44.9232 27.0457 44.8949 27.0776 44.8559C27.1095 44.8168 27.1286 44.769 27.1323 44.7187C27.1367 44.6779 27.1304 44.6367 27.1141 44.599C27.0977 44.5614 27.0719 44.5286 27.0391 44.5039C26.9945 44.468 26.9401 44.4464 26.883 44.4418C26.845 44.4392 26.8217 44.4444 26.8209 44.4409Z" fill="#263238"/>
<path d="M27.7837 44.2977C27.6509 44.3075 27.5214 44.3432 27.4023 44.4029C27.2899 44.4751 27.1924 44.5683 27.1151 44.6773C27.1211 44.6363 27.1377 44.5976 27.1634 44.5651C27.2187 44.482 27.2929 44.4131 27.3799 44.3641C27.4663 44.3145 27.5634 44.2864 27.6629 44.2821C27.7038 44.2762 27.7456 44.2816 27.7837 44.2977Z" fill="#263238"/>
<path d="M27.3463 45.2683C27.3333 45.2683 27.3014 45.1708 27.2281 45.0673C27.1547 44.9637 27.0728 44.8947 27.0805 44.887C27.1586 44.9146 27.2241 44.9694 27.2652 45.0414C27.3181 45.1051 27.3468 45.1855 27.3463 45.2683Z" fill="#263238"/>
<path d="M26.6699 44.6566C26.6621 44.6566 26.6492 44.6161 26.6121 44.5574C26.5639 44.4817 26.4987 44.4184 26.4217 44.3724C26.3447 44.3264 26.2581 44.2991 26.1686 44.2925C26.0996 44.2925 26.0556 44.2968 26.0539 44.2925C26.0885 44.2719 26.1284 44.262 26.1686 44.2641C26.2657 44.2622 26.3613 44.2876 26.4446 44.3375C26.5279 44.3874 26.5955 44.4597 26.6397 44.5462C26.66 44.5794 26.6705 44.6177 26.6699 44.6566Z" fill="#263238"/>
<path d="M21.1327 44.4409C21.1522 44.4291 21.1747 44.4234 21.1974 44.4245C21.2593 44.4228 21.3199 44.4416 21.37 44.478C21.4094 44.5048 21.4409 44.5416 21.4612 44.5847C21.4816 44.6278 21.49 44.6756 21.4856 44.723C21.4818 44.7819 21.46 44.8382 21.4229 44.8841C21.3859 44.9301 21.3356 44.9634 21.2789 44.9796C21.2221 44.9958 21.1618 44.994 21.1061 44.9744C21.0504 44.9549 21.0021 44.9186 20.9679 44.8706C20.9393 44.8325 20.9214 44.7875 20.9159 44.7402C20.9105 44.6929 20.9177 44.645 20.9369 44.6014C20.9604 44.5433 21.003 44.4949 21.0577 44.4642C21.0763 44.4516 21.0981 44.4444 21.1206 44.4435C21.1206 44.4435 21.0999 44.4547 21.0671 44.4789C21.0209 44.5128 20.9858 44.5596 20.9662 44.6135C20.9515 44.6517 20.947 44.6931 20.953 44.7336C20.959 44.7741 20.9755 44.8124 21.0007 44.8447C21.0301 44.8856 21.0714 44.9165 21.119 44.9331C21.1666 44.9497 21.2182 44.9512 21.2667 44.9375C21.3152 44.9237 21.3582 44.8953 21.39 44.8561C21.4218 44.817 21.4407 44.769 21.4442 44.7187C21.4489 44.6779 21.4428 44.6365 21.4264 44.5988C21.4101 44.5611 21.384 44.5283 21.351 44.5039C21.3067 44.468 21.2525 44.4463 21.1957 44.4418C21.1603 44.4392 21.1336 44.4444 21.1327 44.4409Z" fill="#263238"/>
<path d="M22.0956 44.2977C21.9614 44.3005 21.83 44.3367 21.7133 44.403C21.5966 44.4693 21.4982 44.5635 21.4269 44.6773C21.4218 44.6773 21.4338 44.629 21.4753 44.5651C21.5306 44.482 21.6048 44.4131 21.6918 44.3641C21.7782 44.3145 21.8753 44.2864 21.9748 44.2821C22.0157 44.2762 22.0575 44.2816 22.0956 44.2977Z" fill="#263238"/>
<path d="M21.6573 45.2683C21.6443 45.2683 21.6133 45.1708 21.5399 45.0673C21.4666 44.9637 21.3846 44.8947 21.3916 44.887C21.47 44.9144 21.5358 44.9693 21.577 45.0414C21.6302 45.105 21.6586 45.1855 21.6573 45.2683Z" fill="#263238"/>
<path d="M20.9809 44.6566C20.974 44.6566 20.9602 44.6161 20.9239 44.5574C20.8755 44.4818 20.8101 44.4185 20.733 44.3726C20.6559 44.3266 20.5691 44.2992 20.4796 44.2925C20.4106 44.2925 20.3674 44.2968 20.3657 44.2925C20.4003 44.2719 20.4403 44.262 20.4805 44.2641C20.5775 44.2622 20.6732 44.2876 20.7565 44.3375C20.8398 44.3874 20.9074 44.4597 20.9515 44.5462C20.9878 44.6092 20.9878 44.6557 20.9809 44.6566Z" fill="#263238"/>
<path d="M40.7612 44.4797C40.7811 44.4682 40.8039 44.4625 40.8268 44.4633C40.8886 44.4617 40.9493 44.4805 40.9994 44.5168C41.0387 44.5436 41.0702 44.5805 41.0905 44.6236C41.1108 44.6666 41.1193 44.7144 41.115 44.7618C41.1112 44.8207 41.0894 44.877 41.0523 44.9229C41.0153 44.9689 40.965 45.0022 40.9082 45.0184C40.8515 45.0345 40.7911 45.0327 40.7355 45.0132C40.6798 44.9937 40.6315 44.9574 40.5973 44.9093C40.5685 44.8714 40.5504 44.8264 40.5449 44.779C40.5394 44.7316 40.5468 44.6837 40.5663 44.6402C40.5896 44.5822 40.6318 44.5338 40.6862 44.503C40.7052 44.4904 40.7273 44.4832 40.75 44.4823C40.75 44.4823 40.7293 44.4935 40.6957 44.5176C40.6498 44.5517 40.615 44.5985 40.5956 44.6522C40.5806 44.6904 40.576 44.7319 40.582 44.7724C40.5881 44.813 40.6046 44.8513 40.6301 44.8835C40.6595 44.9244 40.7008 44.9553 40.7484 44.9719C40.796 44.9885 40.8476 44.99 40.8961 44.9762C40.9446 44.9625 40.9876 44.9341 41.0194 44.8949C41.0512 44.8558 41.0701 44.8078 41.0736 44.7575C41.0783 44.7167 41.0722 44.6753 41.0558 44.6376C41.0394 44.5999 41.0134 44.5671 40.9804 44.5427C40.9359 44.5066 40.8814 44.4849 40.8242 44.4805C40.7854 44.478 40.7621 44.484 40.7612 44.4797Z" fill="#263238"/>
<path d="M41.7249 44.3365C41.5908 44.3398 41.4596 44.3762 41.343 44.4424C41.2263 44.5086 41.1278 44.6026 41.0563 44.7161C41.0511 44.7161 41.0632 44.6678 41.1046 44.6039C41.1596 44.5208 41.2335 44.4519 41.3203 44.4029C41.4072 44.3537 41.5044 44.3256 41.6041 44.3209C41.645 44.3156 41.6867 44.3209 41.7249 44.3365Z" fill="#263238"/>
<path d="M41.2867 45.3071C41.2737 45.3071 41.2427 45.2096 41.1693 45.106C41.096 45.0025 41.0132 44.9335 41.0209 44.9257C41.0951 44.9599 41.1589 45.0132 41.2056 45.0803C41.2523 45.1473 41.2803 45.2256 41.2867 45.3071Z" fill="#263238"/>
<path d="M40.6103 44.6954C40.6034 44.6954 40.5896 44.6557 40.5533 44.5971C40.5051 44.5212 40.4398 44.4577 40.3627 44.4116C40.2854 44.3657 40.1986 44.3383 40.109 44.3314C40.04 44.327 39.9968 44.3314 39.9951 44.3314C40.0297 44.3108 40.0697 44.3012 40.1099 44.3037C40.2068 44.3018 40.3024 44.3271 40.3857 44.3768C40.469 44.4266 40.5366 44.4987 40.5809 44.585C40.6128 44.6488 40.6154 44.6946 40.6103 44.6954Z" fill="#263238"/>
<path d="M35.0731 44.4797C35.0926 44.4681 35.1151 44.4624 35.1378 44.4633C35.1996 44.4619 35.2602 44.4806 35.3104 44.5168C35.3496 44.5437 35.381 44.5806 35.4011 44.6237C35.4213 44.6667 35.4296 44.7144 35.4251 44.7618C35.4214 44.8207 35.3995 44.877 35.3625 44.9229C35.3255 44.9689 35.2751 45.0022 35.2184 45.0184C35.1616 45.0345 35.1013 45.0327 35.0456 45.0132C34.9899 44.9937 34.9417 44.9574 34.9075 44.9093C34.8789 44.8712 34.8611 44.8262 34.8558 44.7789C34.8505 44.7315 34.8579 44.6836 34.8773 44.6402C34.9006 44.5822 34.9428 44.5338 34.9972 44.503C35.0161 44.4903 35.0382 44.4831 35.061 44.4823C35.061 44.4823 35.0395 44.4935 35.0067 44.5176C34.9605 44.5514 34.9256 44.5983 34.9066 44.6522C34.8915 44.6904 34.8867 44.7318 34.8926 44.7723C34.8985 44.8129 34.9149 44.8512 34.9402 44.8835C34.9698 44.9243 35.0112 44.955 35.0588 44.9715C35.1064 44.988 35.1579 44.9895 35.2064 44.9758C35.2549 44.962 35.298 44.9337 35.3298 44.8947C35.3617 44.8556 35.3808 44.8077 35.3846 44.7575C35.3891 44.7167 35.3829 44.6754 35.3666 44.6377C35.3502 44.6 35.3243 44.5672 35.2914 44.5427C35.2468 44.5067 35.1923 44.4851 35.1352 44.4805C35.0973 44.478 35.074 44.484 35.0731 44.4797Z" fill="#263238"/>
<path d="M36.0368 44.3365C35.9036 44.3462 35.7737 44.3823 35.6546 44.4426C35.5421 44.5144 35.4445 44.6073 35.3673 44.7161C35.3735 44.6752 35.3901 44.6365 35.4156 44.6039C35.4708 44.5213 35.5446 44.4526 35.631 44.4035C35.7174 44.3544 35.8141 44.3261 35.9134 44.3209C35.9552 44.3153 35.9977 44.3207 36.0368 44.3365Z" fill="#263238"/>
<path d="M35.5985 45.3071C35.5856 45.3071 35.5537 45.2096 35.4803 45.106C35.407 45.0025 35.325 44.9335 35.3328 44.9257C35.4109 44.9534 35.4764 45.0082 35.5174 45.0802C35.5704 45.1439 35.5991 45.2242 35.5985 45.3071Z" fill="#263238"/>
<path d="M34.9221 44.6954C34.9144 44.6954 34.9014 44.6557 34.8643 44.597C34.8167 44.521 34.7516 44.4574 34.6745 44.4115C34.5972 44.3657 34.5105 44.3382 34.4209 44.3313C34.3518 44.327 34.3078 44.3313 34.3061 44.3313C34.3408 44.311 34.3807 44.3014 34.4209 44.3037C34.518 44.3016 34.6138 44.3268 34.6972 44.3765C34.7807 44.4263 34.8485 44.4985 34.8928 44.5849C34.9127 44.6183 34.9228 44.6566 34.9221 44.6954Z" fill="#263238"/>
<path d="M46.0723 43.9025C46.0723 43.9025 46.0629 43.9155 46.0422 43.9353L45.9472 44.0216C45.9058 44.0578 45.8549 44.1027 45.8006 44.1596C45.7462 44.2166 45.6798 44.2752 45.616 44.3512L45.5124 44.4659C45.477 44.5065 45.4443 44.5522 45.408 44.597C45.333 44.6833 45.2639 44.7886 45.1889 44.8956C44.8743 45.3667 44.6483 45.8912 44.522 46.4433C44.4961 46.571 44.4685 46.6918 44.4547 46.8074C44.4469 46.8644 44.4374 46.9196 44.4323 46.9731C44.4271 47.0266 44.4236 47.0783 44.4193 47.1275C44.4081 47.2259 44.4098 47.3147 44.4072 47.3932C44.4038 47.4602 44.4038 47.5273 44.4072 47.5943V47.7219C44.4085 47.7369 44.4085 47.7519 44.4072 47.7668C44.4026 47.7523 44.4003 47.7372 44.4003 47.7219C44.4003 47.6883 44.3934 47.646 44.3891 47.5951C44.3826 47.528 44.38 47.4606 44.3814 47.3932C44.3814 47.3147 44.3814 47.2207 44.3865 47.1249C44.39 47.0754 44.3934 47.0237 44.3969 46.9696C44.3969 46.9153 44.4098 46.86 44.4167 46.8022C44.4288 46.6858 44.4555 46.5633 44.4806 46.4338C44.6037 45.8752 44.8324 45.3452 45.1544 44.8723C45.2303 44.7653 45.301 44.6618 45.3778 44.5737C45.4149 44.5289 45.4494 44.4875 45.4857 44.4435L45.5918 44.3287C45.6574 44.2545 45.7255 44.1959 45.7825 44.1406C45.831 44.0939 45.8819 44.0499 45.9352 44.0086L46.0353 43.9293C46.0466 43.919 46.059 43.9101 46.0723 43.9025Z" fill="#263238"/>
<path d="M45.496 42.2677C45.4883 42.2677 45.5081 42.1814 45.496 42.0468C45.4779 41.871 45.4007 41.7065 45.2771 41.5803C45.1535 41.454 44.9907 41.3733 44.8153 41.3514C44.6807 41.3324 44.5962 41.3514 44.5945 41.3419C44.6127 41.3326 44.6327 41.327 44.6531 41.3255C44.7079 41.3168 44.7635 41.3148 44.8188 41.3195C45.0045 41.3342 45.1786 41.4158 45.3088 41.549C45.4391 41.6823 45.5166 41.8582 45.5271 42.0442C45.531 42.0993 45.5278 42.1547 45.5176 42.209C45.5146 42.2298 45.5072 42.2498 45.496 42.2677Z" fill="#263238"/>
<path d="M45.6021 43.2149C45.5796 43.1089 45.572 43.0003 45.5797 42.8923C45.572 42.7842 45.5795 42.6755 45.6021 42.5696C45.6242 42.6756 45.6318 42.7842 45.6246 42.8923C45.6317 43.0003 45.6242 43.1089 45.6021 43.2149Z" fill="#263238"/>
<path d="M38.3878 44.6229C38.3472 44.5388 38.3114 44.4524 38.2808 44.3641C38.1969 44.1573 38.1007 43.9556 37.9927 43.7602C37.8839 43.5668 37.7641 43.3798 37.6337 43.2003C37.5755 43.1288 37.5216 43.0539 37.4724 42.976C37.4724 42.976 37.494 42.9915 37.5268 43.0269C37.5596 43.0622 37.6053 43.1131 37.6588 43.1813C37.7981 43.3564 37.923 43.5425 38.0323 43.7378C38.1413 43.9334 38.2345 44.1373 38.311 44.3477C38.3395 44.4288 38.3602 44.4953 38.3723 44.5419C38.3819 44.5678 38.3872 44.5952 38.3878 44.6229Z" fill="#263238"/>
<path d="M38.292 43.3073C38.2585 43.1719 38.2397 43.0334 38.236 42.894C38.2178 42.7559 38.2143 42.6162 38.2256 42.4773C38.2585 42.6127 38.277 42.7512 38.2808 42.8906C38.299 43.0287 38.3028 43.1683 38.292 43.3073Z" fill="#263238"/>
<g opacity="0.3">
<path d="M44.1864 51.5715C34.9115 52.0848 25.6148 52.0609 16.3427 51.4999L44.1864 51.5715Z" fill="black"/>
</g>
<g opacity="0.3">
<path d="M31.7394 48.0196C31.6801 47.9711 31.6104 47.9368 31.5358 47.9195C31.1113 47.7944 30.6385 47.7978 30.2676 47.5571C29.9846 47.3734 29.8017 47.0731 29.6352 46.7806C29.1267 45.8837 28.676 44.9552 28.2858 44.0009L27.8674 44.7903C27.5993 45.6161 27.3764 46.456 27.1996 47.3061C27.1642 47.4786 27.1323 47.6615 27.2082 47.8177C27.3006 48.0092 27.5223 48.0955 27.7259 48.1576C28.968 48.5306 30.2811 48.6025 31.5565 48.3673C31.6531 48.3491 31.7636 48.3181 31.7998 48.2275C31.8107 48.1907 31.8109 48.1515 31.8002 48.1147C31.7894 48.0778 31.7684 48.0448 31.7394 48.0196Z" fill="black"/>
</g>
<path d="M33.1923 48.306C31.3399 48.5519 29.5937 48.4587 27.9968 47.8928C27.6456 45.9731 27.8449 44.4029 28.4092 42.6973C30.0027 42.6188 31.748 42.7758 33.6055 43.1105C33.7859 44.8531 33.6459 46.6139 33.1923 48.306Z" fill="#FF6F00"/>
<path d="M32.7971 44.7394C32.7703 44.7775 32.7399 44.813 32.7066 44.8455C32.6772 44.8791 32.6393 44.9197 32.5935 44.9637C32.5478 45.0077 32.4969 45.0612 32.4356 45.1138C32.2962 45.241 32.1499 45.3606 31.9974 45.4719C31.8101 45.6073 31.6148 45.7312 31.4124 45.8428C31.2088 45.9528 30.9988 46.0504 30.7835 46.1353C30.6074 46.2029 30.4277 46.2605 30.2451 46.3079C30.0898 46.3493 29.9621 46.3769 29.8733 46.3941C29.8279 46.4043 29.7817 46.4104 29.7352 46.4123C29.7791 46.3969 29.8241 46.3851 29.8698 46.3769C29.9561 46.357 30.0829 46.3251 30.2374 46.2803C30.3918 46.2354 30.5712 46.1741 30.7679 46.0965C31.1959 45.9271 31.6015 45.706 31.9758 45.4382C32.1483 45.3148 32.2976 45.1958 32.4175 45.0931C32.4796 45.0413 32.5314 44.9913 32.578 44.9482C32.6246 44.905 32.6643 44.8679 32.6971 44.836C32.7275 44.8009 32.761 44.7685 32.7971 44.7394Z" fill="#263238"/>
<path d="M32.1026 46.2285C31.6613 46.2912 31.2163 46.324 30.7705 46.3269C30.9901 46.2881 31.2121 46.2642 31.4349 46.2553C31.6566 46.2308 31.8797 46.2219 32.1026 46.2285Z" fill="#263238"/>
<path d="M31.0207 42.825C31.0268 42.8362 30.3435 43.2037 29.4945 43.6455C28.6456 44.0872 27.9536 44.4357 27.9476 44.4219C27.9416 44.4081 28.6249 44.0441 29.4738 43.6015C30.3228 43.1589 31.0147 42.8112 31.0207 42.825Z" fill="white"/>
<path d="M33.6375 43.4858C33.6194 43.4982 33.6 43.5086 33.5797 43.5168L33.4071 43.5962L32.779 43.8844C32.2493 44.1277 31.5194 44.4667 30.7188 44.855C29.9181 45.2432 29.1986 45.6047 28.6784 45.8696L28.0624 46.1827L27.895 46.269C27.8758 46.2796 27.8555 46.2883 27.8346 46.2949C27.8525 46.2821 27.8712 46.2706 27.8907 46.2604L28.0546 46.1689C28.197 46.0904 28.4049 45.9783 28.6628 45.8428C29.1805 45.5702 29.8966 45.2035 30.6981 44.8161C31.4996 44.4288 32.2321 44.0932 32.7687 43.8568C33.0353 43.7386 33.2518 43.6454 33.4028 43.5815L33.5754 43.5099C33.5956 43.5008 33.6164 43.4927 33.6375 43.4858Z" fill="white"/>
<path d="M33.4209 46.0473C33.4045 46.0574 33.3875 46.0667 33.37 46.0749L33.2216 46.1457C33.0922 46.2069 32.9033 46.2915 32.6677 46.3924C32.1984 46.5952 31.541 46.8566 30.8016 47.1094C30.0622 47.3621 29.3815 47.5545 28.8863 47.6814C28.6378 47.7452 28.4368 47.7935 28.297 47.8237L28.1357 47.8582C28.1171 47.8636 28.098 47.8668 28.0787 47.8677C28.0965 47.8598 28.115 47.8537 28.134 47.8496L28.2927 47.8073L28.8776 47.6512C29.3711 47.5166 30.0484 47.3181 30.7869 47.0662C31.5254 46.8143 32.1829 46.5581 32.6556 46.3631L33.2147 46.1293L33.3666 46.0663C33.3838 46.0578 33.4021 46.0514 33.4209 46.0473Z" fill="white"/>
<path d="M33.3769 47.7142C33.3211 47.7637 33.2601 47.8071 33.1949 47.8436C33.0417 47.9377 32.8826 48.0218 32.7186 48.0955C32.5547 48.169 32.3861 48.2315 32.2139 48.2827C32.1436 48.3078 32.0707 48.3246 31.9965 48.3328C32.0634 48.3 32.1329 48.2732 32.2044 48.2525C32.333 48.2068 32.5099 48.1395 32.7005 48.0541C32.8912 47.9687 33.0586 47.8815 33.1785 47.816C33.2415 47.7762 33.3079 47.7421 33.3769 47.7142Z" fill="white"/>
<path d="M27.989 47.9186C27.9898 47.9008 27.9927 47.8831 27.9976 47.866C28.0063 47.828 28.0166 47.7797 28.0296 47.7185C28.0598 47.5908 28.1003 47.4053 28.1469 47.1758C28.2676 46.5769 28.3575 45.9721 28.4161 45.364C28.4722 44.7563 28.4972 44.1461 28.4911 43.5358C28.4911 43.302 28.4834 43.1122 28.4773 42.9811C28.4773 42.9198 28.4773 42.8698 28.4773 42.8301C28.4758 42.8126 28.4758 42.795 28.4773 42.7775C28.4821 42.7946 28.4847 42.8123 28.4851 42.8301C28.4885 42.8692 28.4929 42.9192 28.498 42.9802C28.5084 43.1114 28.5187 43.3012 28.5248 43.535C28.5581 44.7592 28.4422 45.983 28.1797 47.1792C28.1288 47.4087 28.0839 47.5925 28.0485 47.7193L28.008 47.8651C28.004 47.8837 27.9977 47.9017 27.989 47.9186Z" fill="#263238"/>
<g opacity="0.3">
<path d="M32.635 44.9171C31.7955 45.7963 30.8525 46.1189 29.9164 46.3519C30.4489 46.4796 31.0094 46.4167 31.5004 46.1742C31.9913 45.9316 32.3818 45.5247 32.6039 45.0241" fill="black"/>
</g>
<g opacity="0.3">
<path d="M28.4506 43.0199C28.2263 43.7783 28.1961 44.5547 28.0822 45.3381C27.9683 46.1215 27.8769 46.9584 28.0339 47.7124C28.4178 46.2268 28.6464 44.5418 28.4506 43.0199Z" fill="black"/>
</g>
<path d="M51.2122 34.3182V55.115C51.2122 55.3373 51.2932 55.5505 51.4373 55.7077C51.5815 55.8649 51.777 55.9532 51.9809 55.9532H91.9577C92.1616 55.9532 92.3572 55.8649 92.5014 55.7077C92.6456 55.5505 92.7265 55.3373 92.7265 55.115L92.642 47.4954C92.6371 47.3226 92.5834 47.1558 92.4882 47.0176L86.7531 38.6352C86.6831 38.5359 86.5936 38.4551 86.4911 38.3985C86.3887 38.3419 86.2759 38.3111 86.1611 38.3083L78.8192 38.2496V34.3182C78.8192 34.0959 78.7382 33.8827 78.594 33.7255C78.4499 33.5683 78.2543 33.48 78.0504 33.48H51.9579C51.758 33.4865 51.5684 33.5777 51.4291 33.7342C51.2899 33.8907 51.2121 34.1002 51.2122 34.3182Z" fill="#FF6F00"/>
<path d="M80.6489 40.0518V46.7577C80.6489 46.8822 80.6943 47.0016 80.775 47.0896C80.8557 47.1777 80.9653 47.2271 81.0794 47.2271L89.9051 47.0511C89.9817 47.0504 90.0567 47.0271 90.1221 46.9835C90.1875 46.94 90.2409 46.8779 90.2764 46.8038C90.312 46.7298 90.3283 46.6466 90.3239 46.5632C90.3194 46.4798 90.2942 46.3992 90.251 46.3302L86.1227 39.6829C86.0822 39.6196 86.0281 39.5681 85.9651 39.533C85.9021 39.498 85.8321 39.4803 85.7613 39.4818L81.0564 39.6243C80.9515 39.6262 80.8512 39.6714 80.7756 39.7507C80.7 39.83 80.6547 39.9376 80.6489 40.0518Z" fill="#E0E0E0"/>
<path d="M92.8649 55.6263H51.043C50.6949 55.6263 50.4126 55.9341 50.4126 56.3137V56.3891C50.4126 56.7688 50.6949 57.0765 51.043 57.0765H92.8649C93.213 57.0765 93.4953 56.7688 93.4953 56.3891V56.3137C93.4953 55.9341 93.213 55.6263 92.8649 55.6263Z" fill="#FF6F00"/>
<path d="M83.6318 48.5013C83.6318 48.6187 83.0168 48.7193 82.271 48.7193C81.5253 48.7193 80.9026 48.6187 80.9026 48.5013C80.9026 48.384 81.5176 48.2917 82.271 48.2917C83.0245 48.2917 83.6318 48.3923 83.6318 48.5013Z" fill="#263238"/>
<path d="M78.6962 55.2743C78.5886 55.2743 78.4963 50.5466 78.4963 44.7208C78.4963 38.895 78.5886 34.1674 78.6962 34.1674C78.8038 34.1674 78.8961 38.8867 78.8961 44.7208C78.8961 50.555 78.8038 55.2743 78.6962 55.2743Z" fill="#263238"/>
<path d="M92.8341 55.6095C92.8341 55.7353 83.5242 55.8275 72.077 55.8275C60.6298 55.8275 51.3198 55.7353 51.3198 55.6095C51.3198 55.4838 60.6221 55.3916 72.077 55.3916C83.5319 55.3916 92.8341 55.4922 92.8341 55.6095Z" fill="#263238"/>
<path d="M60.3991 61.7203C62.7513 61.7203 64.6582 59.6412 64.6582 57.0765C64.6582 54.5117 62.7513 52.4326 60.3991 52.4326C58.0469 52.4326 56.1401 54.5117 56.1401 57.0765C56.1401 59.6412 58.0469 61.7203 60.3991 61.7203Z" fill="#263238"/>
<path d="M60.3991 59.8092C61.7833 59.8092 62.9054 58.5858 62.9054 57.0765C62.9054 55.5673 61.7833 54.3439 60.3991 54.3439C59.015 54.3439 57.8929 55.5673 57.8929 57.0765C57.8929 58.5858 59.015 59.8092 60.3991 59.8092Z" fill="#E0E0E0"/>
<path d="M83.6164 61.7203C85.9686 61.7203 87.8755 59.6412 87.8755 57.0765C87.8755 54.5117 85.9686 52.4326 83.6164 52.4326C81.2642 52.4326 79.3574 54.5117 79.3574 57.0765C79.3574 59.6412 81.2642 61.7203 83.6164 61.7203Z" fill="#263238"/>
<path d="M83.6164 59.8092C85.0006 59.8092 86.1227 58.5858 86.1227 57.0765C86.1227 55.5673 85.0006 54.3439 83.6164 54.3439C82.2323 54.3439 81.1102 55.5673 81.1102 57.0765C81.1102 58.5858 82.2323 59.8092 83.6164 59.8092Z" fill="#E0E0E0"/>
<path d="M67.4181 45.5926C67.4181 45.7183 63.1514 45.8189 57.8852 45.8189C52.619 45.8189 48.36 45.7183 48.36 45.5926C48.36 45.4668 52.6267 45.3746 57.8852 45.3746C63.1437 45.3746 67.4181 45.4752 67.4181 45.5926Z" fill="#263238"/>
<path d="M68.0947 43.9413C65.2616 44.2319 62.4097 44.2319 59.5765 43.9413C62.4097 43.6507 65.2616 43.6507 68.0947 43.9413Z" fill="#263238"/>
<path d="M17.016 45.2574H-0.186005V58.589H17.016V45.2574Z" fill="#FF6F00"/>
<path opacity="0.2" d="M17.016 45.2574H10.501V58.589H17.016V45.2574Z" fill="black"/>
<path d="M16.5672 57.6738C16.0868 56.7254 15.6085 55.7746 15.1322 54.8214L13.7189 51.9505L12.3241 49.0682C11.8608 48.1074 11.4028 47.1426 10.9498 46.1736C11.4302 47.1213 11.9082 48.0724 12.3838 49.027L13.7971 51.8949L15.1919 54.7771C15.6551 55.7379 16.1135 56.7035 16.5672 57.6738Z" fill="#FF6F00"/>
<path d="M16.5672 46.1757C16.1129 47.1433 15.6544 48.1082 15.1919 49.0703L13.7971 51.9525L12.3838 54.8204C11.9102 55.7743 11.4323 56.7251 10.9498 57.6728C11.4028 56.7052 11.8608 55.7403 12.3241 54.7782L13.7189 51.8959L15.1322 49.027C15.6057 48.0745 16.084 47.1241 16.5672 46.1757Z" fill="#FF6F00"/>
<path d="M12.7821 46.8839H14.7606V45.2574H12.7821V46.8839Z" fill="#EBEBEB"/>
<path d="M3.42817 57.7026H3.56714L3.56714 55.7478H3.42817L3.42817 57.7026Z" fill="#263238"/>
<path d="M3.09565 57.7026H3.23462L3.23462 55.7478H3.09565L3.09565 57.7026Z" fill="#263238"/>
<path d="M2.76423 57.7026H2.9032L2.9032 55.7478H2.76423L2.76423 57.7026Z" fill="#263238"/>
<path d="M2.43071 57.7026H2.56967L2.56967 55.7478H2.43071L2.43071 57.7026Z" fill="#263238"/>
<path d="M2.09819 57.7026H2.23715L2.23715 55.7478H2.09819L2.09819 57.7026Z" fill="#263238"/>
<path d="M1.76573 57.7026H1.90469L1.90469 55.7478H1.76573L1.76573 57.7026Z" fill="#263238"/>
<path d="M1.43321 57.7026H1.57217L1.57217 55.7478H1.43321L1.43321 57.7026Z" fill="#263238"/>
<path d="M1.10069 57.7026H1.23965L1.23965 55.7478H1.10069L1.10069 57.7026Z" fill="#263238"/>
<path d="M0.76823 57.7026H0.907196L0.907196 55.7478H0.76823L0.76823 57.7026Z" fill="#263238"/>
<path d="M4.92693 57.5534L4.39371 57.7016H5.64543L5.11222 57.5513V56.8308C5.49412 56.7813 5.64543 56.4046 5.64543 55.7458H4.39371C4.39371 56.4025 4.54606 56.7813 4.92693 56.8308V57.5534Z" fill="#263238"/>
<path d="M5.93674 56.7453H6.26408V57.7016H7.10097V56.7453H7.42934L6.68201 55.7479L5.93674 56.7453Z" fill="#263238"/>
<path opacity="0.1" d="M-0.186005 58.5889V57.6532L10.501 55.9208V58.5889H-0.186005Z" fill="black"/>
<path d="M16.1235 36.6138H2.83313V45.2575H16.1235V36.6138Z" fill="#FF6F00"/>
<path opacity="0.2" d="M16.1225 36.6138H12.0616V45.2575H16.1225V36.6138Z" fill="black"/>
<path d="M15.8425 44.9332C15.5419 44.2901 15.2441 43.6444 14.949 42.9959L14.0679 41.0483L13.198 39.0925C12.9098 38.4385 12.6243 37.7831 12.3416 37.1263C12.6422 37.77 12.94 38.4158 13.2351 39.0636L14.1162 41.0112L14.9861 42.967C15.2743 43.6204 15.5598 44.2757 15.8425 44.9332Z" fill="#FF6F00"/>
<path d="M15.8425 37.1263C15.5605 37.7845 15.275 38.4398 14.9861 39.0925L14.1162 41.0483L13.2392 42.9959C12.9448 43.6444 12.647 44.2901 12.3457 44.9332C12.6278 44.2764 12.9132 43.6214 13.2021 42.9681L14.072 41.0123L14.9531 39.0657C15.2448 38.4165 15.5412 37.77 15.8425 37.1263Z" fill="#FF6F00"/>
<path d="M13.4841 37.639H14.7173V36.6137H13.4841V37.639Z" fill="#EBEBEB"/>
<path d="M5.08544 44.7047H5.17191V43.4859H5.08544V44.7047Z" fill="#263238"/>
<path d="M4.87859 44.7047H4.96506V43.4859H4.87859V44.7047Z" fill="#263238"/>
<path d="M4.67165 44.7047H4.75812V43.4859H4.67165V44.7047Z" fill="#263238"/>
<path d="M4.46471 44.7047H4.55118V43.4859H4.46471V44.7047Z" fill="#263238"/>
<path d="M4.25679 44.7047H4.34326V43.4859H4.25679V44.7047Z" fill="#263238"/>
<path d="M4.04885 44.7047H4.13531V43.4859H4.04885V44.7047Z" fill="#263238"/>
<path d="M3.84298 44.7047H3.92944V43.4859H3.84298V44.7047Z" fill="#263238"/>
<path d="M3.63506 44.7047H3.72153V43.4859H3.63506V44.7047Z" fill="#263238"/>
<path d="M3.42711 44.7047H3.51358V43.4859H3.42711V44.7047Z" fill="#263238"/>
<path d="M6.02014 44.6121L5.68765 44.7047H6.46792L6.13646 44.611V44.1632C6.37425 44.1313 6.46895 43.8966 6.46895 43.4869H5.68868C5.68868 43.8987 5.78339 44.1313 6.02117 44.1632L6.02014 44.6121Z" fill="#263238"/>
<path d="M6.65012 44.1077H6.85393V44.7037H7.3748V44.1077H7.57965L7.11437 43.4869L6.65012 44.1077Z" fill="#263238"/>
<path opacity="0.1" d="M2.83313 45.2574V44.6738L12.0615 43.5939V45.2574H2.83313Z" fill="black"/>
<path d="M24.9144 49.9463H11.6241V58.59H24.9144V49.9463Z" fill="#FF6F00"/>
<path opacity="0.2" d="M24.9144 49.9463H20.8535V58.59H24.9144V49.9463Z" fill="black"/>
<path d="M24.6344 58.2657C24.3339 57.6213 24.0357 56.9752 23.7399 56.3274L22.8587 54.3798L21.9889 52.424C21.7007 51.7714 21.4152 51.116 21.1325 50.4579C21.4344 51.1023 21.7326 51.7484 22.027 52.3962L22.9082 54.3438L23.778 56.2996C24.0662 56.9522 24.3517 57.6076 24.6344 58.2657Z" fill="#FF6F00"/>
<path d="M24.6344 50.4579C24.3517 51.116 24.0662 51.7714 23.778 52.424L22.9082 54.3798L22.027 56.3274C21.7312 56.9759 21.4331 57.622 21.1325 58.2657C21.4159 57.6083 21.7014 56.9529 21.9889 56.2996L22.8587 54.3438L23.7389 52.3962C24.0353 51.7477 24.3339 51.1016 24.6344 50.4579Z" fill="#FF6F00"/>
<path d="M22.2751 50.9705H23.5083V49.9453H22.2751V50.9705Z" fill="#EBEBEB"/>
<path d="M13.8774 58.0362H13.9638V56.8174H13.8774V58.0362Z" fill="#263238"/>
<path d="M13.6705 58.0362H13.757V56.8174H13.6705V58.0362Z" fill="#263238"/>
<path d="M13.4636 58.0362H13.55V56.8174H13.4636V58.0362Z" fill="#263238"/>
<path d="M13.2556 58.0362H13.3421V56.8174H13.2556V58.0362Z" fill="#263238"/>
<path d="M13.0477 58.0362H13.1342V56.8174H13.0477V58.0362Z" fill="#263238"/>
<path d="M12.8418 58.0362H12.9283V56.8174H12.8418V58.0362Z" fill="#263238"/>
<path d="M12.6339 58.0362H12.7204V56.8174H12.6339V58.0362Z" fill="#263238"/>
<path d="M12.426 58.0362H12.5124V56.8174H12.426V58.0362Z" fill="#263238"/>
<path d="M12.219 58.0362H12.3055V56.8174H12.219V58.0362Z" fill="#263238"/>
<path d="M14.812 57.9435L14.4796 58.0362H15.2598L14.9273 57.9425V57.4947C15.1651 57.4638 15.2598 57.2291 15.2598 56.8184H14.4796C14.4796 57.2302 14.5743 57.4638 14.812 57.4947V57.9435Z" fill="#263238"/>
<path d="M15.441 57.4391H15.6449V58.0362H16.1668V57.4391H16.3716L15.9063 56.8184L15.441 57.4391Z" fill="#263238"/>
<path opacity="0.1" d="M11.6241 58.589V58.0063L20.8524 56.9255V58.589H11.6241Z" fill="black"/>
<path d="M26.5593 44.2116H12.9036V49.9453H26.5593V44.2116Z" fill="#FF6F00"/>
<path opacity="0.2" d="M26.5594 44.2116H21.606V49.9463H26.5594V44.2116Z" fill="black"/>
<path d="M26.2176 49.551C25.8512 49.1434 25.4878 48.7344 25.1275 48.324L24.0528 47.0887L22.9926 45.8535C22.6405 45.4417 22.2923 45.0269 21.9478 44.6089C22.3142 45.0152 22.6776 45.4242 23.0379 45.836L24.1125 47.0712L25.1728 48.3065C25.5248 48.7182 25.8731 49.1331 26.2176 49.551Z" fill="#FF6F00"/>
<path d="M26.2176 44.6069C25.8745 45.0227 25.5262 45.4376 25.1728 45.8514L24.1125 47.0866L23.0379 48.3219C22.6776 48.7337 22.3142 49.1427 21.9478 49.5489C22.2909 49.1324 22.6392 48.7172 22.9926 48.3034L24.0528 47.0681L25.1275 45.8329C25.4878 45.4232 25.8512 45.0145 26.2176 44.6069Z" fill="#FF6F00"/>
<path d="M15.1816 49.272H15.2619V48.1325H15.1816V49.272Z" fill="#263238"/>
<path d="M14.9871 49.272H15.0674V48.1325H14.9871V49.272Z" fill="#263238"/>
<path d="M14.7935 49.272H14.8738V48.1325H14.7935V49.272Z" fill="#263238"/>
<path d="M14.6 49.272H14.6803V48.1325H14.6V49.272Z" fill="#263238"/>
<path d="M14.4055 49.272H14.4858V48.1325H14.4055V49.272Z" fill="#263238"/>
<path d="M14.2119 49.272H14.2922V48.1325H14.2119V49.272Z" fill="#263238"/>
<path d="M14.0174 49.272H14.0977V48.1325H14.0174V49.272Z" fill="#263238"/>
<path d="M13.8239 49.272H13.9042V48.1325H13.8239V49.272Z" fill="#263238"/>
<path d="M13.6303 49.272H13.7106V48.1325H13.6303V49.272Z" fill="#263238"/>
<path d="M16.0545 49.1845L15.7457 49.271H16.4756L16.1667 49.1835V48.7645C16.3891 48.7357 16.4756 48.5154 16.4756 48.1325H15.7457C15.7457 48.5144 15.8343 48.7357 16.0545 48.7645V49.1845Z" fill="#263238"/>
<path d="M16.6433 48.7131H16.8338V49.271H17.3217V48.7131H17.5132L17.0777 48.1325L16.6433 48.7131Z" fill="#263238"/>
<path opacity="0.1" d="M12.9046 49.9463V49.2339L21.606 47.9174V49.9452L12.9046 49.9463Z" fill="black"/>
<path d="M28.0303 42.7776H23.077L21.606 44.2116H26.5604L28.0303 42.7776Z" fill="#FF6F00"/>
<path opacity="0.1" d="M28.0303 42.7776H23.077L21.606 44.2116H26.5604L28.0303 42.7776Z" fill="black"/>
<path d="M11.4337 42.7776H16.387L17.858 44.2116H12.9036L11.4337 42.7776Z" fill="#FF6F00"/>
<path opacity="0.1" d="M11.4337 42.7776H16.387L17.858 44.2116H12.9036L11.4337 42.7776Z" fill="black"/>
<path d="M13.8579 32.3099H1.285V36.6364H13.8579V32.3099Z" fill="#FF6F00"/>
<path opacity="0.2" d="M13.8578 32.3099H8.90445V36.6364H13.8578V32.3099Z" fill="black"/>
<path d="M13.516 36.2411C13.1496 35.9789 12.7862 35.7151 12.4259 35.4495L11.3513 34.6548L10.29 33.855C9.93792 33.5887 9.58965 33.3211 9.24515 33.0521C9.61298 33.3156 9.97669 33.5794 10.3363 33.8437L11.4099 34.6394L12.4712 35.4392C12.8274 35.7048 13.1712 35.9734 13.516 36.2411Z" fill="#FF6F00"/>
<path d="M13.516 33.0521C13.1729 33.3204 12.8246 33.588 12.4712 33.855L11.4099 34.6548L10.3363 35.4495C9.97601 35.7151 9.61229 35.9789 9.24515 36.2411C9.58999 35.9734 9.93792 35.7048 10.29 35.4382L11.3513 34.6394L12.4259 33.8437C12.7855 33.5794 13.1489 33.3156 13.516 33.0521Z" fill="#FF6F00"/>
<path d="M3.56198 35.9622H3.64227V34.8226H3.56198V35.9622Z" fill="#263238"/>
<path d="M3.36844 35.9622H3.44873V34.8226H3.36844V35.9622Z" fill="#263238"/>
<path d="M3.17386 35.9622H3.25415V34.8226H3.17386V35.9622Z" fill="#263238"/>
<path d="M2.98038 35.9622H3.06067V34.8226H2.98038V35.9622Z" fill="#263238"/>
<path d="M2.78683 35.9622H2.86713V34.8226H2.78683V35.9622Z" fill="#263238"/>
<path d="M2.59225 35.9622H2.67255V34.8226H2.59225V35.9622Z" fill="#263238"/>
<path d="M2.39877 35.9622H2.47906V34.8226H2.39877V35.9622Z" fill="#263238"/>
<path d="M2.20523 35.9622H2.28552V34.8226H2.20523V35.9622Z" fill="#263238"/>
<path d="M2.01071 35.9622H2.091V34.8226H2.01071V35.9622Z" fill="#263238"/>
<path d="M4.43595 35.8757L4.12714 35.9622H4.85697L4.54815 35.8747V35.4557C4.77153 35.4258 4.85697 35.2066 4.85697 34.8226H4.12714C4.12714 35.2056 4.21566 35.4258 4.43595 35.4557V35.8757Z" fill="#263238"/>
<path d="M5.02469 35.4042H5.21512V35.9622H5.70305V35.4042H5.89452L5.45909 34.8226L5.02469 35.4042Z" fill="#263238"/>
<path opacity="0.1" d="M1.285 36.6364V35.9251L8.90448 34.6075V36.6364H1.285Z" fill="black"/>
<path d="M15.3288 30.876H10.3744L8.90445 32.3099H13.8578L15.3288 30.876Z" fill="#FF6F00"/>
<path opacity="0.1" d="M15.3288 30.876H10.3744L8.90445 32.3099H13.8578L15.3288 30.876Z" fill="black"/>
<path d="M-0.186005 30.876H4.7684L6.23836 32.3099H1.28498L-0.186005 30.876Z" fill="#FF6F00"/>
<path opacity="0.1" d="M-0.186005 30.876H4.7684L6.23836 32.3099H1.28498L-0.186005 30.876Z" fill="black"/>
</g>
<defs>
<clipPath id="clip0_150_16">
<rect width="93.558" height="93" fill="white"/>
</clipPath>
</defs>
</svg>
