<svg width="103" height="103" viewBox="0 0 103 103" fill="none" xmlns="http://www.w3.org/2000/svg">
<path d="M6.01314 41.6944L67.6422 6.06877L64.993 4.46609L6.01314 38.5179V41.6944Z" fill="#E0E0E0"/>
<path d="M6.01314 41.6944V95.1823L67.5865 59.6349V6.14499L6.01314 41.6944Z" fill="white"/>
<path d="M52.8019 26.9057V28.1561C52.8019 28.5495 53.078 28.7082 53.4199 28.5125L59.1385 25.2165C59.3186 25.0992 59.4685 24.9411 59.5759 24.7549C59.6833 24.5688 59.7452 24.3599 59.7565 24.1453V22.8948C59.7565 22.5014 59.4804 22.3428 59.1385 22.5385L53.4199 25.8345C53.2398 25.9517 53.0899 26.1098 52.9825 26.296C52.8751 26.4821 52.8132 26.691 52.8019 26.9057Z" fill="#F5F5F5"/>
<path d="M51.0344 51.294V52.5444C51.0344 52.9379 51.3105 53.0986 51.6524 52.9008L57.371 49.6048C57.5508 49.4878 57.7006 49.33 57.8079 49.1442C57.9153 48.9584 57.9773 48.7499 57.989 48.5357V47.2852C57.989 46.8897 57.7129 46.7311 57.371 46.9289L51.6524 50.2249C51.4728 50.3421 51.3233 50.5 51.2159 50.6857C51.1085 50.8714 51.0464 51.0798 51.0344 51.294Z" fill="#F5F5F5"/>
<path d="M39.758 48.3235V49.5739C39.758 49.9674 40.0361 50.126 40.376 49.9303L46.0966 46.6343C46.2765 46.5168 46.4262 46.3586 46.5336 46.1725C46.641 45.9864 46.703 45.7776 46.7146 45.5631V44.3127C46.7146 43.9192 46.4386 43.7606 46.0966 43.9563L40.376 47.2523C40.1962 47.3699 40.0466 47.5281 39.9392 47.7142C39.8319 47.9003 39.7698 48.109 39.758 48.3235Z" fill="#EBEBEB"/>
<path d="M50.7728 38.5715V39.8219C50.7728 40.2153 51.0489 40.376 51.3908 40.1783L57.1094 36.8823C57.2894 36.7654 57.4392 36.6076 57.5466 36.4218C57.654 36.236 57.7159 36.0274 57.7274 35.8131V34.5627C57.7274 34.1692 57.4513 34.0086 57.1094 34.2063L51.3908 37.5023C51.2109 37.6192 51.0611 37.777 50.9537 37.9628C50.8463 38.1486 50.7843 38.3572 50.7728 38.5715Z" fill="#EBEBEB"/>
<path d="M47.5572 57.1135V58.3619C47.5572 58.7574 47.8332 58.916 48.1752 58.7203L53.8937 55.4243C54.0736 55.3068 54.2233 55.1487 54.3307 54.9625C54.4381 54.7764 54.5001 54.5677 54.5117 54.3531V53.1027C54.5117 52.7092 54.2357 52.5506 53.8937 52.7463L48.1752 56.0423C47.995 56.1595 47.8452 56.3177 47.7378 56.5038C47.6304 56.69 47.5685 56.8989 47.5572 57.1135Z" fill="#EBEBEB"/>
<path d="M60.976 28.4115L55.2574 31.7075C55.0773 31.8247 54.9274 31.9829 54.82 32.169C54.7126 32.3552 54.6508 32.5641 54.6394 32.7787V34.0271C54.6394 34.4226 54.9155 34.5812 55.2574 34.3855L60.976 31.0895C61.1556 30.9717 61.305 30.8134 61.4123 30.6274C61.5197 30.4413 61.5819 30.2327 61.594 30.0183V28.7679C61.594 28.3744 61.3241 28.222 60.976 28.4115Z" fill="#F5F5F5"/>
<path d="M63.1946 16.9208L57.474 20.223C57.2939 20.3403 57.144 20.4984 57.0366 20.6845C56.9292 20.8707 56.8673 21.0796 56.856 21.2942V22.5426C56.856 22.9381 57.132 23.0967 57.474 22.901L63.1925 19.605C63.3725 19.4876 63.5222 19.3294 63.6295 19.1433C63.7369 18.9572 63.7989 18.7484 63.8105 18.5338V17.2772C63.8126 16.892 63.5366 16.7251 63.1946 16.9208Z" fill="#F5F5F5"/>
<path d="M53.4075 32.7849L47.689 36.0809C47.5091 36.1984 47.3594 36.3566 47.252 36.5427C47.1446 36.7288 47.0826 36.9376 47.071 37.1521V38.4025C47.071 38.796 47.347 38.9546 47.689 38.7589L53.4075 35.4629C53.5877 35.3457 53.7376 35.1875 53.845 35.0014C53.9523 34.8152 54.0142 34.6063 54.0255 34.3917V33.1433C54.0255 32.754 53.7495 32.5892 53.4075 32.7849Z" fill="#F5F5F5"/>
<path d="M31.4335 52.4208L25.7129 55.7168C25.5332 55.834 25.3835 55.9918 25.2762 56.1776C25.1688 56.3633 25.1067 56.5717 25.0949 56.786V58.0364C25.0949 58.4299 25.373 58.5905 25.7129 58.3928L31.4335 55.0968C31.6134 54.9797 31.7631 54.8219 31.8705 54.6362C31.9779 54.4504 32.0399 54.2419 32.0515 54.0276V52.7772C32.0495 52.3838 31.7734 52.2231 31.4335 52.4208Z" fill="#F5F5F5"/>
<path d="M35.4052 46.7311L29.6846 50.0271C29.5049 50.1442 29.3552 50.3021 29.2479 50.4878C29.1405 50.6736 29.0784 50.882 29.0666 51.0962V52.3467C29.0666 52.7401 29.3447 52.9008 29.6846 52.703L35.4052 49.407C35.585 49.2899 35.7346 49.1321 35.842 48.9463C35.9493 48.7606 36.0114 48.5521 36.0232 48.3379V47.0875C36.0232 46.694 35.7451 46.5333 35.4052 46.7311Z" fill="#F5F5F5"/>
<path d="M6.386 63.9239V65.1743C6.386 65.5677 6.66204 65.7284 7.004 65.5307L12.7226 62.2347C12.9024 62.1176 13.0521 61.9598 13.1595 61.774C13.2669 61.5883 13.3289 61.3798 13.3406 61.1655V59.9151C13.3406 59.5196 13.0645 59.361 12.7226 59.5587L7.004 62.8547C6.82426 62.9719 6.67464 63.1297 6.56727 63.3155C6.4599 63.5012 6.3978 63.7096 6.386 63.9239Z" fill="#F5F5F5"/>
<path d="M38.1739 31.4006L32.4553 34.6966C32.2753 34.8135 32.1255 34.9713 32.0181 35.1571C31.9107 35.3429 31.8488 35.5514 31.8373 35.7657V37.0162C31.8373 37.4096 32.1133 37.5703 32.4553 37.3725L38.1739 34.0765C38.3538 33.9596 38.5036 33.8019 38.611 33.6161C38.7184 33.4303 38.7804 33.2217 38.7919 33.0074V31.757C38.7919 31.3635 38.522 31.2028 38.1739 31.4006Z" fill="#F5F5F5"/>
<path d="M20.1674 48.7025L14.4468 51.9985C14.267 52.1157 14.1174 52.2735 14.01 52.4592C13.9027 52.645 13.8406 52.8534 13.8288 53.0677V54.3181C13.8288 54.7115 14.1069 54.8722 14.4468 54.6745L20.1674 51.3785C20.3469 51.2611 20.4964 51.1032 20.6037 50.9175C20.711 50.7318 20.7733 50.5235 20.7854 50.3093V49.0589C20.7854 48.6634 20.5073 48.5048 20.1674 48.7025Z" fill="#EBEBEB"/>
<path d="M34.2681 37.4673L28.5495 40.7633C28.3694 40.8805 28.2195 41.0387 28.1121 41.2248C28.0047 41.411 27.9428 41.6199 27.9315 41.8345V43.0849C27.9315 43.4784 28.2076 43.637 28.5495 43.4413L34.2681 40.1453C34.4479 40.0277 34.5975 39.8695 34.7049 39.6834C34.8122 39.4973 34.8743 39.2886 34.8861 39.0741V37.8237C34.8861 37.4302 34.608 37.2716 34.2681 37.4673Z" fill="#EBEBEB"/>
<path d="M58.4752 47.001V48.2514C58.4752 48.6449 58.7512 48.8055 59.0932 48.6078L64.8117 45.3118C64.9919 45.1946 65.1417 45.0364 65.2491 44.8503C65.3565 44.6641 65.4184 44.4552 65.4297 44.2406V42.9922C65.4297 42.5967 65.1537 42.4381 64.8117 42.6338L59.0932 45.9298C58.9136 46.0476 58.7642 46.2059 58.6568 46.3919C58.5495 46.5779 58.4873 46.7865 58.4752 47.001Z" fill="#EBEBEB"/>
<path d="M62.7064 53.7228L66.3938 51.5927V54.2707L62.7064 56.4008C62.3644 56.5965 62.0884 56.4378 62.0884 56.0444V54.796C62.0997 54.5811 62.1616 54.3719 62.269 54.1854C62.3763 53.9989 62.5262 53.8404 62.7064 53.7228Z" fill="#F5F5F5"/>
<path d="M62.7064 37.7413L66.3938 35.6112V38.2892L62.7064 40.4172C62.3644 40.6232 62.0884 40.4543 62.0884 40.0608V38.8104C62.0998 38.5961 62.1618 38.3876 62.2692 38.2018C62.3766 38.016 62.5264 37.8582 62.7064 37.7413Z" fill="#F5F5F5"/>
<path d="M62.7064 24.5923L66.3938 22.4643V25.1423L62.7064 27.2723C62.3644 27.4783 62.0884 27.3094 62.0884 26.916V25.6655C62.0997 25.4506 62.1616 25.2414 62.269 25.055C62.3763 24.8685 62.5262 24.7099 62.7064 24.5923Z" fill="#F5F5F5"/>
<path d="M8.89714 51.8605L6.01314 53.525V56.203L8.89714 54.5385C9.07711 54.4216 9.22691 54.2638 9.33431 54.078C9.44171 53.8922 9.50367 53.6837 9.51514 53.4694V52.219C9.51514 51.8234 9.2391 51.6628 8.89714 51.8605Z" fill="#F5F5F5"/>
<path d="M46.1028 26.8233L40.3822 30.1193C40.2026 30.2366 40.0532 30.3945 39.9459 30.5802C39.8385 30.7659 39.7763 30.9742 39.7642 31.1884V32.4388C39.7642 32.8343 40.0423 32.993 40.3822 32.7952L46.1028 29.4992C46.2826 29.3822 46.4323 29.2244 46.5397 29.0386C46.6471 28.8528 46.7091 28.6443 46.7208 28.4301V27.1796C46.7187 26.78 46.4427 26.6255 46.1028 26.8233Z" fill="#F5F5F5"/>
<path d="M38.1739 58.0075L32.4553 61.3035C32.2752 61.4208 32.1253 61.5789 32.0179 61.7651C31.9105 61.9512 31.8486 62.1601 31.8373 62.3747V63.6231C31.8373 64.0186 32.1133 64.1772 32.4553 63.9815L38.1739 60.6855C38.3538 60.5681 38.5035 60.4099 38.6108 60.2238C38.7182 60.0377 38.7802 59.8289 38.7919 59.6143V58.3639C38.7919 57.9705 38.522 57.8118 38.1739 58.0075Z" fill="#F5F5F5"/>
<path d="M35.1663 63.6149L29.4456 66.9109C29.2658 67.0285 29.1162 67.1867 29.0089 67.3728C28.9015 67.5589 28.8394 67.7676 28.8276 67.9821V69.2304C28.8276 69.626 29.1057 69.7846 29.4456 69.5889L35.1663 66.2929C35.346 66.1753 35.4957 66.0171 35.603 65.831C35.7104 65.6449 35.7725 65.4362 35.7843 65.2217V63.9713C35.7843 63.5778 35.5062 63.4192 35.1663 63.6149Z" fill="#EBEBEB"/>
<path d="M46.1028 53.4302L40.376 56.7324C40.1964 56.8502 40.047 57.0085 39.9397 57.1945C39.8323 57.3806 39.7701 57.5892 39.758 57.8036V59.054C39.758 59.4475 40.0361 59.6082 40.376 59.4104L46.0966 56.1144C46.2762 55.9971 46.4258 55.8393 46.5331 55.6535C46.6405 55.4678 46.7027 55.2595 46.7146 55.0453V53.7948C46.7187 53.3931 46.4427 53.2345 46.1028 53.4302Z" fill="#F5F5F5"/>
<path d="M54.2501 62.3068V63.5572C54.2501 63.9506 54.5261 64.1113 54.8681 63.9136L60.5866 60.6176C60.7666 60.5007 60.9164 60.3429 61.0238 60.1571C61.1312 59.9713 61.1932 59.7627 61.2046 59.5484V58.298C61.2046 57.9045 60.9286 57.7439 60.5866 57.9416L54.8681 61.2376C54.6881 61.3545 54.5383 61.5123 54.4309 61.6981C54.3235 61.8839 54.2616 62.0925 54.2501 62.3068Z" fill="#F5F5F5"/>
<path d="M27.3135 67.9615L21.5929 71.2575C21.4134 71.3753 21.2639 71.5336 21.1566 71.7196C21.0493 71.9056 20.987 72.1142 20.9749 72.3287V73.5791C20.9749 73.9725 21.253 74.1332 21.5929 73.9355L27.3135 70.6395C27.4931 70.5221 27.6425 70.3642 27.7498 70.1785C27.8572 69.9928 27.9194 69.7845 27.9315 69.5703V68.3199C27.9315 67.9244 27.6534 67.774 27.3135 67.9615Z" fill="#F5F5F5"/>
<path d="M6.386 80.7067V81.9571C6.386 82.3526 6.66204 82.5112 7.004 82.3135L12.7226 79.0175C12.9025 78.9006 13.0523 78.7428 13.1597 78.557C13.2671 78.3712 13.3291 78.1627 13.3406 77.9484V76.6979C13.3406 76.3045 13.0645 76.1438 12.7226 76.3415L7.004 79.6375C6.82448 79.7549 6.67504 79.9128 6.5677 80.0985C6.46036 80.2842 6.39812 80.4925 6.386 80.7067Z" fill="#F5F5F5"/>
<path d="M16.6489 65.8294V67.0798C16.6489 67.4732 16.925 67.6319 17.2669 67.4362L22.9875 64.1402C23.1674 64.0227 23.3171 63.8645 23.4245 63.6784C23.5319 63.4923 23.5939 63.2835 23.6055 63.069V61.8185C23.6055 61.4251 23.3295 61.2665 22.9875 61.4622L17.2669 64.7582C17.0871 64.8758 16.9375 65.034 16.8302 65.2201C16.7228 65.4061 16.6607 65.6149 16.6489 65.8294Z" fill="#F5F5F5"/>
<path d="M18.8016 60.1232L13.0831 63.4192C12.9032 63.5366 12.7535 63.6948 12.6461 63.8809C12.5387 64.067 12.4767 64.2758 12.4651 64.4904V65.7408C12.4651 66.1342 12.7411 66.2949 13.0831 66.0972L18.8016 62.8012C18.9817 62.6839 19.1316 62.5258 19.239 62.3396C19.3464 62.1535 19.4083 61.9446 19.4196 61.73V60.4816C19.4196 60.0861 19.1436 59.9275 18.8016 60.1232Z" fill="#EBEBEB"/>
<path d="M8.89714 68.6433L6.01314 70.3078V72.9858L8.89714 71.3213C9.07704 71.2039 9.22674 71.0457 9.33411 70.8596C9.44148 70.6735 9.5035 70.4647 9.51514 70.2501V69.01C9.51514 68.598 9.2391 68.4476 8.89714 68.6433Z" fill="#F5F5F5"/>
<path d="M14.5869 84.1551L8.86831 87.4511C8.68833 87.568 8.53854 87.7258 8.43114 87.9116C8.32374 88.0974 8.26178 88.306 8.25031 88.5203V89.7707C8.25031 90.1641 8.52635 90.3248 8.86831 90.1271L14.5869 86.8311C14.7667 86.714 14.9164 86.5562 15.0238 86.3705C15.1312 86.1847 15.1932 85.9762 15.2049 85.7619V84.5115C15.2049 84.116 14.9288 83.9574 14.5869 84.1551Z" fill="#EBEBEB"/>
<path d="M34.2681 73.2639L28.5495 76.5599C28.3696 76.6774 28.2199 76.8356 28.1126 77.0217C28.0052 77.2078 27.9432 77.4166 27.9315 77.6311V78.898C27.9315 79.2915 28.2076 79.4501 28.5495 79.2544L34.2681 75.9584C34.4482 75.8412 34.5981 75.683 34.7055 75.4969C34.8129 75.3107 34.8748 75.1018 34.8861 74.8872V73.6388C34.8861 73.2268 34.608 73.0682 34.2681 73.2639Z" fill="#EBEBEB"/>
<path d="M46.1028 64.5666L40.3822 67.8626C40.2024 67.9797 40.0528 68.1376 39.9454 68.3233C39.8381 68.5091 39.776 68.7175 39.7642 68.9317V70.1821C39.7642 70.5756 40.0423 70.7363 40.3822 70.5385L46.1028 67.2425C46.2826 67.1255 46.4323 66.9677 46.5397 66.7819C46.6471 66.5961 46.7091 66.3877 46.7208 66.1734V64.923C46.7187 64.5295 46.4427 64.3688 46.1028 64.5666Z" fill="#F5F5F5"/>
<path d="M13.8288 46.4365V47.6869C13.8288 48.0804 14.1069 48.239 14.4468 48.0433L20.1674 44.7473C20.3472 44.6297 20.4968 44.4715 20.6042 44.2854C20.7115 44.0993 20.7736 43.8906 20.7854 43.6761V42.4257C20.7854 42.0322 20.5073 41.8736 20.1674 42.0693L14.4468 45.3653C14.267 45.4829 14.1174 45.6411 14.01 45.8272C13.9027 46.0133 13.8406 46.222 13.8288 46.4365Z" fill="#F5F5F5"/>
<path d="M6.386 45.114V46.3644C6.386 46.7579 6.66204 46.9186 7.004 46.7208L12.7226 43.4248C12.9025 43.3079 13.0523 43.1501 13.1597 42.9643C13.2671 42.7785 13.3291 42.57 13.3406 42.3557V41.1052C13.3406 40.7118 13.0645 40.5511 12.7226 40.7489L7.004 44.051C6.82484 44.1673 6.67555 44.3241 6.56819 44.5088C6.46083 44.6935 6.39842 44.9008 6.386 45.114Z" fill="#F5F5F5"/>
<path d="M35.4794 28.0778V29.3282C35.4794 29.7217 35.7554 29.8824 36.0974 29.6846L41.8159 26.3886C41.9958 26.2716 42.1455 26.1138 42.2529 25.928C42.3603 25.7422 42.4223 25.5337 42.4339 25.3195V24.0691C42.4339 23.6756 42.1579 23.5149 41.8159 23.7127L36.0974 27.0087C35.9174 27.1256 35.7676 27.2834 35.6602 27.4692C35.5528 27.655 35.4908 27.8635 35.4794 28.0778Z" fill="#F5F5F5"/>
<path d="M7.4778 94.3995L7.38716 94.243L67.5742 59.4125L67.4959 6.30155L6.01314 41.7974V41.5894L67.6772 5.98843V6.14499L67.7575 59.5155L67.7101 59.5423L7.4778 94.3995Z" fill="#E0E0E0"/>
<path d="M36.1818 41.5131L36.0232 41.4225L30.3273 44.7185V33.302L33.6748 31.3697V26.0137L33.5162 25.921L6.01314 41.6944V95.3615L16.1071 89.542V73.4019L19.4546 71.4697V64.7046L25.3112 61.3242V54.4994L36.186 48.2205L36.1818 41.5131Z" fill="#FF6F00"/>
<path opacity="0.7" d="M6.01314 95.3615L16.103 89.542V73.4019L19.4505 71.4697V64.7046L25.3071 61.3242V54.4994L36.1818 48.2184V41.5131L30.3273 44.8977V33.302L33.6748 31.3697V26.0137L6.01314 41.8716V95.3615Z" fill="white"/>
<g opacity="0.2">
<path d="M35.4052 46.7311L33.4379 47.8827L31.483 49.0507L30.5045 49.646L30.0163 49.9385L29.7711 50.0848C29.6961 50.1281 29.6269 50.1807 29.5651 50.2414C29.436 50.3648 29.3338 50.5136 29.265 50.6785C29.1962 50.8433 29.1623 51.0206 29.1655 51.1993V52.3384L29.0151 52.2519C29.5919 51.91 30.1769 51.5845 30.7579 51.2528C31.3388 50.9212 31.9197 50.5895 32.5068 50.2661L34.2619 49.2896C34.8449 48.9642 35.432 48.6428 36.0129 48.3111V48.3214V47.2502C36.0283 47.163 36.0261 47.0735 36.0063 46.9872C35.9864 46.9009 35.9495 46.8194 35.8976 46.7476C35.8658 46.7162 35.8276 46.6921 35.7857 46.6768C35.7437 46.6615 35.699 46.6555 35.6545 46.659C35.567 46.6638 35.4817 46.6885 35.4052 46.7311ZM35.4052 46.7311C35.4808 46.6827 35.5671 46.6537 35.6565 46.6467C35.7015 46.6425 35.7469 46.6481 35.7895 46.663C35.8322 46.6779 35.8711 46.7019 35.9037 46.7332C35.9576 46.8049 35.9964 46.8867 36.018 46.9738C36.0396 47.0609 36.0435 47.1514 36.0294 47.2399V48.3111C35.4505 48.6469 34.8799 48.9971 34.3031 49.3411L32.581 50.3711C32.0083 50.7172 31.4315 51.0551 30.8526 51.4011C30.2738 51.7472 29.7011 52.083 29.1181 52.4105L28.9677 52.495V52.324V51.1848C28.9609 50.9818 29.0018 50.78 29.0872 50.5957C29.1697 50.4115 29.2881 50.2455 29.4353 50.1075C29.511 50.0398 29.5947 49.9816 29.6846 49.9344L29.9339 49.7943L30.4324 49.5183L31.4274 48.9642L33.4173 47.8538L35.4052 46.7311Z" fill="#FF6F00"/>
<path d="M20.7854 42.4195C20.7868 42.3144 20.759 42.211 20.7051 42.1208C20.6766 42.0773 20.6374 42.0419 20.5912 42.0181C20.5449 41.9942 20.4933 41.9828 20.4414 41.9849C20.3372 41.9902 20.2363 42.0229 20.1489 42.0796L19.8769 42.2403L18.7934 42.8748L16.6324 44.1623L14.4756 45.4519C14.3151 45.562 14.1821 45.7074 14.0867 45.8771C13.9914 46.0467 13.9362 46.236 13.9256 46.4304V47.687C13.9225 47.772 13.9432 47.8561 13.9853 47.93C14.0044 47.9606 14.0312 47.9857 14.063 48.0027C14.0949 48.0197 14.1306 48.028 14.1666 48.0269C14.2546 48.022 14.3398 47.9943 14.4138 47.9465L14.6857 47.79L15.7796 47.172L17.9797 45.938L20.1756 44.702C20.3472 44.5869 20.4904 44.4344 20.5946 44.256C20.6988 44.0776 20.7612 43.878 20.7772 43.672L20.7854 42.4195ZM20.7854 42.4195V43.6782C20.7783 43.8902 20.7181 44.097 20.6103 44.2797C20.5097 44.4666 20.3647 44.6257 20.188 44.7432L18.0291 46.0328L15.8682 47.3223L14.7846 47.9568L14.5127 48.1154C14.4096 48.1816 14.291 48.22 14.1687 48.2267C14.0996 48.2279 14.0314 48.2118 13.9702 48.1797C13.909 48.1477 13.8568 48.1008 13.8185 48.0433C13.753 47.9361 13.7194 47.8125 13.7217 47.687V46.4283C13.7358 46.203 13.802 45.984 13.9149 45.7885C14.0279 45.593 14.1845 45.4263 14.3726 45.3015L16.5686 44.0655L18.7769 42.848L19.8708 42.23L20.1427 42.0755C20.232 42.0178 20.3351 41.9851 20.4414 41.9808C20.4944 41.9796 20.5469 41.9921 20.5938 42.017C20.6406 42.0419 20.6804 42.0783 20.7092 42.1229C20.761 42.2131 20.7873 42.3156 20.7854 42.4195Z" fill="#FF6F00"/>
<path d="M25.9848 33.99C25.9866 33.8842 25.9587 33.7801 25.9045 33.6892C25.8759 33.6459 25.8366 33.6106 25.7904 33.5868C25.7443 33.5629 25.6927 33.5514 25.6408 33.5533C25.5363 33.5583 25.4352 33.5918 25.3483 33.6501L25.0764 33.8087L23.9928 34.4432L21.836 35.7225L19.6792 37.01C19.5187 37.1201 19.3857 37.2656 19.2903 37.4352C19.1949 37.6049 19.1398 37.7941 19.1292 37.9885V39.2451C19.1261 39.3301 19.1468 39.4142 19.1889 39.4881C19.208 39.5187 19.2348 39.5438 19.2666 39.5608C19.2984 39.5778 19.3341 39.5861 19.3702 39.585C19.4583 39.5811 19.5438 39.5533 19.6174 39.5046L19.8893 39.3501L20.9832 38.7321L23.1771 37.5064L25.373 36.2704C25.5445 36.1553 25.6878 36.0028 25.792 35.8244C25.8961 35.646 25.9586 35.4464 25.9745 35.2404L25.9848 33.99ZM25.9848 33.99V35.2466C25.9777 35.4586 25.9175 35.6654 25.8097 35.8481C25.7086 36.0352 25.5628 36.1944 25.3854 36.3116L23.2265 37.6012L21.0656 38.8907L19.982 39.5149L19.7101 39.6735C19.6069 39.7397 19.4884 39.7781 19.3661 39.7848C19.297 39.786 19.2287 39.7699 19.1675 39.7378C19.1063 39.7058 19.0542 39.6589 19.0159 39.6014C18.9504 39.4943 18.9168 39.3706 18.919 39.2451V37.9864C18.9332 37.7611 18.9994 37.5421 19.1123 37.3466C19.2252 37.1511 19.3819 36.9844 19.57 36.8596L21.766 35.6236L23.9763 34.402L25.0702 33.784L25.3421 33.6295C25.4314 33.5718 25.5346 33.5391 25.6408 33.5347C25.6939 33.5336 25.7463 33.5461 25.7932 33.571C25.8401 33.5959 25.8798 33.6323 25.9086 33.6769C25.9633 33.7719 25.9897 33.8805 25.9848 33.99Z" fill="#FF6F00"/>
<path d="M20.1674 48.7025L17.9962 49.9715L15.8373 51.261L14.7578 51.912L14.488 52.0727C14.4047 52.1235 14.3297 52.1867 14.2655 52.2601C14.1341 52.4079 14.0346 52.5811 13.973 52.769C13.9418 52.8606 13.9244 52.9564 13.9215 53.0532V53.354V53.9823V54.2954C13.9151 54.3839 13.9336 54.4724 13.975 54.5509C13.9919 54.5826 14.0167 54.6093 14.047 54.6284C14.0774 54.6476 14.1122 54.6585 14.1481 54.66C14.2334 54.658 14.3166 54.6331 14.3891 54.5879L16.5748 53.3519L18.7707 52.1159L19.8687 51.4979C20.0569 51.411 20.2306 51.2957 20.3837 51.156C20.5278 51.0064 20.6375 50.8271 20.7051 50.6307C20.7618 50.4299 20.7827 50.2207 20.7669 50.0127V49.3844V49.0692C20.7738 48.965 20.7517 48.8608 20.703 48.7684C20.6784 48.7224 20.6423 48.6834 20.5983 48.6553C20.5543 48.6271 20.5038 48.6108 20.4517 48.6078C20.35 48.6123 20.2515 48.6451 20.1674 48.7025ZM20.1674 48.7025C20.2564 48.6452 20.3602 48.6151 20.4661 48.616C20.5192 48.6186 20.5707 48.6347 20.6158 48.6628C20.6609 48.6909 20.698 48.7301 20.7236 48.7767C20.7718 48.8708 20.7945 48.9759 20.7895 49.0816V49.3967V50.025C20.8072 50.2327 20.7884 50.4419 20.7339 50.643C20.6672 50.8457 20.5592 51.0323 20.4167 51.191C20.2652 51.3394 20.0914 51.4631 19.9017 51.5577L18.8222 52.2025L16.6633 53.492L14.4921 54.761C14.3853 54.827 14.2613 54.86 14.1357 54.8557C14.0674 54.8518 14.001 54.831 13.9428 54.795C13.8845 54.759 13.8361 54.7091 13.802 54.6497C13.745 54.5407 13.7187 54.4182 13.7258 54.2954V53.9823V53.354V53.0368C13.733 52.9231 13.7552 52.8109 13.7917 52.703C13.8633 52.4929 13.98 52.3009 14.1337 52.1407C14.2116 52.0592 14.3011 51.9898 14.3994 51.9347L14.6734 51.7822L15.7714 51.1642L17.9673 49.9385L20.1674 48.7025Z" fill="#FF6F00"/>
<path d="M27.9315 41.8407C27.9315 42.1929 27.9315 42.5431 27.9315 42.8954C27.9077 43.0668 27.941 43.2413 28.0263 43.3918C28.0822 43.4523 28.1581 43.4904 28.2399 43.4991C28.3217 43.5078 28.4039 43.4865 28.4713 43.4392L29.3694 42.8871C29.6681 42.7017 29.9668 42.5163 30.2696 42.3371L30.2223 42.4195C30.2099 41.5275 30.2223 40.6356 30.2429 39.7415L30.3562 39.8054L28.8853 40.5964C28.7617 40.6644 28.6381 40.7262 28.5186 40.8024C28.4016 40.8759 28.2984 40.9693 28.2138 41.0785C28.0419 41.2965 27.9431 41.5632 27.9315 41.8407ZM27.9315 41.8407C27.9432 41.5601 28.0418 41.2902 28.2138 41.0682C28.2949 40.9527 28.3969 40.8535 28.5145 40.7756L28.8688 40.5552L30.2902 39.6777L30.3994 39.6097V39.7436C30.4255 40.6349 30.4324 41.5275 30.42 42.4216V42.4772L30.3726 42.504C30.0664 42.6756 29.7574 42.8439 29.4456 43.0087L28.5125 43.5093C28.4275 43.5509 28.3328 43.5687 28.2385 43.5608C28.1907 43.5569 28.1444 43.5422 28.103 43.518C28.0616 43.4937 28.0263 43.4605 27.9995 43.4207C27.9182 43.2591 27.8901 43.076 27.9192 42.8974C27.9295 42.5431 27.9274 42.1929 27.9315 41.8407Z" fill="#FF6F00"/>
<path d="M19.4505 64.7046L21.494 63.4686L23.5664 62.2326L23.5293 62.2985V61.8618C23.537 61.8001 23.5322 61.7375 23.5153 61.6777C23.4983 61.6179 23.4694 61.5621 23.4304 61.5136C23.387 61.4781 23.3339 61.4566 23.278 61.4518C23.2221 61.447 23.1661 61.4592 23.1173 61.4869C23.0547 61.5148 22.9941 61.5471 22.936 61.5837L22.7465 61.6949L21.2345 62.5746C20.2292 63.1637 19.2198 63.7467 18.2063 64.3235L17.4482 64.7581C17.3185 64.8195 17.2001 64.9024 17.098 65.0033C17.0038 65.1017 16.9247 65.2134 16.8632 65.335C16.7999 65.4554 16.7574 65.5856 16.7375 65.7202C16.7231 65.8458 16.7375 66.0045 16.7375 66.1466V67.02C16.7286 67.0829 16.7321 67.147 16.7481 67.2085C16.764 67.27 16.7919 67.3278 16.8302 67.3785C16.8748 67.4174 16.9302 67.4419 16.989 67.4489C17.0477 67.4559 17.1073 67.445 17.1598 67.4176C17.4029 67.2961 17.6645 67.1374 17.9158 67.0056L19.4443 66.1548L19.4299 66.1816L19.4505 64.7046ZM19.4505 64.7046L19.4814 66.1754V66.1919L19.4649 66.2022L17.9653 67.1004C17.7078 67.2487 17.475 67.4011 17.201 67.5433C17.124 67.5774 17.04 67.5929 16.9559 67.5886C16.8654 67.5824 16.7801 67.5444 16.7148 67.4815C16.6078 67.3527 16.5559 67.1868 16.5706 67.02V66.1466C16.5626 65.997 16.5626 65.8471 16.5706 65.6975C16.5921 65.5433 16.6387 65.3937 16.7087 65.2546C16.7773 65.1154 16.8669 64.9876 16.9744 64.8756C17.0838 64.7661 17.2096 64.6743 17.3473 64.6036L18.1033 64.1649C19.1086 63.5757 20.1186 62.9927 21.1335 62.4159L22.6497 61.5466L22.8392 61.4395C22.9058 61.3992 22.9745 61.3628 23.0452 61.3303C23.1251 61.2961 23.2119 61.2813 23.2986 61.2871C23.3926 61.2938 23.481 61.334 23.5479 61.4004C23.6014 61.4653 23.6414 61.5403 23.6654 61.621C23.6895 61.7017 23.6971 61.7864 23.6879 61.87V62.3067V62.3521L23.6509 62.3727L21.5682 63.5407L19.4505 64.7046Z" fill="#FF6F00"/>
<path d="M25.0949 56.7922C25.0949 57.0826 25.0949 57.3731 25.1258 57.6635C25.1258 57.8057 25.1423 57.9561 25.1567 58.0941C25.1585 58.1534 25.1768 58.211 25.2096 58.2605C25.2423 58.31 25.2882 58.3494 25.3421 58.3742L25.2206 58.4546C25.2 58.0673 25.2 57.6821 25.2206 57.2948C25.2206 57.1012 25.2432 56.9096 25.2535 56.7159L25.2906 56.1371L25.3277 56.1474C25.1878 56.3344 25.1068 56.5589 25.0949 56.7922ZM25.0949 56.7922C25.1088 56.5563 25.1794 56.3273 25.3009 56.1247L25.3339 56.065V56.1371L25.371 56.7159C25.3813 56.9096 25.3998 57.1012 25.406 57.2948C25.4204 57.6821 25.4204 58.0673 25.406 58.4546V58.5905L25.2906 58.5329C25.2155 58.49 25.1539 58.4269 25.1128 58.3508C25.0716 58.2747 25.0526 58.1886 25.0578 58.1023C25.0578 57.9478 25.0743 57.8098 25.0826 57.6635C25.0867 57.3731 25.0929 57.0826 25.0949 56.7922Z" fill="#FF6F00"/>
<path d="M19.4196 61.73V60.4734C19.4219 60.3698 19.3933 60.2679 19.3372 60.1808C19.3086 60.1389 19.2697 60.105 19.2243 60.0823C19.1788 60.0596 19.1284 60.0488 19.0777 60.0511C18.9748 60.0594 18.8756 60.0934 18.7893 60.1499L18.5173 60.3086L16.3523 61.594L14.1934 62.8877L13.1098 63.5222C12.9508 63.6323 12.8191 63.7774 12.7249 63.9463C12.6306 64.1151 12.5763 64.3034 12.566 64.4965V65.7531C12.5626 65.8391 12.584 65.9242 12.6278 65.9983C12.6476 66.0301 12.6757 66.056 12.7091 66.0731C12.7425 66.0901 12.7799 66.0977 12.8173 66.0951C12.907 66.0891 12.9935 66.06 13.0686 66.0106L13.3426 65.8541L15.5386 64.6284L17.7345 63.3924L18.8263 62.7744C18.9983 62.658 19.1396 62.5018 19.2383 62.3191C19.3476 62.1412 19.4099 61.9385 19.4196 61.73ZM19.4196 61.73C19.4148 61.9411 19.3559 62.1475 19.2486 62.3294C19.1514 62.5154 19.0099 62.6746 18.8366 62.7929L17.7531 63.4295L15.5942 64.719L13.4353 66.0065L13.1634 66.1651C13.0627 66.2319 12.9462 66.271 12.8256 66.2784C12.7578 66.2805 12.6905 66.2657 12.6298 66.2356C12.5691 66.2054 12.5167 66.1607 12.4774 66.1054C12.411 66.0008 12.3766 65.8791 12.3785 65.7552V64.4965C12.3875 64.2683 12.4533 64.046 12.5701 63.8497C12.6802 63.6513 12.8372 63.483 13.0274 63.3594L14.1213 62.7414L16.3173 61.5054L18.5132 60.2797L18.7851 60.1232C18.8753 60.0654 18.979 60.032 19.0859 60.0263C19.1404 60.0238 19.1946 60.0354 19.2433 60.0599C19.292 60.0845 19.3336 60.1211 19.364 60.1664C19.4192 60.2576 19.4471 60.3627 19.4443 60.4692L19.4196 61.73Z" fill="#FF6F00"/>
<path d="M7.00399 82.3135L9.17523 81.0445L11.33 79.755L12.4156 79.104L12.6855 78.9433C12.7687 78.8925 12.8437 78.8293 12.908 78.7559C13.0393 78.6081 13.1389 78.4349 13.2005 78.247C13.2317 78.1554 13.2491 78.0596 13.252 77.9628V77.662V77.0337V76.7206C13.2573 76.6322 13.2388 76.544 13.1984 76.4651C13.1814 76.4332 13.1563 76.4062 13.1255 76.3871C13.0948 76.3679 13.0595 76.3572 13.0233 76.356C12.9347 76.3559 12.8478 76.3801 12.772 76.426L10.5884 77.662L8.39243 78.898L7.29445 79.516C7.10599 79.6024 6.93222 79.7178 6.77945 79.858C6.63534 80.0076 6.52566 80.1868 6.45809 80.3833C6.40135 80.584 6.38043 80.7932 6.39629 81.0013V81.6193V81.9344C6.38965 82.0384 6.41099 82.1423 6.45809 82.2352C6.48317 82.2809 6.51932 82.3196 6.56324 82.3476C6.60715 82.3757 6.65742 82.3923 6.70941 82.3959C6.81342 82.3968 6.91557 82.3682 7.00399 82.3135ZM7.00399 82.3135C6.91473 82.3702 6.81108 82.4003 6.70529 82.4C6.65222 82.3974 6.60069 82.3813 6.55562 82.3532C6.51054 82.3251 6.47342 82.2859 6.44779 82.2393C6.3994 82.1452 6.37599 82.0402 6.37981 81.9344V81.6193V81.0013C6.36211 80.7936 6.38094 80.5844 6.43543 80.3833C6.5022 80.1811 6.60944 79.9947 6.75061 79.8353C6.90278 79.6868 7.07725 79.5631 7.26767 79.4686L8.34711 78.8238L10.506 77.5157L12.6772 76.2468C12.7834 76.181 12.9067 76.148 13.0316 76.152C13.0999 76.1559 13.1662 76.1768 13.2245 76.2128C13.2828 76.2487 13.3311 76.2987 13.3653 76.358C13.4219 76.4672 13.4489 76.5894 13.4436 76.7123V77.0255V77.6538V77.971C13.438 78.0847 13.4165 78.197 13.3797 78.3047C13.3074 78.515 13.1899 78.7069 13.0357 78.8671C12.9585 78.9485 12.8696 79.0179 12.772 79.0731L12.498 79.2255L11.4 79.8435L9.20407 81.0795L7.00399 82.3135Z" fill="#FF6F00"/>
<path d="M7.00399 46.727L9.17523 45.458L11.33 44.1685L12.4094 43.5237L12.6793 43.363C12.7621 43.3115 12.837 43.2484 12.9018 43.1755C13.0331 43.0278 13.1327 42.8546 13.1943 42.6667C13.2255 42.5751 13.2429 42.4792 13.2458 42.3824V42.0714V41.4534V41.1403C13.2511 41.0519 13.2326 40.9636 13.1922 40.8848C13.1752 40.8528 13.1501 40.8259 13.1193 40.8067C13.0886 40.7876 13.0533 40.7768 13.0171 40.7756C12.9318 40.778 12.8487 40.8029 12.7761 40.8477L10.5925 42.0837L8.39655 43.3094L7.29857 43.9274C7.10976 44.0143 6.93537 44.1297 6.78151 44.2694C6.63856 44.4195 6.52965 44.5987 6.46221 44.7947C6.40538 44.9955 6.38446 45.2047 6.40041 45.4127V46.041V46.35C6.39377 46.454 6.41511 46.5578 6.46221 46.6508C6.48729 46.6965 6.52344 46.7351 6.56736 46.7632C6.61127 46.7913 6.66154 46.8079 6.71353 46.8115C6.8162 46.81 6.91658 46.7809 7.00399 46.727ZM7.00399 46.727C6.91473 46.7837 6.81108 46.8138 6.70529 46.8135C6.65246 46.81 6.6013 46.7935 6.55638 46.7655C6.51146 46.7375 6.47415 46.6988 6.44779 46.6528C6.40188 46.5588 6.38061 46.4546 6.38599 46.35V46.0348V45.4065C6.36829 45.1989 6.38712 44.9897 6.44161 44.7885C6.50838 44.5864 6.61562 44.3999 6.75679 44.2406C6.90896 44.0921 7.08343 43.9684 7.27385 43.8739L8.35329 43.2291L10.506 41.9292L12.6752 40.6603C12.7825 40.595 12.906 40.5615 13.0316 40.5635C13.0999 40.5674 13.1662 40.5882 13.2245 40.6242C13.2828 40.6602 13.3311 40.7101 13.3653 40.7695C13.4219 40.8787 13.4489 41.0009 13.4436 41.1238V41.4369V42.0549V42.3721C13.438 42.4858 13.4165 42.5982 13.3797 42.7059C13.3074 42.9161 13.1899 43.1081 13.0357 43.2682C12.9585 43.3496 12.8696 43.419 12.772 43.4742L12.498 43.6267L11.4 44.2447L9.20407 45.4704L7.00399 46.727Z" fill="#FF6F00"/>
<path d="M14.5869 84.1551L12.4156 85.4241L10.2567 86.7136L9.1773 87.3584L8.90744 87.5191C8.8242 87.57 8.74918 87.6332 8.68496 87.7066C8.5536 87.8543 8.45403 88.0275 8.39244 88.2154C8.36221 88.3073 8.34488 88.403 8.34094 88.4997V88.8107V89.439V89.7521C8.33559 89.8406 8.35408 89.9288 8.3945 90.0076C8.4115 90.0396 8.43665 90.0665 8.46739 90.0857C8.49813 90.1048 8.53339 90.1156 8.5696 90.1168C8.65489 90.1144 8.73803 90.0895 8.81062 90.0447L10.9942 88.8087L13.1902 87.583L14.2882 86.965C14.477 86.8781 14.6514 86.7627 14.8052 86.623C14.9482 86.4729 15.0571 86.2937 15.1245 86.0977C15.1813 85.8969 15.2022 85.6877 15.1863 85.4797V84.8514V84.5362C15.193 84.4322 15.1716 84.3284 15.1245 84.2355C15.0997 84.1895 15.0637 84.1507 15.0197 84.1225C14.9757 84.0944 14.9253 84.078 14.8732 84.0748C14.7722 84.0748 14.6731 84.1026 14.5869 84.1551ZM14.5869 84.1551C14.6761 84.0984 14.7798 84.0683 14.8856 84.0686C14.9386 84.0712 14.9902 84.0873 15.0352 84.1154C15.0803 84.1435 15.1174 84.1827 15.1431 84.2293C15.1914 84.3234 15.2149 84.4284 15.211 84.5342V84.8493V85.4776C15.2287 85.6853 15.2099 85.8945 15.1554 86.0956C15.0887 86.2978 14.9814 86.4842 14.8402 86.6436C14.6881 86.7921 14.5136 86.9158 14.3232 87.0103L13.2437 87.6551L11.0849 88.9446L8.9198 90.228C8.81276 90.2936 8.6889 90.3265 8.56342 90.3228C8.49505 90.3189 8.42874 90.298 8.37047 90.262C8.31221 90.2261 8.26382 90.1761 8.2297 90.1168C8.17302 90.0075 8.14603 89.8854 8.15142 89.7624V89.4493V88.821V88.5038C8.15694 88.3901 8.17844 88.2778 8.21528 88.1701C8.28762 87.9598 8.40503 87.7678 8.5593 87.6077C8.63649 87.5263 8.72535 87.4569 8.82298 87.4017L9.09696 87.2492L10.1949 86.6312L12.3909 85.4055L14.5869 84.1551Z" fill="#FF6F00"/>
<path d="M8.89714 71.3213C9.12687 71.1716 9.3063 70.9563 9.41214 70.7033C9.46456 70.5768 9.49521 70.4424 9.50278 70.3057C9.50278 70.1698 9.50278 70.0297 9.50278 69.8937L9.48218 69.0697C9.49415 68.9415 9.45899 68.8134 9.3833 68.7092C9.34238 68.6661 9.28906 68.6368 9.23074 68.6254C9.17242 68.6139 9.11199 68.6209 9.05782 68.6454C8.93655 68.7008 8.8201 68.7663 8.70968 68.8411L8.35948 69.0471L7.6529 69.4735C7.18184 69.7564 6.70667 70.0311 6.22738 70.2975L6.27888 70.2089C6.27888 71.1029 6.2521 71.9949 6.22944 72.8869L6.15116 72.8416L7.53136 72.0876C7.98662 71.8404 8.446 71.5809 8.89714 71.3213ZM8.89714 71.3213C8.44394 71.585 7.99074 71.8487 7.54166 72.1206L6.2006 72.9446L6.12232 72.992V72.8993C6.09966 72.0073 6.07494 71.1153 6.07494 70.2213V70.1636L6.12438 70.1347C6.60024 69.8566 7.0761 69.5847 7.56638 69.3107L8.28738 68.9132L8.64994 68.7072C8.77103 68.6333 8.89859 68.5705 9.03104 68.5197C9.10534 68.4928 9.18604 68.4891 9.26251 68.5089C9.33899 68.5288 9.40767 68.5713 9.45952 68.6309C9.54173 68.7516 9.57758 68.8979 9.56046 69.0429L9.53986 69.8669C9.53986 70.005 9.53986 70.1409 9.53986 70.2789C9.52807 70.4172 9.49252 70.5524 9.4348 70.6786C9.3287 70.9447 9.14031 71.1699 8.89714 71.3213Z" fill="#FF6F00"/>
<path d="M6.17999 56.1103L8.26883 54.8269L8.77971 54.5179C8.94668 54.4272 9.08831 54.2962 9.19171 54.1368C9.30229 53.982 9.37754 53.8048 9.41213 53.6177C9.42479 53.5221 9.42893 53.4256 9.42449 53.3293V53.0244V52.4064C9.42449 52.3075 9.42449 52.2004 9.42449 52.118C9.41807 52.0395 9.38286 51.9661 9.32561 51.912C9.29625 51.8908 9.26257 51.8763 9.22697 51.8695C9.19137 51.8627 9.15472 51.8639 9.11962 51.8729C9.0315 51.8956 8.9479 51.9332 8.87241 51.9841L8.34299 52.2849C7.63847 52.6866 6.93396 53.0924 6.2212 53.4817L6.25622 53.4199C6.25622 53.8566 6.23973 54.2913 6.22325 54.7363L6.17999 56.1103ZM6.17999 56.1103L6.13468 54.796C6.1182 54.349 6.10996 53.8896 6.10172 53.4343V53.3952L6.13674 53.3725C6.83096 52.9502 7.53342 52.5485 8.23382 52.1365L8.75911 51.8296C8.85237 51.7655 8.9553 51.7168 9.06399 51.6854C9.12817 51.6697 9.19507 51.6688 9.25966 51.6827C9.32424 51.6966 9.38483 51.725 9.43686 51.7657C9.53178 51.8517 9.59126 51.9699 9.60371 52.0974C9.60966 52.2031 9.60966 52.309 9.60371 52.4146V53.0326V53.3375C9.60638 53.4443 9.60018 53.5511 9.58517 53.6568C9.54414 53.8695 9.45694 54.0706 9.32974 54.246C9.20375 54.4209 9.03683 54.5624 8.84358 54.658L8.29974 54.9567L6.17999 56.1103Z" fill="#FF6F00"/>
<path d="M12.7246 59.5525L10.5554 60.8215L8.39656 62.1111L7.31712 62.7558L7.04726 62.9165C6.96403 62.9674 6.88901 63.0306 6.82478 63.104C6.69342 63.2517 6.59386 63.4249 6.53226 63.6128C6.50138 63.7046 6.48336 63.8003 6.4787 63.8971V65.1496C6.47432 65.2379 6.49277 65.3259 6.53226 65.405C6.54927 65.437 6.57441 65.4639 6.60515 65.4831C6.6359 65.5023 6.67115 65.513 6.70736 65.5142C6.7927 65.5121 6.87592 65.4872 6.94838 65.4421L9.13404 64.2061L11.33 62.9721L12.428 62.3541C12.6162 62.2672 12.7899 62.1519 12.943 62.0122C13.0864 61.8621 13.196 61.6829 13.2643 61.4869C13.3212 61.2861 13.3421 61.0769 13.3261 60.8689V60.2406V59.9254C13.3322 59.8212 13.3101 59.7174 13.2623 59.6246C13.2377 59.5786 13.2016 59.5396 13.1576 59.5115C13.1136 59.4833 13.0631 59.467 13.011 59.464C12.9092 59.4669 12.8103 59.4976 12.7246 59.5525ZM12.7246 59.5525C12.8139 59.4958 12.9175 59.4658 13.0233 59.466C13.0765 59.4682 13.1282 59.4841 13.1733 59.5123C13.2185 59.5405 13.2555 59.5799 13.2808 59.6267C13.3307 59.7203 13.3542 59.8257 13.3488 59.9316V60.2468V60.8751C13.3668 61.0829 13.3473 61.2922 13.2911 61.4931C13.2277 61.6987 13.1209 61.8884 12.978 62.0493C12.8266 62.1977 12.6528 62.3214 12.463 62.4159L11.3836 63.0607L9.2288 64.3503L7.05756 65.6192C6.95062 65.6851 6.82669 65.718 6.70118 65.714C6.63282 65.7101 6.56651 65.6892 6.50824 65.6533C6.44997 65.6173 6.40159 65.5674 6.36746 65.508C6.31046 65.399 6.28412 65.2765 6.29124 65.1537V64.8406V64.2123V63.895C6.29746 63.7812 6.31965 63.6689 6.35716 63.5613C6.42871 63.3511 6.54544 63.1592 6.69912 62.9989C6.77673 62.918 6.86552 62.8486 6.9628 62.7929L7.23884 62.6405L8.33682 62.0225L10.5328 60.7968L12.7246 59.5525Z" fill="#FF6F00"/>
</g>
<path d="M27.1508 85.593L20.4908 85.5023L20.4332 90.9407C20.4332 91.4331 20.7463 91.9295 21.3931 92.3106C22.6847 93.077 24.7942 93.0996 26.1043 92.3621C26.7635 91.9913 27.0931 91.497 27.0931 91.0005L27.1508 85.593Z" fill="#37474F"/>
<path d="M21.4817 84.1531C20.1736 84.8905 20.1592 86.108 21.4528 86.8723C22.7465 87.6365 24.8539 87.6612 26.162 86.9238C27.4701 86.1863 27.4845 84.9688 26.1908 84.2046C24.8972 83.4403 22.7898 83.4156 21.4817 84.1531Z" fill="#455A64"/>
<path d="M26.8645 85.5703C26.8626 85.6595 26.8466 85.7478 26.8171 85.8319C26.6649 86.2014 26.3808 86.501 26.0199 86.6724C25.3304 87.0099 24.5715 87.1813 23.8039 87.1731C23.0363 87.1649 22.2812 86.9772 21.5991 86.6251C21.2481 86.448 20.9735 86.1492 20.8266 85.7846C20.7947 85.6946 20.7787 85.5998 20.7792 85.5044C20.7792 85.0924 21.0841 84.7072 21.6238 84.4064C22.3138 84.0707 23.0725 83.9002 23.8398 83.9085C24.6071 83.9167 25.3619 84.1034 26.0446 84.4538C26.574 84.769 26.8686 85.1645 26.8645 85.5703Z" fill="#263238"/>
<path d="M26.8171 85.832C26.6649 86.2014 26.3807 86.501 26.0199 86.6724C25.3303 87.0099 24.5715 87.1813 23.8039 87.1731C23.0363 87.1649 22.2812 86.9772 21.5991 86.6251C21.2481 86.448 20.9735 86.1492 20.8266 85.7846C20.979 85.4158 21.2632 85.1169 21.6238 84.9462C22.313 84.6075 23.072 84.4353 23.8398 84.4435C24.6077 84.4517 25.3629 84.6401 26.0446 84.9935C26.3949 85.1706 26.6693 85.4684 26.8171 85.832Z" fill="#FF6F00"/>
<path opacity="0.6" d="M26.8171 85.832C26.6649 86.2014 26.3807 86.501 26.0199 86.6724C25.3303 87.0099 24.5715 87.1813 23.8039 87.1731C23.0363 87.1649 22.2812 86.9772 21.5991 86.6251C21.2481 86.448 20.9735 86.1492 20.8266 85.7846C20.979 85.4158 21.2632 85.1169 21.6238 84.9462C22.313 84.6075 23.072 84.4353 23.8398 84.4435C24.6077 84.4517 25.3629 84.6401 26.0446 84.9935C26.3949 85.1706 26.6693 85.4684 26.8171 85.832Z" fill="white"/>
<path opacity="0.35" d="M26.0199 86.6724C26.1254 86.6108 26.2266 86.542 26.3227 86.4664C25.1073 87.1174 23.0267 86.8187 22.3634 86.3305C21.5394 85.731 21.6259 84.9441 22.6847 84.5527C22.3137 84.628 21.9561 84.7585 21.6238 84.94C21.2632 85.1108 20.979 85.4096 20.8266 85.7784C20.9735 86.1431 21.2481 86.4418 21.5991 86.6189C22.2812 86.971 23.0363 87.1587 23.8039 87.1669C24.5715 87.1751 25.3303 87.0037 26.0199 86.6663V86.6724Z" fill="#FF6F00"/>
<path d="M25.2412 87.6304C25.3854 87.548 25.5028 87.6159 25.5007 87.7849C25.495 87.8759 25.4677 87.9642 25.4211 88.0426C25.3746 88.1211 25.3101 88.1873 25.2329 88.236C25.0867 88.3184 24.9713 88.2504 24.9734 88.0835C24.9787 87.9921 25.0058 87.9033 25.0523 87.8245C25.0989 87.7457 25.1637 87.6791 25.2412 87.6304Z" fill="#263238"/>
<path d="M20.4785 86.4582C20.1138 87.1792 19.3846 88.8972 20.3301 89.5956C20.3713 89.6244 20.4064 89.6512 20.4476 89.6759V90.0241C20.3528 89.9664 20.256 89.9005 20.1612 89.8325C18.7481 88.7839 20.3425 86.0956 20.4105 85.9844C20.4281 85.9541 20.457 85.9319 20.4908 85.9226L20.4785 86.4582Z" fill="#E0E0E0"/>
<path d="M25.3648 88.0011C25.3236 88.0856 24.2957 90.0611 22.6023 90.4484C22.4114 90.4943 22.2157 90.5172 22.0194 90.5164C21.4576 90.5055 20.9108 90.3339 20.4435 90.022V89.6738C21.1418 90.16 21.8443 90.3269 22.5344 90.1662C24.0958 89.8016 25.0949 87.8837 25.1032 87.8652C25.112 87.847 25.1245 87.8309 25.1399 87.8178C25.1553 87.8047 25.1733 87.7949 25.1926 87.7891C25.212 87.7833 25.2323 87.7816 25.2524 87.784C25.2725 87.7865 25.2918 87.7931 25.3092 87.8034C25.3261 87.8124 25.3411 87.8247 25.3531 87.8397C25.3651 87.8546 25.374 87.8719 25.3792 87.8904C25.3844 87.9088 25.3858 87.9282 25.3833 87.9472C25.3809 87.9663 25.3746 87.9846 25.3648 88.0011Z" fill="#E0E0E0"/>
<path d="M18.4102 89.7192L11.742 89.6306L11.6843 95.069C11.6843 95.5614 11.9995 96.0578 12.6443 96.4389C13.938 97.2052 16.0453 97.2279 17.3555 96.4904C18.0147 96.1196 18.3443 95.6252 18.3443 95.1288L18.4102 89.7192Z" fill="#37474F"/>
<path d="M12.7411 88.2813C11.433 89.0188 11.4206 90.2362 12.7123 91.0005C14.0039 91.7648 16.1133 91.7895 17.4214 91.052C18.7295 90.3145 18.7439 89.0971 17.4523 88.3328C16.1607 87.5685 14.0492 87.55 12.7411 88.2813Z" fill="#455A64"/>
<path d="M18.128 89.6986C18.1261 89.7877 18.1101 89.876 18.0806 89.9602C17.9285 90.3296 17.6443 90.6292 17.2834 90.8007C16.5989 91.1524 15.836 91.3239 15.0668 91.2992C14.2977 91.3072 13.5391 91.1194 12.8626 90.7533C12.5125 90.5757 12.2388 90.277 12.0922 89.9128C12.0603 89.8229 12.0443 89.7281 12.0448 89.6327C12.0448 89.2207 12.3497 88.8354 12.8894 88.5347C13.5711 88.1793 14.3336 88.0075 15.1019 88.0362C15.8704 88.0256 16.6288 88.2128 17.304 88.58C17.8375 88.8972 18.128 89.2928 18.128 89.6986Z" fill="#263238"/>
<path d="M18.0765 89.9602C17.9243 90.3297 17.6402 90.6292 17.2793 90.8007C16.5947 91.1524 15.8319 91.3239 15.0627 91.2992C14.2936 91.3073 13.535 91.1194 12.8585 90.7533C12.5084 90.5757 12.2347 90.277 12.0881 89.9128C12.2393 89.5433 12.5239 89.2441 12.8853 89.0744C13.5685 88.7234 14.3301 88.5532 15.0977 88.58C15.8672 88.5704 16.6265 88.7568 17.304 89.1218C17.6546 89.2984 17.9292 89.5963 18.0765 89.9602Z" fill="#FF6F00"/>
<path opacity="0.6" d="M18.0765 89.9602C17.9243 90.3297 17.6402 90.6292 17.2793 90.8007C16.5947 91.1524 15.8319 91.3239 15.0627 91.2992C14.2936 91.3073 13.535 91.1194 12.8585 90.7533C12.5084 90.5757 12.2347 90.277 12.0881 89.9128C12.2393 89.5433 12.5239 89.2441 12.8853 89.0744C13.5685 88.7234 14.3301 88.5532 15.0977 88.58C15.8672 88.5704 16.6265 88.7568 17.304 89.1218C17.6546 89.2984 17.9292 89.5963 18.0765 89.9602Z" fill="white"/>
<path opacity="0.35" d="M17.2793 90.8007C17.3855 90.74 17.4867 90.6712 17.5821 90.5947C16.3667 91.2456 14.2964 90.9469 13.6248 90.4587C12.8008 89.8593 12.8853 89.0723 13.9441 88.6809C13.5737 88.7559 13.2167 88.8864 12.8853 89.0682C12.5239 89.2379 12.2393 89.5371 12.0881 89.9066C12.2347 90.2708 12.5084 90.5695 12.8585 90.7471C13.535 91.1132 14.2936 91.3011 15.0627 91.293C15.8314 91.3197 16.5942 91.1502 17.2793 90.8007Z" fill="#FF6F00"/>
<path d="M16.5006 91.7586C16.6469 91.6762 16.7622 91.7442 16.7622 91.9131C16.7558 92.0039 16.7282 92.092 16.6817 92.1704C16.6352 92.2487 16.5711 92.3151 16.4944 92.3642C16.3482 92.4466 16.2307 92.3786 16.2328 92.2097C16.2389 92.1188 16.2663 92.0306 16.3129 91.9522C16.3594 91.8738 16.4237 91.8075 16.5006 91.7586Z" fill="#263238"/>
<path d="M11.742 90.5864C11.3753 91.3074 10.6481 93.0255 11.5937 93.7238C11.6328 93.7527 11.6699 93.7794 11.709 93.8042V94.1523C11.6143 94.0946 11.5175 94.0287 11.4227 93.9607C10.0095 92.9122 11.604 90.2239 11.674 90.1106C11.6825 90.0959 11.6937 90.0831 11.7072 90.0729C11.7206 90.0626 11.736 90.0551 11.7523 90.0508L11.742 90.5864Z" fill="#E0E0E0"/>
<path d="M16.6242 92.1294C16.5851 92.2138 15.5551 94.1894 13.8638 94.5766C13.6722 94.6225 13.4758 94.6454 13.2788 94.6446C12.7172 94.6343 12.1704 94.4635 11.7029 94.1523V93.8041C12.4012 94.2903 13.1057 94.4572 13.7938 94.2965C15.3552 93.9319 16.3564 92.014 16.3626 91.9955C16.3714 91.9773 16.384 91.9612 16.3994 91.9481C16.4147 91.935 16.4327 91.9252 16.452 91.9194C16.4714 91.9136 16.4917 91.9119 16.5118 91.9143C16.5319 91.9168 16.5512 91.9234 16.5686 91.9337C16.5853 91.9427 16.6 91.955 16.6118 91.9698C16.6237 91.9846 16.6324 92.0016 16.6376 92.0198C16.6428 92.038 16.6443 92.0571 16.642 92.0759C16.6397 92.0948 16.6336 92.1129 16.6242 92.1294Z" fill="#E0E0E0"/>
<path d="M32.3791 93.8083L35.3929 92.082C35.4257 92.0593 35.4518 92.0282 35.4684 91.992C35.4851 91.9557 35.4917 91.9157 35.4876 91.876C35.4816 91.764 35.4494 91.6549 35.3936 91.5576C35.3378 91.4603 35.2599 91.3774 35.1663 91.3157C35.1337 91.2917 35.0953 91.2769 35.055 91.2729C35.0148 91.2689 34.9742 91.2759 34.9376 91.293L31.93 93.0172L32.3791 93.8083Z" fill="#455A64"/>
<path d="M32.7004 92.5702L33.613 93.0996L32.3791 93.8083L31.9238 93.0172L32.7004 92.5702Z" fill="#37474F"/>
<path d="M29.2767 94.0101L29.8947 93.6558L29.2767 93.3015L30.5354 92.5743C30.7484 92.4656 30.9842 92.409 31.2234 92.409C31.4626 92.409 31.6984 92.4656 31.9115 92.5743L32.9868 93.1923C33.0605 93.227 33.1247 93.279 33.1739 93.3439C33.2231 93.4089 33.2557 93.4848 33.269 93.5652C33.269 93.5796 33.269 94.1832 33.269 94.3212C33.2571 94.4023 33.225 94.4791 33.1757 94.5446C33.1264 94.6101 33.0614 94.6622 32.9868 94.6961L31.724 95.4274L29.2767 94.0101Z" fill="#37474F"/>
<path d="M32.9888 93.1964L31.9135 92.5784C31.7005 92.4698 31.4647 92.4131 31.2255 92.4131C30.9863 92.4131 30.7505 92.4698 30.5374 92.5784L29.2788 93.3056L31.724 94.7188L32.9827 93.9916C33.372 93.7732 33.372 93.4169 32.9888 93.1964Z" fill="#455A64"/>
<path d="M31.7281 94.7188L29.2788 93.3015L27.4392 94.3604L29.8885 95.7797L31.7281 94.7188Z" fill="#F0F0F0"/>
<path d="M31.7281 94.7188L29.8885 95.7797L29.8865 96.4863L31.7261 95.4275L31.7281 94.7188Z" fill="#EBEBEB"/>
<path d="M32.274 94.4036L29.8247 92.9863L30.076 92.8421L32.5377 94.2512L32.274 94.4036Z" fill="#FF6F00"/>
<path d="M32.274 94.4036V95.1123L32.5356 94.9598L32.5377 94.2512L32.274 94.4036Z" fill="#FF6F00"/>
<path opacity="0.1" d="M32.274 94.4036V95.1123L32.5356 94.9598L32.5377 94.2512L32.274 94.4036Z" fill="black"/>
<path d="M30.4489 96.1629C30.4489 96.1629 30.7846 95.7323 30.6054 95.3656L29.8885 95.7776V96.4842L30.4489 96.1629Z" fill="#FF6F00"/>
<path opacity="0.1" d="M30.4489 96.1629C30.4489 96.1629 30.7846 95.7323 30.6054 95.3656L29.8885 95.7776V96.4842L30.4489 96.1629Z" fill="black"/>
<path d="M30.6054 95.3656C30.5843 95.2204 30.5273 95.0827 30.4395 94.9651C30.3518 94.8474 30.236 94.7536 30.1028 94.692C29.7691 94.5478 29.0604 94.8424 28.7658 94.3624C28.5598 94.0246 28.7864 93.5858 28.7864 93.5858L27.4392 94.3603L29.8885 95.79L30.6054 95.3656Z" fill="#FF6F00"/>
<path d="M27.4392 94.3604L27.4371 95.069L29.8865 96.4863L29.8885 95.7797L27.4392 94.3604Z" fill="#FF6F00"/>
<path opacity="0.15" d="M27.4392 94.3604L27.4371 95.069L29.8865 96.4863L29.8885 95.7797L27.4392 94.3604Z" fill="black"/>
<path d="M63.6746 68.769C63.6468 68.5211 63.5611 68.2832 63.4244 68.0746C63.2877 67.866 63.1038 67.6924 62.8877 67.568C62.8085 67.5189 62.7172 67.4929 62.624 67.4929C62.5308 67.4929 62.4395 67.5189 62.3603 67.568L61.8556 67.8482L62.9824 69.5353L63.481 69.2345C63.5553 69.1845 63.6133 69.1136 63.6477 69.0309C63.6822 68.9481 63.6915 68.857 63.6746 68.769Z" fill="#455A64"/>
<path d="M62.3665 67.8626C62.5827 67.987 62.7665 68.1606 62.9032 68.3692C63.0399 68.5778 63.1256 68.8157 63.1534 69.0636C63.1781 69.5209 62.8691 69.7248 62.4592 69.5188C62.243 69.3944 62.0592 69.2208 61.9225 69.0122C61.7858 68.8036 61.7001 68.5657 61.6723 68.3178C61.6476 67.8605 61.9566 67.6566 62.3665 67.8626Z" fill="#37474F"/>
<path d="M62.1626 68.565C62.1523 68.3858 62.2553 68.2972 62.3954 68.359C62.4719 68.4079 62.5359 68.4739 62.5824 68.5519C62.6289 68.6298 62.6566 68.7176 62.6632 68.8081C62.6735 68.9873 62.5705 69.0759 62.4304 69.0141C62.3539 68.9653 62.2898 68.8993 62.2433 68.8213C62.1968 68.7433 62.1692 68.6556 62.1626 68.565Z" fill="#263238"/>
<path d="M62.418 68.6103C62.4388 68.6223 62.4565 68.639 62.4697 68.659C62.483 68.679 62.4913 68.7019 62.4942 68.7257C62.4942 68.771 62.4674 68.7896 62.4283 68.771C62.4075 68.759 62.3898 68.7424 62.3766 68.7224C62.3633 68.7023 62.3549 68.6795 62.3521 68.6557C62.3397 68.6103 62.3685 68.598 62.418 68.6103Z" fill="#263238"/>
<path d="M63.7735 68.7649C63.7456 68.4968 63.654 68.2394 63.5064 68.014C63.3587 67.7886 63.1593 67.6017 62.9248 67.4691C62.8163 67.4109 62.6956 67.3792 62.5725 67.3764C62.477 67.3744 62.383 67.4009 62.3026 67.4526C62.2717 67.4712 61.8742 67.6957 61.7959 67.7452C61.765 67.765 61.7366 67.7885 61.7114 67.8152C61.6069 67.9354 61.5517 68.0907 61.5569 68.2499L63.2605 69.2345L63.7673 68.942C63.7746 68.8833 63.7767 68.824 63.7735 68.7649Z" fill="#E0E0E0"/>
<path d="M63.2606 69.2345L61.5569 68.2519C61.5513 68.0921 61.6066 67.936 61.7114 67.8152C61.7573 67.7678 61.8124 67.7303 61.8734 67.7052C61.9343 67.68 61.9998 67.6677 62.0658 67.6689C62.1888 67.6717 62.3095 67.7035 62.418 67.7616C62.6526 67.8943 62.852 68.0811 62.9996 68.3065C63.1473 68.5319 63.2389 68.7894 63.2667 69.0574C63.2699 69.1165 63.2679 69.1758 63.2606 69.2345Z" fill="#F5F5F5"/>
<path d="M62.9907 34.608C62.988 34.5772 62.977 34.5477 62.9588 34.5227C62.9407 34.4977 62.9161 34.478 62.8877 34.4659C62.8117 34.4263 62.7272 34.4057 62.6415 34.4057C62.5558 34.4057 62.4714 34.4263 62.3954 34.4659C62.3672 34.4784 62.3428 34.4981 62.3248 34.5231C62.3067 34.548 62.2955 34.5773 62.2924 34.608V67.568C62.2955 67.5987 62.3067 67.6279 62.3248 67.6529C62.3428 67.6779 62.3672 67.6976 62.3954 67.7101C62.4714 67.7497 62.5558 67.7703 62.6415 67.7703C62.7272 67.7703 62.8117 67.7497 62.8877 67.7101C62.9161 67.698 62.9407 67.6783 62.9588 67.6533C62.977 67.6283 62.988 67.5988 62.9907 67.568V34.608Z" fill="#37474F"/>
<path d="M62.3954 34.4638C62.3658 34.474 62.3401 34.4932 62.322 34.5187C62.3038 34.5442 62.2941 34.5747 62.2941 34.606C62.2941 34.6372 62.3038 34.6677 62.322 34.6932C62.3401 34.7187 62.3658 34.7379 62.3954 34.7481C62.4717 34.7867 62.556 34.8067 62.6415 34.8067C62.727 34.8067 62.8114 34.7867 62.8877 34.7481C62.9173 34.7379 62.9429 34.7187 62.9611 34.6932C62.9792 34.6677 62.989 34.6372 62.989 34.606C62.989 34.5747 62.9792 34.5442 62.9611 34.5187C62.9429 34.4932 62.9173 34.474 62.8877 34.4638C62.8117 34.4243 62.7272 34.4036 62.6415 34.4036C62.5558 34.4036 62.4714 34.4243 62.3954 34.4638Z" fill="#455A64"/>
<path d="M62.8094 63.7323C62.7814 63.7191 62.7504 63.7137 62.7196 63.7166C62.6888 63.7195 62.6594 63.7306 62.6343 63.7488C62.5623 63.7957 62.5023 63.8589 62.4594 63.9334C62.4164 64.0078 62.3917 64.0914 62.3871 64.1772C62.384 64.2077 62.3891 64.2384 62.4017 64.2663C62.4144 64.2941 62.4342 64.3182 62.4592 64.3359L77.8495 73.2206C77.8773 73.2335 77.9081 73.2386 77.9386 73.2354C77.969 73.2321 77.9981 73.2206 78.0225 73.2021C78.0943 73.1554 78.154 73.0924 78.197 73.0184C78.2399 72.9443 78.2648 72.8612 78.2697 72.7757C78.273 72.7449 78.268 72.7138 78.2553 72.6856C78.2427 72.6574 78.2228 72.633 78.1976 72.615L62.8094 63.7323Z" fill="#455A64"/>
<path d="M78.0225 73.2021C77.998 73.2206 77.969 73.2321 77.9385 73.2354C77.9081 73.2386 77.8773 73.2335 77.8495 73.2206C77.8241 73.2027 77.8039 73.1784 77.7909 73.1502C77.7779 73.122 77.7725 73.0909 77.7753 73.06C77.7802 72.9745 77.8051 72.8913 77.848 72.8173C77.891 72.7432 77.9507 72.6802 78.0225 72.6335C78.0476 72.6156 78.0769 72.6045 78.1076 72.6013C78.1383 72.598 78.1693 72.6028 78.1976 72.615C78.2227 72.633 78.2426 72.6574 78.2553 72.6856C78.268 72.7138 78.2729 72.7449 78.2697 72.7757C78.2648 72.8612 78.2399 72.9443 78.197 73.0184C78.154 73.0924 78.0943 73.1554 78.0225 73.2021Z" fill="#455A64"/>
<path d="M62.8094 51.706C62.7811 51.6938 62.7501 51.689 62.7194 51.6923C62.6887 51.6955 62.6594 51.7066 62.6343 51.7245C62.5625 51.7712 62.5028 51.8342 62.4598 51.9083C62.4169 51.9823 62.392 52.0655 62.3871 52.151C62.3839 52.1817 62.3888 52.2128 62.4015 52.241C62.4141 52.2692 62.4341 52.2936 62.4592 52.3116L69.9432 56.6376C69.9712 56.6508 70.0022 56.6562 70.033 56.6533C70.0638 56.6504 70.0932 56.6393 70.1183 56.6212C70.1903 56.5742 70.2502 56.511 70.2932 56.4365C70.3362 56.3621 70.3609 56.2785 70.3655 56.1927C70.3686 56.1622 70.3635 56.1315 70.3509 56.1036C70.3382 56.0758 70.3184 56.0518 70.2934 56.0341L62.8094 51.706Z" fill="#455A64"/>
<path d="M70.1183 56.6047C70.0932 56.6228 70.0638 56.6339 70.033 56.6368C70.0022 56.6397 69.9712 56.6343 69.9432 56.6212C69.9179 56.6038 69.8978 56.5798 69.8851 56.5519C69.8724 56.5239 69.8676 56.4931 69.8711 56.4626C69.8756 56.3767 69.9004 56.2932 69.9434 56.2187C69.9863 56.1443 70.0463 56.081 70.1183 56.0341C70.1419 56.0132 70.1714 56.0002 70.2028 55.997C70.2341 55.9938 70.2657 56.0005 70.293 56.0162C70.3203 56.0319 70.342 56.0558 70.355 56.0845C70.368 56.1132 70.3717 56.1453 70.3655 56.1762C70.3609 56.2621 70.3362 56.3456 70.2932 56.4201C70.2503 56.4945 70.1903 56.5578 70.1183 56.6047Z" fill="#455A64"/>
<path d="M62.8094 57.68C62.7811 57.6678 62.7501 57.663 62.7194 57.6663C62.6887 57.6695 62.6594 57.6806 62.6343 57.6985C62.5625 57.7452 62.5028 57.8082 62.4598 57.8823C62.4169 57.9563 62.392 58.0395 62.3871 58.125C62.3841 58.1557 62.3891 58.1867 62.4018 58.2149C62.4144 58.2431 62.4342 58.2675 62.4592 58.2856L69.9432 62.6116C69.9712 62.6248 70.0022 62.6302 70.033 62.6273C70.0638 62.6244 70.0932 62.6133 70.1183 62.5952C70.1903 62.5482 70.2502 62.485 70.2932 62.4105C70.3361 62.3361 70.3609 62.2525 70.3655 62.1667C70.3685 62.1362 70.3635 62.1055 70.3508 62.0776C70.3382 62.0498 70.3183 62.0258 70.2934 62.0081L62.8094 57.68Z" fill="#455A64"/>
<path d="M70.1183 62.5766C70.0932 62.5948 70.0638 62.6059 70.033 62.6088C70.0022 62.6117 69.9712 62.6063 69.9432 62.5931C69.9179 62.5757 69.8978 62.5517 69.8851 62.5238C69.8724 62.4959 69.8676 62.465 69.8711 62.4345C69.8756 62.3486 69.9004 62.2651 69.9434 62.1906C69.9863 62.1162 70.0463 62.0529 70.1183 62.006C70.1419 61.9851 70.1714 61.9721 70.2028 61.9689C70.2341 61.9657 70.2657 61.9724 70.293 61.9882C70.3203 62.0039 70.342 62.0278 70.355 62.0565C70.368 62.0852 70.3717 62.1172 70.3655 62.1481C70.3609 62.234 70.3362 62.3175 70.2932 62.392C70.2503 62.4664 70.1903 62.5297 70.1183 62.5766Z" fill="#455A64"/>
<path d="M70.4149 50.3464C70.4118 50.3157 70.4006 50.2864 70.3825 50.2615C70.3644 50.2365 70.3401 50.2168 70.3119 50.2043C70.2359 50.1647 70.1515 50.1441 70.0658 50.1441C69.9801 50.1441 69.8956 50.1647 69.8196 50.2043C69.7914 50.2168 69.7671 50.2365 69.749 50.2615C69.7309 50.2864 69.7197 50.3157 69.7166 50.3464V68.186C69.7197 68.2167 69.7309 68.2459 69.749 68.2709C69.7671 68.2959 69.7914 68.3156 69.8196 68.3281C69.8959 68.3667 69.9802 68.3868 70.0658 68.3868C70.1513 68.3868 70.2356 68.3667 70.3119 68.3281C70.3401 68.3156 70.3644 68.2959 70.3825 68.2709C70.4006 68.2459 70.4118 68.2167 70.4149 68.186V50.3464Z" fill="#37474F"/>
<path d="M69.8196 50.2043C69.79 50.2145 69.7644 50.2337 69.7462 50.2591C69.7281 50.2846 69.7183 50.3151 69.7183 50.3464C69.7183 50.3777 69.7281 50.4082 69.7462 50.4337C69.7644 50.4591 69.79 50.4783 69.8196 50.4885C69.8959 50.5271 69.9802 50.5472 70.0657 50.5472C70.1513 50.5472 70.2356 50.5271 70.3119 50.4885C70.3415 50.4783 70.3671 50.4591 70.3853 50.4337C70.4034 50.4082 70.4132 50.3777 70.4132 50.3464C70.4132 50.3151 70.4034 50.2846 70.3853 50.2591C70.3671 50.2337 70.3415 50.2145 70.3119 50.2043C70.2359 50.1647 70.1514 50.1441 70.0657 50.1441C69.98 50.1441 69.8956 50.1647 69.8196 50.2043Z" fill="#455A64"/>
<path d="M62.8094 45.732C62.7814 45.7188 62.7504 45.7134 62.7196 45.7163C62.6888 45.7192 62.6594 45.7303 62.6343 45.7485C62.5623 45.7954 62.5023 45.8587 62.4594 45.9331C62.4164 46.0076 62.3917 46.0911 62.3871 46.177C62.384 46.2074 62.3891 46.2381 62.4017 46.266C62.4144 46.2939 62.4342 46.3179 62.4592 46.3356L77.8495 55.2204C77.8772 55.2331 77.9078 55.2383 77.9382 55.2354C77.9686 55.2325 77.9977 55.2217 78.0225 55.2039C78.0942 55.1566 78.1539 55.0933 78.1968 55.0189C78.2397 54.9445 78.2647 54.8611 78.2697 54.7754C78.273 54.7446 78.268 54.7136 78.2553 54.6853C78.2427 54.6571 78.2228 54.6327 78.1976 54.6147L62.8094 45.732Z" fill="#455A64"/>
<path d="M78.0225 55.208C77.9985 55.2279 77.9689 55.2399 77.9378 55.2424C77.9067 55.245 77.8755 55.2379 77.8486 55.2222C77.8216 55.2064 77.8001 55.1828 77.787 55.1545C77.7739 55.1262 77.7698 55.0945 77.7753 55.0638C77.7802 54.9783 77.8051 54.8952 77.848 54.8211C77.891 54.747 77.9507 54.6841 78.0225 54.6374C78.0476 54.6195 78.0769 54.6084 78.1076 54.6051C78.1383 54.6019 78.1693 54.6066 78.1976 54.6188C78.2227 54.6369 78.2427 54.6612 78.2553 54.6895C78.268 54.7177 78.273 54.7488 78.2697 54.7795C78.2647 54.8652 78.2397 54.9486 78.1968 55.023C78.1539 55.0974 78.0942 55.1607 78.0225 55.208Z" fill="#455A64"/>
<path d="M62.8094 37.9143C62.7812 37.9014 62.7501 37.8964 62.7193 37.8996C62.6885 37.9029 62.6592 37.9144 62.6343 37.9328C62.5625 37.9796 62.5028 38.0425 62.4598 38.1166C62.4169 38.1906 62.392 38.2738 62.3871 38.3593C62.3843 38.39 62.3894 38.4209 62.4021 38.4491C62.4147 38.4772 62.4344 38.5016 62.4592 38.52L77.8495 47.4047C77.8774 47.417 77.9081 47.4217 77.9385 47.4185C77.9688 47.4152 77.9978 47.4041 78.0225 47.3862C78.0951 47.3414 78.1562 47.2803 78.2009 47.2077C78.2457 47.1351 78.2727 47.053 78.28 46.968C78.2837 46.9372 78.2789 46.906 78.2662 46.8777C78.2535 46.8494 78.2334 46.8251 78.2079 46.8073L62.8094 37.9143Z" fill="#455A64"/>
<path d="M78.0225 47.38C77.9989 47.4009 77.9694 47.4139 77.938 47.4171C77.9066 47.4203 77.8751 47.4136 77.8478 47.3979C77.8204 47.3821 77.7987 47.3582 77.7857 47.3295C77.7727 47.3008 77.7691 47.2688 77.7753 47.2379C77.7802 47.1521 77.8051 47.0687 77.848 46.9943C77.8909 46.9199 77.9507 46.8565 78.0225 46.8094C78.0462 46.7882 78.076 46.775 78.1076 46.7718C78.1393 46.7686 78.1711 46.7755 78.1986 46.7915C78.226 46.8076 78.2477 46.8319 78.2605 46.861C78.2733 46.8901 78.2765 46.9225 78.2697 46.9536C78.2648 47.0391 78.2399 47.1222 78.197 47.1963C78.154 47.2704 78.0942 47.3333 78.0225 47.38Z" fill="#455A64"/>
<path d="M79.0628 77.662C79.035 77.4141 78.9493 77.1763 78.8126 76.9677C78.6759 76.759 78.492 76.5855 78.2759 76.461C78.1967 76.412 78.1054 76.386 78.0122 76.386C77.919 76.386 77.8277 76.412 77.7485 76.461L77.25 76.7268L78.3768 78.4139L78.8733 78.1132C78.944 78.0633 78.9993 77.9945 79.0328 77.9148C79.0663 77.835 79.0767 77.7474 79.0628 77.662Z" fill="#455A64"/>
<path d="M77.7547 76.7474C77.9714 76.8712 78.1557 77.0446 78.2925 77.2533C78.4292 77.4621 78.5146 77.7003 78.5416 77.9484C78.5684 78.4057 78.2573 78.6096 77.8495 78.4036C77.6328 78.2798 77.4485 78.1064 77.3117 77.8977C77.1749 77.6889 77.0895 77.4507 77.0625 77.2026C77.044 76.7453 77.3468 76.5414 77.7547 76.7474Z" fill="#37474F"/>
<path d="M77.5508 77.456C77.5508 77.2768 77.6455 77.1882 77.7835 77.25C77.8603 77.2986 77.9245 77.3646 77.971 77.4426C78.0175 77.5206 78.0451 77.6085 78.0513 77.6991C78.0616 77.8783 77.9586 77.9669 77.8206 77.9051C77.7438 77.8564 77.6794 77.7904 77.6326 77.7124C77.5858 77.6345 77.5577 77.5467 77.5508 77.456Z" fill="#263238"/>
<path d="M77.798 77.4952C77.8185 77.5073 77.8359 77.524 77.8488 77.544C77.8616 77.5641 77.8696 77.5868 77.8721 77.6105C77.8721 77.6558 77.8454 77.6744 77.8062 77.6538C77.7856 77.6421 77.7679 77.6258 77.7547 77.6061C77.7415 77.5865 77.733 77.564 77.73 77.5405C77.7279 77.4952 77.7588 77.4766 77.798 77.4952Z" fill="#263238"/>
<path d="M79.1617 77.6497C79.1346 77.3814 79.0434 77.1236 78.8957 76.8981C78.7479 76.6725 78.5481 76.4859 78.313 76.3539C78.2052 76.2958 78.0852 76.264 77.9627 76.2612C77.8672 76.2589 77.7731 76.2855 77.6929 76.3374C77.662 76.356 77.2624 76.5784 77.1861 76.6299C77.1546 76.6497 77.1255 76.6732 77.0996 76.7C76.995 76.8201 76.9398 76.9754 76.9451 77.1347L78.6487 78.1193L79.1555 77.8268C79.1638 77.7681 79.1659 77.7088 79.1617 77.6497Z" fill="#E0E0E0"/>
<path d="M78.6487 78.1193L76.9451 77.1367C76.9395 76.9768 76.9947 76.8208 77.0996 76.7C77.1455 76.6526 77.2006 76.6151 77.2615 76.59C77.3225 76.5648 77.388 76.5525 77.4539 76.5537C77.577 76.5563 77.6978 76.5881 77.8062 76.6464C78.0413 76.7784 78.2412 76.965 78.3889 77.1906C78.5367 77.4161 78.6279 77.6739 78.6549 77.9422C78.6592 78.0013 78.6571 78.0607 78.6487 78.1193Z" fill="#F5F5F5"/>
<path d="M78.3789 43.4907C78.3764 43.4602 78.3657 43.4308 78.3479 43.4058C78.3301 43.3808 78.306 43.361 78.2779 43.3486C78.2015 43.309 78.1168 43.2884 78.0307 43.2884C77.9447 43.2884 77.8599 43.309 77.7835 43.3486C77.7554 43.3611 77.731 43.3809 77.7129 43.4058C77.6949 43.4308 77.6837 43.4601 77.6805 43.4907V76.4507C77.6837 76.4814 77.6949 76.5107 77.7129 76.5356C77.731 76.5606 77.7554 76.5803 77.7835 76.5929C77.8599 76.6324 77.9447 76.6531 78.0307 76.6531C78.1168 76.6531 78.2015 76.6324 78.2779 76.5929C78.306 76.5804 78.3301 76.5606 78.3479 76.5356C78.3657 76.5106 78.3764 76.4813 78.3789 76.4507V43.4907Z" fill="#37474F"/>
<path d="M77.7835 43.3486C77.754 43.3588 77.7283 43.378 77.7102 43.4035C77.692 43.4289 77.6823 43.4594 77.6823 43.4907C77.6823 43.522 77.692 43.5525 77.7102 43.578C77.7283 43.6035 77.754 43.6227 77.7835 43.6329C77.8602 43.6715 77.9449 43.6916 78.0307 43.6916C78.1166 43.6916 78.2012 43.6715 78.2779 43.6329C78.3075 43.6227 78.3332 43.6035 78.3513 43.578C78.3695 43.5525 78.3792 43.522 78.3792 43.4907C78.3792 43.4594 78.3695 43.4289 78.3513 43.4035C78.3332 43.378 78.3075 43.3588 78.2779 43.3486C78.2015 43.309 78.1168 43.2884 78.0307 43.2884C77.9447 43.2884 77.8599 43.309 77.7835 43.3486Z" fill="#455A64"/>
<path d="M33.5986 80.373C33.5813 80.3985 33.5711 80.4281 33.5689 80.4589C33.5667 80.4896 33.5727 80.5204 33.5862 80.5481C33.62 80.627 33.6719 80.6969 33.7378 80.752C33.8037 80.8072 33.8816 80.846 33.9653 80.8653C33.9952 80.8736 34.0269 80.8738 34.0569 80.8658C34.087 80.8579 34.1144 80.842 34.1363 80.82L62.83 46.35C62.8473 46.3245 62.8575 46.2949 62.8597 46.2641C62.8619 46.2334 62.8559 46.2026 62.8424 46.1749C62.8079 46.0966 62.7558 46.0274 62.69 45.9727C62.6242 45.918 62.5466 45.8793 62.4633 45.8597C62.4335 45.8516 62.4021 45.8513 62.3721 45.8589C62.3422 45.8664 62.3147 45.8816 62.2923 45.903L33.5986 80.373Z" fill="#F0F0F0"/>
<path d="M62.2985 64.6078C62.3292 64.6066 62.3589 64.5971 62.3846 64.5805C62.4104 64.5638 62.4311 64.5405 62.4448 64.513C62.4869 64.4381 62.5109 64.3544 62.5149 64.2685C62.5188 64.1827 62.5025 64.0971 62.4674 64.0186C62.4558 63.9901 62.4369 63.9651 62.4127 63.9459C62.3886 63.9268 62.3599 63.9143 62.3294 63.9095L33.7098 62.624C33.6792 62.6253 33.6495 62.6347 33.6237 62.6514C33.598 62.668 33.5772 62.6913 33.5636 62.7188C33.5214 62.7937 33.4974 62.8774 33.4935 62.9633C33.4896 63.0492 33.5058 63.1347 33.5409 63.2132C33.5526 63.2417 33.5714 63.2668 33.5956 63.2859C33.6198 63.305 33.6485 63.3176 33.6789 63.3224L62.2985 64.6078Z" fill="#F0F0F0"/>
<path d="M77.6805 53.3355L62.9598 44.8359L34.1383 61.5219V62.5025L48.822 70.9732L77.6744 54.316L77.6805 53.3355Z" fill="#FF6F00"/>
<path opacity="0.3" d="M34.1383 61.5302V62.5087L48.8282 70.9732V69.9947L34.1383 61.5302Z" fill="black"/>
<path opacity="0.3" d="M48.8282 69.9947L77.6805 53.3355L62.9598 44.838L34.1383 61.5302L48.8282 69.9947Z" fill="white"/>
<path d="M48.9868 89.2578C48.9695 89.2833 48.9593 89.3129 48.9571 89.3436C48.9549 89.3744 48.9609 89.4052 48.9744 89.4329C49.0085 89.5116 49.0605 89.5814 49.1263 89.6365C49.1921 89.6915 49.2699 89.7305 49.3535 89.7501C49.3834 89.7584 49.4151 89.7586 49.4451 89.7506C49.4752 89.7427 49.5026 89.7268 49.5245 89.7048L78.2182 55.2369C78.2355 55.2113 78.2457 55.1817 78.2479 55.151C78.2501 55.1202 78.2441 55.0894 78.2306 55.0618C78.1964 54.9833 78.1443 54.9139 78.0785 54.8591C78.0127 54.8044 77.9349 54.7659 77.8515 54.7466C77.8218 54.7378 77.7902 54.7372 77.7601 54.7448C77.73 54.7524 77.7025 54.768 77.6805 54.7898L48.9868 89.2578Z" fill="#F0F0F0"/>
<path d="M77.6867 73.4926C77.7176 73.4911 77.7475 73.4815 77.7735 73.4649C77.7995 73.4483 77.8207 73.4252 77.8351 73.3978C77.8773 73.3229 77.9013 73.239 77.9048 73.1531C77.9084 73.0671 77.8916 72.9816 77.8557 72.9034C77.8442 72.8748 77.8254 72.8496 77.8012 72.8305C77.777 72.8113 77.7482 72.7988 77.7176 72.7942L49.098 71.5088C49.0675 71.5102 49.0378 71.5198 49.0121 71.5364C48.9864 71.5531 48.9656 71.5762 48.9518 71.6035C48.9096 71.6785 48.8856 71.7622 48.8817 71.8481C48.8778 71.9339 48.894 72.0195 48.9291 72.0979C48.9408 72.1265 48.9596 72.1515 48.9838 72.1706C49.008 72.1898 49.0367 72.2023 49.0672 72.2071L77.6867 73.4926Z" fill="#F0F0F0"/>
<path d="M33.6068 54.5715C33.5817 54.5895 33.5618 54.6139 33.5491 54.6421C33.5365 54.6703 33.5315 54.7014 33.5347 54.7321C33.5398 54.8179 33.5647 54.9012 33.6077 54.9756C33.6506 55.05 33.7102 55.1133 33.7819 55.1606C33.8072 55.1784 33.8366 55.1892 33.8673 55.1921C33.898 55.195 33.9289 55.1898 33.957 55.1771L62.6425 38.6229C62.6675 38.6052 62.6873 38.5812 62.7 38.5534C62.7127 38.5255 62.7177 38.4948 62.7146 38.4643C62.7098 38.3786 62.6849 38.2951 62.6419 38.2207C62.599 38.1463 62.5392 38.083 62.4674 38.0358C62.4424 38.0177 62.4129 38.0066 62.3821 38.0037C62.3513 38.0008 62.3203 38.0062 62.2923 38.0194L33.6068 54.5715Z" fill="#455A64"/>
<path d="M33.784 55.1606C33.8077 55.1818 33.8375 55.195 33.8691 55.1982C33.9008 55.2014 33.9326 55.1945 33.9601 55.1785C33.9875 55.1625 34.0092 55.1381 34.022 55.109C34.0348 55.0799 34.038 55.0475 34.0312 55.0164C34.0263 54.931 34.0014 54.8478 33.9585 54.7737C33.9155 54.6997 33.8558 54.6367 33.784 54.59C33.7589 54.5721 33.7296 54.561 33.6989 54.5578C33.6682 54.5545 33.6372 54.5592 33.6089 54.5715C33.5838 54.5895 33.5638 54.6139 33.5512 54.6421C33.5385 54.6703 33.5335 54.7014 33.5368 54.7322C33.5418 54.8179 33.5668 54.9012 33.6097 54.9756C33.6526 55.05 33.7123 55.1134 33.784 55.1606Z" fill="#455A64"/>
<path opacity="0.1" d="M62.8959 56.9508C65.0974 56.9508 66.882 55.9206 66.882 54.6497C66.882 53.3789 65.0974 52.3487 62.8959 52.3487C60.6945 52.3487 58.9098 53.3789 58.9098 54.6497C58.9098 55.9206 60.6945 56.9508 62.8959 56.9508Z" fill="black"/>
<path d="M66.299 48.9312L59.639 48.8405L59.5814 54.281C59.5814 54.7733 59.8965 55.2698 60.5413 55.6509C61.835 56.4172 63.9424 56.4399 65.2525 55.7024C65.9117 55.3295 66.2413 54.8372 66.2413 54.3407L66.299 48.9312Z" fill="#37474F"/>
<path d="M60.6299 47.4933C59.3218 48.2308 59.3094 49.4482 60.6011 50.2125C61.8927 50.9768 64.0021 51.0015 65.3102 50.264C66.6183 49.5265 66.6327 48.3091 65.3391 47.5448C64.0454 46.7805 61.938 46.762 60.6299 47.4933Z" fill="#455A64"/>
<path d="M66.0127 48.9106C66.0108 48.9997 65.9948 49.088 65.9653 49.1722C65.8132 49.5416 65.529 49.8412 65.1681 50.0127C64.4781 50.3484 63.7194 50.5189 62.9521 50.5106C62.1848 50.5024 61.43 50.3157 60.7473 49.9653C60.3968 49.7883 60.1228 49.4894 59.9769 49.1248C59.945 49.0349 59.929 48.9401 59.9295 48.8447C59.9295 48.4327 60.2323 48.0474 60.7741 47.7467C61.4559 47.3914 62.2182 47.2189 62.9866 47.2461C63.7572 47.2365 64.5175 47.4245 65.1949 47.792C65.7264 48.1092 66.0168 48.5048 66.0127 48.9106Z" fill="#263238"/>
<path d="M65.9653 49.1722C65.8132 49.5417 65.529 49.8412 65.1681 50.0127C64.4781 50.3484 63.7194 50.5189 62.9521 50.5107C62.1848 50.5024 61.43 50.3157 60.7473 49.9653C60.3968 49.7883 60.1228 49.4895 59.9769 49.1248C60.1271 48.756 60.4101 48.4569 60.77 48.2864C61.4539 47.9335 62.2175 47.7632 62.9866 47.792C63.7575 47.7845 64.5175 47.9739 65.1949 48.342C65.5427 48.5177 65.816 48.8123 65.9653 49.1722Z" fill="#FF6F00"/>
<path opacity="0.6" d="M65.9653 49.1722C65.8132 49.5417 65.529 49.8412 65.1681 50.0127C64.4781 50.3484 63.7194 50.5189 62.9521 50.5107C62.1848 50.5024 61.43 50.3157 60.7473 49.9653C60.3968 49.7883 60.1228 49.4895 59.9769 49.1248C60.1271 48.756 60.4101 48.4569 60.77 48.2864C61.4539 47.9335 62.2175 47.7632 62.9866 47.792C63.7575 47.7845 64.5175 47.9739 65.1949 48.342C65.5427 48.5177 65.816 48.8123 65.9653 49.1722Z" fill="white"/>
<path opacity="0.35" d="M65.1681 50.0127C65.2735 49.9508 65.3747 49.882 65.4709 49.8067C64.2555 50.4576 62.1749 50.1589 61.5137 49.6707C60.6897 49.0713 60.7741 48.2843 61.833 47.8929C61.4607 47.9694 61.1023 48.1021 60.77 48.2864C60.4085 48.456 60.124 48.7553 59.9728 49.1248C60.1187 49.4894 60.3926 49.7883 60.7432 49.9653C61.4259 50.3157 62.1807 50.5024 62.948 50.5107C63.7153 50.5189 64.474 50.3484 65.164 50.0127H65.1681Z" fill="#FF6F00"/>
<path d="M64.3894 50.9706C64.5357 50.8882 64.651 50.9562 64.649 51.1251C64.6433 51.2161 64.6161 51.3046 64.5695 51.383C64.523 51.4615 64.4584 51.5277 64.3812 51.5762C64.237 51.6586 64.1195 51.5907 64.1216 51.4217C64.1277 51.3308 64.1552 51.2426 64.2017 51.1642C64.2482 51.0858 64.3125 51.0195 64.3894 50.9706Z" fill="#263238"/>
<path d="M59.6287 49.7984C59.2621 50.5194 58.5328 52.2375 59.4804 52.9358C59.5196 52.9647 59.5546 52.9914 59.5958 53.0162V53.3643C59.501 53.3066 59.4042 53.2407 59.3095 53.1727C57.8963 52.1242 59.4907 49.4359 59.5587 49.3226C59.5771 49.2933 59.6057 49.272 59.6391 49.2628L59.6287 49.7984Z" fill="#E0E0E0"/>
<path d="M64.513 51.3414C64.4739 51.4258 63.4439 53.4014 61.7506 53.7887C61.5595 53.8336 61.3639 53.8564 61.1676 53.8566C60.606 53.8463 60.0592 53.6755 59.5917 53.3643V53.0162C60.29 53.5023 60.9945 53.6692 61.6826 53.5085C63.2441 53.1418 64.2432 51.226 64.2514 51.2075C64.2694 51.1735 64.3 51.1481 64.3366 51.1365C64.3732 51.1249 64.4129 51.1282 64.4471 51.1457C64.4646 51.1538 64.4803 51.1654 64.4933 51.1798C64.5062 51.1942 64.516 51.211 64.5222 51.2293C64.5284 51.2477 64.5307 51.267 64.5291 51.2863C64.5276 51.3056 64.5221 51.3243 64.513 51.3414Z" fill="#E0E0E0"/>
<path d="M34.814 85.4282C34.787 85.1801 34.7016 84.9419 34.5648 84.7332C34.4281 84.5244 34.2438 84.351 34.0271 84.2272C33.9479 84.1782 33.8566 84.1522 33.7634 84.1522C33.6702 84.1522 33.5789 84.1782 33.4997 84.2272L32.9971 84.5074L34.1239 86.1966L34.6224 85.8958C34.6968 85.8453 34.7546 85.7741 34.7887 85.6909C34.8227 85.6077 34.8316 85.5164 34.814 85.4282Z" fill="#455A64"/>
<path d="M33.5141 84.5218C33.7303 84.6463 33.9142 84.8198 34.0509 85.0284C34.1875 85.2371 34.2733 85.4749 34.3011 85.7228C34.3258 86.1801 34.0147 86.382 33.6068 86.176C33.3901 86.0522 33.2059 85.8788 33.0691 85.6701C32.9323 85.4613 32.8469 85.2231 32.8199 84.975C32.7931 84.5177 33.1042 84.3158 33.5141 84.5218Z" fill="#37474F"/>
<path d="M33.3102 85.2222C33.3102 85.043 33.4029 84.9544 33.5409 85.0162C33.6182 85.0649 33.6829 85.1311 33.7298 85.2095C33.7767 85.2879 33.8044 85.3762 33.8108 85.4674C33.8211 85.6466 33.716 85.7331 33.578 85.6734C33.501 85.6246 33.4366 85.5583 33.3901 85.4799C33.3435 85.4015 33.3162 85.3132 33.3102 85.2222Z" fill="#263238"/>
<path d="M33.5553 85.2696C33.576 85.2817 33.5937 85.2984 33.6069 85.3184C33.6201 85.3384 33.6285 85.3612 33.6316 85.3849C33.6316 85.4282 33.6027 85.4488 33.5636 85.4282C33.5431 85.4161 33.5257 85.3994 33.5128 85.3793C33.4999 85.3593 33.4919 85.3365 33.4894 85.3128C33.4874 85.2696 33.5162 85.249 33.5553 85.2696Z" fill="#263238"/>
<path d="M34.9191 85.422C34.8917 85.1539 34.8003 84.8962 34.6526 84.6707C34.5049 84.4452 34.3052 84.2585 34.0703 84.1263C33.9626 84.0681 33.8426 84.0364 33.7201 84.0336C33.6247 84.0327 33.5311 84.0591 33.4503 84.1098C33.4194 84.1304 33.0218 84.3529 32.9435 84.4023C32.9122 84.4224 32.8838 84.4467 32.8591 84.4744C32.7534 84.594 32.698 84.7497 32.7046 84.9091L34.402 85.902L34.9088 85.6074C34.9179 85.5461 34.9214 85.484 34.9191 85.422Z" fill="#E0E0E0"/>
<path d="M34.402 85.902L32.6984 84.9173C32.6941 84.7579 32.75 84.6027 32.8549 84.4827C32.9002 84.4344 32.9552 84.3962 33.0162 84.3706C33.0773 84.3451 33.1431 84.3327 33.2093 84.3343C33.332 84.337 33.4522 84.3695 33.5595 84.4291C33.7946 84.5611 33.9945 84.7477 34.1422 84.9732C34.2899 85.1988 34.3812 85.4566 34.4082 85.7248C34.4124 85.7839 34.4103 85.8433 34.402 85.902Z" fill="#F5F5F5"/>
<path d="M34.1383 51.2634C34.1352 51.2327 34.124 51.2034 34.1059 51.1784C34.0879 51.1535 34.0635 51.1337 34.0353 51.1212C33.9587 51.0826 33.874 51.0625 33.7881 51.0625C33.7023 51.0625 33.6176 51.0826 33.5409 51.1212C33.5129 51.1337 33.4888 51.1534 33.471 51.1784C33.4532 51.2035 33.4425 51.2328 33.44 51.2634V84.2234C33.4425 84.2539 33.4532 84.2832 33.471 84.3083C33.4888 84.3333 33.5129 84.353 33.5409 84.3655C33.6176 84.4041 33.7023 84.4242 33.7881 84.4242C33.874 84.4242 33.9587 84.4041 34.0353 84.3655C34.0635 84.353 34.0879 84.3332 34.1059 84.3083C34.124 84.2833 34.1352 84.254 34.1383 84.2234V51.2634Z" fill="#37474F"/>
<path d="M33.5409 51.1212C33.5114 51.1314 33.4857 51.1506 33.4675 51.1761C33.4494 51.2016 33.4396 51.2321 33.4396 51.2634C33.4396 51.2946 33.4494 51.3251 33.4675 51.3506C33.4857 51.3761 33.5114 51.3953 33.5409 51.4055C33.6173 51.445 33.7021 51.4657 33.7881 51.4657C33.8742 51.4657 33.9589 51.445 34.0353 51.4055C34.0649 51.3953 34.0905 51.3761 34.1087 51.3506C34.1269 51.3251 34.1366 51.2946 34.1366 51.2634C34.1366 51.2321 34.1269 51.2016 34.1087 51.1761C34.0905 51.1506 34.0649 51.1314 34.0353 51.1212C33.9586 51.0826 33.874 51.0625 33.7881 51.0625C33.7023 51.0625 33.6176 51.0826 33.5409 51.1212Z" fill="#455A64"/>
<path d="M33.957 80.3895C33.9289 80.3767 33.898 80.3715 33.8673 80.3744C33.8366 80.3773 33.8072 80.3882 33.7819 80.4059C33.7102 80.4532 33.6506 80.5166 33.6077 80.5909C33.5647 80.6653 33.5398 80.7487 33.5347 80.8344C33.5315 80.8652 33.5365 80.8963 33.5491 80.9245C33.5618 80.9527 33.5817 80.9771 33.6068 80.9951L48.995 89.8778C49.023 89.891 49.054 89.8964 49.0848 89.8935C49.1156 89.8906 49.1451 89.8795 49.1701 89.8613C49.2422 89.8144 49.3021 89.7512 49.3451 89.6767C49.388 89.6022 49.4128 89.5187 49.4173 89.4329C49.4204 89.4024 49.4154 89.3717 49.4027 89.3438C49.39 89.3159 49.3702 89.2919 49.3452 89.2742L33.957 80.3895Z" fill="#455A64"/>
<path d="M49.1701 89.8613C49.1465 89.8822 49.117 89.8952 49.0856 89.8984C49.0543 89.9016 49.0227 89.8949 48.9954 89.8792C48.9681 89.8635 48.9464 89.8396 48.9334 89.8108C48.9204 89.7821 48.9167 89.7501 48.9229 89.7192C48.9275 89.6333 48.9523 89.5498 48.9952 89.4753C49.0382 89.4009 49.0981 89.3376 49.1701 89.2907C49.1937 89.2698 49.2233 89.2568 49.2546 89.2536C49.286 89.2504 49.3175 89.2571 49.3449 89.2729C49.3722 89.2886 49.3939 89.3125 49.4069 89.3412C49.4199 89.3699 49.4235 89.4019 49.4173 89.4328C49.4128 89.5187 49.388 89.6022 49.345 89.6767C49.3021 89.7511 49.2422 89.8144 49.1701 89.8613Z" fill="#455A64"/>
<path d="M33.957 68.359C33.929 68.3459 33.898 68.3405 33.8672 68.3434C33.8364 68.3463 33.807 68.3574 33.7819 68.3755C33.7102 68.4228 33.6506 68.4862 33.6077 68.5605C33.5647 68.6349 33.5398 68.7183 33.5347 68.804C33.5315 68.8348 33.5365 68.8658 33.5491 68.8941C33.5618 68.9223 33.5817 68.9467 33.6068 68.9647L41.0908 73.2907C41.1189 73.3034 41.1498 73.3086 41.1806 73.3057C41.2113 73.3028 41.2407 73.292 41.2659 73.2742C41.3373 73.2268 41.3967 73.1634 41.4393 73.089C41.4818 73.0146 41.5064 72.9313 41.5111 72.8457C41.5143 72.815 41.5093 72.7839 41.4967 72.7557C41.484 72.7274 41.4641 72.7031 41.439 72.685L33.957 68.359Z" fill="#455A64"/>
<path d="M41.2659 73.2639C41.2407 73.2817 41.2113 73.2925 41.1806 73.2954C41.1499 73.2983 41.1189 73.2931 41.0908 73.2804C41.0655 73.2625 41.0455 73.2382 41.0328 73.2099C41.0201 73.1816 41.0153 73.1505 41.0187 73.1197C41.0231 73.0341 41.0478 72.9508 41.0908 72.8766C41.1338 72.8025 41.1938 72.7396 41.2659 72.6933C41.2892 72.6718 41.3188 72.6584 41.3502 72.6549C41.3817 72.6514 41.4135 72.6581 41.4409 72.674C41.4683 72.6899 41.4899 72.7141 41.5025 72.7432C41.5151 72.7722 41.5181 72.8046 41.5111 72.8354C41.5064 72.921 41.4818 73.0043 41.4393 73.0787C41.3967 73.1531 41.3373 73.2165 41.2659 73.2639Z" fill="#455A64"/>
<path d="M33.957 74.331C33.929 74.3178 33.898 74.3124 33.8672 74.3153C33.8364 74.3182 33.807 74.3293 33.7819 74.3475C33.7099 74.3944 33.65 74.4577 33.607 74.5321C33.5641 74.6066 33.5393 74.6901 33.5347 74.776C33.5312 74.8065 33.5361 74.8373 33.5488 74.8653C33.5615 74.8932 33.5815 74.9172 33.6068 74.9346L41.0908 79.2606C41.1191 79.2728 41.1501 79.2775 41.1808 79.2743C41.2115 79.271 41.2408 79.2599 41.2659 79.242C41.3374 79.1952 41.3969 79.1322 41.4394 79.0581C41.482 78.984 41.5066 78.901 41.5111 78.8156C41.5143 78.7849 41.5093 78.7538 41.4967 78.7256C41.484 78.6973 41.4641 78.673 41.439 78.6549L33.957 74.331Z" fill="#455A64"/>
<path d="M41.2659 79.2338C41.2408 79.2517 41.2115 79.2628 41.1808 79.266C41.1501 79.2693 41.1191 79.2646 41.0908 79.2523C41.0657 79.2343 41.0458 79.2099 41.0331 79.1817C41.0204 79.1535 41.0155 79.1224 41.0187 79.0916C41.0231 79.006 41.0478 78.9227 41.0908 78.8486C41.1338 78.7744 41.1938 78.7116 41.2659 78.6652C41.2904 78.6467 41.3194 78.6352 41.3499 78.6319C41.3804 78.6287 41.4112 78.6338 41.439 78.6467C41.4641 78.6647 41.484 78.6891 41.4967 78.7173C41.5094 78.7455 41.5143 78.7766 41.5111 78.8074C41.5066 78.8927 41.4821 78.9758 41.4395 79.0499C41.3969 79.1239 41.3374 79.187 41.2659 79.2338Z" fill="#455A64"/>
<path d="M41.5626 67.0036C41.5594 66.9729 41.5483 66.9436 41.5302 66.9186C41.5121 66.8937 41.4877 66.8739 41.4596 66.8614C41.3829 66.8228 41.2982 66.8027 41.2124 66.8027C41.1265 66.8027 41.0419 66.8228 40.9652 66.8614C40.9371 66.8739 40.913 66.8936 40.8952 66.9187C40.8775 66.9437 40.8668 66.973 40.8642 67.0036V84.8493C40.8668 84.8799 40.8775 84.9092 40.8952 84.9342C40.913 84.9592 40.9371 84.979 40.9652 84.9915C41.0419 85.0301 41.1265 85.0502 41.2124 85.0502C41.2982 85.0502 41.3829 85.0301 41.4596 84.9915C41.4877 84.9789 41.5121 84.9592 41.5302 84.9342C41.5483 84.9093 41.5594 84.88 41.5626 84.8493V67.0036Z" fill="#37474F"/>
<path d="M40.9652 66.8614C40.9371 66.8739 40.913 66.8936 40.8952 66.9187C40.8775 66.9437 40.8668 66.973 40.8642 67.0036C40.867 67.0343 40.8778 67.0638 40.8955 67.0891C40.9132 67.1144 40.9372 67.1346 40.9652 67.1478C41.0419 67.1863 41.1265 67.2064 41.2124 67.2064C41.2982 67.2064 41.3829 67.1863 41.4596 67.1478C41.4878 67.1347 41.5121 67.1146 41.5301 67.0893C41.5482 67.064 41.5594 67.0345 41.5626 67.0036C41.5594 66.9729 41.5483 66.9436 41.5302 66.9186C41.5121 66.8937 41.4877 66.8739 41.4596 66.8614C41.3829 66.8228 41.2982 66.8027 41.2124 66.8027C41.1265 66.8027 41.0419 66.8228 40.9652 66.8614Z" fill="#455A64"/>
<path d="M33.957 62.3871C33.9289 62.3743 33.8978 62.3692 33.867 62.3725C33.8362 62.3757 33.8068 62.3872 33.7819 62.4057C33.7102 62.4524 33.6504 62.5153 33.6075 62.5894C33.5645 62.6635 33.5396 62.7466 33.5347 62.8321C33.5315 62.8628 33.5365 62.8939 33.5491 62.9221C33.5618 62.9504 33.5817 62.9747 33.6068 62.9928L48.995 71.8755C49.023 71.8886 49.054 71.894 49.0848 71.8911C49.1156 71.8882 49.1451 71.8771 49.1701 71.859C49.2419 71.8123 49.3017 71.7493 49.3446 71.6753C49.3875 71.6012 49.4125 71.5181 49.4173 71.4326C49.4206 71.4018 49.4156 71.3707 49.403 71.3425C49.3903 71.3143 49.3704 71.2899 49.3452 71.2719L33.957 62.3871Z" fill="#455A64"/>
<path d="M49.1701 71.859C49.1465 71.8799 49.117 71.8929 49.0856 71.8961C49.0543 71.8993 49.0227 71.8925 48.9954 71.8768C48.9681 71.8611 48.9464 71.8372 48.9334 71.8085C48.9204 71.7798 48.9167 71.7477 48.9229 71.7169C48.9278 71.6311 48.9527 71.5477 48.9956 71.4733C49.0386 71.3988 49.0983 71.3355 49.1701 71.2884C49.1952 71.2702 49.2246 71.2591 49.2554 71.2562C49.2862 71.2533 49.3172 71.2587 49.3452 71.2719C49.3704 71.2899 49.3903 71.3143 49.403 71.3425C49.4156 71.3707 49.4206 71.4018 49.4173 71.4326C49.4125 71.5181 49.3875 71.6012 49.3446 71.6753C49.3017 71.7493 49.2419 71.8123 49.1701 71.859Z" fill="#455A64"/>
<path d="M33.957 54.5735C33.929 54.5604 33.898 54.555 33.8672 54.5579C33.8364 54.5608 33.807 54.5719 33.7819 54.59C33.7099 54.6369 33.65 54.7002 33.607 54.7746C33.5641 54.8491 33.5393 54.9326 33.5347 55.0185C33.5312 55.049 33.5361 55.0799 33.5488 55.1078C33.5615 55.1358 33.5815 55.1597 33.6068 55.1771L48.995 64.066C49.023 64.0792 49.054 64.0846 49.0848 64.0817C49.1156 64.0788 49.1451 64.0677 49.1701 64.0495C49.2418 64.0023 49.3015 63.9389 49.3444 63.8645C49.3873 63.7901 49.4123 63.7068 49.4173 63.621C49.4202 63.5903 49.415 63.5594 49.4024 63.5312C49.3898 63.5031 49.3701 63.4787 49.3452 63.4604L33.957 54.5735Z" fill="#455A64"/>
<path d="M49.1701 64.0454C49.1451 64.0635 49.1156 64.0746 49.0848 64.0775C49.054 64.0804 49.023 64.075 48.995 64.0619C48.9699 64.0439 48.95 64.0195 48.9373 63.9913C48.9246 63.963 48.9197 63.932 48.9229 63.9012C48.9278 63.8157 48.9527 63.7326 48.9957 63.6585C49.0386 63.5844 49.0984 63.5215 49.1701 63.4748C49.1937 63.4539 49.2233 63.4409 49.2546 63.4377C49.286 63.4345 49.3175 63.4412 49.3449 63.4569C49.3722 63.4726 49.3939 63.4965 49.4069 63.5253C49.4199 63.554 49.4235 63.586 49.4173 63.6169C49.4123 63.7026 49.3873 63.786 49.3444 63.8604C49.3015 63.9348 49.2418 63.9981 49.1701 64.0454Z" fill="#455A64"/>
<path d="M48.995 63.448C48.9702 63.4663 48.9505 63.4907 48.9379 63.5189C48.9253 63.547 48.9201 63.578 48.9229 63.6087C48.928 63.6944 48.9529 63.7778 48.9959 63.8522C49.0388 63.9265 49.0984 63.9899 49.1701 64.0372C49.1952 64.0553 49.2246 64.0664 49.2554 64.0693C49.2862 64.0722 49.3172 64.0668 49.3452 64.0537L78.0307 47.5016C78.0559 47.4835 78.0758 47.4592 78.0885 47.4309C78.1011 47.4027 78.1061 47.3716 78.1028 47.3409C78.0978 47.2551 78.0728 47.1718 78.0299 47.0974C77.987 47.023 77.9273 46.9597 77.8556 46.9124C77.8306 46.8942 77.8011 46.8831 77.7703 46.8802C77.7395 46.8773 77.7085 46.8828 77.6805 46.8959L48.995 63.448Z" fill="#455A64"/>
<path d="M49.1701 64.0454C49.1952 64.0635 49.2246 64.0746 49.2554 64.0775C49.2862 64.0804 49.3172 64.075 49.3452 64.0619C49.3704 64.0439 49.3903 64.0195 49.403 63.9913C49.4156 63.963 49.4206 63.932 49.4173 63.9012C49.4125 63.8157 49.3875 63.7326 49.3446 63.6585C49.3017 63.5844 49.2419 63.5215 49.1701 63.4748C49.1465 63.4539 49.117 63.4409 49.0856 63.4377C49.0543 63.4345 49.0227 63.4412 48.9954 63.4569C48.9681 63.4726 48.9464 63.4965 48.9334 63.5253C48.9204 63.554 48.9167 63.586 48.9229 63.6169C48.928 63.7026 48.9529 63.786 48.9959 63.8604C49.0388 63.9348 49.0984 63.9981 49.1701 64.0454Z" fill="#455A64"/>
<path d="M50.2104 94.313C50.1826 94.0651 50.0969 93.8273 49.9602 93.6186C49.8235 93.41 49.6397 93.2365 49.4235 93.112C49.3443 93.0629 49.253 93.0369 49.1598 93.0369C49.0667 93.0369 48.9754 93.0629 48.8962 93.112L48.3935 93.3922L49.5203 95.0814L50.0168 94.7785C50.0908 94.7281 50.1485 94.6572 50.1828 94.5745C50.2172 94.4919 50.2268 94.401 50.2104 94.313Z" fill="#455A64"/>
<path d="M48.9023 93.4066C49.1185 93.531 49.3023 93.7046 49.439 93.9132C49.5757 94.1218 49.6615 94.3597 49.6893 94.6076C49.714 95.0649 49.405 95.2668 48.995 95.0608C48.7789 94.9363 48.595 94.7628 48.4583 94.5541C48.3216 94.3455 48.2359 94.1076 48.2081 93.8598C48.1834 93.4025 48.4924 93.1985 48.9023 93.4066Z" fill="#37474F"/>
<path d="M48.6984 94.107C48.6881 93.9278 48.7932 93.8392 48.9312 93.901C49.0078 93.9501 49.072 94.0165 49.1185 94.0949C49.165 94.1732 49.1925 94.2613 49.199 94.3521C49.199 94.5313 49.1063 94.6179 48.9662 94.5478C48.8904 94.5002 48.8267 94.4355 48.7803 94.359C48.7338 94.2825 48.7058 94.1962 48.6984 94.107Z" fill="#263238"/>
<path d="M48.9435 94.1544C48.9645 94.1661 48.9824 94.1827 48.9957 94.2028C49.0089 94.2228 49.0172 94.2458 49.0197 94.2697C49.0197 94.313 48.993 94.3336 48.9538 94.313C48.933 94.301 48.9153 94.2843 48.9021 94.2643C48.8889 94.2443 48.8805 94.2214 48.8776 94.1976C48.8755 94.1544 48.9044 94.142 48.9435 94.1544Z" fill="#263238"/>
<path d="M50.3093 94.3068C50.2811 94.0389 50.1894 93.7816 50.0418 93.5562C49.8942 93.3308 49.695 93.144 49.4606 93.0111C49.3521 92.9529 49.2314 92.9211 49.1084 92.9184C49.013 92.9174 48.9193 92.9439 48.8385 92.9946C48.8076 93.0152 48.41 93.2377 48.3338 93.2871C48.3022 93.3076 48.2731 93.3318 48.2473 93.3592C48.1416 93.4787 48.0862 93.6345 48.0928 93.7939L49.7964 94.7785L50.3032 94.484C50.3105 94.4252 50.3126 94.3659 50.3093 94.3068Z" fill="#E0E0E0"/>
<path d="M49.7964 94.7785L48.0928 93.7939C48.0862 93.6345 48.1416 93.4787 48.2473 93.3592C48.2927 93.3111 48.3477 93.2731 48.4087 93.2475C48.4698 93.222 48.5354 93.2095 48.6016 93.2109C48.725 93.2134 48.8459 93.2459 48.9539 93.3056C49.1881 93.4381 49.3874 93.6246 49.535 93.8496C49.6827 94.0746 49.7744 94.3317 49.8026 94.5993C49.8058 94.6591 49.8037 94.7191 49.7964 94.7785Z" fill="#F5F5F5"/>
<path d="M49.5265 60.152C49.524 60.1214 49.5133 60.0921 49.4955 60.0671C49.4778 60.0421 49.4536 60.0223 49.4256 60.0099C49.3489 59.9713 49.2642 59.9512 49.1784 59.9512C49.0925 59.9512 49.0079 59.9713 48.9312 60.0099C48.903 60.0224 48.8787 60.0421 48.8606 60.0671C48.8425 60.092 48.8313 60.1213 48.8282 60.152V93.112C48.8313 93.1427 48.8425 93.1719 48.8606 93.1969C48.8787 93.2219 48.903 93.2416 48.9312 93.2541C49.0079 93.2927 49.0925 93.3128 49.1784 93.3128C49.2642 93.3128 49.3489 93.2927 49.4256 93.2541C49.4536 93.2417 49.4778 93.2219 49.4955 93.1969C49.5133 93.1719 49.524 93.1426 49.5265 93.112V60.152Z" fill="#37474F"/>
<path d="M48.9312 60.0057C48.9016 60.016 48.876 60.0351 48.8578 60.0606C48.8396 60.0861 48.8299 60.1166 48.8299 60.1479C48.8299 60.1792 48.8396 60.2097 48.8578 60.2351C48.876 60.2606 48.9016 60.2798 48.9312 60.29C49.0076 60.3296 49.0923 60.3502 49.1784 60.3502C49.2644 60.3502 49.3492 60.3296 49.4256 60.29C49.4551 60.2798 49.4808 60.2606 49.499 60.2351C49.5171 60.2097 49.5269 60.1792 49.5269 60.1479C49.5269 60.1166 49.5171 60.0861 49.499 60.0606C49.4808 60.0351 49.4551 60.016 49.4256 60.0057C49.3489 59.9672 49.2642 59.9471 49.1784 59.9471C49.0925 59.9471 49.0079 59.9672 48.9312 60.0057Z" fill="#455A64"/>
</svg>
